<svg width="700" height="200" viewBox="0 0 700 200" fill="none" xmlns="http://www.w3.org/2000/svg">
<rect width="700" height="200" fill="#272722"/>
<path d="M231.609 43.2715C231.609 45.3958 231.127 47.0928 230.162 48.3623C229.197 49.6234 227.902 50.2539 226.277 50.2539C224.771 50.2539 223.565 49.7588 222.659 48.7686V55.2812H219.574V36.2637H222.418L222.545 37.6602C223.451 36.5599 224.682 36.0098 226.239 36.0098C227.915 36.0098 229.227 36.6361 230.175 37.8887C231.131 39.1328 231.609 40.8636 231.609 43.0811V43.2715ZM228.537 43.0049C228.537 41.6338 228.262 40.5462 227.712 39.7422C227.17 38.9382 226.392 38.5361 225.376 38.5361C224.115 38.5361 223.209 39.0566 222.659 40.0977V46.1914C223.218 47.2578 224.132 47.791 225.401 47.791C226.383 47.791 227.149 47.3975 227.699 46.6104C228.258 45.8148 228.537 44.613 228.537 43.0049Z" fill="#FF6603"/>
<path d="M248.936 54.5703C245.949 53.7324 244.425 51.8239 244.366 48.8447V46.1406C244.366 44.2363 243.549 43.2842 241.916 43.2842V41.0244C243.549 41.0244 244.366 40.068 244.366 38.1553V35.4639C244.392 33.9404 244.785 32.709 245.547 31.7695C246.317 30.8301 247.447 30.1488 248.936 29.7256L249.546 31.5029C248.082 31.9769 247.324 33.2718 247.273 35.3877V38.1299C247.273 40.0342 246.541 41.3714 245.077 42.1416C246.541 42.9202 247.273 44.2702 247.273 46.1914V48.8955C247.324 51.0114 248.082 52.3063 249.546 52.7803L248.936 54.5703ZM315.707 76.75C316.282 76.75 316.727 76.915 317.04 77.2451C317.353 77.5667 317.509 77.973 317.509 78.4639C317.509 78.9463 317.353 79.3483 317.04 79.6699C316.727 79.9831 316.282 80.1396 315.707 80.1396C315.157 80.1396 314.721 79.9831 314.399 79.6699C314.077 79.3568 313.917 78.9548 313.917 78.4639C313.917 77.973 314.073 77.5667 314.386 77.2451C314.7 76.915 315.14 76.75 315.707 76.75ZM315.707 65.9717C316.282 65.9717 316.727 66.1367 317.04 66.4668C317.353 66.7884 317.509 67.1947 317.509 67.6855C317.509 68.168 317.353 68.57 317.04 68.8916C316.727 69.2048 316.282 69.3613 315.707 69.3613C315.157 69.3613 314.721 69.2048 314.399 68.8916C314.077 68.5785 313.917 68.1764 313.917 67.6855C313.917 67.1947 314.073 66.7884 314.386 66.4668C314.7 66.1367 315.14 65.9717 315.707 65.9717ZM409.351 65.9717C409.926 65.9717 410.371 66.1367 410.684 66.4668C410.997 66.7884 411.154 67.1947 411.154 67.6855C411.154 68.168 410.997 68.57 410.684 68.8916C410.371 69.2048 409.926 69.3613 409.351 69.3613C408.801 69.3613 408.365 69.2048 408.043 68.8916C407.722 68.5785 407.561 68.1764 407.561 67.6855C407.561 67.1947 407.717 66.7884 408.031 66.4668C408.344 66.1367 408.784 65.9717 409.351 65.9717ZM408.424 84.1641L406.761 83.1738C407.252 82.4036 407.586 81.7308 407.764 81.1553C407.95 80.5882 408.047 80.0085 408.056 79.416V77.0166H410.836L410.824 79.2383C410.815 80.1354 410.587 81.0326 410.138 81.9297C409.698 82.8353 409.127 83.5801 408.424 84.1641ZM363.462 106.75C364.038 106.75 364.482 106.915 364.795 107.245C365.109 107.567 365.265 107.973 365.265 108.464C365.265 108.946 365.109 109.348 364.795 109.67C364.482 109.983 364.038 110.14 363.462 110.14C362.912 110.14 362.476 109.983 362.155 109.67C361.833 109.357 361.672 108.955 361.672 108.464C361.672 107.973 361.829 107.567 362.142 107.245C362.455 106.915 362.895 106.75 363.462 106.75ZM363.462 95.9717C364.038 95.9717 364.482 96.1367 364.795 96.4668C365.109 96.7884 365.265 97.1947 365.265 97.6855C365.265 98.168 365.109 98.57 364.795 98.8916C364.482 99.2048 364.038 99.3613 363.462 99.3613C362.912 99.3613 362.476 99.2048 362.155 98.8916C361.833 98.5785 361.672 98.1764 361.672 97.6855C361.672 97.1947 361.829 96.7884 362.142 96.4668C362.455 96.1367 362.895 95.9717 363.462 95.9717ZM439.895 95.9717C440.47 95.9717 440.915 96.1367 441.228 96.4668C441.541 96.7884 441.697 97.1947 441.697 97.6855C441.697 98.168 441.541 98.57 441.228 98.8916C440.915 99.2048 440.47 99.3613 439.895 99.3613C439.345 99.3613 438.909 99.2048 438.587 98.8916C438.266 98.5785 438.105 98.1764 438.105 97.6855C438.105 97.1947 438.261 96.7884 438.574 96.4668C438.888 96.1367 439.328 95.9717 439.895 95.9717ZM438.968 114.164L437.305 113.174C437.796 112.404 438.13 111.731 438.308 111.155C438.494 110.588 438.591 110.008 438.6 109.416V107.017H441.38L441.367 109.238C441.359 110.135 441.13 111.033 440.682 111.93C440.242 112.835 439.67 113.58 438.968 114.164ZM393.649 136.75C394.224 136.75 394.669 136.915 394.982 137.245C395.295 137.567 395.452 137.973 395.452 138.464C395.452 138.946 395.295 139.348 394.982 139.67C394.669 139.983 394.224 140.14 393.649 140.14C393.099 140.14 392.663 139.983 392.341 139.67C392.02 139.357 391.859 138.955 391.859 138.464C391.859 137.973 392.015 137.567 392.328 137.245C392.642 136.915 393.082 136.75 393.649 136.75ZM393.649 125.972C394.224 125.972 394.669 126.137 394.982 126.467C395.295 126.788 395.452 127.195 395.452 127.686C395.452 128.168 395.295 128.57 394.982 128.892C394.669 129.205 394.224 129.361 393.649 129.361C393.099 129.361 392.663 129.205 392.341 128.892C392.02 128.578 391.859 128.176 391.859 127.686C391.859 127.195 392.015 126.788 392.328 126.467C392.642 126.137 393.082 125.972 393.649 125.972ZM470.081 125.972C470.657 125.972 471.101 126.137 471.414 126.467C471.727 126.788 471.884 127.195 471.884 127.686C471.884 128.168 471.727 128.57 471.414 128.892C471.101 129.205 470.657 129.361 470.081 129.361C469.531 129.361 469.095 129.205 468.774 128.892C468.452 128.578 468.291 128.176 468.291 127.686C468.291 127.195 468.448 126.788 468.761 126.467C469.074 126.137 469.514 125.972 470.081 125.972ZM469.154 144.164L467.491 143.174C467.982 142.404 468.317 141.731 468.494 141.155C468.68 140.588 468.778 140.008 468.786 139.416V137.017H471.567L471.554 139.238C471.545 140.135 471.317 141.033 470.868 141.93C470.428 142.835 469.857 143.58 469.154 144.164ZM218.343 172.78C219.832 172.298 220.594 170.978 220.628 168.819V166.179C220.628 164.224 221.398 162.882 222.938 162.154C221.398 161.426 220.628 160.072 220.628 158.092V155.464C220.594 153.306 219.832 151.985 218.343 151.503L218.952 149.726C220.493 150.157 221.639 150.86 222.393 151.833C223.146 152.798 223.522 154.063 223.522 155.629V158.168C223.522 160.072 224.343 161.024 225.985 161.024V163.284C224.343 163.284 223.522 164.236 223.522 166.141V168.642C223.522 170.224 223.142 171.498 222.38 172.463C221.627 173.436 220.484 174.139 218.952 174.57L218.343 172.78Z" fill="white"/>
<path d="M255.282 77.791C256.052 77.791 256.691 77.5667 257.199 77.1182C257.707 76.6696 257.978 76.1152 258.012 75.4551H260.919C260.885 76.3099 260.618 77.1097 260.119 77.8545C259.62 78.5908 258.943 79.1748 258.088 79.6064C257.233 80.0381 256.31 80.2539 255.32 80.2539C253.399 80.2539 251.875 79.6318 250.75 78.3877C249.624 77.1436 249.061 75.4255 249.061 73.2334V72.916C249.061 70.8255 249.62 69.154 250.737 67.9014C251.854 66.6403 253.378 66.0098 255.307 66.0098C256.941 66.0098 258.27 66.488 259.294 67.4443C260.326 68.3923 260.868 69.6406 260.919 71.1895H258.012C257.978 70.4023 257.707 69.7549 257.199 69.2471C256.7 68.7393 256.061 68.4854 255.282 68.4854C254.283 68.4854 253.513 68.8493 252.972 69.5771C252.43 70.2965 252.155 71.3926 252.146 72.8652V73.3604C252.146 74.8499 252.413 75.9629 252.946 76.6992C253.488 77.4271 254.266 77.791 255.282 77.791ZM263.711 73.0049C263.711 71.6592 263.977 70.4489 264.511 69.374C265.044 68.2907 265.793 67.4613 266.758 66.8857C267.722 66.3018 268.831 66.0098 270.084 66.0098C271.937 66.0098 273.44 66.6064 274.591 67.7998C275.75 68.9932 276.376 70.5758 276.47 72.5479L276.482 73.2715C276.482 74.6257 276.22 75.8359 275.695 76.9023C275.179 77.9688 274.434 78.7939 273.461 79.3779C272.496 79.9619 271.379 80.2539 270.109 80.2539C268.171 80.2539 266.618 79.6107 265.45 78.3242C264.29 77.0293 263.711 75.307 263.711 73.1572V73.0049ZM266.796 73.2715C266.796 74.6849 267.088 75.7936 267.672 76.5977C268.256 77.3932 269.068 77.791 270.109 77.791C271.15 77.791 271.958 77.3848 272.534 76.5723C273.118 75.7598 273.41 74.5706 273.41 73.0049C273.41 71.6169 273.11 70.5166 272.509 69.7041C271.916 68.8916 271.108 68.4854 270.084 68.4854C269.077 68.4854 268.277 68.8874 267.684 69.6914C267.092 70.487 266.796 71.6803 266.796 73.2715ZM283.413 80H280.328V60.5H283.413V80ZM287.246 73.0049C287.246 71.6592 287.512 70.4489 288.046 69.374C288.579 68.2907 289.328 67.4613 290.293 66.8857C291.258 66.3018 292.366 66.0098 293.619 66.0098C295.472 66.0098 296.975 66.6064 298.126 67.7998C299.285 68.9932 299.912 70.5758 300.005 72.5479L300.017 73.2715C300.017 74.6257 299.755 75.8359 299.23 76.9023C298.714 77.9688 297.969 78.7939 296.996 79.3779C296.031 79.9619 294.914 80.2539 293.644 80.2539C291.706 80.2539 290.153 79.6107 288.985 78.3242C287.826 77.0293 287.246 75.307 287.246 73.1572V73.0049ZM290.331 73.2715C290.331 74.6849 290.623 75.7936 291.207 76.5977C291.791 77.3932 292.603 77.791 293.644 77.791C294.685 77.791 295.494 77.3848 296.069 76.5723C296.653 75.7598 296.945 74.5706 296.945 73.0049C296.945 71.6169 296.645 70.5166 296.044 69.7041C295.451 68.8916 294.643 68.4854 293.619 68.4854C292.612 68.4854 291.812 68.8874 291.219 69.6914C290.627 70.487 290.331 71.6803 290.331 73.2715ZM310.858 69.082C310.452 69.0143 310.033 68.9805 309.601 68.9805C308.188 68.9805 307.236 69.5221 306.745 70.6055V80H303.66V66.2637H306.605L306.681 67.7998C307.426 66.6064 308.459 66.0098 309.779 66.0098C310.219 66.0098 310.583 66.069 310.871 66.1875L310.858 69.082ZM250.724 110V98.5488H248.63V96.2637H250.724V95.0068C250.724 93.4834 251.148 92.307 251.994 91.4775C252.84 90.6481 254.025 90.2334 255.549 90.2334C256.09 90.2334 256.666 90.3096 257.275 90.4619L257.199 92.874C256.861 92.8063 256.467 92.7725 256.018 92.7725C254.546 92.7725 253.809 93.5299 253.809 95.0449V96.2637H256.602V98.5488H253.809V110H250.724ZM259.318 103.005C259.318 101.659 259.585 100.449 260.118 99.374C260.651 98.2907 261.4 97.4613 262.365 96.8857C263.33 96.3018 264.439 96.0098 265.691 96.0098C267.545 96.0098 269.047 96.6064 270.198 97.7998C271.358 98.9932 271.984 100.576 272.077 102.548L272.09 103.271C272.09 104.626 271.827 105.836 271.303 106.902C270.786 107.969 270.041 108.794 269.068 109.378C268.103 109.962 266.986 110.254 265.717 110.254C263.778 110.254 262.225 109.611 261.057 108.324C259.898 107.029 259.318 105.307 259.318 103.157V103.005ZM262.403 103.271C262.403 104.685 262.695 105.794 263.279 106.598C263.863 107.393 264.676 107.791 265.717 107.791C266.758 107.791 267.566 107.385 268.141 106.572C268.725 105.76 269.017 104.571 269.017 103.005C269.017 101.617 268.717 100.517 268.116 99.7041C267.524 98.8916 266.715 98.4854 265.691 98.4854C264.684 98.4854 263.884 98.8874 263.292 99.6914C262.699 100.487 262.403 101.68 262.403 103.271ZM278.601 96.2637L278.69 97.8506C279.706 96.6234 281.039 96.0098 282.689 96.0098C285.55 96.0098 287.006 97.6475 287.056 100.923V110H283.971V101.101C283.971 100.229 283.781 99.5856 283.4 99.1709C283.028 98.7477 282.414 98.5361 281.559 98.5361C280.315 98.5361 279.388 99.099 278.779 100.225V110H275.694V96.2637H278.601ZM295.117 92.9248V96.2637H297.542V98.5488H295.117V106.217C295.117 106.742 295.218 107.122 295.422 107.359C295.633 107.588 296.006 107.702 296.539 107.702C296.894 107.702 297.254 107.66 297.618 107.575V109.962C296.915 110.157 296.238 110.254 295.587 110.254C293.217 110.254 292.032 108.946 292.032 106.331V98.5488H289.772V96.2637H292.032V92.9248H295.117ZM306.935 103.386H300.27V100.897H306.935V103.386ZM318.22 106.268C318.22 105.717 317.992 105.299 317.535 105.011C317.086 104.723 316.337 104.469 315.288 104.249C314.238 104.029 313.362 103.75 312.66 103.411C311.119 102.666 310.349 101.587 310.349 100.174C310.349 98.9889 310.849 97.9987 311.847 97.2031C312.846 96.4076 314.116 96.0098 315.656 96.0098C317.298 96.0098 318.622 96.416 319.63 97.2285C320.645 98.041 321.153 99.0947 321.153 100.39H318.068C318.068 99.7972 317.848 99.3063 317.408 98.917C316.968 98.5192 316.384 98.3203 315.656 98.3203C314.979 98.3203 314.424 98.4769 313.993 98.79C313.57 99.1032 313.358 99.5221 313.358 100.047C313.358 100.521 313.557 100.889 313.955 101.151C314.353 101.414 315.157 101.68 316.367 101.951C317.577 102.214 318.525 102.531 319.211 102.903C319.905 103.267 320.417 103.707 320.747 104.224C321.085 104.74 321.255 105.366 321.255 106.103C321.255 107.338 320.742 108.341 319.718 109.111C318.694 109.873 317.353 110.254 315.694 110.254C314.568 110.254 313.565 110.051 312.685 109.645C311.805 109.238 311.119 108.68 310.629 107.969C310.138 107.258 309.892 106.492 309.892 105.671H312.888C312.931 106.399 313.206 106.962 313.714 107.359C314.221 107.749 314.894 107.943 315.732 107.943C316.545 107.943 317.162 107.791 317.586 107.486C318.009 107.173 318.22 106.767 318.22 106.268ZM328.274 110H325.189V96.2637H328.274V110ZM324.999 92.6963C324.999 92.2223 325.147 91.8288 325.443 91.5156C325.748 91.2025 326.179 91.0459 326.738 91.0459C327.296 91.0459 327.728 91.2025 328.033 91.5156C328.338 91.8288 328.49 92.2223 328.49 92.6963C328.49 93.1618 328.338 93.5511 328.033 93.8643C327.728 94.1689 327.296 94.3213 326.738 94.3213C326.179 94.3213 325.748 94.1689 325.443 93.8643C325.147 93.5511 324.999 93.1618 324.999 92.6963ZM335.979 107.537H343.292V110H332.145V107.981L339.115 98.752H332.272V96.2637H343.025V98.2188L335.979 107.537ZM352.647 110.254C350.692 110.254 349.105 109.64 347.886 108.413C346.676 107.177 346.071 105.535 346.071 103.487V103.106C346.071 101.735 346.333 100.512 346.858 99.4375C347.391 98.3542 348.136 97.512 349.092 96.9111C350.049 96.3102 351.115 96.0098 352.292 96.0098C354.162 96.0098 355.605 96.6064 356.621 97.7998C357.645 98.9932 358.157 100.682 358.157 102.865V104.109H349.181C349.274 105.243 349.651 106.141 350.311 106.801C350.98 107.461 351.818 107.791 352.825 107.791C354.238 107.791 355.389 107.22 356.278 106.077L357.941 107.664C357.391 108.485 356.654 109.124 355.732 109.581C354.818 110.03 353.79 110.254 352.647 110.254ZM352.279 98.4854C351.432 98.4854 350.747 98.7816 350.222 99.374C349.706 99.9665 349.376 100.792 349.232 101.85H355.11V101.621C355.042 100.589 354.767 99.8099 354.285 99.2852C353.802 98.752 353.134 98.4854 352.279 98.4854ZM252.921 140H249.836V120.5H252.921V140ZM260.613 140H257.528V126.264H260.613V140ZM257.338 122.696C257.338 122.222 257.486 121.829 257.782 121.516C258.087 121.202 258.518 121.046 259.077 121.046C259.636 121.046 260.067 121.202 260.372 121.516C260.677 121.829 260.829 122.222 260.829 122.696C260.829 123.162 260.677 123.551 260.372 123.864C260.067 124.169 259.636 124.321 259.077 124.321C258.518 124.321 258.087 124.169 257.782 123.864C257.486 123.551 257.338 123.162 257.338 122.696ZM267.886 126.264L267.975 127.851C268.991 126.623 270.324 126.01 271.974 126.01C274.835 126.01 276.291 127.647 276.342 130.923V140H273.257V131.101C273.257 130.229 273.066 129.586 272.685 129.171C272.313 128.748 271.699 128.536 270.844 128.536C269.6 128.536 268.674 129.099 268.064 130.225V140H264.979V126.264H267.886ZM286.586 140.254C284.631 140.254 283.044 139.64 281.825 138.413C280.615 137.177 280.009 135.535 280.009 133.487V133.106C280.009 131.735 280.272 130.512 280.797 129.438C281.33 128.354 282.075 127.512 283.031 126.911C283.987 126.31 285.054 126.01 286.23 126.01C288.101 126.01 289.544 126.606 290.559 127.8C291.583 128.993 292.095 130.682 292.095 132.865V134.109H283.12C283.213 135.243 283.59 136.141 284.25 136.801C284.918 137.461 285.756 137.791 286.763 137.791C288.177 137.791 289.328 137.22 290.217 136.077L291.88 137.664C291.329 138.485 290.593 139.124 289.671 139.581C288.757 140.03 287.728 140.254 286.586 140.254ZM286.217 128.485C285.371 128.485 284.686 128.782 284.161 129.374C283.645 129.966 283.315 130.792 283.171 131.85H289.049V131.621C288.981 130.589 288.706 129.81 288.223 129.285C287.741 128.752 287.072 128.485 286.217 128.485ZM301.527 133.386H294.862V130.897H301.527V133.386ZM308.153 127.762C309.16 126.594 310.434 126.01 311.974 126.01C314.903 126.01 316.388 127.681 316.43 131.024V140H313.345V131.139C313.345 130.191 313.138 129.522 312.723 129.133C312.317 128.735 311.716 128.536 310.921 128.536C309.685 128.536 308.762 129.086 308.153 130.187V140H305.068V120.5H308.153V127.762ZM326.649 140.254C324.694 140.254 323.107 139.64 321.888 138.413C320.678 137.177 320.073 135.535 320.073 133.487V133.106C320.073 131.735 320.335 130.512 320.86 129.438C321.393 128.354 322.138 127.512 323.094 126.911C324.051 126.31 325.117 126.01 326.294 126.01C328.164 126.01 329.607 126.606 330.623 127.8C331.647 128.993 332.159 130.682 332.159 132.865V134.109H323.183C323.276 135.243 323.653 136.141 324.313 136.801C324.982 137.461 325.82 137.791 326.827 137.791C328.24 137.791 329.391 137.22 330.28 136.077L331.943 137.664C331.393 138.485 330.657 139.124 329.734 139.581C328.82 140.03 327.792 140.254 326.649 140.254ZM326.281 128.485C325.435 128.485 324.749 128.782 324.224 129.374C323.708 129.966 323.378 130.792 323.234 131.85H329.112V131.621C329.044 130.589 328.769 129.81 328.287 129.285C327.804 128.752 327.136 128.485 326.281 128.485ZM338.886 140H335.801V126.264H338.886V140ZM335.611 122.696C335.611 122.222 335.759 121.829 336.055 121.516C336.36 121.202 336.792 121.046 337.35 121.046C337.909 121.046 338.34 121.202 338.645 121.516C338.95 121.829 339.102 122.222 339.102 122.696C339.102 123.162 338.95 123.551 338.645 123.864C338.34 124.169 337.909 124.321 337.35 124.321C336.792 124.321 336.36 124.169 336.055 123.864C335.759 123.551 335.611 123.162 335.611 122.696ZM342.757 133.03C342.757 130.897 343.257 129.196 344.255 127.927C345.263 126.649 346.596 126.01 348.254 126.01C349.82 126.01 351.052 126.556 351.949 127.647L352.088 126.264H354.869V139.581C354.869 141.384 354.306 142.806 353.18 143.847C352.063 144.888 350.552 145.408 348.648 145.408C347.641 145.408 346.655 145.197 345.69 144.773C344.734 144.359 344.006 143.813 343.506 143.136L344.966 141.282C345.914 142.408 347.082 142.971 348.47 142.971C349.494 142.971 350.303 142.691 350.895 142.133C351.487 141.583 351.784 140.77 351.784 139.695V138.769C350.895 139.759 349.71 140.254 348.229 140.254C346.621 140.254 345.305 139.615 344.281 138.337C343.265 137.059 342.757 135.29 342.757 133.03ZM345.83 133.297C345.83 134.676 346.109 135.764 346.667 136.56C347.235 137.347 348.017 137.74 349.016 137.74C350.26 137.74 351.183 137.207 351.784 136.141V130.098C351.2 129.057 350.286 128.536 349.042 128.536C348.026 128.536 347.235 128.938 346.667 129.742C346.109 130.546 345.83 131.731 345.83 133.297ZM362.129 127.762C363.137 126.594 364.41 126.01 365.951 126.01C368.879 126.01 370.364 127.681 370.407 131.024V140H367.322V131.139C367.322 130.191 367.114 129.522 366.7 129.133C366.293 128.735 365.693 128.536 364.897 128.536C363.661 128.536 362.739 129.086 362.129 130.187V140H359.044V120.5H362.129V127.762ZM378.442 122.925V126.264H380.867V128.549H378.442V136.217C378.442 136.742 378.543 137.122 378.747 137.359C378.958 137.588 379.331 137.702 379.864 137.702C380.219 137.702 380.579 137.66 380.943 137.575V139.962C380.24 140.157 379.563 140.254 378.912 140.254C376.542 140.254 375.357 138.946 375.357 136.331V128.549H373.097V126.264H375.357V122.925H378.442Z" fill="#0087CC"/>
<path d="M336.855 74.7949H334.011L333.046 80H330.914L331.878 74.7949H328.946V72.7891H332.259L332.996 68.8154H329.911V66.7969H333.377L334.367 61.5156H336.487L335.497 66.7969H338.353L339.343 61.5156H341.463L340.473 66.7969H343.114V68.8154H340.092L339.356 72.7891H342.162V74.7949H338.975L338.01 80H335.89L336.855 74.7949ZM334.392 72.7891H337.236L337.972 68.8154H335.128L334.392 72.7891ZM347.302 80V68.5488H345.208V66.2637H347.302V65.0068C347.302 63.4834 347.725 62.307 348.572 61.4775C349.418 60.6481 350.603 60.2334 352.126 60.2334C352.668 60.2334 353.244 60.3096 353.853 60.4619L353.777 62.874C353.438 62.8063 353.045 62.7725 352.596 62.7725C351.124 62.7725 350.387 63.5299 350.387 65.0449V66.2637H353.18V68.5488H350.387V80H347.302ZM357.559 80V68.5488H355.464V66.2637H357.559V65.0068C357.559 63.4834 357.982 62.307 358.829 61.4775C359.675 60.6481 360.86 60.2334 362.383 60.2334C362.925 60.2334 363.5 60.3096 364.11 60.4619L364.034 62.874C363.695 62.8063 363.302 62.7725 362.853 62.7725C361.38 62.7725 360.644 63.5299 360.644 65.0449V66.2637H363.437V68.5488H360.644V80H357.559ZM367.816 80V68.5488H365.721V66.2637H367.816V65.0068C367.816 63.4834 368.239 62.307 369.085 61.4775C369.932 60.6481 371.117 60.2334 372.64 60.2334C373.182 60.2334 373.757 60.3096 374.367 60.4619L374.29 62.874C373.952 62.8063 373.558 62.7725 373.11 62.7725C371.637 62.7725 370.901 63.5299 370.901 65.0449V66.2637H373.694V68.5488H370.901V80H367.816ZM378.073 80V68.5488H375.978V66.2637H378.073V65.0068C378.073 63.4834 378.496 62.307 379.342 61.4775C380.189 60.6481 381.373 60.2334 382.897 60.2334C383.439 60.2334 384.014 60.3096 384.623 60.4619L384.547 62.874C384.209 62.8063 383.815 62.7725 383.367 62.7725C381.894 62.7725 381.158 63.5299 381.158 65.0449V66.2637H383.951V68.5488H381.158V80H378.073ZM388.329 80V68.5488H386.235V66.2637H388.329V65.0068C388.329 63.4834 388.753 62.307 389.599 61.4775C390.445 60.6481 391.63 60.2334 393.154 60.2334C393.695 60.2334 394.271 60.3096 394.88 60.4619L394.804 62.874C394.466 62.8063 394.072 62.7725 393.623 62.7725C392.151 62.7725 391.414 63.5299 391.414 65.0449V66.2637H394.207V68.5488H391.414V80H388.329ZM398.586 80V68.5488H396.492V66.2637H398.586V65.0068C398.586 63.4834 399.009 62.307 399.856 61.4775C400.702 60.6481 401.887 60.2334 403.41 60.2334C403.952 60.2334 404.528 60.3096 405.137 60.4619L405.061 62.874C404.722 62.8063 404.329 62.7725 403.88 62.7725C402.408 62.7725 401.671 63.5299 401.671 65.0449V66.2637H404.464V68.5488H401.671V80H398.586ZM385.22 110H382.148V95.1592L377.616 96.708V94.1055L384.827 91.4521H385.22V110ZM402.282 91.4268V93.9785H401.901C400.174 94.0039 398.795 94.4779 397.762 95.4004C396.73 96.3229 396.116 97.6305 395.921 99.3232C396.911 98.2822 398.177 97.7617 399.717 97.7617C401.351 97.7617 402.637 98.3372 403.577 99.4883C404.524 100.639 404.998 102.125 404.998 103.944C404.998 105.823 404.444 107.347 403.335 108.515C402.235 109.674 400.788 110.254 398.994 110.254C397.148 110.254 395.65 109.573 394.499 108.21C393.357 106.847 392.786 105.062 392.786 102.853V101.799C392.786 98.5573 393.573 96.0182 395.147 94.1816C396.73 92.3451 399.002 91.4268 401.964 91.4268H402.282ZM398.968 100.25C398.291 100.25 397.669 100.44 397.102 100.821C396.543 101.202 396.133 101.71 395.87 102.345V103.284C395.87 104.655 396.158 105.747 396.734 106.56C397.309 107.364 398.054 107.766 398.968 107.766C399.882 107.766 400.606 107.423 401.139 106.737C401.672 106.052 401.939 105.15 401.939 104.033C401.939 102.916 401.668 102.006 401.126 101.304C400.585 100.601 399.865 100.25 398.968 100.25ZM420.727 103.271C420.727 105.396 420.244 107.093 419.28 108.362C418.315 109.623 417.02 110.254 415.395 110.254C413.888 110.254 412.682 109.759 411.777 108.769V115.281H408.692V96.2637H411.535L411.662 97.6602C412.568 96.5599 413.799 96.0098 415.357 96.0098C417.033 96.0098 418.344 96.6361 419.292 97.8887C420.249 99.1328 420.727 100.864 420.727 103.081V103.271ZM417.655 103.005C417.655 101.634 417.38 100.546 416.829 99.7422C416.288 98.9382 415.509 98.5361 414.493 98.5361C413.232 98.5361 412.327 99.0566 411.777 100.098V106.191C412.335 107.258 413.249 107.791 414.519 107.791C415.501 107.791 416.267 107.397 416.817 106.61C417.375 105.815 417.655 104.613 417.655 103.005ZM429.117 100.783L431.733 96.2637H435.16L430.958 103.03L435.3 110H431.898L429.156 105.303L426.426 110H422.998L427.34 103.03L423.151 96.2637H426.553L429.117 100.783ZM419.482 140H407.053V137.88L413.21 131.164C414.099 130.174 414.729 129.349 415.102 128.688C415.483 128.02 415.673 127.351 415.673 126.683C415.673 125.802 415.423 125.091 414.924 124.55C414.433 124.008 413.769 123.737 412.931 123.737C411.932 123.737 411.158 124.042 410.608 124.651C410.058 125.261 409.783 126.094 409.783 127.152H406.698C406.698 126.027 406.951 125.015 407.459 124.118C407.976 123.213 408.708 122.51 409.656 122.011C410.612 121.511 411.712 121.262 412.956 121.262C414.751 121.262 416.164 121.715 417.197 122.62C418.238 123.517 418.758 124.761 418.758 126.353C418.758 127.275 418.496 128.244 417.971 129.26C417.455 130.267 416.604 131.414 415.419 132.7L410.9 137.537H419.482V140ZM435.299 140H422.87V137.88L429.028 131.164C429.916 130.174 430.547 129.349 430.919 128.688C431.3 128.02 431.49 127.351 431.49 126.683C431.49 125.802 431.241 125.091 430.741 124.55C430.251 124.008 429.586 123.737 428.748 123.737C427.75 123.737 426.975 124.042 426.425 124.651C425.875 125.261 425.6 126.094 425.6 127.152H422.515C422.515 126.027 422.769 125.015 423.277 124.118C423.793 123.213 424.525 122.51 425.473 122.011C426.429 121.511 427.53 121.262 428.774 121.262C430.568 121.262 431.981 121.715 433.014 122.62C434.055 123.517 434.575 124.761 434.575 126.353C434.575 127.275 434.313 128.244 433.788 129.26C433.272 130.267 432.421 131.414 431.237 132.7L426.717 137.537H435.299V140ZM450.913 133.271C450.913 135.396 450.431 137.093 449.466 138.362C448.501 139.623 447.206 140.254 445.581 140.254C444.075 140.254 442.869 139.759 441.963 138.769V145.281H438.878V126.264H441.722L441.849 127.66C442.754 126.56 443.986 126.01 445.543 126.01C447.219 126.01 448.531 126.636 449.479 127.889C450.435 129.133 450.913 130.864 450.913 133.081V133.271ZM447.841 133.005C447.841 131.634 447.566 130.546 447.016 129.742C446.474 128.938 445.696 128.536 444.68 128.536C443.419 128.536 442.513 129.057 441.963 130.098V136.191C442.522 137.258 443.436 137.791 444.705 137.791C445.687 137.791 446.453 137.397 447.003 136.61C447.562 135.815 447.841 134.613 447.841 133.005ZM459.304 130.783L461.919 126.264H465.347L461.145 133.03L465.486 140H462.084L459.342 135.303L456.612 140H453.185L457.527 133.03L453.337 126.264H456.739L459.304 130.783Z" fill="#2DB34A"/>
<rect x="517" y="79" width="170" height="43" rx="5" fill="#FF6603"/>
<path d="M549.307 101.371C549.163 102.888 548.604 104.073 547.627 104.926C546.65 105.772 545.352 106.195 543.73 106.195C542.598 106.195 541.598 105.928 540.732 105.395C539.873 104.854 539.209 104.089 538.74 103.1C538.271 102.11 538.027 100.961 538.008 99.6523V98.3242C538.008 96.9831 538.245 95.8014 538.721 94.7793C539.196 93.7572 539.876 92.9694 540.762 92.416C541.654 91.8626 542.682 91.5859 543.848 91.5859C545.417 91.5859 546.68 92.0124 547.637 92.8652C548.594 93.7181 549.15 94.9225 549.307 96.4785H546.846C546.729 95.4564 546.429 94.7207 545.947 94.2715C545.472 93.8158 544.772 93.5879 543.848 93.5879C542.773 93.5879 541.947 93.9818 541.367 94.7695C540.794 95.5508 540.501 96.6999 540.488 98.2168V99.4766C540.488 101.013 540.762 102.185 541.309 102.992C541.862 103.799 542.669 104.203 543.73 104.203C544.701 104.203 545.43 103.985 545.918 103.549C546.406 103.113 546.715 102.387 546.846 101.371H549.307ZM559.755 102.338C559.755 101.713 559.534 101.231 559.091 100.893C558.655 100.554 557.864 100.212 556.718 99.8672C555.572 99.5221 554.661 99.138 553.984 98.7148C552.688 97.901 552.04 96.8398 552.04 95.5312C552.04 94.3854 552.506 93.4414 553.437 92.6992C554.374 91.957 555.588 91.5859 557.079 91.5859C558.069 91.5859 558.951 91.7682 559.726 92.1328C560.501 92.4974 561.109 93.0182 561.552 93.6953C561.995 94.3659 562.216 95.1113 562.216 95.9316H559.755C559.755 95.1895 559.521 94.61 559.052 94.1934C558.59 93.7702 557.926 93.5586 557.06 93.5586C556.252 93.5586 555.624 93.7311 555.175 94.0762C554.732 94.4212 554.511 94.903 554.511 95.5215C554.511 96.0423 554.752 96.4785 555.234 96.8301C555.715 97.1751 556.51 97.5137 557.616 97.8457C558.723 98.1712 559.612 98.5456 560.282 98.9688C560.953 99.3854 561.445 99.8672 561.757 100.414C562.07 100.954 562.226 101.589 562.226 102.318C562.226 103.503 561.77 104.447 560.859 105.15C559.954 105.847 558.723 106.195 557.167 106.195C556.139 106.195 555.191 106.007 554.325 105.629C553.466 105.245 552.795 104.717 552.314 104.047C551.838 103.376 551.601 102.595 551.601 101.703H554.071C554.071 102.51 554.338 103.135 554.872 103.578C555.406 104.021 556.171 104.242 557.167 104.242C558.027 104.242 558.671 104.07 559.101 103.725C559.537 103.373 559.755 102.911 559.755 102.338ZM572.625 102.338C572.625 101.713 572.404 101.231 571.961 100.893C571.525 100.554 570.734 100.212 569.588 99.8672C568.442 99.5221 567.531 99.138 566.854 98.7148C565.558 97.901 564.911 96.8398 564.911 95.5312C564.911 94.3854 565.376 93.4414 566.307 92.6992C567.245 91.957 568.459 91.5859 569.95 91.5859C570.939 91.5859 571.821 91.7682 572.596 92.1328C573.371 92.4974 573.98 93.0182 574.422 93.6953C574.865 94.3659 575.086 95.1113 575.086 95.9316H572.625C572.625 95.1895 572.391 94.61 571.922 94.1934C571.46 93.7702 570.796 93.5586 569.93 93.5586C569.123 93.5586 568.495 93.7311 568.045 94.0762C567.603 94.4212 567.381 94.903 567.381 95.5215C567.381 96.0423 567.622 96.4785 568.104 96.8301C568.586 97.1751 569.38 97.5137 570.487 97.8457C571.593 98.1712 572.482 98.5456 573.153 98.9688C573.823 99.3854 574.315 99.8672 574.627 100.414C574.94 100.954 575.096 101.589 575.096 102.318C575.096 103.503 574.64 104.447 573.729 105.15C572.824 105.847 571.593 106.195 570.038 106.195C569.009 106.195 568.062 106.007 567.196 105.629C566.336 105.245 565.666 104.717 565.184 104.047C564.709 103.376 564.471 102.595 564.471 101.703H566.942C566.942 102.51 567.209 103.135 567.743 103.578C568.276 104.021 569.041 104.242 570.038 104.242C570.897 104.242 571.541 104.07 571.971 103.725C572.407 103.373 572.625 102.911 572.625 102.338ZM592.575 106H590.202V97.3477H586.081V106H583.708V95.4336H592.575V106ZM605.152 100.824C605.152 102.458 604.781 103.764 604.039 104.74C603.297 105.71 602.301 106.195 601.051 106.195C599.892 106.195 598.964 105.814 598.268 105.053V110.062H595.895V95.4336H598.082L598.18 96.5078C598.876 95.6615 599.824 95.2383 601.021 95.2383C602.311 95.2383 603.32 95.7201 604.049 96.6836C604.785 97.6406 605.152 98.972 605.152 100.678V100.824ZM602.789 100.619C602.789 99.5645 602.577 98.7279 602.154 98.1094C601.738 97.4909 601.139 97.1816 600.357 97.1816C599.387 97.1816 598.691 97.582 598.268 98.3828V103.07C598.697 103.891 599.4 104.301 600.377 104.301C601.132 104.301 601.721 103.998 602.145 103.393C602.574 102.781 602.789 101.856 602.789 100.619ZM614.282 106C614.178 105.798 614.087 105.469 614.009 105.014C613.254 105.801 612.329 106.195 611.236 106.195C610.174 106.195 609.308 105.893 608.638 105.287C607.967 104.682 607.632 103.933 607.632 103.041C607.632 101.915 608.049 101.052 608.882 100.453C609.722 99.8477 610.92 99.5449 612.476 99.5449H613.931V98.8516C613.931 98.3047 613.778 97.8685 613.472 97.543C613.166 97.2109 612.7 97.0449 612.075 97.0449C611.535 97.0449 611.092 97.1816 610.747 97.4551C610.402 97.722 610.23 98.0638 610.23 98.4805H607.857C607.857 97.901 608.049 97.3607 608.433 96.8594C608.817 96.3516 609.338 95.9544 609.995 95.668C610.659 95.3815 611.398 95.2383 612.212 95.2383C613.449 95.2383 614.435 95.5508 615.171 96.1758C615.907 96.7943 616.284 97.6667 616.304 98.793V103.559C616.304 104.509 616.437 105.268 616.704 105.834V106H614.282ZM611.675 104.291C612.144 104.291 612.583 104.177 612.993 103.949C613.41 103.721 613.723 103.415 613.931 103.031V101.039H612.652C611.773 101.039 611.112 101.192 610.669 101.498C610.226 101.804 610.005 102.237 610.005 102.797C610.005 103.253 610.155 103.617 610.454 103.891C610.76 104.158 611.167 104.291 611.675 104.291ZM619.77 106V95.4336H624.057C625.502 95.4336 626.603 95.6875 627.358 96.1953C628.113 96.6966 628.491 97.4193 628.491 98.3633C628.491 98.8516 628.338 99.291 628.032 99.6816C627.732 100.066 627.286 100.362 626.694 100.57C627.384 100.714 627.931 101.003 628.334 101.439C628.738 101.876 628.94 102.39 628.94 102.982C628.94 103.965 628.575 104.714 627.846 105.229C627.123 105.743 626.082 106 624.721 106H619.77ZM622.143 101.498V104.125H624.741C625.958 104.125 626.567 103.689 626.567 102.816C626.567 101.938 625.948 101.498 624.711 101.498H622.143ZM622.143 99.7988H624.096C625.444 99.7988 626.118 99.4017 626.118 98.6074C626.118 97.7741 625.48 97.3444 624.204 97.3184H622.143V99.7988ZM638.392 95.4336H640.755V106H638.392V98.9492L634.252 106H631.888V95.4336H634.252V102.484L638.392 95.4336ZM653.059 95.4336V106H650.686V97.3477H647.698L647.503 101.029C647.379 102.8 647.037 104.073 646.477 104.848C645.924 105.616 645.074 106 643.929 106H643.196L643.186 104.027L643.675 103.979C644.195 103.907 644.573 103.591 644.807 103.031C645.048 102.465 645.201 101.436 645.266 99.9453L645.462 95.4336H653.059ZM662.697 106C662.593 105.798 662.502 105.469 662.424 105.014C661.669 105.801 660.744 106.195 659.65 106.195C658.589 106.195 657.723 105.893 657.053 105.287C656.382 104.682 656.047 103.933 656.047 103.041C656.047 101.915 656.464 101.052 657.297 100.453C658.137 99.8477 659.335 99.5449 660.891 99.5449H662.346V98.8516C662.346 98.3047 662.193 97.8685 661.887 97.543C661.581 97.2109 661.115 97.0449 660.49 97.0449C659.95 97.0449 659.507 97.1816 659.162 97.4551C658.817 97.722 658.645 98.0638 658.645 98.4805H656.271C656.271 97.901 656.464 97.3607 656.848 96.8594C657.232 96.3516 657.753 95.9544 658.41 95.668C659.074 95.3815 659.813 95.2383 660.627 95.2383C661.864 95.2383 662.85 95.5508 663.586 96.1758C664.322 96.7943 664.699 97.6667 664.719 98.793V103.559C664.719 104.509 664.852 105.268 665.119 105.834V106H662.697ZM660.09 104.291C660.559 104.291 660.998 104.177 661.408 103.949C661.825 103.721 662.137 103.415 662.346 103.031V101.039H661.066C660.188 101.039 659.527 101.192 659.084 101.498C658.641 101.804 658.42 102.237 658.42 102.797C658.42 103.253 658.57 103.617 658.869 103.891C659.175 104.158 659.582 104.291 660.09 104.291Z" fill="white"/>
<line x1="517" y1="100.5" x2="487" y2="100.5" stroke="#FF6603" stroke-width="3"/>
<line x1="488" y1="49" x2="488" y2="154" stroke="#FF6603" stroke-width="2"/>
<line x1="474" y1="50" x2="487" y2="50" stroke="#FF6603" stroke-width="2"/>
<path d="M474 153H487" stroke="#FF6603" stroke-width="2"/>
<line x1="199" y1="61" x2="212" y2="61" stroke="#FF6603" stroke-width="2"/>
<line x1="199" y1="31" x2="212" y2="31" stroke="#FF6603" stroke-width="2"/>
<line x1="200" y1="32" x2="200" y2="62" stroke="#FF6603" stroke-width="2"/>
<line x1="199" y1="46.5" x2="169" y2="46.5" stroke="#FF6603" stroke-width="3"/>
<rect x="13" y="25" width="156" height="43" rx="5" fill="#FF6603"/>
<path d="M34.4027 47.3711C34.2595 48.888 33.6996 50.0729 32.723 50.9258C31.7465 51.7721 30.4477 52.1953 28.8266 52.1953C27.6937 52.1953 26.6944 51.9284 25.8285 51.3945C24.9691 50.8542 24.3051 50.0892 23.8363 49.0996C23.3676 48.11 23.1234 46.9609 23.1039 45.6523V44.3242C23.1039 42.9831 23.3415 41.8014 23.8168 40.7793C24.2921 39.7572 24.9724 38.9694 25.8578 38.416C26.7497 37.8626 27.7784 37.5859 28.9437 37.5859C30.5128 37.5859 31.7758 38.0124 32.7328 38.8652C33.6898 39.7181 34.2465 40.9225 34.4027 42.4785H31.9418C31.8246 41.4564 31.5251 40.7207 31.0434 40.2715C30.5681 39.8158 29.8682 39.5879 28.9437 39.5879C27.8695 39.5879 27.0427 39.9818 26.4633 40.7695C25.8904 41.5508 25.5974 42.6999 25.5844 44.2168V45.4766C25.5844 47.013 25.8578 48.1849 26.4047 48.9922C26.9581 49.7995 27.7654 50.2031 28.8266 50.2031C29.7966 50.2031 30.5258 49.985 31.0141 49.5488C31.5023 49.1126 31.8116 48.3867 31.9418 47.3711H34.4027ZM44.8512 48.3379C44.8512 47.7129 44.6298 47.2311 44.1871 46.8926C43.7509 46.554 42.9599 46.2122 41.8141 45.8672C40.6682 45.5221 39.7568 45.138 39.0797 44.7148C37.7841 43.901 37.1363 42.8398 37.1363 41.5312C37.1363 40.3854 37.6018 39.4414 38.5328 38.6992C39.4703 37.957 40.6845 37.5859 42.1754 37.5859C43.165 37.5859 44.0471 37.7682 44.8219 38.1328C45.5966 38.4974 46.2053 39.0182 46.648 39.6953C47.0908 40.3659 47.3121 41.1113 47.3121 41.9316H44.8512C44.8512 41.1895 44.6168 40.61 44.148 40.1934C43.6858 39.7702 43.0217 39.5586 42.1559 39.5586C41.3486 39.5586 40.7203 39.7311 40.2711 40.0762C39.8284 40.4212 39.607 40.903 39.607 41.5215C39.607 42.0423 39.8479 42.4785 40.3297 42.8301C40.8115 43.1751 41.6057 43.5137 42.7125 43.8457C43.8193 44.1712 44.7079 44.5456 45.3785 44.9688C46.0491 45.3854 46.5406 45.8672 46.8531 46.4141C47.1656 46.9544 47.3219 47.5892 47.3219 48.3184C47.3219 49.5033 46.8661 50.4473 45.9547 51.1504C45.0497 51.847 43.8193 52.1953 42.2633 52.1953C41.2346 52.1953 40.2874 52.0065 39.4215 51.6289C38.5621 51.2448 37.8915 50.7174 37.4098 50.0469C36.9345 49.3763 36.6969 48.5951 36.6969 47.7031H39.1676C39.1676 48.5104 39.4345 49.1354 39.9684 49.5781C40.5022 50.0208 41.2672 50.2422 42.2633 50.2422C43.1227 50.2422 43.7672 50.0697 44.1969 49.7246C44.6331 49.373 44.8512 48.9108 44.8512 48.3379ZM57.7215 48.3379C57.7215 47.7129 57.5001 47.2311 57.0574 46.8926C56.6212 46.554 55.8302 46.2122 54.6844 45.8672C53.5385 45.5221 52.6271 45.138 51.95 44.7148C50.6544 43.901 50.0066 42.8398 50.0066 41.5312C50.0066 40.3854 50.4721 39.4414 51.4031 38.6992C52.3406 37.957 53.5548 37.5859 55.0457 37.5859C56.0353 37.5859 56.9174 37.7682 57.6922 38.1328C58.4669 38.4974 59.0756 39.0182 59.5184 39.6953C59.9611 40.3659 60.1824 41.1113 60.1824 41.9316H57.7215C57.7215 41.1895 57.4871 40.61 57.0184 40.1934C56.5561 39.7702 55.8921 39.5586 55.0262 39.5586C54.2189 39.5586 53.5906 39.7311 53.1414 40.0762C52.6987 40.4212 52.4773 40.903 52.4773 41.5215C52.4773 42.0423 52.7182 42.4785 53.2 42.8301C53.6818 43.1751 54.476 43.5137 55.5828 43.8457C56.6896 44.1712 57.5783 44.5456 58.2488 44.9688C58.9194 45.3854 59.4109 45.8672 59.7234 46.4141C60.0359 46.9544 60.1922 47.5892 60.1922 48.3184C60.1922 49.5033 59.7365 50.4473 58.825 51.1504C57.9201 51.847 56.6896 52.1953 55.1336 52.1953C54.1049 52.1953 53.1577 52.0065 52.2918 51.6289C51.4324 51.2448 50.7618 50.7174 50.2801 50.0469C49.8048 49.3763 49.5672 48.5951 49.5672 47.7031H52.0379C52.0379 48.5104 52.3048 49.1354 52.8387 49.5781C53.3725 50.0208 54.1375 50.2422 55.1336 50.2422C55.993 50.2422 56.6375 50.0697 57.0672 49.7246C57.5034 49.373 57.7215 48.9108 57.7215 48.3379ZM73.052 50.3008C73.6444 50.3008 74.1359 50.1283 74.5266 49.7832C74.9172 49.4382 75.1255 49.0117 75.1516 48.5039H77.3879C77.3618 49.1615 77.1568 49.7767 76.7727 50.3496C76.3885 50.916 75.8677 51.3652 75.2102 51.6973C74.5526 52.0293 73.843 52.1953 73.0812 52.1953C71.6034 52.1953 70.4315 51.7168 69.5656 50.7598C68.6997 49.8027 68.2668 48.4811 68.2668 46.7949V46.5508C68.2668 44.9427 68.6965 43.6569 69.5559 42.6934C70.4152 41.7233 71.5871 41.2383 73.0715 41.2383C74.328 41.2383 75.3501 41.6061 76.1379 42.3418C76.9322 43.071 77.3488 44.0312 77.3879 45.2227H75.1516C75.1255 44.6172 74.9172 44.1191 74.5266 43.7285C74.1424 43.3379 73.6509 43.1426 73.052 43.1426C72.2837 43.1426 71.6913 43.4225 71.2746 43.9824C70.8579 44.5358 70.6464 45.3789 70.6398 46.5117V46.8926C70.6398 48.0384 70.8449 48.8945 71.2551 49.4609C71.6717 50.0208 72.2707 50.3008 73.052 50.3008ZM84.6332 52.1953C83.1293 52.1953 81.9086 51.7233 80.9711 50.7793C80.0401 49.8288 79.5746 48.5658 79.5746 46.9902V46.6973C79.5746 45.6426 79.7764 44.7018 80.1801 43.875C80.5902 43.0417 81.1631 42.3939 81.8988 41.9316C82.6345 41.4694 83.4548 41.2383 84.3598 41.2383C85.7986 41.2383 86.9086 41.6973 87.6898 42.6152C88.4776 43.5332 88.8715 44.832 88.8715 46.5117V47.4688H81.9672C82.0388 48.3411 82.3285 49.0312 82.8363 49.5391C83.3506 50.0469 83.9952 50.3008 84.7699 50.3008C85.8572 50.3008 86.7426 49.8613 87.4262 48.9824L88.7055 50.2031C88.2823 50.8346 87.7159 51.3262 87.0062 51.6777C86.3031 52.0228 85.5121 52.1953 84.6332 52.1953ZM84.35 43.1426C83.699 43.1426 83.1716 43.3704 82.768 43.8262C82.3708 44.2819 82.1169 44.9167 82.0062 45.7305H86.5277V45.5547C86.4756 44.7604 86.2641 44.1615 85.893 43.7578C85.5219 43.3477 85.0076 43.1426 84.35 43.1426ZM100.502 41.4336V52H98.1285V43.3477H95.1402L94.9449 47.0293C94.8212 48.8001 94.4794 50.0729 93.9195 50.8477C93.3661 51.6159 92.5165 52 91.3707 52H90.6383L90.6285 50.0273L91.1168 49.9785C91.6376 49.9069 92.0152 49.5911 92.2496 49.0312C92.4905 48.4648 92.6435 47.4362 92.7086 45.9453L92.9039 41.4336H100.502ZM108.479 52.1953C106.975 52.1953 105.755 51.7233 104.817 50.7793C103.886 49.8288 103.421 48.5658 103.421 46.9902V46.6973C103.421 45.6426 103.623 44.7018 104.026 43.875C104.436 43.0417 105.009 42.3939 105.745 41.9316C106.481 41.4694 107.301 41.2383 108.206 41.2383C109.645 41.2383 110.755 41.6973 111.536 42.6152C112.324 43.5332 112.718 44.832 112.718 46.5117V47.4688H105.813C105.885 48.3411 106.175 49.0312 106.682 49.5391C107.197 50.0469 107.841 50.3008 108.616 50.3008C109.703 50.3008 110.589 49.8613 111.272 48.9824L112.552 50.2031C112.128 50.8346 111.562 51.3262 110.852 51.6777C110.149 52.0228 109.358 52.1953 108.479 52.1953ZM108.196 43.1426C107.545 43.1426 107.018 43.3704 106.614 43.8262C106.217 44.2819 105.963 44.9167 105.852 45.7305H110.374V45.5547C110.322 44.7604 110.11 44.1615 109.739 43.7578C109.368 43.3477 108.854 43.1426 108.196 43.1426ZM119.123 47.8203H117.922V52H115.549V41.4336H117.922V45.6523H118.967L121.887 41.4336H124.816L120.998 46.4922L125.139 52H122.053L119.123 47.8203ZM135.558 43.3184H132.13V52H129.757V43.3184H126.368V41.4336H135.558V43.3184ZM137.207 46.6191C137.207 45.584 137.412 44.653 137.823 43.8262C138.233 42.9928 138.809 42.3548 139.551 41.9121C140.293 41.4629 141.146 41.2383 142.11 41.2383C143.536 41.2383 144.691 41.6973 145.577 42.6152C146.468 43.5332 146.95 44.7507 147.022 46.2676L147.032 46.8242C147.032 47.8659 146.83 48.7969 146.426 49.6172C146.029 50.4375 145.456 51.0723 144.707 51.5215C143.965 51.9707 143.106 52.1953 142.129 52.1953C140.638 52.1953 139.444 51.7005 138.545 50.7109C137.653 49.7148 137.207 48.39 137.207 46.7363V46.6191ZM139.58 46.8242C139.58 47.9115 139.805 48.7643 140.254 49.3828C140.704 49.9948 141.329 50.3008 142.129 50.3008C142.93 50.3008 143.552 49.9883 143.995 49.3633C144.444 48.7383 144.668 47.8236 144.668 46.6191C144.668 45.5514 144.437 44.7051 143.975 44.0801C143.519 43.4551 142.898 43.1426 142.11 43.1426C141.335 43.1426 140.72 43.4518 140.264 44.0703C139.808 44.6823 139.58 45.6003 139.58 46.8242ZM159.091 46.8242C159.091 48.4583 158.72 49.7637 157.978 50.7402C157.236 51.7103 156.24 52.1953 154.99 52.1953C153.831 52.1953 152.903 51.8145 152.207 51.0527V56.0625H149.834V41.4336H152.021L152.119 42.5078C152.815 41.6615 153.763 41.2383 154.961 41.2383C156.25 41.2383 157.259 41.7201 157.988 42.6836C158.724 43.6406 159.091 44.972 159.091 46.6777V46.8242ZM156.728 46.6191C156.728 45.5645 156.517 44.7279 156.093 44.1094C155.677 43.4909 155.078 43.1816 154.296 43.1816C153.326 43.1816 152.63 43.582 152.207 44.3828V49.0703C152.636 49.8906 153.339 50.3008 154.316 50.3008C155.071 50.3008 155.66 49.998 156.084 49.3926C156.513 48.7806 156.728 47.8561 156.728 46.6191Z" fill="white"/>
</svg>
