<svg width="700" height="650" viewBox="0 0 700 650" fill="none" xmlns="http://www.w3.org/2000/svg">
<rect width="700" height="650" fill="#272722"/>
<line x1="54" y1="35" x2="54" y2="604" stroke="#FF6603" stroke-width="2"/>
<line x1="114" y1="325" x2="114" y2="551" stroke="#0087CC" stroke-width="2"/>
<line x1="114" y1="85" x2="114" y2="276" stroke="#0087CC" stroke-width="2"/>
<line x1="587" y1="85" x2="587" y2="276" stroke="#0087CC" stroke-width="2"/>
<line x1="587" y1="326" x2="587" y2="551" stroke="#0087CC" stroke-width="2"/>
<line x1="652" y1="35" x2="652" y2="604" stroke="#FF6603" stroke-width="2"/>
<line x1="53" y1="36" x2="299" y2="36" stroke="#FF6603" stroke-width="2"/>
<line x1="400" y1="36" x2="652" y2="36" stroke="#FF6603" stroke-width="2"/>
<line x1="53" y1="603" x2="299" y2="603" stroke="#FF6603" stroke-width="2"/>
<line x1="113" y1="550" x2="294" y2="550" stroke="#0087CC" stroke-width="2"/>
<line x1="113" y1="326" x2="297" y2="326" stroke="#0087CC" stroke-width="2"/>
<line x1="113" y1="275" x2="291" y2="275" stroke="#0087CC" stroke-width="2"/>
<line x1="113" y1="86" x2="298" y2="86" stroke="#0087CC" stroke-width="2"/>
<line x1="403" y1="86" x2="588" y2="86" stroke="#0087CC" stroke-width="2"/>
<line x1="409" y1="275" x2="587" y2="275" stroke="#0087CC" stroke-width="2"/>
<line x1="403" y1="326" x2="588" y2="326" stroke="#0087CC" stroke-width="2"/>
<line x1="411" y1="550" x2="588" y2="550" stroke="#0087CC" stroke-width="2"/>
<line x1="412" y1="603" x2="653" y2="603" stroke="#FF6603" stroke-width="2"/>
<path d="M223.754 427.445C223.582 429.266 222.91 430.688 221.738 431.711C220.566 432.727 219.008 433.234 217.062 433.234C215.703 433.234 214.504 432.914 213.465 432.273C212.434 431.625 211.637 430.707 211.074 429.52C210.512 428.332 210.219 426.953 210.195 425.383V423.789C210.195 422.18 210.48 420.762 211.051 419.535C211.621 418.309 212.438 417.363 213.5 416.699C214.57 416.035 215.805 415.703 217.203 415.703C219.086 415.703 220.602 416.215 221.75 417.238C222.898 418.262 223.566 419.707 223.754 421.574H220.801C220.66 420.348 220.301 419.465 219.723 418.926C219.152 418.379 218.312 418.105 217.203 418.105C215.914 418.105 214.922 418.578 214.227 419.523C213.539 420.461 213.188 421.84 213.172 423.66V425.172C213.172 427.016 213.5 428.422 214.156 429.391C214.82 430.359 215.789 430.844 217.062 430.844C218.227 430.844 219.102 430.582 219.688 430.059C220.273 429.535 220.645 428.664 220.801 427.445H223.754ZM226.565 426.543C226.565 425.301 226.812 424.184 227.304 423.191C227.796 422.191 228.487 421.426 229.378 420.895C230.269 420.355 231.292 420.086 232.448 420.086C234.159 420.086 235.546 420.637 236.608 421.738C237.679 422.84 238.257 424.301 238.343 426.121L238.355 426.789C238.355 428.039 238.112 429.156 237.628 430.141C237.151 431.125 236.464 431.887 235.565 432.426C234.675 432.965 233.644 433.234 232.472 433.234C230.683 433.234 229.249 432.641 228.171 431.453C227.101 430.258 226.565 428.668 226.565 426.684V426.543ZM229.413 426.789C229.413 428.094 229.683 429.117 230.222 429.859C230.761 430.594 231.511 430.961 232.472 430.961C233.433 430.961 234.179 430.586 234.71 429.836C235.249 429.086 235.519 427.988 235.519 426.543C235.519 425.262 235.241 424.246 234.687 423.496C234.14 422.746 233.394 422.371 232.448 422.371C231.519 422.371 230.78 422.742 230.233 423.484C229.687 424.219 229.413 425.32 229.413 426.789ZM240.932 430.727C241.721 429.844 242.248 429.008 242.514 428.219C242.787 427.422 242.951 426.406 243.006 425.172L243.17 420.32H251.971V430.727H253.729V436.773H250.893V433H242.76V436.773H239.877L239.889 430.727H240.932ZM244.272 430.727H249.135V422.77H245.936L245.854 425.195C245.744 427.523 245.217 429.367 244.272 430.727ZM262.306 433.234C260.501 433.234 259.036 432.668 257.911 431.535C256.794 430.395 256.235 428.879 256.235 426.988V426.637C256.235 425.371 256.478 424.242 256.962 423.25C257.454 422.25 258.142 421.473 259.025 420.918C259.907 420.363 260.892 420.086 261.978 420.086C263.704 420.086 265.036 420.637 265.974 421.738C266.919 422.84 267.392 424.398 267.392 426.414V427.562H259.107C259.193 428.609 259.54 429.438 260.15 430.047C260.767 430.656 261.54 430.961 262.47 430.961C263.775 430.961 264.837 430.434 265.657 429.379L267.193 430.844C266.685 431.602 266.005 432.191 265.153 432.613C264.31 433.027 263.36 433.234 262.306 433.234ZM261.966 422.371C261.185 422.371 260.552 422.645 260.068 423.191C259.591 423.738 259.286 424.5 259.153 425.477H264.579V425.266C264.517 424.312 264.263 423.594 263.818 423.109C263.372 422.617 262.755 422.371 261.966 422.371ZM281.676 426.789C281.676 428.75 281.231 430.316 280.34 431.488C279.449 432.652 278.254 433.234 276.754 433.234C275.363 433.234 274.25 432.777 273.414 431.863V437.875H270.567V420.32H273.192L273.309 421.609C274.145 420.594 275.281 420.086 276.719 420.086C278.266 420.086 279.477 420.664 280.352 421.82C281.235 422.969 281.676 424.566 281.676 426.613V426.789ZM278.84 426.543C278.84 425.277 278.586 424.273 278.078 423.531C277.578 422.789 276.86 422.418 275.922 422.418C274.758 422.418 273.922 422.898 273.414 423.859V429.484C273.93 430.469 274.774 430.961 275.945 430.961C276.852 430.961 277.559 430.598 278.067 429.871C278.582 429.137 278.84 428.027 278.84 426.543ZM296.03 427.902H294.519V433H291.671V427.902H290.171L287.253 433H283.761L287.968 426.402L283.984 420.32H287.464L290.335 425.301H291.671V420.32H294.519V425.301H295.866L298.749 420.32H302.23L298.257 426.367L302.488 433H298.948L296.03 427.902ZM313.127 420.32H315.963V433H313.127V424.539L308.158 433H305.323V420.32H308.158V428.781L313.127 420.32ZM327.482 429.496L331.232 420.32H334.794V433H331.947V424.609L328.454 433H326.521L323.017 424.562V433H320.169V420.32H323.755L327.482 429.496ZM338.426 426.543C338.426 425.301 338.672 424.184 339.164 423.191C339.657 422.191 340.348 421.426 341.239 420.895C342.129 420.355 343.153 420.086 344.309 420.086C346.02 420.086 347.407 420.637 348.469 421.738C349.539 422.84 350.117 424.301 350.203 426.121L350.215 426.789C350.215 428.039 349.973 429.156 349.489 430.141C349.012 431.125 348.325 431.887 347.426 432.426C346.535 432.965 345.504 433.234 344.332 433.234C342.543 433.234 341.11 432.641 340.032 431.453C338.961 430.258 338.426 428.668 338.426 426.684V426.543ZM341.274 426.789C341.274 428.094 341.543 429.117 342.082 429.859C342.621 430.594 343.371 430.961 344.332 430.961C345.293 430.961 346.039 430.586 346.571 429.836C347.11 429.086 347.379 427.988 347.379 426.543C347.379 425.262 347.102 424.246 346.547 423.496C346 422.746 345.254 422.371 344.309 422.371C343.379 422.371 342.641 422.742 342.094 423.484C341.547 424.219 341.274 425.32 341.274 426.789ZM359.167 433.234C357.363 433.234 355.898 432.668 354.773 431.535C353.656 430.395 353.097 428.879 353.097 426.988V426.637C353.097 425.371 353.339 424.242 353.824 423.25C354.316 422.25 355.003 421.473 355.886 420.918C356.769 420.363 357.753 420.086 358.839 420.086C360.566 420.086 361.898 420.637 362.835 421.738C363.781 422.84 364.253 424.398 364.253 426.414V427.562H355.968C356.054 428.609 356.402 429.438 357.011 430.047C357.628 430.656 358.402 430.961 359.331 430.961C360.636 430.961 361.699 430.434 362.519 429.379L364.054 430.844C363.546 431.602 362.867 432.191 362.015 432.613C361.171 433.027 360.222 433.234 359.167 433.234ZM358.827 422.371C358.046 422.371 357.413 422.645 356.929 423.191C356.452 423.738 356.148 424.5 356.015 425.477H361.441V425.266C361.378 424.312 361.124 423.594 360.679 423.109C360.234 422.617 359.617 422.371 358.827 422.371ZM379.58 430.961C380.29 430.961 380.88 430.754 381.349 430.34C381.818 429.926 382.068 429.414 382.099 428.805H384.783C384.751 429.594 384.505 430.332 384.044 431.02C383.583 431.699 382.958 432.238 382.169 432.637C381.38 433.035 380.529 433.234 379.615 433.234C377.841 433.234 376.435 432.66 375.396 431.512C374.357 430.363 373.837 428.777 373.837 426.754V426.461C373.837 424.531 374.353 422.988 375.384 421.832C376.415 420.668 377.822 420.086 379.603 420.086C381.111 420.086 382.337 420.527 383.283 421.41C384.236 422.285 384.736 423.438 384.783 424.867H382.099C382.068 424.141 381.818 423.543 381.349 423.074C380.888 422.605 380.298 422.371 379.58 422.371C378.658 422.371 377.947 422.707 377.447 423.379C376.947 424.043 376.693 425.055 376.685 426.414V426.871C376.685 428.246 376.931 429.273 377.423 429.953C377.923 430.625 378.642 430.961 379.58 430.961ZM397.872 422.582H393.758V433H390.911V422.582H386.844V420.32H397.872V422.582ZM411.839 426.789C411.839 428.75 411.394 430.316 410.503 431.488C409.613 432.652 408.417 433.234 406.917 433.234C405.527 433.234 404.414 432.777 403.578 431.863V437.875H400.73V420.32H403.355L403.472 421.609C404.308 420.594 405.445 420.086 406.882 420.086C408.429 420.086 409.64 420.664 410.515 421.82C411.398 422.969 411.839 424.566 411.839 426.613V426.789ZM409.003 426.543C409.003 425.277 408.75 424.273 408.242 423.531C407.742 422.789 407.023 422.418 406.085 422.418C404.921 422.418 404.085 422.898 403.578 423.859V429.484C404.093 430.469 404.937 430.961 406.109 430.961C407.015 430.961 407.722 430.598 408.23 429.871C408.746 429.137 409.003 428.027 409.003 426.543ZM422.795 433C422.67 432.758 422.561 432.363 422.467 431.816C421.561 432.762 420.452 433.234 419.139 433.234C417.866 433.234 416.827 432.871 416.022 432.145C415.217 431.418 414.815 430.52 414.815 429.449C414.815 428.098 415.315 427.062 416.315 426.344C417.323 425.617 418.76 425.254 420.628 425.254H422.374V424.422C422.374 423.766 422.19 423.242 421.823 422.852C421.456 422.453 420.897 422.254 420.147 422.254C419.499 422.254 418.967 422.418 418.553 422.746C418.139 423.066 417.932 423.477 417.932 423.977H415.085C415.085 423.281 415.315 422.633 415.776 422.031C416.237 421.422 416.862 420.945 417.651 420.602C418.448 420.258 419.335 420.086 420.311 420.086C421.795 420.086 422.979 420.461 423.862 421.211C424.745 421.953 425.198 423 425.221 424.352V430.07C425.221 431.211 425.381 432.121 425.702 432.801V433H422.795ZM419.667 430.949C420.229 430.949 420.756 430.812 421.249 430.539C421.749 430.266 422.124 429.898 422.374 429.438V427.047H420.838C419.784 427.047 418.991 427.23 418.46 427.598C417.928 427.965 417.663 428.484 417.663 429.156C417.663 429.703 417.842 430.141 418.202 430.469C418.569 430.789 419.057 430.949 419.667 430.949ZM439.904 433H437.056V427.879H432.123V433H429.275V420.32H432.123V425.605H437.056V420.32H439.904V433ZM451.821 420.32H454.657V433H451.821V424.539L446.852 433H444.016V420.32H446.852V428.781L451.821 420.32ZM458.757 420.32H461.605V430.727H466.55V420.32H469.398V430.727H471.121L470.886 436.762H468.297V433H458.757V420.32ZM477.155 424.352H479.944C480.983 424.352 481.889 424.531 482.663 424.891C483.436 425.25 484.022 425.754 484.421 426.402C484.827 427.051 485.03 427.805 485.03 428.664C485.03 429.969 484.569 431.016 483.647 431.805C482.725 432.594 481.499 432.992 479.967 433H474.307V420.32H477.155V424.352ZM489.987 433H487.139V420.32H489.987V433ZM477.155 426.637V430.727H479.932C480.628 430.727 481.175 430.555 481.573 430.211C481.979 429.859 482.182 429.363 482.182 428.723C482.182 428.082 481.983 427.578 481.585 427.211C481.194 426.836 480.663 426.645 479.991 426.637H477.155Z" fill="white"/>
<path d="M304.541 602.757L313.184 606.038V609.598L300.923 604.134V601.307L313.184 595.857V599.417L304.541 602.757ZM319.291 613.831H316.493L324.887 590.672H327.684L319.291 613.831ZM334.861 597.879C336.023 596.531 337.493 595.857 339.27 595.857C342.649 595.857 344.363 597.786 344.412 601.644V612H340.852V601.775C340.852 600.682 340.613 599.91 340.134 599.461C339.666 599.002 338.972 598.772 338.054 598.772C336.629 598.772 335.564 599.407 334.861 600.677V612H331.301V589.5H334.861V597.879ZM353.683 592.298V596.15H356.481V598.787H353.683V607.635C353.683 608.24 353.8 608.68 354.035 608.953C354.279 609.217 354.708 609.349 355.324 609.349C355.734 609.349 356.149 609.3 356.569 609.202V611.956C355.758 612.181 354.977 612.293 354.225 612.293C351.491 612.293 350.123 610.784 350.123 607.767V598.787H347.516V596.15H350.123V592.298H353.683ZM363.76 596.15L363.862 597.806C364.976 596.507 366.499 595.857 368.433 595.857C370.552 595.857 372.002 596.668 372.783 598.289C373.936 596.668 375.557 595.857 377.647 595.857C379.395 595.857 380.694 596.341 381.543 597.308C382.403 598.274 382.842 599.7 382.862 601.585V612H379.302V601.688C379.302 600.682 379.082 599.944 378.643 599.476C378.203 599.007 377.476 598.772 376.46 598.772C375.65 598.772 374.986 598.992 374.468 599.432C373.96 599.861 373.604 600.428 373.399 601.131L373.413 612H369.854V601.57C369.805 599.705 368.853 598.772 366.997 598.772C365.571 598.772 364.561 599.354 363.965 600.516V612H360.405V596.15H363.76ZM391.503 612H387.943V589.5H391.503V612ZM405.696 602.684L396.643 599.358V595.857L409.3 601.307V604.134L396.643 609.583V606.082L405.696 602.684Z" fill="#2DB34A"/>
<path d="M303.541 325.757L312.184 329.038V332.598L299.923 327.134V324.307L312.184 318.857V322.417L303.541 325.757ZM331.196 327.236C331.196 329.697 330.644 331.655 329.541 333.11C328.447 334.565 326.938 335.293 325.014 335.293C323.159 335.293 321.714 334.624 320.679 333.286L320.503 335H317.28V312.5H320.84V320.674C321.865 319.463 323.247 318.857 324.985 318.857C326.919 318.857 328.437 319.575 329.541 321.011C330.644 322.446 331.196 324.453 331.196 327.031V327.236ZM327.637 326.929C327.637 325.21 327.334 323.921 326.728 323.062C326.123 322.202 325.244 321.772 324.092 321.772C322.549 321.772 321.465 322.446 320.84 323.794V330.327C321.474 331.704 322.568 332.393 324.121 332.393C325.234 332.393 326.094 331.978 326.699 331.147C327.304 330.317 327.617 329.062 327.637 327.383V326.929ZM334.725 326.929C334.725 325.376 335.033 323.979 335.648 322.739C336.263 321.489 337.128 320.532 338.241 319.868C339.354 319.194 340.633 318.857 342.079 318.857C344.217 318.857 345.951 319.546 347.279 320.923C348.617 322.3 349.339 324.126 349.447 326.401L349.462 327.236C349.462 328.799 349.159 330.195 348.553 331.426C347.958 332.656 347.098 333.608 345.975 334.282C344.862 334.956 343.573 335.293 342.108 335.293C339.872 335.293 338.08 334.551 336.732 333.066C335.394 331.572 334.725 329.585 334.725 327.104V326.929ZM338.285 327.236C338.285 328.867 338.622 330.146 339.296 331.074C339.969 331.992 340.907 332.451 342.108 332.451C343.309 332.451 344.242 331.982 344.906 331.045C345.58 330.107 345.917 328.735 345.917 326.929C345.917 325.327 345.57 324.058 344.877 323.12C344.193 322.183 343.26 321.714 342.079 321.714C340.917 321.714 339.994 322.178 339.31 323.105C338.627 324.023 338.285 325.4 338.285 327.236ZM353.005 326.958C353.005 324.517 353.572 322.559 354.704 321.084C355.837 319.6 357.356 318.857 359.26 318.857C360.94 318.857 362.297 319.443 363.332 320.615V312.5H366.892V335H363.669L363.494 333.359C362.429 334.648 361.008 335.293 359.231 335.293C357.375 335.293 355.871 334.546 354.719 333.052C353.577 331.558 353.005 329.526 353.005 326.958ZM356.565 327.266C356.565 328.877 356.872 330.137 357.488 331.045C358.113 331.943 358.996 332.393 360.139 332.393C361.594 332.393 362.659 331.743 363.332 330.444V323.677C362.678 322.407 361.623 321.772 360.168 321.772C359.016 321.772 358.127 322.231 357.502 323.149C356.877 324.058 356.565 325.43 356.565 327.266ZM377.35 329.902L380.572 319.15H384.366L378.068 337.402C377.101 340.068 375.46 341.401 373.146 341.401C372.628 341.401 372.057 341.313 371.432 341.138V338.384L372.106 338.428C373.004 338.428 373.678 338.262 374.127 337.93C374.586 337.607 374.947 337.061 375.211 336.289L375.724 334.927L370.157 319.15H373.995L377.35 329.902ZM396.729 325.684L387.676 322.358V318.857L400.332 324.307V327.134L387.676 332.583V329.082L396.729 325.684Z" fill="#2DB34A"/>
<path d="M299.541 549.757L308.184 553.038V556.598L295.923 551.134V548.307L308.184 542.857V546.417L299.541 549.757ZM314.291 560.831H311.493L319.887 537.672H322.684L314.291 560.831ZM340.261 551.236C340.261 553.697 339.71 555.655 338.606 557.11C337.512 558.565 336.004 559.293 334.08 559.293C332.224 559.293 330.779 558.624 329.744 557.286L329.568 559H326.345V536.5H329.905V544.674C330.93 543.463 332.312 542.857 334.05 542.857C335.984 542.857 337.503 543.575 338.606 545.011C339.71 546.446 340.261 548.453 340.261 551.031V551.236ZM336.702 550.929C336.702 549.21 336.399 547.921 335.794 547.062C335.188 546.202 334.309 545.772 333.157 545.772C331.614 545.772 330.53 546.446 329.905 547.794V554.327C330.54 555.704 331.633 556.393 333.186 556.393C334.299 556.393 335.159 555.978 335.764 555.147C336.37 554.317 336.682 553.062 336.702 551.383V550.929ZM343.79 550.929C343.79 549.376 344.098 547.979 344.713 546.739C345.329 545.489 346.193 544.532 347.306 543.868C348.419 543.194 349.699 542.857 351.144 542.857C353.283 542.857 355.016 543.546 356.344 544.923C357.682 546.3 358.405 548.126 358.512 550.401L358.527 551.236C358.527 552.799 358.224 554.195 357.619 555.426C357.023 556.656 356.163 557.608 355.04 558.282C353.927 558.956 352.638 559.293 351.173 559.293C348.937 559.293 347.145 558.551 345.797 557.066C344.459 555.572 343.79 553.585 343.79 551.104V550.929ZM347.35 551.236C347.35 552.867 347.687 554.146 348.361 555.074C349.035 555.992 349.972 556.451 351.173 556.451C352.374 556.451 353.307 555.982 353.971 555.045C354.645 554.107 354.982 552.735 354.982 550.929C354.982 549.327 354.635 548.058 353.942 547.12C353.258 546.183 352.326 545.714 351.144 545.714C349.982 545.714 349.059 546.178 348.375 547.105C347.692 548.023 347.35 549.4 347.35 551.236ZM362.071 550.958C362.071 548.517 362.637 546.559 363.77 545.084C364.903 543.6 366.421 542.857 368.325 542.857C370.005 542.857 371.363 543.443 372.398 544.615V536.5H375.957V559H372.735L372.559 557.359C371.494 558.648 370.073 559.293 368.296 559.293C366.441 559.293 364.937 558.546 363.784 557.052C362.642 555.558 362.071 553.526 362.071 550.958ZM365.63 551.266C365.63 552.877 365.938 554.137 366.553 555.045C367.178 555.943 368.062 556.393 369.204 556.393C370.659 556.393 371.724 555.743 372.398 554.444V547.677C371.743 546.407 370.689 545.772 369.234 545.772C368.081 545.772 367.193 546.231 366.568 547.149C365.943 548.058 365.63 549.43 365.63 551.266ZM386.415 553.902L389.638 543.15H393.432L387.133 561.402C386.166 564.068 384.525 565.401 382.211 565.401C381.693 565.401 381.122 565.313 380.497 565.138V562.384L381.171 562.428C382.069 562.428 382.743 562.262 383.192 561.93C383.651 561.607 384.013 561.061 384.276 560.289L384.789 558.927L379.223 543.15H383.061L386.415 553.902ZM405.794 549.684L396.741 546.358V542.857L409.397 548.307V551.134L396.741 556.583V553.082L405.794 549.684Z" fill="#2DB34A"/>
<path d="M296.541 274.757L305.184 278.038V281.598L292.923 276.134V273.307L305.184 267.857V271.417L296.541 274.757ZM311.291 285.831H308.493L316.887 262.672H319.684L311.291 285.831ZM326.861 269.879C328.023 268.531 329.493 267.857 331.27 267.857C334.649 267.857 336.363 269.786 336.412 273.644V284H332.852V273.775C332.852 272.682 332.613 271.91 332.134 271.461C331.666 271.002 330.972 270.772 330.054 270.772C328.629 270.772 327.564 271.407 326.861 272.677V284H323.301V261.5H326.861V269.879ZM348.203 284.293C345.947 284.293 344.116 283.585 342.709 282.169C341.313 280.743 340.615 278.849 340.615 276.485V276.046C340.615 274.464 340.917 273.053 341.523 271.812C342.138 270.562 342.997 269.591 344.101 268.897C345.204 268.204 346.435 267.857 347.792 267.857C349.951 267.857 351.616 268.546 352.787 269.923C353.969 271.3 354.56 273.248 354.56 275.768V277.203H344.204C344.311 278.512 344.746 279.547 345.507 280.309C346.279 281.07 347.246 281.451 348.408 281.451C350.038 281.451 351.367 280.792 352.392 279.474L354.311 281.305C353.676 282.252 352.827 282.989 351.762 283.517C350.707 284.034 349.521 284.293 348.203 284.293ZM347.778 270.714C346.801 270.714 346.01 271.056 345.405 271.739C344.809 272.423 344.428 273.375 344.262 274.596H351.044V274.332C350.966 273.141 350.649 272.242 350.092 271.637C349.536 271.021 348.764 270.714 347.778 270.714ZM368.006 284C367.85 283.697 367.713 283.204 367.596 282.521C366.463 283.702 365.076 284.293 363.436 284.293C361.844 284.293 360.545 283.839 359.539 282.931C358.533 282.022 358.03 280.899 358.03 279.562C358.03 277.872 358.655 276.578 359.905 275.68C361.165 274.771 362.962 274.317 365.296 274.317H367.479V273.277C367.479 272.457 367.249 271.803 366.79 271.314C366.331 270.816 365.633 270.567 364.696 270.567C363.885 270.567 363.221 270.772 362.703 271.183C362.186 271.583 361.927 272.096 361.927 272.721H358.367C358.367 271.852 358.655 271.041 359.232 270.289C359.808 269.527 360.589 268.932 361.575 268.502C362.571 268.072 363.68 267.857 364.901 267.857C366.756 267.857 368.236 268.326 369.339 269.264C370.443 270.191 371.009 271.5 371.038 273.189V280.338C371.038 281.764 371.238 282.901 371.639 283.751V284H368.006ZM364.095 281.437C364.798 281.437 365.457 281.266 366.072 280.924C366.697 280.582 367.166 280.123 367.479 279.547V276.559H365.56C364.241 276.559 363.25 276.788 362.586 277.247C361.922 277.706 361.59 278.355 361.59 279.195C361.59 279.879 361.815 280.426 362.264 280.836C362.723 281.236 363.333 281.437 364.095 281.437ZM375.3 275.958C375.3 273.517 375.866 271.559 376.999 270.084C378.132 268.6 379.65 267.857 381.555 267.857C383.234 267.857 384.592 268.443 385.627 269.615V261.5H389.187V284H385.964L385.788 282.359C384.724 283.648 383.303 284.293 381.525 284.293C379.67 284.293 378.166 283.546 377.014 282.052C375.871 280.558 375.3 278.526 375.3 275.958ZM378.859 276.266C378.859 277.877 379.167 279.137 379.782 280.045C380.407 280.943 381.291 281.393 382.434 281.393C383.889 281.393 384.953 280.743 385.627 279.444V272.677C384.973 271.407 383.918 270.772 382.463 270.772C381.311 270.772 380.422 271.231 379.797 272.149C379.172 273.058 378.859 274.43 378.859 276.266ZM403.204 274.684L394.151 271.358V267.857L406.807 273.307V276.134L394.151 281.583V278.082L403.204 274.684Z" fill="#2DB34A"/>
<path d="M169.633 226.605L176.547 229.23V232.078L166.738 227.707V225.445L176.547 221.086V223.934L169.633 226.605ZM184.198 218.238V221.32H186.437V223.43H184.198V230.508C184.198 230.992 184.292 231.344 184.48 231.562C184.675 231.773 185.019 231.879 185.511 231.879C185.839 231.879 186.171 231.84 186.507 231.762V233.965C185.858 234.145 185.233 234.234 184.632 234.234C182.444 234.234 181.351 233.027 181.351 230.613V223.43H179.265V221.32H181.351V218.238H184.198ZM192.611 234H189.764V221.32H192.611V234ZM189.588 218.027C189.588 217.59 189.725 217.227 189.998 216.938C190.279 216.648 190.678 216.504 191.193 216.504C191.709 216.504 192.108 216.648 192.389 216.938C192.67 217.227 192.811 217.59 192.811 218.027C192.811 218.457 192.67 218.816 192.389 219.105C192.108 219.387 191.709 219.527 191.193 219.527C190.678 219.527 190.279 219.387 189.998 219.105C189.725 218.816 189.588 218.457 189.588 218.027ZM200.251 218.238V221.32H202.489V223.43H200.251V230.508C200.251 230.992 200.345 231.344 200.532 231.562C200.728 231.773 201.071 231.879 201.564 231.879C201.892 231.879 202.224 231.84 202.56 231.762V233.965C201.911 234.145 201.286 234.234 200.685 234.234C198.497 234.234 197.403 233.027 197.403 230.613V223.43H195.317V221.32H197.403V218.238H200.251ZM208.664 234H205.817V216H208.664V234ZM218.32 234.234C216.515 234.234 215.05 233.668 213.925 232.535C212.808 231.395 212.249 229.879 212.249 227.988V227.637C212.249 226.371 212.491 225.242 212.976 224.25C213.468 223.25 214.155 222.473 215.038 221.918C215.921 221.363 216.905 221.086 217.991 221.086C219.718 221.086 221.05 221.637 221.987 222.738C222.933 223.84 223.405 225.398 223.405 227.414V228.562H215.12C215.206 229.609 215.554 230.438 216.163 231.047C216.78 231.656 217.554 231.961 218.484 231.961C219.788 231.961 220.851 231.434 221.671 230.379L223.206 231.844C222.698 232.602 222.019 233.191 221.167 233.613C220.323 234.027 219.374 234.234 218.32 234.234ZM217.98 223.371C217.198 223.371 216.566 223.645 216.081 224.191C215.605 224.738 215.3 225.5 215.167 226.477H220.593V226.266C220.53 225.312 220.277 224.594 219.831 224.109C219.386 223.617 218.769 223.371 217.98 223.371ZM233.869 226.547L226.627 223.887V221.086L236.752 225.445V227.707L226.627 232.066V229.266L233.869 226.547ZM455.222 226.605L462.136 229.23V232.078L452.327 227.707V225.445L462.136 221.086V223.934L455.222 226.605ZM467.021 235.465H464.783L471.498 216.938H473.736L467.021 235.465ZM480.239 218.238V221.32H482.478V223.43H480.239V230.508C480.239 230.992 480.333 231.344 480.52 231.562C480.716 231.773 481.06 231.879 481.552 231.879C481.88 231.879 482.212 231.84 482.548 231.762V233.965C481.899 234.145 481.274 234.234 480.673 234.234C478.485 234.234 477.392 233.027 477.392 230.613V223.43H475.306V221.32H477.392V218.238H480.239ZM488.652 234H485.805V221.32H488.652V234ZM485.629 218.027C485.629 217.59 485.766 217.227 486.039 216.938C486.32 216.648 486.719 216.504 487.234 216.504C487.75 216.504 488.148 216.648 488.43 216.938C488.711 217.227 488.852 217.59 488.852 218.027C488.852 218.457 488.711 218.816 488.43 219.105C488.148 219.387 487.75 219.527 487.234 219.527C486.719 219.527 486.32 219.387 486.039 219.105C485.766 218.816 485.629 218.457 485.629 218.027ZM496.292 218.238V221.32H498.53V223.43H496.292V230.508C496.292 230.992 496.386 231.344 496.573 231.562C496.769 231.773 497.112 231.879 497.605 231.879C497.933 231.879 498.265 231.84 498.601 231.762V233.965C497.952 234.145 497.327 234.234 496.726 234.234C494.538 234.234 493.444 233.027 493.444 230.613V223.43H491.358V221.32H493.444V218.238H496.292ZM504.705 234H501.858V216H504.705V234ZM514.36 234.234C512.556 234.234 511.091 233.668 509.966 232.535C508.849 231.395 508.29 229.879 508.29 227.988V227.637C508.29 226.371 508.532 225.242 509.017 224.25C509.509 223.25 510.196 222.473 511.079 221.918C511.962 221.363 512.946 221.086 514.032 221.086C515.759 221.086 517.091 221.637 518.028 222.738C518.974 223.84 519.446 225.398 519.446 227.414V228.562H511.161C511.247 229.609 511.595 230.438 512.204 231.047C512.821 231.656 513.595 231.961 514.525 231.961C515.829 231.961 516.892 231.434 517.712 230.379L519.247 231.844C518.739 232.602 518.06 233.191 517.208 233.613C516.364 234.027 515.415 234.234 514.36 234.234ZM514.021 223.371C513.239 223.371 512.607 223.645 512.122 224.191C511.646 224.738 511.341 225.5 511.208 226.477H516.634V226.266C516.571 225.312 516.318 224.594 515.872 224.109C515.427 223.617 514.81 223.371 514.021 223.371ZM529.91 226.547L522.668 223.887V221.086L532.793 225.445V227.707L522.668 232.066V229.266L529.91 226.547Z" fill="#2DB34A"/>
<path d="M244.158 216.938L249.079 230.016L253.99 216.938H257.822V234H254.868V228.375L255.161 220.852L250.122 234H248.001L242.974 220.863L243.267 228.375V234H240.314V216.938H244.158ZM261.489 227.543C261.489 226.301 261.735 225.184 262.227 224.191C262.719 223.191 263.41 222.426 264.301 221.895C265.192 221.355 266.215 221.086 267.371 221.086C269.082 221.086 270.469 221.637 271.532 222.738C272.602 223.84 273.18 225.301 273.266 227.121L273.278 227.789C273.278 229.039 273.035 230.156 272.551 231.141C272.075 232.125 271.387 232.887 270.489 233.426C269.598 233.965 268.567 234.234 267.395 234.234C265.606 234.234 264.172 233.641 263.094 232.453C262.024 231.258 261.489 229.668 261.489 227.684V227.543ZM264.336 227.789C264.336 229.094 264.606 230.117 265.145 230.859C265.684 231.594 266.434 231.961 267.395 231.961C268.356 231.961 269.102 231.586 269.633 230.836C270.172 230.086 270.442 228.988 270.442 227.543C270.442 226.262 270.164 225.246 269.61 224.496C269.063 223.746 268.317 223.371 267.371 223.371C266.442 223.371 265.703 223.742 265.157 224.484C264.61 225.219 264.336 226.32 264.336 227.789ZM284.562 221.32H287.398V234H284.562V225.539L279.593 234H276.757V221.32H279.593V229.781L284.562 221.32ZM285.898 216.457C285.898 217.441 285.554 218.238 284.867 218.848C284.179 219.457 283.261 219.762 282.113 219.762C280.964 219.762 280.046 219.457 279.359 218.848C278.671 218.238 278.327 217.441 278.327 216.457H280.46C280.46 216.973 280.605 217.375 280.894 217.664C281.191 217.945 281.597 218.086 282.113 218.086C282.628 218.086 283.031 217.945 283.32 217.664C283.609 217.375 283.753 216.973 283.753 216.457H285.898ZM309.076 234H306.228V223.617H301.283V234H298.435V221.32H309.076V234ZM318.649 234.234C316.844 234.234 315.379 233.668 314.254 232.535C313.137 231.395 312.579 229.879 312.579 227.988V227.637C312.579 226.371 312.821 225.242 313.305 224.25C313.797 223.25 314.485 222.473 315.368 221.918C316.25 221.363 317.235 221.086 318.321 221.086C320.047 221.086 321.379 221.637 322.317 222.738C323.262 223.84 323.735 225.398 323.735 227.414V228.562H315.45C315.536 229.609 315.883 230.438 316.493 231.047C317.11 231.656 317.883 231.961 318.813 231.961C320.118 231.961 321.18 231.434 322 230.379L323.536 231.844C323.028 232.602 322.348 233.191 321.497 233.613C320.653 234.027 319.704 234.234 318.649 234.234ZM318.309 223.371C317.528 223.371 316.895 223.645 316.411 224.191C315.934 224.738 315.629 225.5 315.497 226.477H320.922V226.266C320.86 225.312 320.606 224.594 320.161 224.109C319.715 223.617 319.098 223.371 318.309 223.371ZM338.019 227.789C338.019 229.75 337.574 231.316 336.683 232.488C335.792 233.652 334.597 234.234 333.097 234.234C331.707 234.234 330.593 233.777 329.757 232.863V238.875H326.91V221.32H329.535L329.652 222.609C330.488 221.594 331.625 221.086 333.062 221.086C334.609 221.086 335.82 221.664 336.695 222.82C337.578 223.969 338.019 225.566 338.019 227.613V227.789ZM335.183 227.543C335.183 226.277 334.929 225.273 334.421 224.531C333.921 223.789 333.203 223.418 332.265 223.418C331.101 223.418 330.265 223.898 329.757 224.859V230.484C330.273 231.469 331.117 231.961 332.289 231.961C333.195 231.961 333.902 231.598 334.41 230.871C334.925 230.137 335.183 229.027 335.183 227.543ZM341.616 234V221.32H346.76C348.495 221.32 349.815 221.625 350.721 222.234C351.628 222.836 352.081 223.703 352.081 224.836C352.081 225.422 351.897 225.949 351.53 226.418C351.17 226.879 350.635 227.234 349.924 227.484C350.753 227.656 351.409 228.004 351.893 228.527C352.378 229.051 352.62 229.668 352.62 230.379C352.62 231.559 352.182 232.457 351.307 233.074C350.44 233.691 349.19 234 347.557 234H341.616ZM344.463 228.598V231.75H347.581C349.042 231.75 349.772 231.227 349.772 230.18C349.772 229.125 349.03 228.598 347.545 228.598H344.463ZM344.463 226.559H346.807C348.424 226.559 349.233 226.082 349.233 225.129C349.233 224.129 348.467 223.613 346.936 223.582H344.463V226.559ZM359.111 225.352H361.9C362.939 225.352 363.845 225.531 364.619 225.891C365.392 226.25 365.978 226.754 366.377 227.402C366.783 228.051 366.986 228.805 366.986 229.664C366.986 230.969 366.525 232.016 365.603 232.805C364.681 233.594 363.455 233.992 361.923 234H356.263V221.32H359.111V225.352ZM371.943 234H369.095V221.32H371.943V234ZM359.111 227.637V231.727H361.888C362.584 231.727 363.13 231.555 363.529 231.211C363.935 230.859 364.138 230.363 364.138 229.723C364.138 229.082 363.939 228.578 363.541 228.211C363.15 227.836 362.619 227.645 361.947 227.637H359.111ZM384.235 221.32H387.071V234H384.235V225.539L379.266 234H376.43V221.32H379.266V229.781L384.235 221.32ZM385.571 216.457C385.571 217.441 385.227 218.238 384.54 218.848C383.852 219.457 382.934 219.762 381.786 219.762C380.637 219.762 379.719 219.457 379.032 218.848C378.344 218.238 378.001 217.441 378.001 216.457H380.133C380.133 216.973 380.278 217.375 380.567 217.664C380.864 217.945 381.27 218.086 381.786 218.086C382.301 218.086 382.704 217.945 382.993 217.664C383.282 217.375 383.426 216.973 383.426 216.457H385.571ZM403.206 231.961C403.917 231.961 404.507 231.754 404.975 231.34C405.444 230.926 405.694 230.414 405.725 229.805H408.409C408.378 230.594 408.132 231.332 407.671 232.02C407.21 232.699 406.585 233.238 405.796 233.637C405.007 234.035 404.155 234.234 403.241 234.234C401.467 234.234 400.061 233.66 399.022 232.512C397.983 231.363 397.464 229.777 397.464 227.754V227.461C397.464 225.531 397.979 223.988 399.01 222.832C400.042 221.668 401.448 221.086 403.229 221.086C404.737 221.086 405.964 221.527 406.909 222.41C407.862 223.285 408.362 224.438 408.409 225.867H405.725C405.694 225.141 405.444 224.543 404.975 224.074C404.514 223.605 403.925 223.371 403.206 223.371C402.284 223.371 401.573 223.707 401.073 224.379C400.573 225.043 400.319 226.055 400.311 227.414V227.871C400.311 229.246 400.557 230.273 401.05 230.953C401.55 231.625 402.268 231.961 403.206 231.961ZM419.095 234C418.97 233.758 418.861 233.363 418.767 232.816C417.861 233.762 416.752 234.234 415.439 234.234C414.166 234.234 413.127 233.871 412.322 233.145C411.517 232.418 411.115 231.52 411.115 230.449C411.115 229.098 411.615 228.062 412.615 227.344C413.623 226.617 415.06 226.254 416.928 226.254H418.674V225.422C418.674 224.766 418.49 224.242 418.123 223.852C417.756 223.453 417.197 223.254 416.447 223.254C415.799 223.254 415.267 223.418 414.853 223.746C414.439 224.066 414.232 224.477 414.232 224.977H411.385C411.385 224.281 411.615 223.633 412.076 223.031C412.537 222.422 413.162 221.945 413.951 221.602C414.748 221.258 415.635 221.086 416.611 221.086C418.095 221.086 419.279 221.461 420.162 222.211C421.045 222.953 421.498 224 421.521 225.352V231.07C421.521 232.211 421.681 233.121 422.002 233.801V234H419.095ZM415.967 231.949C416.529 231.949 417.056 231.812 417.549 231.539C418.049 231.266 418.424 230.898 418.674 230.438V228.047H417.138C416.084 228.047 415.291 228.23 414.76 228.598C414.228 228.965 413.963 229.484 413.963 230.156C413.963 230.703 414.142 231.141 414.502 231.469C414.869 231.789 415.357 231.949 415.967 231.949ZM433.38 221.32H436.216V234H433.38V225.539L428.411 234H425.575V221.32H428.411V229.781L433.38 221.32ZM434.716 216.457C434.716 217.441 434.372 218.238 433.684 218.848C432.997 219.457 432.079 219.762 430.93 219.762C429.782 219.762 428.864 219.457 428.177 218.848C427.489 218.238 427.145 217.441 427.145 216.457H429.278C429.278 216.973 429.423 217.375 429.712 217.664C430.009 217.945 430.415 218.086 430.93 218.086C431.446 218.086 431.848 217.945 432.138 217.664C432.427 217.375 432.571 216.973 432.571 216.457H434.716ZM450.183 223.582H446.07V234H443.223V223.582H439.156V221.32H450.183V223.582Z" fill="white"/>
<path d="M214.633 186.605L221.547 189.23V192.078L211.738 187.707V185.445L221.547 181.086V183.934L214.633 186.605ZM228.308 181.32L228.39 182.645C229.28 181.605 230.499 181.086 232.046 181.086C233.741 181.086 234.901 181.734 235.526 183.031C236.448 181.734 237.745 181.086 239.417 181.086C240.815 181.086 241.855 181.473 242.534 182.246C243.222 183.02 243.573 184.16 243.589 185.668V194H240.741V185.75C240.741 184.945 240.565 184.355 240.214 183.98C239.862 183.605 239.28 183.418 238.468 183.418C237.819 183.418 237.288 183.594 236.874 183.945C236.468 184.289 236.183 184.742 236.019 185.305L236.03 194H233.183V185.656C233.144 184.164 232.382 183.418 230.898 183.418C229.757 183.418 228.948 183.883 228.472 184.812V194H225.624V181.32H228.308ZM253.057 194.234C251.252 194.234 249.787 193.668 248.662 192.535C247.545 191.395 246.986 189.879 246.986 187.988V187.637C246.986 186.371 247.229 185.242 247.713 184.25C248.205 183.25 248.893 182.473 249.775 181.918C250.658 181.363 251.643 181.086 252.729 181.086C254.455 181.086 255.787 181.637 256.725 182.738C257.67 183.84 258.143 185.398 258.143 187.414V188.562H249.857C249.943 189.609 250.291 190.438 250.9 191.047C251.518 191.656 252.291 191.961 253.221 191.961C254.525 191.961 255.588 191.434 256.408 190.379L257.943 191.844C257.436 192.602 256.756 193.191 255.904 193.613C255.061 194.027 254.111 194.234 253.057 194.234ZM252.717 183.371C251.936 183.371 251.303 183.645 250.818 184.191C250.342 184.738 250.037 185.5 249.904 186.477H255.33V186.266C255.268 185.312 255.014 184.594 254.568 184.109C254.123 183.617 253.506 183.371 252.717 183.371ZM264.892 178.238V181.32H267.13V183.43H264.892V190.508C264.892 190.992 264.985 191.344 265.173 191.562C265.368 191.773 265.712 191.879 266.204 191.879C266.532 191.879 266.864 191.84 267.2 191.762V193.965C266.552 194.145 265.927 194.234 265.325 194.234C263.138 194.234 262.044 193.027 262.044 190.613V183.43H259.958V181.32H262.044V178.238H264.892ZM277.852 194C277.727 193.758 277.617 193.363 277.524 192.816C276.617 193.762 275.508 194.234 274.195 194.234C272.922 194.234 271.883 193.871 271.078 193.145C270.274 192.418 269.871 191.52 269.871 190.449C269.871 189.098 270.371 188.062 271.371 187.344C272.379 186.617 273.817 186.254 275.684 186.254H277.43V185.422C277.43 184.766 277.246 184.242 276.879 183.852C276.512 183.453 275.953 183.254 275.203 183.254C274.555 183.254 274.024 183.418 273.61 183.746C273.195 184.066 272.988 184.477 272.988 184.977H270.141C270.141 184.281 270.371 183.633 270.832 183.031C271.293 182.422 271.918 181.945 272.707 181.602C273.504 181.258 274.391 181.086 275.367 181.086C276.852 181.086 278.035 181.461 278.918 182.211C279.801 182.953 280.254 184 280.278 185.352V191.07C280.278 192.211 280.438 193.121 280.758 193.801V194H277.852ZM274.723 191.949C275.285 191.949 275.813 191.812 276.305 191.539C276.805 191.266 277.18 190.898 277.43 190.438V188.047H275.895C274.84 188.047 274.047 188.23 273.516 188.598C272.985 188.965 272.719 189.484 272.719 190.156C272.719 190.703 272.899 191.141 273.258 191.469C273.625 191.789 274.113 191.949 274.723 191.949ZM388.82 184.859H378.718V182.492H388.82V184.859ZM388.82 189.828H378.718V187.473H388.82V189.828ZM393.612 182L392.159 181.098C392.862 180.074 393.225 178.992 393.249 177.852V176H395.745V177.617C395.745 178.422 395.538 179.234 395.124 180.055C394.717 180.867 394.213 181.516 393.612 182ZM397.526 182L396.073 181.098C396.776 180.074 397.139 178.992 397.163 177.852V176H399.659V177.617C399.659 178.422 399.452 179.234 399.038 180.055C398.631 180.867 398.128 181.516 397.526 182ZM473.645 182L472.192 181.098C472.895 180.074 473.259 178.992 473.282 177.852V176H475.778V177.617C475.778 178.422 475.571 179.234 475.157 180.055C474.751 180.867 474.247 181.516 473.645 182ZM477.559 182L476.106 181.098C476.809 180.074 477.173 178.992 477.196 177.852V176H479.692V177.617C479.692 178.422 479.485 179.234 479.071 180.055C478.665 180.867 478.161 181.516 477.559 182ZM490.473 186.547L483.23 183.887V181.086L493.355 185.445V187.707L483.23 192.066V189.266L490.473 186.547Z" fill="#2DB34A"/>
<path d="M296.365 191.961C297.076 191.961 297.666 191.754 298.135 191.34C298.604 190.926 298.854 190.414 298.885 189.805H301.569C301.537 190.594 301.291 191.332 300.83 192.02C300.369 192.699 299.744 193.238 298.955 193.637C298.166 194.035 297.315 194.234 296.401 194.234C294.627 194.234 293.221 193.66 292.182 192.512C291.143 191.363 290.623 189.777 290.623 187.754V187.461C290.623 185.531 291.139 183.988 292.17 182.832C293.201 181.668 294.608 181.086 296.389 181.086C297.897 181.086 299.123 181.527 300.069 182.41C301.022 183.285 301.522 184.438 301.569 185.867H298.885C298.854 185.141 298.604 184.543 298.135 184.074C297.674 183.605 297.084 183.371 296.365 183.371C295.444 183.371 294.733 183.707 294.233 184.379C293.733 185.043 293.479 186.055 293.471 187.414V187.871C293.471 189.246 293.717 190.273 294.209 190.953C294.709 191.625 295.428 191.961 296.365 191.961ZM307.486 182.703C308.415 181.625 309.591 181.086 311.013 181.086C313.716 181.086 315.087 182.629 315.126 185.715V194H312.279V185.82C312.279 184.945 312.087 184.328 311.704 183.969C311.329 183.602 310.775 183.418 310.04 183.418C308.9 183.418 308.048 183.926 307.486 184.941V194H304.638V176H307.486V182.703ZM326.551 194C326.426 193.758 326.317 193.363 326.223 192.816C325.317 193.762 324.207 194.234 322.895 194.234C321.621 194.234 320.582 193.871 319.778 193.145C318.973 192.418 318.571 191.52 318.571 190.449C318.571 189.098 319.071 188.062 320.071 187.344C321.078 186.617 322.516 186.254 324.383 186.254H326.129V185.422C326.129 184.766 325.946 184.242 325.578 183.852C325.211 183.453 324.653 183.254 323.903 183.254C323.254 183.254 322.723 183.418 322.309 183.746C321.895 184.066 321.688 184.477 321.688 184.977H318.84C318.84 184.281 319.071 183.633 319.532 183.031C319.993 182.422 320.618 181.945 321.407 181.602C322.203 181.258 323.09 181.086 324.067 181.086C325.551 181.086 326.735 181.461 327.618 182.211C328.5 182.953 328.953 184 328.977 185.352V191.07C328.977 192.211 329.137 193.121 329.457 193.801V194H326.551ZM323.422 191.949C323.985 191.949 324.512 191.812 325.004 191.539C325.504 191.266 325.879 190.898 326.129 190.438V188.047H324.594C323.539 188.047 322.746 188.23 322.215 188.598C321.684 188.965 321.418 189.484 321.418 190.156C321.418 190.703 321.598 191.141 321.957 191.469C322.325 191.789 322.813 191.949 323.422 191.949ZM339.558 183.922C339.183 183.859 338.796 183.828 338.398 183.828C337.093 183.828 336.214 184.328 335.761 185.328V194H332.913V181.32H335.632L335.702 182.738C336.39 181.637 337.343 181.086 338.562 181.086C338.968 181.086 339.304 181.141 339.57 181.25L339.558 183.922ZM349.424 190.555C349.424 190.047 349.213 189.66 348.791 189.395C348.377 189.129 347.686 188.895 346.717 188.691C345.748 188.488 344.94 188.23 344.291 187.918C342.87 187.23 342.159 186.234 342.159 184.93C342.159 183.836 342.62 182.922 343.541 182.188C344.463 181.453 345.635 181.086 347.057 181.086C348.573 181.086 349.795 181.461 350.725 182.211C351.663 182.961 352.131 183.934 352.131 185.129H349.284C349.284 184.582 349.08 184.129 348.674 183.77C348.268 183.402 347.729 183.219 347.057 183.219C346.432 183.219 345.92 183.363 345.522 183.652C345.131 183.941 344.936 184.328 344.936 184.812C344.936 185.25 345.12 185.59 345.487 185.832C345.854 186.074 346.596 186.32 347.713 186.57C348.83 186.812 349.705 187.105 350.338 187.449C350.979 187.785 351.452 188.191 351.756 188.668C352.069 189.145 352.225 189.723 352.225 190.402C352.225 191.543 351.752 192.469 350.807 193.18C349.862 193.883 348.623 194.234 347.092 194.234C346.053 194.234 345.127 194.047 344.315 193.672C343.502 193.297 342.87 192.781 342.416 192.125C341.963 191.469 341.737 190.762 341.737 190.004H344.502C344.541 190.676 344.795 191.195 345.264 191.562C345.733 191.922 346.354 192.102 347.127 192.102C347.877 192.102 348.448 191.961 348.838 191.68C349.229 191.391 349.424 191.016 349.424 190.555ZM361.259 194.234C359.455 194.234 357.99 193.668 356.865 192.535C355.747 191.395 355.189 189.879 355.189 187.988V187.637C355.189 186.371 355.431 185.242 355.915 184.25C356.408 183.25 357.095 182.473 357.978 181.918C358.861 181.363 359.845 181.086 360.931 181.086C362.658 181.086 363.99 181.637 364.927 182.738C365.872 183.84 366.345 185.398 366.345 187.414V188.562H358.06C358.146 189.609 358.494 190.438 359.103 191.047C359.72 191.656 360.494 191.961 361.423 191.961C362.728 191.961 363.79 191.434 364.611 190.379L366.146 191.844C365.638 192.602 364.958 193.191 364.107 193.613C363.263 194.027 362.314 194.234 361.259 194.234ZM360.919 183.371C360.138 183.371 359.505 183.645 359.021 184.191C358.544 184.738 358.24 185.5 358.107 186.477H363.533V186.266C363.47 185.312 363.216 184.594 362.771 184.109C362.326 183.617 361.708 183.371 360.919 183.371ZM373.094 178.238V181.32H375.333V183.43H373.094V190.508C373.094 190.992 373.188 191.344 373.375 191.562C373.571 191.773 373.915 191.879 374.407 191.879C374.735 191.879 375.067 191.84 375.403 191.762V193.965C374.754 194.145 374.129 194.234 373.528 194.234C371.34 194.234 370.247 193.027 370.247 190.613V183.43H368.161V181.32H370.247V178.238H373.094Z" fill="#0087CC"/>
<path d="M415.912 176.938V188.34C415.912 190.152 415.33 191.59 414.166 192.652C413.009 193.707 411.466 194.234 409.537 194.234C407.584 194.234 406.033 193.715 404.884 192.676C403.736 191.629 403.162 190.18 403.162 188.328V176.938H406.115V188.352C406.115 189.492 406.404 190.363 406.982 190.965C407.56 191.566 408.412 191.867 409.537 191.867C411.818 191.867 412.959 190.664 412.959 188.258V176.938H415.912ZM432.376 179.328H427.055V194H424.114V179.328H418.84V176.938H432.376V179.328ZM445.418 186.77H438.55V194H435.586V176.938H446.425V179.328H438.55V184.402H445.418V186.77ZM454.991 187.895H448.839V185.598H454.991V187.895ZM468.865 181.438C468.865 182.273 468.65 183.02 468.22 183.676C467.791 184.324 467.205 184.836 466.463 185.211C467.353 185.625 468.037 186.191 468.513 186.91C468.998 187.629 469.24 188.441 469.24 189.348C469.24 190.848 468.732 192.039 467.717 192.922C466.701 193.797 465.349 194.234 463.662 194.234C461.967 194.234 460.607 193.793 459.584 192.91C458.568 192.027 458.06 190.84 458.06 189.348C458.06 188.434 458.303 187.613 458.787 186.887C459.271 186.16 459.951 185.602 460.826 185.211C460.092 184.836 459.51 184.324 459.08 183.676C458.658 183.02 458.447 182.273 458.447 181.438C458.447 179.984 458.916 178.832 459.853 177.98C460.791 177.129 462.056 176.703 463.65 176.703C465.252 176.703 466.521 177.129 467.459 177.98C468.396 178.832 468.865 179.984 468.865 181.438ZM466.392 189.207C466.392 188.363 466.138 187.684 465.631 187.168C465.131 186.645 464.467 186.383 463.638 186.383C462.81 186.383 462.146 186.641 461.646 187.156C461.154 187.672 460.908 188.355 460.908 189.207C460.908 190.043 461.15 190.711 461.635 191.211C462.127 191.711 462.803 191.961 463.662 191.961C464.521 191.961 465.189 191.719 465.666 191.234C466.15 190.75 466.392 190.074 466.392 189.207ZM466.029 181.543C466.029 180.801 465.814 180.191 465.385 179.715C464.955 179.23 464.377 178.988 463.65 178.988C462.924 178.988 462.349 179.219 461.928 179.68C461.506 180.133 461.295 180.754 461.295 181.543C461.295 182.324 461.506 182.945 461.928 183.406C462.357 183.867 462.935 184.098 463.662 184.098C464.388 184.098 464.963 183.867 465.385 183.406C465.814 182.945 466.029 182.324 466.029 181.543Z" fill="white"/>
<path d="M303.541 85.7568L312.184 89.0381V92.5977L299.923 87.1338V84.3066L312.184 78.8574V82.417L303.541 85.7568ZM320.796 80.8789C321.958 79.5312 323.428 78.8574 325.205 78.8574C328.584 78.8574 330.298 80.7861 330.346 84.6436V95H326.787V84.7754C326.787 83.6816 326.548 82.9102 326.069 82.4609C325.6 82.002 324.907 81.7725 323.989 81.7725C322.563 81.7725 321.499 82.4072 320.796 83.6768V95H317.236V72.5H320.796V80.8789ZM342.137 95.293C339.881 95.293 338.05 94.585 336.644 93.1689C335.248 91.7432 334.549 89.8486 334.549 87.4854V87.0459C334.549 85.4639 334.852 84.0527 335.458 82.8125C336.073 81.5625 336.932 80.5908 338.036 79.8975C339.139 79.2041 340.37 78.8574 341.727 78.8574C343.885 78.8574 345.55 79.5459 346.722 80.9229C347.904 82.2998 348.495 84.248 348.495 86.7676V88.2031H338.138C338.246 89.5117 338.68 90.5469 339.442 91.3086C340.213 92.0703 341.18 92.4512 342.342 92.4512C343.973 92.4512 345.301 91.792 346.327 90.4736L348.246 92.3047C347.611 93.252 346.761 93.9893 345.697 94.5166C344.642 95.0342 343.456 95.293 342.137 95.293ZM341.713 81.7139C340.736 81.7139 339.945 82.0557 339.339 82.7393C338.744 83.4229 338.363 84.375 338.197 85.5957H344.979V85.332C344.901 84.1406 344.584 83.2422 344.027 82.6367C343.47 82.0215 342.699 81.7139 341.713 81.7139ZM361.941 95C361.785 94.6973 361.648 94.2041 361.531 93.5205C360.398 94.7021 359.011 95.293 357.371 95.293C355.779 95.293 354.48 94.8389 353.474 93.9307C352.468 93.0225 351.965 91.8994 351.965 90.5615C351.965 88.8721 352.59 87.5781 353.84 86.6797C355.1 85.7715 356.897 85.3174 359.231 85.3174H361.413V84.2773C361.413 83.457 361.184 82.8027 360.725 82.3145C360.266 81.8164 359.568 81.5674 358.63 81.5674C357.82 81.5674 357.156 81.7725 356.638 82.1826C356.121 82.583 355.862 83.0957 355.862 83.7207H352.302C352.302 82.8516 352.59 82.041 353.166 81.2891C353.743 80.5273 354.524 79.9316 355.51 79.502C356.506 79.0723 357.615 78.8574 358.835 78.8574C360.691 78.8574 362.17 79.3262 363.274 80.2637C364.377 81.1914 364.944 82.5 364.973 84.1895V91.3379C364.973 92.7637 365.173 93.9014 365.574 94.751V95H361.941ZM358.03 92.4365C358.733 92.4365 359.392 92.2656 360.007 91.9238C360.632 91.582 361.101 91.123 361.413 90.5469V87.5586H359.495C358.176 87.5586 357.185 87.7881 356.521 88.2471C355.857 88.7061 355.525 89.3555 355.525 90.1953C355.525 90.8789 355.749 91.4258 356.199 91.8359C356.658 92.2363 357.268 92.4365 358.03 92.4365ZM369.235 86.958C369.235 84.5166 369.801 82.5586 370.934 81.084C372.067 79.5996 373.585 78.8574 375.489 78.8574C377.169 78.8574 378.527 79.4434 379.562 80.6152V72.5H383.121V95H379.899L379.723 93.3594C378.658 94.6484 377.238 95.293 375.46 95.293C373.605 95.293 372.101 94.5459 370.948 93.0518C369.806 91.5576 369.235 89.5264 369.235 86.958ZM372.794 87.2656C372.794 88.877 373.102 90.1367 373.717 91.0449C374.342 91.9434 375.226 92.3926 376.368 92.3926C377.823 92.3926 378.888 91.7432 379.562 90.4443V83.6768C378.907 82.4072 377.853 81.7725 376.398 81.7725C375.245 81.7725 374.357 82.2314 373.732 83.1494C373.107 84.0576 372.794 85.4297 372.794 87.2656ZM397.139 85.6836L388.086 82.3584V78.8574L400.742 84.3066V87.1338L388.086 92.583V89.082L397.139 85.6836Z" fill="#2DB34A"/>
<path d="M305.541 35.7568L314.184 39.0381V42.5977L301.923 37.1338V34.3066L314.184 28.8574V32.417L305.541 35.7568ZM322.796 30.8789C323.958 29.5312 325.428 28.8574 327.205 28.8574C330.584 28.8574 332.298 30.7861 332.346 34.6436V45H328.787V34.7754C328.787 33.6816 328.548 32.9102 328.069 32.4609C327.6 32.002 326.907 31.7725 325.989 31.7725C324.563 31.7725 323.499 32.4072 322.796 33.6768V45H319.236V22.5H322.796V30.8789ZM341.618 25.2979V29.1504H344.416V31.7871H341.618V40.6348C341.618 41.2402 341.735 41.6797 341.969 41.9531C342.213 42.2168 342.643 42.3486 343.258 42.3486C343.669 42.3486 344.084 42.2998 344.504 42.2021V44.9561C343.693 45.1807 342.912 45.293 342.16 45.293C339.425 45.293 338.058 43.7842 338.058 40.7666V31.7871H335.451V29.1504H338.058V25.2979H341.618ZM351.695 29.1504L351.797 30.8057C352.911 29.5068 354.434 28.8574 356.368 28.8574C358.487 28.8574 359.937 29.668 360.718 31.2891C361.871 29.668 363.492 28.8574 365.581 28.8574C367.329 28.8574 368.628 29.3408 369.478 30.3076C370.337 31.2744 370.777 32.7002 370.796 34.585V45H367.237V34.6875C367.237 33.6816 367.017 32.9443 366.578 32.4756C366.138 32.0068 365.411 31.7725 364.395 31.7725C363.584 31.7725 362.92 31.9922 362.403 32.4316C361.895 32.8613 361.538 33.4277 361.333 34.1309L361.348 45H357.788V34.5703C357.74 32.7051 356.787 31.7725 354.932 31.7725C353.506 31.7725 352.496 32.3535 351.9 33.5156V45H348.34V29.1504H351.695ZM379.438 45H375.878V22.5H379.438V45ZM393.631 35.6836L384.578 32.3584V28.8574L397.234 34.3066V37.1338L384.578 42.583V39.082L393.631 35.6836Z" fill="#2DB34A"/>
</svg>
