<svg width="650" height="650" viewBox="0 0 650 650" fill="none" xmlns="http://www.w3.org/2000/svg">
<path d="M0 0H650V650H0V0Z" fill="#272722"/>
<g filter="url(#filter0_d)">
<rect x="45" y="38" width="560" height="55" rx="5" fill="#0087CC"/>
</g>
<g filter="url(#filter1_d)">
<rect x="45" y="555" width="560" height="57" rx="5" fill="#0087CC"/>
</g>
<path d="M234.33 585.222L240.668 587.628V590.238L231.677 586.231V584.158L240.668 580.162V582.772L234.33 585.222ZM245.329 592V582.311H243.557V580.377H245.329V579.313C245.329 578.024 245.687 577.029 246.403 576.327C247.12 575.625 248.122 575.274 249.411 575.274C249.87 575.274 250.357 575.339 250.872 575.468L250.808 577.509C250.521 577.451 250.188 577.423 249.809 577.423C248.563 577.423 247.94 578.064 247.94 579.346V580.377H250.303V582.311H247.94V592H245.329ZM252.601 586.081C252.601 584.942 252.826 583.918 253.278 583.009C253.729 582.092 254.363 581.39 255.179 580.903C255.995 580.409 256.934 580.162 257.993 580.162C259.562 580.162 260.833 580.667 261.807 581.677C262.788 582.687 263.318 584.026 263.397 585.694L263.407 586.307C263.407 587.452 263.185 588.477 262.741 589.379C262.305 590.281 261.674 590.979 260.851 591.474C260.034 591.968 259.089 592.215 258.015 592.215C256.375 592.215 255.061 591.671 254.073 590.582C253.091 589.486 252.601 588.029 252.601 586.21V586.081ZM255.211 586.307C255.211 587.503 255.458 588.441 255.952 589.121C256.447 589.794 257.134 590.131 258.015 590.131C258.896 590.131 259.58 589.787 260.067 589.1C260.561 588.412 260.808 587.406 260.808 586.081C260.808 584.907 260.554 583.976 260.045 583.288C259.544 582.601 258.86 582.257 257.993 582.257C257.141 582.257 256.464 582.597 255.963 583.277C255.462 583.951 255.211 584.96 255.211 586.307ZM266.006 586.081C266.006 584.942 266.232 583.918 266.683 583.009C267.134 582.092 267.768 581.39 268.584 580.903C269.401 580.409 270.339 580.162 271.399 580.162C272.967 580.162 274.238 580.667 275.212 581.677C276.193 582.687 276.723 584.026 276.802 585.694L276.813 586.307C276.813 587.452 276.591 588.477 276.147 589.379C275.71 590.281 275.08 590.979 274.256 591.474C273.44 591.968 272.494 592.215 271.42 592.215C269.78 592.215 268.466 591.671 267.478 590.582C266.497 589.486 266.006 588.029 266.006 586.21V586.081ZM268.617 586.307C268.617 587.503 268.864 588.441 269.358 589.121C269.852 589.794 270.539 590.131 271.42 590.131C272.301 590.131 272.985 589.787 273.472 589.1C273.966 588.412 274.213 587.406 274.213 586.081C274.213 584.907 273.959 583.976 273.451 583.288C272.949 582.601 272.265 582.257 271.399 582.257C270.547 582.257 269.87 582.597 269.369 583.277C268.867 583.951 268.617 584.96 268.617 586.307ZM283.171 577.552V580.377H285.223V582.311H283.171V588.799C283.171 589.243 283.257 589.565 283.429 589.766C283.608 589.959 283.923 590.056 284.374 590.056C284.675 590.056 284.98 590.02 285.288 589.948V591.968C284.693 592.132 284.12 592.215 283.569 592.215C281.564 592.215 280.561 591.108 280.561 588.896V582.311H278.649V580.377H280.561V577.552H283.171ZM293.225 592.215C291.571 592.215 290.228 591.696 289.197 590.657C288.173 589.612 287.661 588.222 287.661 586.489V586.167C287.661 585.007 287.883 583.972 288.327 583.062C288.778 582.146 289.408 581.433 290.217 580.925C291.027 580.416 291.929 580.162 292.924 580.162C294.507 580.162 295.728 580.667 296.588 581.677C297.454 582.687 297.887 584.115 297.887 585.963V587.016H290.293C290.371 587.975 290.69 588.734 291.249 589.293C291.814 589.852 292.523 590.131 293.376 590.131C294.572 590.131 295.546 589.647 296.297 588.681L297.705 590.023C297.239 590.718 296.616 591.259 295.836 591.646C295.062 592.025 294.192 592.215 293.225 592.215ZM292.914 582.257C292.198 582.257 291.617 582.507 291.173 583.009C290.737 583.51 290.457 584.208 290.336 585.104H295.309V584.91C295.252 584.036 295.019 583.378 294.611 582.934C294.203 582.482 293.637 582.257 292.914 582.257ZM306.888 582.762C306.545 582.704 306.19 582.676 305.825 582.676C304.629 582.676 303.823 583.134 303.408 584.051V592H300.798V580.377H303.29L303.354 581.677C303.984 580.667 304.858 580.162 305.975 580.162C306.348 580.162 306.656 580.212 306.899 580.312L306.888 582.762ZM316.094 585.168L309.455 582.729V580.162L318.736 584.158V586.231L309.455 590.228V587.66L316.094 585.168ZM323.741 585.222L330.079 587.628V590.238L321.088 586.231V584.158L330.079 580.162V582.772L323.741 585.222ZM334.558 593.343H332.506L338.661 576.359H340.713L334.558 593.343ZM344.321 592V582.311H342.549V580.377H344.321V579.313C344.321 578.024 344.68 577.029 345.396 576.327C346.112 575.625 347.114 575.274 348.404 575.274C348.862 575.274 349.349 575.339 349.864 575.468L349.8 577.509C349.514 577.451 349.181 577.423 348.801 577.423C347.555 577.423 346.932 578.064 346.932 579.346V580.377H349.295V582.311H346.932V592H344.321ZM351.593 586.081C351.593 584.942 351.819 583.918 352.27 583.009C352.721 582.092 353.355 581.39 354.171 580.903C354.988 580.409 355.926 580.162 356.986 580.162C358.554 580.162 359.825 580.667 360.799 581.677C361.78 582.687 362.31 584.026 362.389 585.694L362.4 586.307C362.4 587.452 362.178 588.477 361.734 589.379C361.297 590.281 360.667 590.979 359.843 591.474C359.027 591.968 358.081 592.215 357.007 592.215C355.367 592.215 354.053 591.671 353.065 590.582C352.084 589.486 351.593 588.029 351.593 586.21V586.081ZM354.203 586.307C354.203 587.503 354.451 588.441 354.945 589.121C355.439 589.794 356.126 590.131 357.007 590.131C357.888 590.131 358.572 589.787 359.059 589.1C359.553 588.412 359.8 587.406 359.8 586.081C359.8 584.907 359.546 583.976 359.037 583.288C358.536 582.601 357.852 582.257 356.986 582.257C356.133 582.257 355.457 582.597 354.955 583.277C354.454 583.951 354.203 584.96 354.203 586.307ZM364.998 586.081C364.998 584.942 365.224 583.918 365.675 583.009C366.126 582.092 366.76 581.39 367.577 580.903C368.393 580.409 369.331 580.162 370.391 580.162C371.959 580.162 373.231 580.667 374.205 581.677C375.186 582.687 375.716 584.026 375.794 585.694L375.805 586.307C375.805 587.452 375.583 588.477 375.139 589.379C374.702 590.281 374.072 590.979 373.248 591.474C372.432 591.968 371.487 592.215 370.413 592.215C368.773 592.215 367.458 591.671 366.47 590.582C365.489 589.486 364.998 588.029 364.998 586.21V586.081ZM367.609 586.307C367.609 587.503 367.856 588.441 368.35 589.121C368.844 589.794 369.532 590.131 370.413 590.131C371.293 590.131 371.977 589.787 372.464 589.1C372.958 588.412 373.206 587.406 373.206 586.081C373.206 584.907 372.951 583.976 372.443 583.288C371.942 582.601 371.258 582.257 370.391 582.257C369.539 582.257 368.862 582.597 368.361 583.277C367.859 583.951 367.609 584.96 367.609 586.307ZM382.164 577.552V580.377H384.215V582.311H382.164V588.799C382.164 589.243 382.25 589.565 382.421 589.766C382.6 589.959 382.916 590.056 383.367 590.056C383.668 590.056 383.972 590.02 384.28 589.948V591.968C383.685 592.132 383.113 592.215 382.561 592.215C380.556 592.215 379.553 591.108 379.553 588.896V582.311H377.641V580.377H379.553V577.552H382.164ZM392.217 592.215C390.563 592.215 389.22 591.696 388.189 590.657C387.165 589.612 386.653 588.222 386.653 586.489V586.167C386.653 585.007 386.875 583.972 387.319 583.062C387.77 582.146 388.4 581.433 389.21 580.925C390.019 580.416 390.921 580.162 391.917 580.162C393.499 580.162 394.72 580.667 395.58 581.677C396.446 582.687 396.88 584.115 396.88 585.963V587.016H389.285C389.364 587.975 389.682 588.734 390.241 589.293C390.807 589.852 391.516 590.131 392.368 590.131C393.564 590.131 394.538 589.647 395.29 588.681L396.697 590.023C396.231 590.718 395.608 591.259 394.828 591.646C394.054 592.025 393.184 592.215 392.217 592.215ZM391.906 582.257C391.19 582.257 390.61 582.507 390.166 583.009C389.729 583.51 389.45 584.208 389.328 585.104H394.301V584.91C394.244 584.036 394.011 583.378 393.603 582.934C393.195 582.482 392.629 582.257 391.906 582.257ZM405.881 582.762C405.537 582.704 405.182 582.676 404.817 582.676C403.621 582.676 402.816 583.134 402.4 584.051V592H399.79V580.377H402.282L402.346 581.677C402.977 580.667 403.85 580.162 404.968 580.162C405.34 580.162 405.648 580.212 405.891 580.312L405.881 582.762ZM415.086 585.168L408.447 582.729V580.162L417.728 584.158V586.231L408.447 590.228V587.66L415.086 585.168Z" fill="white"/>
<path d="M218.33 64.2217L224.668 66.6279V69.2383L215.677 65.2314V63.1582L224.668 59.1621V61.7725L218.33 64.2217ZM230.984 60.6445C231.836 59.6562 232.914 59.1621 234.217 59.1621C236.695 59.1621 237.952 60.5765 237.987 63.4053V71H235.377V63.502C235.377 62.6999 235.202 62.1341 234.851 61.8047C234.507 61.4681 233.998 61.2998 233.325 61.2998C232.28 61.2998 231.499 61.7653 230.984 62.6963V71H228.373V54.5H230.984V60.6445ZM246.634 71.2148C244.98 71.2148 243.637 70.6956 242.606 69.6572C241.582 68.6117 241.07 67.2223 241.07 65.4893V65.167C241.07 64.0068 241.292 62.972 241.736 62.0625C242.187 61.1458 242.817 60.4333 243.626 59.9248C244.435 59.4163 245.338 59.1621 246.333 59.1621C247.916 59.1621 249.137 59.667 249.996 60.6768C250.863 61.6865 251.296 63.1152 251.296 64.9629V66.0156H243.701C243.78 66.9753 244.099 67.7344 244.657 68.293C245.223 68.8516 245.932 69.1309 246.784 69.1309C247.98 69.1309 248.954 68.6475 249.706 67.6807L251.114 69.0234C250.648 69.7181 250.025 70.2588 249.244 70.6455C248.471 71.0251 247.601 71.2148 246.634 71.2148ZM246.323 61.2568C245.606 61.2568 245.026 61.5075 244.582 62.0088C244.145 62.5101 243.866 63.2083 243.744 64.1035H248.718V63.9102C248.661 63.0365 248.428 62.3776 248.02 61.9336C247.612 61.4824 247.046 61.2568 246.323 61.2568ZM261.157 71C261.042 70.778 260.942 70.4163 260.856 69.915C260.025 70.7816 259.008 71.2148 257.805 71.2148C256.638 71.2148 255.685 70.8818 254.948 70.2158C254.21 69.5498 253.841 68.7262 253.841 67.7451C253.841 66.5062 254.3 65.5573 255.216 64.8984C256.14 64.2324 257.458 63.8994 259.169 63.8994H260.77V63.1367C260.77 62.5352 260.602 62.0553 260.265 61.6973C259.928 61.332 259.416 61.1494 258.729 61.1494C258.134 61.1494 257.647 61.2998 257.268 61.6006C256.888 61.8942 256.699 62.2702 256.699 62.7285H254.088C254.088 62.0911 254.3 61.4967 254.722 60.9453C255.145 60.3867 255.717 59.9499 256.441 59.6348C257.171 59.3197 257.984 59.1621 258.879 59.1621C260.24 59.1621 261.325 59.5059 262.134 60.1934C262.943 60.8737 263.359 61.8333 263.38 63.0723V68.3145C263.38 69.36 263.527 70.1943 263.821 70.8174V71H261.157ZM258.288 69.1201C258.804 69.1201 259.287 68.9948 259.739 68.7441C260.197 68.4935 260.541 68.1569 260.77 67.7344V65.543H259.363C258.396 65.543 257.669 65.7113 257.182 66.0479C256.695 66.3844 256.452 66.8607 256.452 67.4766C256.452 67.9779 256.616 68.3789 256.946 68.6797C257.282 68.9733 257.73 69.1201 258.288 69.1201ZM266.505 65.1025C266.505 63.3122 266.921 61.8763 267.751 60.7949C268.582 59.7064 269.696 59.1621 271.092 59.1621C272.324 59.1621 273.319 59.5918 274.079 60.4512V54.5H276.689V71H274.326L274.197 69.7969C273.416 70.7422 272.374 71.2148 271.071 71.2148C269.71 71.2148 268.607 70.667 267.762 69.5713C266.924 68.4756 266.505 66.986 266.505 65.1025ZM269.116 65.3281C269.116 66.5098 269.341 67.4336 269.792 68.0996C270.251 68.7585 270.899 69.0879 271.737 69.0879C272.804 69.0879 273.584 68.6117 274.079 67.6592V62.6963C273.599 61.7653 272.825 61.2998 271.758 61.2998C270.913 61.2998 270.262 61.6364 269.803 62.3096C269.345 62.9756 269.116 63.9818 269.116 65.3281ZM285.411 71.2148C283.756 71.2148 282.414 70.6956 281.382 69.6572C280.358 68.6117 279.846 67.2223 279.846 65.4893V65.167C279.846 64.0068 280.068 62.972 280.512 62.0625C280.963 61.1458 281.594 60.4333 282.403 59.9248C283.212 59.4163 284.115 59.1621 285.11 59.1621C286.693 59.1621 287.914 59.667 288.773 60.6768C289.64 61.6865 290.073 63.1152 290.073 64.9629V66.0156H282.478C282.557 66.9753 282.876 67.7344 283.434 68.293C284 68.8516 284.709 69.1309 285.561 69.1309C286.757 69.1309 287.731 68.6475 288.483 67.6807L289.89 69.0234C289.425 69.7181 288.802 70.2588 288.021 70.6455C287.248 71.0251 286.378 71.2148 285.411 71.2148ZM285.099 61.2568C284.383 61.2568 283.803 61.5075 283.359 62.0088C282.922 62.5101 282.643 63.2083 282.521 64.1035H287.495V63.9102C287.437 63.0365 287.205 62.3776 286.796 61.9336C286.388 61.4824 285.823 61.2568 285.099 61.2568ZM299.074 61.7617C298.73 61.7044 298.376 61.6758 298.01 61.6758C296.815 61.6758 296.009 62.1341 295.593 63.0508V71H292.983V59.377H295.475L295.54 60.6768C296.17 59.667 297.044 59.1621 298.161 59.1621C298.533 59.1621 298.841 59.2122 299.085 59.3125L299.074 61.7617ZM308.279 64.168L301.64 61.7295V59.1621L310.922 63.1582V65.2314L301.64 69.2275V66.6602L308.279 64.168ZM315.927 64.2217L322.265 66.6279V69.2383L313.273 65.2314V63.1582L322.265 59.1621V61.7725L315.927 64.2217ZM326.743 72.3428H324.691L330.847 55.3594H332.899L326.743 72.3428ZM338.161 60.6445C339.014 59.6562 340.091 59.1621 341.395 59.1621C343.873 59.1621 345.129 60.5765 345.165 63.4053V71H342.555V63.502C342.555 62.6999 342.379 62.1341 342.029 61.8047C341.685 61.4681 341.176 61.2998 340.503 61.2998C339.458 61.2998 338.677 61.7653 338.161 62.6963V71H335.551V54.5H338.161V60.6445ZM353.812 71.2148C352.158 71.2148 350.815 70.6956 349.784 69.6572C348.759 68.6117 348.247 67.2223 348.247 65.4893V65.167C348.247 64.0068 348.469 62.972 348.913 62.0625C349.365 61.1458 349.995 60.4333 350.804 59.9248C351.613 59.4163 352.516 59.1621 353.511 59.1621C355.094 59.1621 356.315 59.667 357.174 60.6768C358.041 61.6865 358.474 63.1152 358.474 64.9629V66.0156H350.879C350.958 66.9753 351.277 67.7344 351.835 68.293C352.401 68.8516 353.11 69.1309 353.962 69.1309C355.158 69.1309 356.132 68.6475 356.884 67.6807L358.291 69.0234C357.826 69.7181 357.203 70.2588 356.422 70.6455C355.649 71.0251 354.779 71.2148 353.812 71.2148ZM353.5 61.2568C352.784 61.2568 352.204 61.5075 351.76 62.0088C351.323 62.5101 351.044 63.2083 350.922 64.1035H355.896V63.9102C355.839 63.0365 355.606 62.3776 355.198 61.9336C354.789 61.4824 354.224 61.2568 353.5 61.2568ZM368.334 71C368.22 70.778 368.12 70.4163 368.034 69.915C367.203 70.7816 366.186 71.2148 364.983 71.2148C363.816 71.2148 362.863 70.8818 362.125 70.2158C361.388 69.5498 361.019 68.7262 361.019 67.7451C361.019 66.5062 361.477 65.5573 362.394 64.8984C363.318 64.2324 364.636 63.8994 366.347 63.8994H367.948V63.1367C367.948 62.5352 367.779 62.0553 367.443 61.6973C367.106 61.332 366.594 61.1494 365.907 61.1494C365.312 61.1494 364.825 61.2998 364.446 61.6006C364.066 61.8942 363.876 62.2702 363.876 62.7285H361.266C361.266 62.0911 361.477 61.4967 361.9 60.9453C362.322 60.3867 362.895 59.9499 363.619 59.6348C364.349 59.3197 365.162 59.1621 366.057 59.1621C367.418 59.1621 368.503 59.5059 369.312 60.1934C370.121 60.8737 370.537 61.8333 370.558 63.0723V68.3145C370.558 69.36 370.705 70.1943 370.998 70.8174V71H368.334ZM365.466 69.1201C365.982 69.1201 366.465 68.9948 366.916 68.7441C367.375 68.4935 367.719 68.1569 367.948 67.7344V65.543H366.54C365.574 65.543 364.847 65.7113 364.36 66.0479C363.873 66.3844 363.629 66.8607 363.629 67.4766C363.629 67.9779 363.794 68.3789 364.123 68.6797C364.46 68.9733 364.908 69.1201 365.466 69.1201ZM373.683 65.1025C373.683 63.3122 374.099 61.8763 374.929 60.7949C375.76 59.7064 376.874 59.1621 378.27 59.1621C379.502 59.1621 380.497 59.5918 381.256 60.4512V54.5H383.867V71H381.503L381.375 69.7969C380.594 70.7422 379.552 71.2148 378.249 71.2148C376.888 71.2148 375.785 70.667 374.94 69.5713C374.102 68.4756 373.683 66.986 373.683 65.1025ZM376.294 65.3281C376.294 66.5098 376.519 67.4336 376.97 68.0996C377.429 68.7585 378.077 69.0879 378.915 69.0879C379.982 69.0879 380.762 68.6117 381.256 67.6592V62.6963C380.777 61.7653 380.003 61.2998 378.936 61.2998C378.091 61.2998 377.439 61.6364 376.981 62.3096C376.523 62.9756 376.294 63.9818 376.294 65.3281ZM392.589 71.2148C390.934 71.2148 389.591 70.6956 388.56 69.6572C387.536 68.6117 387.024 67.2223 387.024 65.4893V65.167C387.024 64.0068 387.246 62.972 387.69 62.0625C388.141 61.1458 388.772 60.4333 389.581 59.9248C390.39 59.4163 391.292 59.1621 392.288 59.1621C393.87 59.1621 395.091 59.667 395.951 60.6768C396.817 61.6865 397.251 63.1152 397.251 64.9629V66.0156H389.656C389.735 66.9753 390.053 67.7344 390.612 68.293C391.178 68.8516 391.887 69.1309 392.739 69.1309C393.935 69.1309 394.909 68.6475 395.661 67.6807L397.068 69.0234C396.603 69.7181 395.98 70.2588 395.199 70.6455C394.425 71.0251 393.555 71.2148 392.589 71.2148ZM392.277 61.2568C391.561 61.2568 390.981 61.5075 390.537 62.0088C390.1 62.5101 389.821 63.2083 389.699 64.1035H394.673V63.9102C394.615 63.0365 394.383 62.3776 393.974 61.9336C393.566 61.4824 393 61.2568 392.277 61.2568ZM406.252 61.7617C405.908 61.7044 405.554 61.6758 405.188 61.6758C403.992 61.6758 403.187 62.1341 402.771 63.0508V71H400.161V59.377H402.653L402.718 60.6768C403.348 59.667 404.221 59.1621 405.339 59.1621C405.711 59.1621 406.019 59.2122 406.262 59.3125L406.252 61.7617ZM415.457 64.168L408.818 61.7295V59.1621L418.1 63.1582V65.2314L408.818 69.2275V66.6602L415.457 64.168Z" fill="white"/>
<g filter="url(#filter2_d)">
<rect x="226" y="105" width="379" height="440" rx="5" fill="#2DB34A"/>
</g>
<path d="M370.784 495.297L377.986 498.032V500.998L367.769 496.445V494.089L377.986 489.548V492.514L370.784 495.297ZM383.076 504.526H380.744L387.739 485.227H390.07L383.076 504.526ZM395.917 489.792L396.002 491.171C396.93 490.089 398.199 489.548 399.811 489.548C401.576 489.548 402.785 490.223 403.436 491.574C404.396 490.223 405.747 489.548 407.489 489.548C408.945 489.548 410.028 489.951 410.736 490.756C411.452 491.562 411.818 492.75 411.834 494.321V503H408.868V494.406C408.868 493.568 408.685 492.954 408.319 492.563C407.953 492.172 407.346 491.977 406.5 491.977C405.825 491.977 405.271 492.16 404.84 492.526C404.417 492.884 404.12 493.356 403.949 493.942L403.961 503H400.995V494.309C400.954 492.754 400.16 491.977 398.614 491.977C397.426 491.977 396.584 492.461 396.087 493.43V503H393.121V489.792H395.917ZM423.772 503C423.642 502.748 423.528 502.337 423.43 501.767C422.486 502.752 421.331 503.244 419.963 503.244C418.637 503.244 417.555 502.866 416.716 502.109C415.878 501.352 415.459 500.416 415.459 499.301C415.459 497.893 415.98 496.815 417.021 496.066C418.071 495.31 419.569 494.931 421.514 494.931H423.333V494.064C423.333 493.381 423.141 492.836 422.759 492.429C422.376 492.014 421.794 491.806 421.013 491.806C420.338 491.806 419.784 491.977 419.353 492.319C418.922 492.653 418.706 493.08 418.706 493.601H415.74C415.74 492.876 415.98 492.201 416.46 491.574C416.94 490.939 417.591 490.443 418.413 490.085C419.243 489.727 420.167 489.548 421.184 489.548C422.73 489.548 423.963 489.938 424.883 490.72C425.802 491.493 426.274 492.583 426.299 493.991V499.948C426.299 501.136 426.466 502.084 426.799 502.792V503H423.772ZM420.513 500.864C421.099 500.864 421.648 500.721 422.161 500.437C422.681 500.152 423.072 499.769 423.333 499.289V496.799H421.733C420.635 496.799 419.809 496.99 419.255 497.373C418.702 497.755 418.425 498.296 418.425 498.996C418.425 499.566 418.612 500.021 418.987 500.363C419.369 500.697 419.878 500.864 420.513 500.864ZM433.561 503H430.595V489.792H433.561V503ZM430.412 486.362C430.412 485.906 430.554 485.528 430.839 485.227C431.132 484.925 431.547 484.775 432.084 484.775C432.621 484.775 433.036 484.925 433.329 485.227C433.622 485.528 433.769 485.906 433.769 486.362C433.769 486.809 433.622 487.184 433.329 487.485C433.036 487.778 432.621 487.924 432.084 487.924C431.547 487.924 431.132 487.778 430.839 487.485C430.554 487.184 430.412 486.809 430.412 486.362ZM440.555 489.792L440.64 491.318C441.617 490.138 442.898 489.548 444.485 489.548C447.236 489.548 448.636 491.123 448.685 494.272V503H445.718V494.443C445.718 493.605 445.535 492.986 445.169 492.587C444.811 492.181 444.221 491.977 443.399 491.977C442.203 491.977 441.312 492.518 440.726 493.601V503H437.759V489.792H440.555ZM460.305 495.236L452.761 492.465V489.548L463.308 494.089V496.445L452.761 500.986V498.068L460.305 495.236Z" fill="white"/>
<path d="M375.784 147.297L382.986 150.032V152.998L372.769 148.445V146.089L382.986 141.548V144.514L375.784 147.297ZM390.029 141.792L390.114 143.171C391.042 142.089 392.312 141.548 393.923 141.548C395.689 141.548 396.897 142.223 397.548 143.574C398.509 142.223 399.86 141.548 401.601 141.548C403.058 141.548 404.14 141.951 404.848 142.756C405.564 143.562 405.931 144.75 405.947 146.321V155H402.98V146.406C402.98 145.568 402.797 144.954 402.431 144.563C402.065 144.172 401.459 143.977 400.612 143.977C399.937 143.977 399.383 144.16 398.952 144.526C398.529 144.884 398.232 145.356 398.061 145.942L398.073 155H395.107V146.309C395.066 144.754 394.273 143.977 392.727 143.977C391.538 143.977 390.696 144.461 390.2 145.43V155H387.233V141.792H390.029ZM417.884 155C417.754 154.748 417.64 154.337 417.542 153.767C416.598 154.752 415.443 155.244 414.076 155.244C412.749 155.244 411.667 154.866 410.829 154.109C409.99 153.352 409.571 152.416 409.571 151.301C409.571 149.893 410.092 148.815 411.134 148.066C412.184 147.31 413.681 146.931 415.626 146.931H417.445V146.064C417.445 145.381 417.254 144.836 416.871 144.429C416.489 144.014 415.907 143.806 415.125 143.806C414.45 143.806 413.897 143.977 413.465 144.319C413.034 144.653 412.818 145.08 412.818 145.601H409.852C409.852 144.876 410.092 144.201 410.572 143.574C411.052 142.939 411.703 142.443 412.525 142.085C413.355 141.727 414.279 141.548 415.296 141.548C416.843 141.548 418.076 141.938 418.995 142.72C419.915 143.493 420.387 144.583 420.411 145.991V151.948C420.411 153.136 420.578 154.084 420.912 154.792V155H417.884ZM414.625 152.864C415.211 152.864 415.76 152.721 416.273 152.437C416.794 152.152 417.184 151.769 417.445 151.289V148.799H415.846C414.747 148.799 413.921 148.99 413.368 149.373C412.814 149.755 412.538 150.296 412.538 150.996C412.538 151.566 412.725 152.021 413.099 152.363C413.482 152.697 413.99 152.864 414.625 152.864ZM427.673 155H424.707V141.792H427.673V155ZM424.524 138.362C424.524 137.906 424.666 137.528 424.951 137.227C425.244 136.925 425.659 136.775 426.196 136.775C426.733 136.775 427.148 136.925 427.441 137.227C427.734 137.528 427.881 137.906 427.881 138.362C427.881 138.809 427.734 139.184 427.441 139.485C427.148 139.778 426.733 139.924 426.196 139.924C425.659 139.924 425.244 139.778 424.951 139.485C424.666 139.184 424.524 138.809 424.524 138.362ZM434.667 141.792L434.752 143.318C435.729 142.138 437.011 141.548 438.598 141.548C441.348 141.548 442.748 143.123 442.797 146.272V155H439.831V146.443C439.831 145.605 439.647 144.986 439.281 144.587C438.923 144.181 438.333 143.977 437.511 143.977C436.315 143.977 435.424 144.518 434.838 145.601V155H431.872V141.792H434.667ZM454.417 147.236L446.873 144.465V141.548L457.42 146.089V148.445L446.873 152.986V150.068L454.417 147.236Z" fill="white"/>
<g filter="url(#filter3_d)">
<rect x="45" y="105" width="169" height="440" rx="5" fill="#FF6603" fill-opacity="0.8"/>
</g>
<path d="M98.7646 156.972C98.7646 156.284 98.5212 155.754 98.0342 155.382C97.5544 155.009 96.6842 154.633 95.4238 154.254C94.1634 153.874 93.1608 153.452 92.416 152.986C90.9909 152.091 90.2783 150.924 90.2783 149.484C90.2783 148.224 90.7904 147.186 91.8145 146.369C92.8457 145.553 94.1813 145.145 95.8213 145.145C96.9098 145.145 97.8802 145.345 98.7324 145.746C99.5846 146.147 100.254 146.72 100.741 147.465C101.228 148.202 101.472 149.022 101.472 149.925H98.7646C98.7646 149.108 98.5068 148.471 97.9912 148.013C97.4827 147.547 96.7523 147.314 95.7998 147.314C94.9118 147.314 94.2207 147.504 93.7266 147.884C93.2396 148.263 92.9961 148.793 92.9961 149.474C92.9961 150.047 93.2611 150.526 93.791 150.913C94.321 151.293 95.1947 151.665 96.4121 152.03C97.6296 152.388 98.6071 152.8 99.3447 153.266C100.082 153.724 100.623 154.254 100.967 154.855C101.311 155.45 101.482 156.148 101.482 156.95C101.482 158.254 100.981 159.292 99.9785 160.065C98.9831 160.832 97.6296 161.215 95.918 161.215C94.7865 161.215 93.7445 161.007 92.792 160.592C91.8467 160.169 91.109 159.589 90.5791 158.852C90.0563 158.114 89.7949 157.255 89.7949 156.273H92.5127C92.5127 157.161 92.8063 157.849 93.3936 158.336C93.9808 158.823 94.8223 159.066 95.918 159.066C96.8633 159.066 97.5723 158.877 98.0449 158.497C98.5247 158.11 98.7646 157.602 98.7646 156.972ZM107.272 161H104.661V149.377H107.272V161ZM104.5 146.358C104.5 145.957 104.625 145.624 104.876 145.359C105.134 145.094 105.499 144.962 105.972 144.962C106.444 144.962 106.81 145.094 107.068 145.359C107.325 145.624 107.454 145.957 107.454 146.358C107.454 146.752 107.325 147.082 107.068 147.347C106.81 147.604 106.444 147.733 105.972 147.733C105.499 147.733 105.134 147.604 104.876 147.347C104.625 147.082 104.5 146.752 104.5 146.358ZM110.515 155.103C110.515 153.312 110.93 151.876 111.761 150.795C112.592 149.706 113.705 149.162 115.102 149.162C116.334 149.162 117.329 149.592 118.088 150.451V144.5H120.698V161H118.335L118.206 159.797C117.426 160.742 116.384 161.215 115.08 161.215C113.72 161.215 112.617 160.667 111.772 159.571C110.934 158.476 110.515 156.986 110.515 155.103ZM113.125 155.328C113.125 156.51 113.351 157.434 113.802 158.1C114.26 158.758 114.908 159.088 115.746 159.088C116.813 159.088 117.594 158.612 118.088 157.659V152.696C117.608 151.765 116.835 151.3 115.768 151.3C114.923 151.3 114.271 151.636 113.813 152.31C113.354 152.976 113.125 153.982 113.125 155.328ZM129.42 161.215C127.766 161.215 126.423 160.696 125.392 159.657C124.368 158.612 123.856 157.222 123.856 155.489V155.167C123.856 154.007 124.078 152.972 124.522 152.062C124.973 151.146 125.603 150.433 126.412 149.925C127.222 149.416 128.124 149.162 129.119 149.162C130.702 149.162 131.923 149.667 132.783 150.677C133.649 151.687 134.082 153.115 134.082 154.963V156.016H126.488C126.566 156.975 126.885 157.734 127.444 158.293C128.009 158.852 128.718 159.131 129.571 159.131C130.767 159.131 131.741 158.647 132.493 157.681L133.9 159.023C133.434 159.718 132.811 160.259 132.031 160.646C131.257 161.025 130.387 161.215 129.42 161.215ZM129.109 151.257C128.393 151.257 127.813 151.507 127.369 152.009C126.932 152.51 126.652 153.208 126.531 154.104H131.504V153.91C131.447 153.036 131.214 152.378 130.806 151.934C130.398 151.482 129.832 151.257 129.109 151.257ZM147.198 155.307C147.198 157.111 146.793 158.547 145.984 159.614C145.182 160.681 144.075 161.215 142.665 161.215C141.304 161.215 140.244 160.724 139.485 159.743L139.356 161H136.993V144.5H139.603V150.494C140.355 149.606 141.368 149.162 142.643 149.162C144.061 149.162 145.175 149.688 145.984 150.741C146.793 151.794 147.198 153.266 147.198 155.156V155.307ZM144.587 155.081C144.587 153.821 144.365 152.875 143.921 152.245C143.477 151.615 142.833 151.3 141.988 151.3C140.856 151.3 140.061 151.794 139.603 152.782V157.573C140.069 158.583 140.871 159.088 142.009 159.088C142.826 159.088 143.456 158.784 143.9 158.175C144.344 157.566 144.573 156.646 144.587 155.414V155.081ZM157.219 161C157.105 160.778 157.004 160.416 156.919 159.915C156.088 160.782 155.071 161.215 153.868 161.215C152.7 161.215 151.748 160.882 151.01 160.216C150.273 159.55 149.904 158.726 149.904 157.745C149.904 156.506 150.362 155.557 151.279 154.898C152.203 154.232 153.52 153.899 155.232 153.899H156.833V153.137C156.833 152.535 156.664 152.055 156.328 151.697C155.991 151.332 155.479 151.149 154.792 151.149C154.197 151.149 153.71 151.3 153.331 151.601C152.951 151.894 152.761 152.27 152.761 152.729H150.151C150.151 152.091 150.362 151.497 150.785 150.945C151.207 150.387 151.78 149.95 152.504 149.635C153.234 149.32 154.047 149.162 154.942 149.162C156.303 149.162 157.388 149.506 158.197 150.193C159.006 150.874 159.421 151.833 159.443 153.072V158.314C159.443 159.36 159.59 160.194 159.883 160.817V161H157.219ZM154.351 159.12C154.867 159.12 155.35 158.995 155.801 158.744C156.26 158.493 156.603 158.157 156.833 157.734V155.543H155.425C154.459 155.543 153.732 155.711 153.245 156.048C152.758 156.384 152.514 156.861 152.514 157.477C152.514 157.978 152.679 158.379 153.008 158.68C153.345 158.973 153.793 159.12 154.351 159.12ZM169.142 151.762C168.799 151.704 168.444 151.676 168.079 151.676C166.883 151.676 166.077 152.134 165.662 153.051V161H163.051V149.377H165.544L165.608 150.677C166.238 149.667 167.112 149.162 168.229 149.162C168.602 149.162 168.91 149.212 169.153 149.312L169.142 151.762Z" fill="white"/>
<path d="M92.7842 368.297L99.9863 371.032V373.998L89.769 369.445V367.089L99.9863 362.548V365.514L92.7842 368.297ZM105.076 377.526H102.744L109.739 358.227H112.07L105.076 377.526ZM117.88 362.792L117.965 364.318C118.942 363.138 120.224 362.548 121.811 362.548C124.561 362.548 125.961 364.123 126.01 367.272V376H123.043V367.443C123.043 366.605 122.86 365.986 122.494 365.587C122.136 365.181 121.546 364.977 120.724 364.977C119.528 364.977 118.637 365.518 118.051 366.601V376H115.084V362.792H117.88ZM137.935 376C137.805 375.748 137.691 375.337 137.593 374.767C136.649 375.752 135.494 376.244 134.126 376.244C132.8 376.244 131.718 375.866 130.879 375.109C130.041 374.352 129.622 373.416 129.622 372.301C129.622 370.893 130.143 369.815 131.185 369.066C132.234 368.31 133.732 367.931 135.677 367.931H137.496V367.064C137.496 366.381 137.304 365.836 136.922 365.429C136.539 365.014 135.958 364.806 135.176 364.806C134.501 364.806 133.947 364.977 133.516 365.319C133.085 365.653 132.869 366.08 132.869 366.601H129.903C129.903 365.876 130.143 365.201 130.623 364.574C131.103 363.939 131.754 363.443 132.576 363.085C133.406 362.727 134.33 362.548 135.347 362.548C136.893 362.548 138.126 362.938 139.046 363.72C139.965 364.493 140.438 365.583 140.462 366.991V372.948C140.462 374.136 140.629 375.084 140.962 375.792V376H137.935ZM134.676 373.864C135.262 373.864 135.811 373.721 136.324 373.437C136.845 373.152 137.235 372.769 137.496 372.289V369.799H135.896C134.798 369.799 133.972 369.99 133.418 370.373C132.865 370.755 132.588 371.296 132.588 371.996C132.588 372.566 132.776 373.021 133.15 373.363C133.532 373.697 134.041 373.864 134.676 373.864ZM149.03 372.24L151.826 362.792H154.89L150.312 376H147.736L143.122 362.792H146.198L149.03 372.24ZM165.338 368.236L157.794 365.465V362.548L168.341 367.089V369.445L157.794 373.986V371.068L165.338 368.236Z" fill="white"/>
<path d="M98.4814 281.914L105.107 284.429V287.158L95.7075 282.969V280.802L105.107 276.624V279.353L98.4814 281.914ZM111.553 276.849L111.631 278.252C112.53 277.167 113.709 276.624 115.169 276.624C117.7 276.624 118.987 278.073 119.032 280.97V289H116.303V281.127C116.303 280.356 116.135 279.787 115.798 279.42C115.469 279.046 114.926 278.859 114.17 278.859C113.069 278.859 112.249 279.357 111.71 280.353V289H108.981V276.849H111.553ZM130.004 289C129.884 288.768 129.779 288.39 129.689 287.866C128.821 288.772 127.757 289.225 126.5 289.225C125.279 289.225 124.284 288.876 123.512 288.18C122.741 287.484 122.356 286.623 122.356 285.597C122.356 284.302 122.835 283.31 123.793 282.621C124.759 281.925 126.137 281.577 127.926 281.577H129.599V280.779C129.599 280.15 129.423 279.649 129.071 279.274C128.72 278.893 128.184 278.702 127.465 278.702C126.844 278.702 126.335 278.859 125.938 279.173C125.541 279.48 125.343 279.873 125.343 280.353H122.614C122.614 279.686 122.835 279.065 123.277 278.488C123.718 277.904 124.317 277.448 125.073 277.118C125.837 276.789 126.687 276.624 127.623 276.624C129.045 276.624 130.18 276.983 131.026 277.702C131.872 278.413 132.306 279.417 132.328 280.712V286.192C132.328 287.285 132.482 288.158 132.789 288.809V289H130.004ZM127.005 287.035C127.544 287.035 128.049 286.904 128.521 286.642C129 286.38 129.36 286.028 129.599 285.586V283.295H128.128C127.117 283.295 126.357 283.471 125.848 283.823C125.339 284.175 125.085 284.673 125.085 285.316C125.085 285.84 125.257 286.26 125.601 286.574C125.953 286.881 126.421 287.035 127.005 287.035ZM140.211 285.541L142.783 276.849H145.602L141.39 289H139.021L134.776 276.849H137.606L140.211 285.541ZM155.214 281.857L148.274 279.308V276.624L157.977 280.802V282.969L148.274 287.147V284.463L155.214 281.857Z" fill="white"/>
<rect x="258" y="181" width="322" height="70" rx="5" fill="#FF4444" fill-opacity="0.73"/>
<rect x="258" y="382" width="322" height="70" rx="5" fill="#FF4444" fill-opacity="0.73"/>
<rect x="258" y="284" width="322" height="70" rx="5" fill="#FF4444" fill-opacity="0.73"/>
<path d="M311.33 217.222L317.668 219.628V222.238L308.677 218.231V216.158L317.668 212.162V214.772L311.33 217.222ZM327.926 220.842C327.926 220.376 327.733 220.022 327.346 219.778C326.966 219.535 326.332 219.32 325.444 219.134C324.556 218.948 323.815 218.711 323.221 218.425C321.917 217.795 321.266 216.882 321.266 215.686C321.266 214.683 321.688 213.845 322.533 213.172C323.378 212.499 324.453 212.162 325.756 212.162C327.145 212.162 328.266 212.506 329.118 213.193C329.978 213.881 330.407 214.772 330.407 215.868H327.797C327.797 215.367 327.611 214.951 327.238 214.622C326.866 214.285 326.372 214.117 325.756 214.117C325.183 214.117 324.714 214.25 324.349 214.515C323.991 214.78 323.812 215.134 323.812 215.578C323.812 215.979 323.98 216.291 324.317 216.513C324.653 216.735 325.333 216.96 326.358 217.189C327.382 217.411 328.184 217.68 328.764 217.995C329.351 218.303 329.784 218.675 330.064 219.112C330.35 219.549 330.493 220.079 330.493 220.702C330.493 221.748 330.06 222.596 329.193 223.248C328.327 223.893 327.192 224.215 325.788 224.215C324.836 224.215 323.987 224.043 323.242 223.699C322.498 223.355 321.917 222.883 321.502 222.281C321.087 221.68 320.879 221.032 320.879 220.337H323.414C323.45 220.953 323.683 221.429 324.112 221.766C324.542 222.095 325.111 222.26 325.82 222.26C326.508 222.26 327.031 222.131 327.389 221.873C327.747 221.608 327.926 221.264 327.926 220.842ZM338.775 224.215C337.12 224.215 335.778 223.696 334.746 222.657C333.722 221.612 333.21 220.222 333.21 218.489V218.167C333.21 217.007 333.432 215.972 333.876 215.062C334.327 214.146 334.958 213.433 335.767 212.925C336.576 212.416 337.478 212.162 338.474 212.162C340.057 212.162 341.278 212.667 342.137 213.677C343.003 214.687 343.437 216.115 343.437 217.963V219.016H335.842C335.921 219.975 336.239 220.734 336.798 221.293C337.364 221.852 338.073 222.131 338.925 222.131C340.121 222.131 341.095 221.647 341.847 220.681L343.254 222.023C342.789 222.718 342.166 223.259 341.385 223.646C340.612 224.025 339.741 224.215 338.775 224.215ZM338.463 214.257C337.747 214.257 337.167 214.507 336.723 215.009C336.286 215.51 336.007 216.208 335.885 217.104H340.859V216.91C340.801 216.036 340.569 215.378 340.16 214.934C339.752 214.482 339.186 214.257 338.463 214.257ZM351.127 222.131C351.779 222.131 352.32 221.941 352.749 221.562C353.179 221.182 353.408 220.713 353.437 220.154H355.897C355.868 220.878 355.643 221.554 355.22 222.185C354.798 222.808 354.225 223.302 353.501 223.667C352.778 224.032 351.997 224.215 351.16 224.215C349.534 224.215 348.245 223.688 347.292 222.636C346.34 221.583 345.864 220.129 345.864 218.274V218.006C345.864 216.237 346.336 214.823 347.282 213.763C348.227 212.696 349.516 212.162 351.149 212.162C352.531 212.162 353.655 212.567 354.522 213.376C355.396 214.178 355.854 215.234 355.897 216.545H353.437C353.408 215.879 353.179 215.331 352.749 214.901C352.327 214.472 351.786 214.257 351.127 214.257C350.282 214.257 349.631 214.565 349.172 215.181C348.714 215.789 348.481 216.717 348.474 217.963V218.382C348.474 219.642 348.7 220.584 349.151 221.207C349.609 221.823 350.268 222.131 351.127 222.131ZM362.019 209.552V212.377H364.071V214.311H362.019V220.799C362.019 221.243 362.105 221.565 362.277 221.766C362.456 221.959 362.771 222.056 363.222 222.056C363.523 222.056 363.827 222.02 364.135 221.948V223.968C363.541 224.132 362.968 224.215 362.416 224.215C360.411 224.215 359.409 223.108 359.409 220.896V214.311H357.497V212.377H359.409V209.552H362.019ZM369.731 224H367.121V212.377H369.731V224ZM366.96 209.358C366.96 208.957 367.085 208.624 367.336 208.359C367.593 208.094 367.959 207.962 368.431 207.962C368.904 207.962 369.269 208.094 369.527 208.359C369.785 208.624 369.914 208.957 369.914 209.358C369.914 209.752 369.785 210.082 369.527 210.347C369.269 210.604 368.904 210.733 368.431 210.733C367.959 210.733 367.593 210.604 367.336 210.347C367.085 210.082 366.96 209.752 366.96 209.358ZM372.974 218.081C372.974 216.942 373.2 215.918 373.651 215.009C374.102 214.092 374.736 213.39 375.552 212.903C376.369 212.409 377.307 212.162 378.367 212.162C379.935 212.162 381.206 212.667 382.18 213.677C383.162 214.687 383.691 216.026 383.77 217.694L383.781 218.307C383.781 219.452 383.559 220.477 383.115 221.379C382.678 222.281 382.048 222.979 381.224 223.474C380.408 223.968 379.463 224.215 378.388 224.215C376.748 224.215 375.434 223.671 374.446 222.582C373.465 221.486 372.974 220.029 372.974 218.21V218.081ZM375.585 218.307C375.585 219.503 375.832 220.441 376.326 221.121C376.82 221.794 377.508 222.131 378.388 222.131C379.269 222.131 379.953 221.787 380.44 221.1C380.934 220.412 381.181 219.406 381.181 218.081C381.181 216.907 380.927 215.976 380.419 215.288C379.917 214.601 379.233 214.257 378.367 214.257C377.515 214.257 376.838 214.597 376.337 215.277C375.835 215.951 375.585 216.96 375.585 218.307ZM389.291 212.377L389.366 213.72C390.225 212.681 391.353 212.162 392.75 212.162C395.17 212.162 396.402 213.548 396.445 216.319V224H393.835V216.47C393.835 215.732 393.674 215.188 393.351 214.837C393.036 214.479 392.517 214.3 391.794 214.3C390.741 214.3 389.957 214.776 389.441 215.729V224H386.831V212.377H389.291ZM406.671 217.168L400.032 214.729V212.162L409.313 216.158V218.231L400.032 222.228V219.66L406.671 217.168ZM414.318 217.222L420.656 219.628V222.238L411.665 218.231V216.158L420.656 212.162V214.772L414.318 217.222ZM425.135 225.343H423.083L429.238 208.359H431.29L425.135 225.343ZM440.495 220.842C440.495 220.376 440.302 220.022 439.915 219.778C439.536 219.535 438.902 219.32 438.014 219.134C437.126 218.948 436.385 218.711 435.79 218.425C434.487 217.795 433.835 216.882 433.835 215.686C433.835 214.683 434.258 213.845 435.103 213.172C435.948 212.499 437.022 212.162 438.326 212.162C439.715 212.162 440.836 212.506 441.688 213.193C442.547 213.881 442.977 214.772 442.977 215.868H440.367C440.367 215.367 440.18 214.951 439.808 214.622C439.436 214.285 438.941 214.117 438.326 214.117C437.753 214.117 437.284 214.25 436.918 214.515C436.56 214.78 436.381 215.134 436.381 215.578C436.381 215.979 436.549 216.291 436.886 216.513C437.223 216.735 437.903 216.96 438.927 217.189C439.951 217.411 440.753 217.68 441.333 217.995C441.921 218.303 442.354 218.675 442.633 219.112C442.92 219.549 443.063 220.079 443.063 220.702C443.063 221.748 442.63 222.596 441.763 223.248C440.896 223.893 439.761 224.215 438.358 224.215C437.405 224.215 436.557 224.043 435.812 223.699C435.067 223.355 434.487 222.883 434.072 222.281C433.656 221.68 433.449 221.032 433.449 220.337H435.984C436.02 220.953 436.252 221.429 436.682 221.766C437.112 222.095 437.681 222.26 438.39 222.26C439.077 222.26 439.6 222.131 439.958 221.873C440.316 221.608 440.495 221.264 440.495 220.842ZM451.344 224.215C449.69 224.215 448.347 223.696 447.316 222.657C446.292 221.612 445.78 220.222 445.78 218.489V218.167C445.78 217.007 446.002 215.972 446.446 215.062C446.897 214.146 447.527 213.433 448.336 212.925C449.146 212.416 450.048 212.162 451.043 212.162C452.626 212.162 453.847 212.667 454.706 213.677C455.573 214.687 456.006 216.115 456.006 217.963V219.016H448.412C448.49 219.975 448.809 220.734 449.368 221.293C449.933 221.852 450.642 222.131 451.495 222.131C452.691 222.131 453.664 221.647 454.416 220.681L455.824 222.023C455.358 222.718 454.735 223.259 453.955 223.646C453.181 224.025 452.311 224.215 451.344 224.215ZM451.033 214.257C450.317 214.257 449.736 214.507 449.292 215.009C448.856 215.51 448.576 216.208 448.455 217.104H453.428V216.91C453.371 216.036 453.138 215.378 452.73 214.934C452.322 214.482 451.756 214.257 451.033 214.257ZM463.697 222.131C464.349 222.131 464.889 221.941 465.319 221.562C465.749 221.182 465.978 220.713 466.006 220.154H468.466C468.438 220.878 468.212 221.554 467.79 222.185C467.367 222.808 466.794 223.302 466.071 223.667C465.348 224.032 464.567 224.215 463.729 224.215C462.103 224.215 460.814 223.688 459.862 222.636C458.909 221.583 458.433 220.129 458.433 218.274V218.006C458.433 216.237 458.906 214.823 459.851 213.763C460.796 212.696 462.086 212.162 463.718 212.162C465.1 212.162 466.225 212.567 467.091 213.376C467.965 214.178 468.423 215.234 468.466 216.545H466.006C465.978 215.879 465.749 215.331 465.319 214.901C464.896 214.472 464.356 214.257 463.697 214.257C462.852 214.257 462.2 214.565 461.742 215.181C461.283 215.789 461.051 216.717 461.044 217.963V218.382C461.044 219.642 461.269 220.584 461.72 221.207C462.179 221.823 462.837 222.131 463.697 222.131ZM474.589 209.552V212.377H476.64V214.311H474.589V220.799C474.589 221.243 474.674 221.565 474.846 221.766C475.025 221.959 475.341 222.056 475.792 222.056C476.092 222.056 476.397 222.02 476.705 221.948V223.968C476.11 224.132 475.537 224.215 474.986 224.215C472.981 224.215 471.978 223.108 471.978 220.896V214.311H470.066V212.377H471.978V209.552H474.589ZM482.301 224H479.69V212.377H482.301V224ZM479.529 209.358C479.529 208.957 479.654 208.624 479.905 208.359C480.163 208.094 480.528 207.962 481.001 207.962C481.473 207.962 481.839 208.094 482.096 208.359C482.354 208.624 482.483 208.957 482.483 209.358C482.483 209.752 482.354 210.082 482.096 210.347C481.839 210.604 481.473 210.733 481.001 210.733C480.528 210.733 480.163 210.604 479.905 210.347C479.654 210.082 479.529 209.752 479.529 209.358ZM485.544 218.081C485.544 216.942 485.769 215.918 486.221 215.009C486.672 214.092 487.306 213.39 488.122 212.903C488.938 212.409 489.877 212.162 490.936 212.162C492.505 212.162 493.776 212.667 494.75 213.677C495.731 214.687 496.261 216.026 496.34 217.694L496.351 218.307C496.351 219.452 496.129 220.477 495.684 221.379C495.248 222.281 494.617 222.979 493.794 223.474C492.977 223.968 492.032 224.215 490.958 224.215C489.318 224.215 488.004 223.671 487.016 222.582C486.034 221.486 485.544 220.029 485.544 218.21V218.081ZM488.154 218.307C488.154 219.503 488.401 220.441 488.895 221.121C489.39 221.794 490.077 222.131 490.958 222.131C491.839 222.131 492.523 221.787 493.01 221.1C493.504 220.412 493.751 219.406 493.751 218.081C493.751 216.907 493.497 215.976 492.988 215.288C492.487 214.601 491.803 214.257 490.936 214.257C490.084 214.257 489.407 214.597 488.906 215.277C488.405 215.951 488.154 216.96 488.154 218.307ZM501.86 212.377L501.936 213.72C502.795 212.681 503.923 212.162 505.319 212.162C507.74 212.162 508.972 213.548 509.015 216.319V224H506.404V216.47C506.404 215.732 506.243 215.188 505.921 214.837C505.606 214.479 505.087 214.3 504.363 214.3C503.311 214.3 502.526 214.776 502.011 215.729V224H499.4V212.377H501.86ZM519.24 217.168L512.602 214.729V212.162L521.883 216.158V218.231L512.602 222.228V219.66L519.24 217.168Z" fill="white"/>
<path d="M311.33 418.222L317.668 420.628V423.238L308.677 419.231V417.158L317.668 413.162V415.772L311.33 418.222ZM327.926 421.842C327.926 421.376 327.733 421.022 327.346 420.778C326.966 420.535 326.332 420.32 325.444 420.134C324.556 419.948 323.815 419.711 323.221 419.425C321.917 418.795 321.266 417.882 321.266 416.686C321.266 415.683 321.688 414.845 322.533 414.172C323.378 413.499 324.453 413.162 325.756 413.162C327.145 413.162 328.266 413.506 329.118 414.193C329.978 414.881 330.407 415.772 330.407 416.868H327.797C327.797 416.367 327.611 415.951 327.238 415.622C326.866 415.285 326.372 415.117 325.756 415.117C325.183 415.117 324.714 415.25 324.349 415.515C323.991 415.78 323.812 416.134 323.812 416.578C323.812 416.979 323.98 417.291 324.317 417.513C324.653 417.735 325.333 417.96 326.358 418.189C327.382 418.411 328.184 418.68 328.764 418.995C329.351 419.303 329.784 419.675 330.064 420.112C330.35 420.549 330.493 421.079 330.493 421.702C330.493 422.748 330.06 423.596 329.193 424.248C328.327 424.893 327.192 425.215 325.788 425.215C324.836 425.215 323.987 425.043 323.242 424.699C322.498 424.355 321.917 423.883 321.502 423.281C321.087 422.68 320.879 422.032 320.879 421.337H323.414C323.45 421.953 323.683 422.429 324.112 422.766C324.542 423.095 325.111 423.26 325.82 423.26C326.508 423.26 327.031 423.131 327.389 422.873C327.747 422.608 327.926 422.264 327.926 421.842ZM338.775 425.215C337.12 425.215 335.778 424.696 334.746 423.657C333.722 422.612 333.21 421.222 333.21 419.489V419.167C333.21 418.007 333.432 416.972 333.876 416.062C334.327 415.146 334.958 414.433 335.767 413.925C336.576 413.416 337.478 413.162 338.474 413.162C340.057 413.162 341.278 413.667 342.137 414.677C343.003 415.687 343.437 417.115 343.437 418.963V420.016H335.842C335.921 420.975 336.239 421.734 336.798 422.293C337.364 422.852 338.073 423.131 338.925 423.131C340.121 423.131 341.095 422.647 341.847 421.681L343.254 423.023C342.789 423.718 342.166 424.259 341.385 424.646C340.612 425.025 339.741 425.215 338.775 425.215ZM338.463 415.257C337.747 415.257 337.167 415.507 336.723 416.009C336.286 416.51 336.007 417.208 335.885 418.104H340.859V417.91C340.801 417.036 340.569 416.378 340.16 415.934C339.752 415.482 339.186 415.257 338.463 415.257ZM351.127 423.131C351.779 423.131 352.32 422.941 352.749 422.562C353.179 422.182 353.408 421.713 353.437 421.154H355.897C355.868 421.878 355.643 422.554 355.22 423.185C354.798 423.808 354.225 424.302 353.501 424.667C352.778 425.032 351.997 425.215 351.16 425.215C349.534 425.215 348.245 424.688 347.292 423.636C346.34 422.583 345.864 421.129 345.864 419.274V419.006C345.864 417.237 346.336 415.823 347.282 414.763C348.227 413.696 349.516 413.162 351.149 413.162C352.531 413.162 353.655 413.567 354.522 414.376C355.396 415.178 355.854 416.234 355.897 417.545H353.437C353.408 416.879 353.179 416.331 352.749 415.901C352.327 415.472 351.786 415.257 351.127 415.257C350.282 415.257 349.631 415.565 349.172 416.181C348.714 416.789 348.481 417.717 348.474 418.963V419.382C348.474 420.642 348.7 421.584 349.151 422.207C349.609 422.823 350.268 423.131 351.127 423.131ZM362.019 410.552V413.377H364.071V415.311H362.019V421.799C362.019 422.243 362.105 422.565 362.277 422.766C362.456 422.959 362.771 423.056 363.222 423.056C363.523 423.056 363.827 423.02 364.135 422.948V424.968C363.541 425.132 362.968 425.215 362.416 425.215C360.411 425.215 359.409 424.108 359.409 421.896V415.311H357.497V413.377H359.409V410.552H362.019ZM369.731 425H367.121V413.377H369.731V425ZM366.96 410.358C366.96 409.957 367.085 409.624 367.336 409.359C367.593 409.094 367.959 408.962 368.431 408.962C368.904 408.962 369.269 409.094 369.527 409.359C369.785 409.624 369.914 409.957 369.914 410.358C369.914 410.752 369.785 411.082 369.527 411.347C369.269 411.604 368.904 411.733 368.431 411.733C367.959 411.733 367.593 411.604 367.336 411.347C367.085 411.082 366.96 410.752 366.96 410.358ZM372.974 419.081C372.974 417.942 373.2 416.918 373.651 416.009C374.102 415.092 374.736 414.39 375.552 413.903C376.369 413.409 377.307 413.162 378.367 413.162C379.935 413.162 381.206 413.667 382.18 414.677C383.162 415.687 383.691 417.026 383.77 418.694L383.781 419.307C383.781 420.452 383.559 421.477 383.115 422.379C382.678 423.281 382.048 423.979 381.224 424.474C380.408 424.968 379.463 425.215 378.388 425.215C376.748 425.215 375.434 424.671 374.446 423.582C373.465 422.486 372.974 421.029 372.974 419.21V419.081ZM375.585 419.307C375.585 420.503 375.832 421.441 376.326 422.121C376.82 422.794 377.508 423.131 378.388 423.131C379.269 423.131 379.953 422.787 380.44 422.1C380.934 421.412 381.181 420.406 381.181 419.081C381.181 417.907 380.927 416.976 380.419 416.288C379.917 415.601 379.233 415.257 378.367 415.257C377.515 415.257 376.838 415.597 376.337 416.277C375.835 416.951 375.585 417.96 375.585 419.307ZM389.291 413.377L389.366 414.72C390.225 413.681 391.353 413.162 392.75 413.162C395.17 413.162 396.402 414.548 396.445 417.319V425H393.835V417.47C393.835 416.732 393.674 416.188 393.351 415.837C393.036 415.479 392.517 415.3 391.794 415.3C390.741 415.3 389.957 415.776 389.441 416.729V425H386.831V413.377H389.291ZM406.671 418.168L400.032 415.729V413.162L409.313 417.158V419.231L400.032 423.228V420.66L406.671 418.168ZM414.318 418.222L420.656 420.628V423.238L411.665 419.231V417.158L420.656 413.162V415.772L414.318 418.222ZM425.135 426.343H423.083L429.238 409.359H431.29L425.135 426.343ZM440.495 421.842C440.495 421.376 440.302 421.022 439.915 420.778C439.536 420.535 438.902 420.32 438.014 420.134C437.126 419.948 436.385 419.711 435.79 419.425C434.487 418.795 433.835 417.882 433.835 416.686C433.835 415.683 434.258 414.845 435.103 414.172C435.948 413.499 437.022 413.162 438.326 413.162C439.715 413.162 440.836 413.506 441.688 414.193C442.547 414.881 442.977 415.772 442.977 416.868H440.367C440.367 416.367 440.18 415.951 439.808 415.622C439.436 415.285 438.941 415.117 438.326 415.117C437.753 415.117 437.284 415.25 436.918 415.515C436.56 415.78 436.381 416.134 436.381 416.578C436.381 416.979 436.549 417.291 436.886 417.513C437.223 417.735 437.903 417.96 438.927 418.189C439.951 418.411 440.753 418.68 441.333 418.995C441.921 419.303 442.354 419.675 442.633 420.112C442.92 420.549 443.063 421.079 443.063 421.702C443.063 422.748 442.63 423.596 441.763 424.248C440.896 424.893 439.761 425.215 438.358 425.215C437.405 425.215 436.557 425.043 435.812 424.699C435.067 424.355 434.487 423.883 434.072 423.281C433.656 422.68 433.449 422.032 433.449 421.337H435.984C436.02 421.953 436.252 422.429 436.682 422.766C437.112 423.095 437.681 423.26 438.39 423.26C439.077 423.26 439.6 423.131 439.958 422.873C440.316 422.608 440.495 422.264 440.495 421.842ZM451.344 425.215C449.69 425.215 448.347 424.696 447.316 423.657C446.292 422.612 445.78 421.222 445.78 419.489V419.167C445.78 418.007 446.002 416.972 446.446 416.062C446.897 415.146 447.527 414.433 448.336 413.925C449.146 413.416 450.048 413.162 451.043 413.162C452.626 413.162 453.847 413.667 454.706 414.677C455.573 415.687 456.006 417.115 456.006 418.963V420.016H448.412C448.49 420.975 448.809 421.734 449.368 422.293C449.933 422.852 450.642 423.131 451.495 423.131C452.691 423.131 453.664 422.647 454.416 421.681L455.824 423.023C455.358 423.718 454.735 424.259 453.955 424.646C453.181 425.025 452.311 425.215 451.344 425.215ZM451.033 415.257C450.317 415.257 449.736 415.507 449.292 416.009C448.856 416.51 448.576 417.208 448.455 418.104H453.428V417.91C453.371 417.036 453.138 416.378 452.73 415.934C452.322 415.482 451.756 415.257 451.033 415.257ZM463.697 423.131C464.349 423.131 464.889 422.941 465.319 422.562C465.749 422.182 465.978 421.713 466.006 421.154H468.466C468.438 421.878 468.212 422.554 467.79 423.185C467.367 423.808 466.794 424.302 466.071 424.667C465.348 425.032 464.567 425.215 463.729 425.215C462.103 425.215 460.814 424.688 459.862 423.636C458.909 422.583 458.433 421.129 458.433 419.274V419.006C458.433 417.237 458.906 415.823 459.851 414.763C460.796 413.696 462.086 413.162 463.718 413.162C465.1 413.162 466.225 413.567 467.091 414.376C467.965 415.178 468.423 416.234 468.466 417.545H466.006C465.978 416.879 465.749 416.331 465.319 415.901C464.896 415.472 464.356 415.257 463.697 415.257C462.852 415.257 462.2 415.565 461.742 416.181C461.283 416.789 461.051 417.717 461.044 418.963V419.382C461.044 420.642 461.269 421.584 461.72 422.207C462.179 422.823 462.837 423.131 463.697 423.131ZM474.589 410.552V413.377H476.64V415.311H474.589V421.799C474.589 422.243 474.674 422.565 474.846 422.766C475.025 422.959 475.341 423.056 475.792 423.056C476.092 423.056 476.397 423.02 476.705 422.948V424.968C476.11 425.132 475.537 425.215 474.986 425.215C472.981 425.215 471.978 424.108 471.978 421.896V415.311H470.066V413.377H471.978V410.552H474.589ZM482.301 425H479.69V413.377H482.301V425ZM479.529 410.358C479.529 409.957 479.654 409.624 479.905 409.359C480.163 409.094 480.528 408.962 481.001 408.962C481.473 408.962 481.839 409.094 482.096 409.359C482.354 409.624 482.483 409.957 482.483 410.358C482.483 410.752 482.354 411.082 482.096 411.347C481.839 411.604 481.473 411.733 481.001 411.733C480.528 411.733 480.163 411.604 479.905 411.347C479.654 411.082 479.529 410.752 479.529 410.358ZM485.544 419.081C485.544 417.942 485.769 416.918 486.221 416.009C486.672 415.092 487.306 414.39 488.122 413.903C488.938 413.409 489.877 413.162 490.936 413.162C492.505 413.162 493.776 413.667 494.75 414.677C495.731 415.687 496.261 417.026 496.34 418.694L496.351 419.307C496.351 420.452 496.129 421.477 495.684 422.379C495.248 423.281 494.617 423.979 493.794 424.474C492.977 424.968 492.032 425.215 490.958 425.215C489.318 425.215 488.004 424.671 487.016 423.582C486.034 422.486 485.544 421.029 485.544 419.21V419.081ZM488.154 419.307C488.154 420.503 488.401 421.441 488.895 422.121C489.39 422.794 490.077 423.131 490.958 423.131C491.839 423.131 492.523 422.787 493.01 422.1C493.504 421.412 493.751 420.406 493.751 419.081C493.751 417.907 493.497 416.976 492.988 416.288C492.487 415.601 491.803 415.257 490.936 415.257C490.084 415.257 489.407 415.597 488.906 416.277C488.405 416.951 488.154 417.96 488.154 419.307ZM501.86 413.377L501.936 414.72C502.795 413.681 503.923 413.162 505.319 413.162C507.74 413.162 508.972 414.548 509.015 417.319V425H506.404V417.47C506.404 416.732 506.243 416.188 505.921 415.837C505.606 415.479 505.087 415.3 504.363 415.3C503.311 415.3 502.526 415.776 502.011 416.729V425H499.4V413.377H501.86ZM519.24 418.168L512.602 415.729V413.162L521.883 417.158V419.231L512.602 423.228V420.66L519.24 418.168Z" fill="white"/>
<path d="M311.33 318.222L317.668 320.628V323.238L308.677 319.231V317.158L317.668 313.162V315.772L311.33 318.222ZM327.926 321.842C327.926 321.376 327.733 321.022 327.346 320.778C326.966 320.535 326.332 320.32 325.444 320.134C324.556 319.948 323.815 319.711 323.221 319.425C321.917 318.795 321.266 317.882 321.266 316.686C321.266 315.683 321.688 314.845 322.533 314.172C323.378 313.499 324.453 313.162 325.756 313.162C327.145 313.162 328.266 313.506 329.118 314.193C329.978 314.881 330.407 315.772 330.407 316.868H327.797C327.797 316.367 327.611 315.951 327.238 315.622C326.866 315.285 326.372 315.117 325.756 315.117C325.183 315.117 324.714 315.25 324.349 315.515C323.991 315.78 323.812 316.134 323.812 316.578C323.812 316.979 323.98 317.291 324.317 317.513C324.653 317.735 325.333 317.96 326.358 318.189C327.382 318.411 328.184 318.68 328.764 318.995C329.351 319.303 329.784 319.675 330.064 320.112C330.35 320.549 330.493 321.079 330.493 321.702C330.493 322.748 330.06 323.596 329.193 324.248C328.327 324.893 327.192 325.215 325.788 325.215C324.836 325.215 323.987 325.043 323.242 324.699C322.498 324.355 321.917 323.883 321.502 323.281C321.087 322.68 320.879 322.032 320.879 321.337H323.414C323.45 321.953 323.683 322.429 324.112 322.766C324.542 323.095 325.111 323.26 325.82 323.26C326.508 323.26 327.031 323.131 327.389 322.873C327.747 322.608 327.926 322.264 327.926 321.842ZM338.775 325.215C337.12 325.215 335.778 324.696 334.746 323.657C333.722 322.612 333.21 321.222 333.21 319.489V319.167C333.21 318.007 333.432 316.972 333.876 316.062C334.327 315.146 334.958 314.433 335.767 313.925C336.576 313.416 337.478 313.162 338.474 313.162C340.057 313.162 341.278 313.667 342.137 314.677C343.003 315.687 343.437 317.115 343.437 318.963V320.016H335.842C335.921 320.975 336.239 321.734 336.798 322.293C337.364 322.852 338.073 323.131 338.925 323.131C340.121 323.131 341.095 322.647 341.847 321.681L343.254 323.023C342.789 323.718 342.166 324.259 341.385 324.646C340.612 325.025 339.741 325.215 338.775 325.215ZM338.463 315.257C337.747 315.257 337.167 315.507 336.723 316.009C336.286 316.51 336.007 317.208 335.885 318.104H340.859V317.91C340.801 317.036 340.569 316.378 340.16 315.934C339.752 315.482 339.186 315.257 338.463 315.257ZM351.127 323.131C351.779 323.131 352.32 322.941 352.749 322.562C353.179 322.182 353.408 321.713 353.437 321.154H355.897C355.868 321.878 355.643 322.554 355.22 323.185C354.798 323.808 354.225 324.302 353.501 324.667C352.778 325.032 351.997 325.215 351.16 325.215C349.534 325.215 348.245 324.688 347.292 323.636C346.34 322.583 345.864 321.129 345.864 319.274V319.006C345.864 317.237 346.336 315.823 347.282 314.763C348.227 313.696 349.516 313.162 351.149 313.162C352.531 313.162 353.655 313.567 354.522 314.376C355.396 315.178 355.854 316.234 355.897 317.545H353.437C353.408 316.879 353.179 316.331 352.749 315.901C352.327 315.472 351.786 315.257 351.127 315.257C350.282 315.257 349.631 315.565 349.172 316.181C348.714 316.789 348.481 317.717 348.474 318.963V319.382C348.474 320.642 348.7 321.584 349.151 322.207C349.609 322.823 350.268 323.131 351.127 323.131ZM362.019 310.552V313.377H364.071V315.311H362.019V321.799C362.019 322.243 362.105 322.565 362.277 322.766C362.456 322.959 362.771 323.056 363.222 323.056C363.523 323.056 363.827 323.02 364.135 322.948V324.968C363.541 325.132 362.968 325.215 362.416 325.215C360.411 325.215 359.409 324.108 359.409 321.896V315.311H357.497V313.377H359.409V310.552H362.019ZM369.731 325H367.121V313.377H369.731V325ZM366.96 310.358C366.96 309.957 367.085 309.624 367.336 309.359C367.593 309.094 367.959 308.962 368.431 308.962C368.904 308.962 369.269 309.094 369.527 309.359C369.785 309.624 369.914 309.957 369.914 310.358C369.914 310.752 369.785 311.082 369.527 311.347C369.269 311.604 368.904 311.733 368.431 311.733C367.959 311.733 367.593 311.604 367.336 311.347C367.085 311.082 366.96 310.752 366.96 310.358ZM372.974 319.081C372.974 317.942 373.2 316.918 373.651 316.009C374.102 315.092 374.736 314.39 375.552 313.903C376.369 313.409 377.307 313.162 378.367 313.162C379.935 313.162 381.206 313.667 382.18 314.677C383.162 315.687 383.691 317.026 383.77 318.694L383.781 319.307C383.781 320.452 383.559 321.477 383.115 322.379C382.678 323.281 382.048 323.979 381.224 324.474C380.408 324.968 379.463 325.215 378.388 325.215C376.748 325.215 375.434 324.671 374.446 323.582C373.465 322.486 372.974 321.029 372.974 319.21V319.081ZM375.585 319.307C375.585 320.503 375.832 321.441 376.326 322.121C376.82 322.794 377.508 323.131 378.388 323.131C379.269 323.131 379.953 322.787 380.44 322.1C380.934 321.412 381.181 320.406 381.181 319.081C381.181 317.907 380.927 316.976 380.419 316.288C379.917 315.601 379.233 315.257 378.367 315.257C377.515 315.257 376.838 315.597 376.337 316.277C375.835 316.951 375.585 317.96 375.585 319.307ZM389.291 313.377L389.366 314.72C390.225 313.681 391.353 313.162 392.75 313.162C395.17 313.162 396.402 314.548 396.445 317.319V325H393.835V317.47C393.835 316.732 393.674 316.188 393.351 315.837C393.036 315.479 392.517 315.3 391.794 315.3C390.741 315.3 389.957 315.776 389.441 316.729V325H386.831V313.377H389.291ZM406.671 318.168L400.032 315.729V313.162L409.313 317.158V319.231L400.032 323.228V320.66L406.671 318.168ZM414.318 318.222L420.656 320.628V323.238L411.665 319.231V317.158L420.656 313.162V315.772L414.318 318.222ZM425.135 326.343H423.083L429.238 309.359H431.29L425.135 326.343ZM440.495 321.842C440.495 321.376 440.302 321.022 439.915 320.778C439.536 320.535 438.902 320.32 438.014 320.134C437.126 319.948 436.385 319.711 435.79 319.425C434.487 318.795 433.835 317.882 433.835 316.686C433.835 315.683 434.258 314.845 435.103 314.172C435.948 313.499 437.022 313.162 438.326 313.162C439.715 313.162 440.836 313.506 441.688 314.193C442.547 314.881 442.977 315.772 442.977 316.868H440.367C440.367 316.367 440.18 315.951 439.808 315.622C439.436 315.285 438.941 315.117 438.326 315.117C437.753 315.117 437.284 315.25 436.918 315.515C436.56 315.78 436.381 316.134 436.381 316.578C436.381 316.979 436.549 317.291 436.886 317.513C437.223 317.735 437.903 317.96 438.927 318.189C439.951 318.411 440.753 318.68 441.333 318.995C441.921 319.303 442.354 319.675 442.633 320.112C442.92 320.549 443.063 321.079 443.063 321.702C443.063 322.748 442.63 323.596 441.763 324.248C440.896 324.893 439.761 325.215 438.358 325.215C437.405 325.215 436.557 325.043 435.812 324.699C435.067 324.355 434.487 323.883 434.072 323.281C433.656 322.68 433.449 322.032 433.449 321.337H435.984C436.02 321.953 436.252 322.429 436.682 322.766C437.112 323.095 437.681 323.26 438.39 323.26C439.077 323.26 439.6 323.131 439.958 322.873C440.316 322.608 440.495 322.264 440.495 321.842ZM451.344 325.215C449.69 325.215 448.347 324.696 447.316 323.657C446.292 322.612 445.78 321.222 445.78 319.489V319.167C445.78 318.007 446.002 316.972 446.446 316.062C446.897 315.146 447.527 314.433 448.336 313.925C449.146 313.416 450.048 313.162 451.043 313.162C452.626 313.162 453.847 313.667 454.706 314.677C455.573 315.687 456.006 317.115 456.006 318.963V320.016H448.412C448.49 320.975 448.809 321.734 449.368 322.293C449.933 322.852 450.642 323.131 451.495 323.131C452.691 323.131 453.664 322.647 454.416 321.681L455.824 323.023C455.358 323.718 454.735 324.259 453.955 324.646C453.181 325.025 452.311 325.215 451.344 325.215ZM451.033 315.257C450.317 315.257 449.736 315.507 449.292 316.009C448.856 316.51 448.576 317.208 448.455 318.104H453.428V317.91C453.371 317.036 453.138 316.378 452.73 315.934C452.322 315.482 451.756 315.257 451.033 315.257ZM463.697 323.131C464.349 323.131 464.889 322.941 465.319 322.562C465.749 322.182 465.978 321.713 466.006 321.154H468.466C468.438 321.878 468.212 322.554 467.79 323.185C467.367 323.808 466.794 324.302 466.071 324.667C465.348 325.032 464.567 325.215 463.729 325.215C462.103 325.215 460.814 324.688 459.862 323.636C458.909 322.583 458.433 321.129 458.433 319.274V319.006C458.433 317.237 458.906 315.823 459.851 314.763C460.796 313.696 462.086 313.162 463.718 313.162C465.1 313.162 466.225 313.567 467.091 314.376C467.965 315.178 468.423 316.234 468.466 317.545H466.006C465.978 316.879 465.749 316.331 465.319 315.901C464.896 315.472 464.356 315.257 463.697 315.257C462.852 315.257 462.2 315.565 461.742 316.181C461.283 316.789 461.051 317.717 461.044 318.963V319.382C461.044 320.642 461.269 321.584 461.72 322.207C462.179 322.823 462.837 323.131 463.697 323.131ZM474.589 310.552V313.377H476.64V315.311H474.589V321.799C474.589 322.243 474.674 322.565 474.846 322.766C475.025 322.959 475.341 323.056 475.792 323.056C476.092 323.056 476.397 323.02 476.705 322.948V324.968C476.11 325.132 475.537 325.215 474.986 325.215C472.981 325.215 471.978 324.108 471.978 321.896V315.311H470.066V313.377H471.978V310.552H474.589ZM482.301 325H479.69V313.377H482.301V325ZM479.529 310.358C479.529 309.957 479.654 309.624 479.905 309.359C480.163 309.094 480.528 308.962 481.001 308.962C481.473 308.962 481.839 309.094 482.096 309.359C482.354 309.624 482.483 309.957 482.483 310.358C482.483 310.752 482.354 311.082 482.096 311.347C481.839 311.604 481.473 311.733 481.001 311.733C480.528 311.733 480.163 311.604 479.905 311.347C479.654 311.082 479.529 310.752 479.529 310.358ZM485.544 319.081C485.544 317.942 485.769 316.918 486.221 316.009C486.672 315.092 487.306 314.39 488.122 313.903C488.938 313.409 489.877 313.162 490.936 313.162C492.505 313.162 493.776 313.667 494.75 314.677C495.731 315.687 496.261 317.026 496.34 318.694L496.351 319.307C496.351 320.452 496.129 321.477 495.684 322.379C495.248 323.281 494.617 323.979 493.794 324.474C492.977 324.968 492.032 325.215 490.958 325.215C489.318 325.215 488.004 324.671 487.016 323.582C486.034 322.486 485.544 321.029 485.544 319.21V319.081ZM488.154 319.307C488.154 320.503 488.401 321.441 488.895 322.121C489.39 322.794 490.077 323.131 490.958 323.131C491.839 323.131 492.523 322.787 493.01 322.1C493.504 321.412 493.751 320.406 493.751 319.081C493.751 317.907 493.497 316.976 492.988 316.288C492.487 315.601 491.803 315.257 490.936 315.257C490.084 315.257 489.407 315.597 488.906 316.277C488.405 316.951 488.154 317.96 488.154 319.307ZM501.86 313.377L501.936 314.72C502.795 313.681 503.923 313.162 505.319 313.162C507.74 313.162 508.972 314.548 509.015 317.319V325H506.404V317.47C506.404 316.732 506.243 316.188 505.921 315.837C505.606 315.479 505.087 315.3 504.363 315.3C503.311 315.3 502.526 315.776 502.011 316.729V325H499.4V313.377H501.86ZM519.24 318.168L512.602 315.729V313.162L521.883 317.158V319.231L512.602 323.228V320.66L519.24 318.168Z" fill="white"/>
<defs>
<filter id="filter0_d" x="37" y="30" width="580" height="75" filterUnits="userSpaceOnUse" color-interpolation-filters="sRGB">
<feFlood flood-opacity="0" result="BackgroundImageFix"/>
<feColorMatrix in="SourceAlpha" type="matrix" values="0 0 0 0 0 0 0 0 0 0 0 0 0 0 0 0 0 0 127 0"/>
<feOffset dx="2" dy="2"/>
<feGaussianBlur stdDeviation="5"/>
<feColorMatrix type="matrix" values="0 0 0 0 0 0 0 0 0 0.529412 0 0 0 0 0.8 0 0 0 0.3 0"/>
<feBlend mode="normal" in2="BackgroundImageFix" result="effect1_dropShadow"/>
<feBlend mode="normal" in="SourceGraphic" in2="effect1_dropShadow" result="shape"/>
</filter>
<filter id="filter1_d" x="37" y="547" width="580" height="77" filterUnits="userSpaceOnUse" color-interpolation-filters="sRGB">
<feFlood flood-opacity="0" result="BackgroundImageFix"/>
<feColorMatrix in="SourceAlpha" type="matrix" values="0 0 0 0 0 0 0 0 0 0 0 0 0 0 0 0 0 0 127 0"/>
<feOffset dx="2" dy="2"/>
<feGaussianBlur stdDeviation="5"/>
<feColorMatrix type="matrix" values="0 0 0 0 0 0 0 0 0 0.529412 0 0 0 0 0.8 0 0 0 0.3 0"/>
<feBlend mode="normal" in2="BackgroundImageFix" result="effect1_dropShadow"/>
<feBlend mode="normal" in="SourceGraphic" in2="effect1_dropShadow" result="shape"/>
</filter>
<filter id="filter2_d" x="218" y="97" width="399" height="460" filterUnits="userSpaceOnUse" color-interpolation-filters="sRGB">
<feFlood flood-opacity="0" result="BackgroundImageFix"/>
<feColorMatrix in="SourceAlpha" type="matrix" values="0 0 0 0 0 0 0 0 0 0 0 0 0 0 0 0 0 0 127 0"/>
<feOffset dx="2" dy="2"/>
<feGaussianBlur stdDeviation="5"/>
<feColorMatrix type="matrix" values="0 0 0 0 0.176471 0 0 0 0 0.701961 0 0 0 0 0.290196 0 0 0 0.3 0"/>
<feBlend mode="normal" in2="BackgroundImageFix" result="effect1_dropShadow"/>
<feBlend mode="normal" in="SourceGraphic" in2="effect1_dropShadow" result="shape"/>
</filter>
<filter id="filter3_d" x="37" y="97" width="189" height="460" filterUnits="userSpaceOnUse" color-interpolation-filters="sRGB">
<feFlood flood-opacity="0" result="BackgroundImageFix"/>
<feColorMatrix in="SourceAlpha" type="matrix" values="0 0 0 0 0 0 0 0 0 0 0 0 0 0 0 0 0 0 127 0"/>
<feOffset dx="2" dy="2"/>
<feGaussianBlur stdDeviation="5"/>
<feColorMatrix type="matrix" values="0 0 0 0 1 0 0 0 0 0.4 0 0 0 0 0.0117647 0 0 0 0.25 0"/>
<feBlend mode="normal" in2="BackgroundImageFix" result="effect1_dropShadow"/>
<feBlend mode="normal" in="SourceGraphic" in2="effect1_dropShadow" result="shape"/>
</filter>
</defs>
</svg>
