<svg width="700" height="266" viewBox="0 0 700 266" fill="none" xmlns="http://www.w3.org/2000/svg">
<rect width="700" height="266" fill="white"/>
<g filter="url(#filter0_d)">
<rect x="37" y="38" width="625" height="110" fill="#272722"/>
<rect x="37.5" y="38.5" width="624" height="109" stroke="black"/>
</g>
<path d="M87.5684 93.5947L101.973 99.0635V104.996L81.5381 95.8896V91.1777L101.973 82.0957V88.0283L87.5684 93.5947ZM133.611 96.0605C133.611 100.146 132.684 103.409 130.828 105.851C128.973 108.276 126.482 109.488 123.357 109.488C120.46 109.488 118.141 108.536 116.399 106.632V119.156H110.467V82.584H115.936L116.18 85.2695C117.921 83.1536 120.289 82.0957 123.284 82.0957C126.507 82.0957 129.03 83.3001 130.853 85.709C132.692 88.1016 133.611 91.43 133.611 95.6943V96.0605ZM127.703 95.5479C127.703 92.9111 127.174 90.8197 126.116 89.2734C125.075 87.7272 123.577 86.9541 121.624 86.9541C119.199 86.9541 117.457 87.9551 116.399 89.957V101.676C117.474 103.727 119.231 104.752 121.673 104.752C123.561 104.752 125.034 103.995 126.092 102.481C127.166 100.951 127.703 98.6403 127.703 95.5479ZM304.325 89.957H283.28V85.0254H304.325V89.957ZM304.325 100.309H283.28V95.4014H304.325V100.309ZM314.309 84L311.281 82.1201C312.746 79.988 313.503 77.7337 313.552 75.3574V71.5H318.752V74.8691C318.752 76.5456 318.321 78.2383 317.458 79.9473C316.612 81.64 315.562 82.9909 314.309 84ZM322.463 84L319.436 82.1201C320.9 79.988 321.657 77.7337 321.706 75.3574V71.5H326.906V74.8691C326.906 76.5456 326.475 78.2383 325.612 79.9473C324.766 81.64 323.716 82.9909 322.463 84ZM461.418 84L458.391 82.1201C459.855 79.988 460.612 77.7337 460.661 75.3574V71.5H465.861V74.8691C465.861 76.5456 465.43 78.2383 464.567 79.9473C463.721 81.64 462.671 82.9909 461.418 84ZM469.572 84L466.545 82.1201C468.01 79.988 468.767 77.7337 468.815 75.3574V71.5H474.016V74.8691C474.016 76.5456 473.584 78.2383 472.722 79.9473C471.875 81.64 470.826 82.9909 469.572 84ZM496.475 93.4727L481.387 87.9307V82.0957L502.48 91.1777V95.8896L481.387 104.972V99.1367L496.475 93.4727ZM513.855 93.5947L528.26 99.0635V104.996L507.825 95.8896V91.1777L528.26 82.0957V88.0283L513.855 93.5947ZM538.438 112.052H533.775L547.765 73.4531H552.428L538.438 112.052ZM581.674 96.0605C581.674 100.146 580.746 103.409 578.891 105.851C577.035 108.276 574.545 109.488 571.42 109.488C568.523 109.488 566.203 108.536 564.462 106.632V119.156H558.529V82.584H563.998L564.242 85.2695C565.984 83.1536 568.352 82.0957 571.347 82.0957C574.569 82.0957 577.092 83.3001 578.915 85.709C580.754 88.1016 581.674 91.43 581.674 95.6943V96.0605ZM575.766 95.5479C575.766 92.9111 575.237 90.8197 574.179 89.2734C573.137 87.7272 571.64 86.9541 569.687 86.9541C567.261 86.9541 565.52 87.9551 564.462 89.957V101.676C565.536 103.727 567.294 104.752 569.735 104.752C571.623 104.752 573.096 103.995 574.154 102.481C575.229 100.951 575.766 98.6403 575.766 95.5479ZM603.889 93.4727L588.801 87.9307V82.0957L609.895 91.1777V95.8896L588.801 104.972V99.1367L603.889 93.4727Z" fill="#2DB34A"/>
<path d="M339.697 82.584L339.868 85.6357C341.821 83.2757 344.385 82.0957 347.559 82.0957C353.06 82.0957 355.859 85.2451 355.957 91.5439V109H350.024V91.8857C350.024 90.2093 349.658 88.9723 348.926 88.1748C348.21 87.361 347.03 86.9541 345.386 86.9541C342.993 86.9541 341.211 88.0365 340.039 90.2012V109H334.106V82.584H339.697ZM375.657 109.488C371.897 109.488 368.846 108.308 366.502 105.948C364.174 103.572 363.011 100.414 363.011 96.4756V95.7432C363.011 93.1064 363.515 90.7546 364.524 88.6875C365.55 86.6042 366.982 84.9847 368.821 83.8291C370.66 82.6735 372.711 82.0957 374.974 82.0957C378.571 82.0957 381.346 83.2432 383.299 85.5381C385.268 87.833 386.253 91.0801 386.253 95.2793V97.6719H368.992C369.171 99.8529 369.896 101.578 371.165 102.848C372.451 104.117 374.062 104.752 375.999 104.752C378.717 104.752 380.931 103.653 382.64 101.456L385.838 104.508C384.78 106.087 383.364 107.315 381.59 108.194C379.832 109.057 377.854 109.488 375.657 109.488ZM374.949 86.8564C373.322 86.8564 372.003 87.4261 370.994 88.5654C370.001 89.7048 369.367 91.2917 369.09 93.3262H380.394V92.8867C380.263 90.901 379.734 89.4036 378.807 88.3945C377.879 87.3691 376.593 86.8564 374.949 86.8564ZM416.085 100.821L420.284 82.584H426.07L418.868 109H413.985L408.321 90.8604L402.755 109H397.872L390.646 82.584H396.432L400.704 100.626L406.124 82.584H410.592L416.085 100.821ZM446.845 101.822C446.845 100.764 446.405 99.9587 445.526 99.4053C444.664 98.8519 443.223 98.3636 441.205 97.9404C439.187 97.5173 437.502 96.9801 436.151 96.3291C433.189 94.8968 431.708 92.8216 431.708 90.1035C431.708 87.8249 432.668 85.9206 434.589 84.3906C436.509 82.8607 438.951 82.0957 441.913 82.0957C445.071 82.0957 447.618 82.877 449.555 84.4395C451.508 86.002 452.484 88.0283 452.484 90.5186H446.552C446.552 89.3792 446.129 88.4352 445.282 87.6865C444.436 86.9215 443.313 86.5391 441.913 86.5391C440.611 86.5391 439.545 86.8402 438.715 87.4424C437.901 88.0446 437.494 88.8503 437.494 89.8594C437.494 90.7708 437.877 91.4788 438.642 91.9834C439.407 92.488 440.953 93.0007 443.28 93.5215C445.608 94.026 447.431 94.6364 448.749 95.3525C450.084 96.0524 451.068 96.8988 451.703 97.8916C452.354 98.8844 452.68 100.089 452.68 101.505C452.68 103.881 451.695 105.81 449.726 107.291C447.756 108.756 445.176 109.488 441.986 109.488C439.822 109.488 437.893 109.098 436.2 108.316C434.507 107.535 433.189 106.461 432.245 105.094C431.301 103.727 430.829 102.254 430.829 100.675H436.591C436.672 102.075 437.201 103.157 438.178 103.922C439.154 104.671 440.448 105.045 442.06 105.045C443.622 105.045 444.81 104.752 445.624 104.166C446.438 103.564 446.845 102.783 446.845 101.822Z" fill="white"/>
<path d="M165.956 104.752C167.437 104.752 168.666 104.321 169.643 103.458C170.619 102.595 171.14 101.529 171.205 100.26H176.796C176.731 101.904 176.218 103.442 175.258 104.874C174.298 106.29 172.995 107.413 171.352 108.243C169.708 109.073 167.934 109.488 166.029 109.488C162.335 109.488 159.405 108.292 157.24 105.899C155.076 103.507 153.993 100.203 153.993 95.9873V95.377C153.993 91.3568 155.067 88.1423 157.216 85.7334C159.364 83.3083 162.294 82.0957 166.005 82.0957C169.146 82.0957 171.701 83.0153 173.671 84.8545C175.657 86.6774 176.698 89.0781 176.796 92.0566H171.205C171.14 90.543 170.619 89.2979 169.643 88.3213C168.682 87.3447 167.453 86.8564 165.956 86.8564C164.035 86.8564 162.554 87.5563 161.513 88.9561C160.471 90.3395 159.942 92.4473 159.926 95.2793V96.2314C159.926 99.096 160.438 101.236 161.464 102.652C162.506 104.052 164.003 104.752 165.956 104.752ZM189.587 109H183.654V71.5H189.587V109ZM213.853 109C213.592 108.495 213.364 107.674 213.169 106.534C211.281 108.504 208.97 109.488 206.235 109.488C203.582 109.488 201.418 108.731 199.741 107.218C198.065 105.704 197.227 103.832 197.227 101.603C197.227 98.7868 198.268 96.6302 200.352 95.1328C202.451 93.6191 205.446 92.8623 209.336 92.8623H212.974V91.1289C212.974 89.7617 212.591 88.6712 211.826 87.8574C211.061 87.0273 209.897 86.6123 208.335 86.6123C206.984 86.6123 205.877 86.9541 205.015 87.6377C204.152 88.305 203.721 89.1595 203.721 90.2012H197.788C197.788 88.7526 198.268 87.4017 199.229 86.1484C200.189 84.8789 201.491 83.8861 203.135 83.1699C204.795 82.4538 206.642 82.0957 208.677 82.0957C211.769 82.0957 214.235 82.877 216.074 84.4395C217.913 85.9857 218.857 88.1667 218.906 90.9824V102.896C218.906 105.273 219.24 107.169 219.907 108.585V109H213.853ZM207.334 104.728C208.506 104.728 209.604 104.443 210.63 103.873C211.672 103.303 212.453 102.538 212.974 101.578V96.5977H209.775C207.578 96.5977 205.926 96.9801 204.819 97.7451C203.713 98.5101 203.159 99.5924 203.159 100.992C203.159 102.132 203.534 103.043 204.282 103.727C205.047 104.394 206.064 104.728 207.334 104.728ZM241.927 101.822C241.927 100.764 241.487 99.9587 240.608 99.4053C239.746 98.8519 238.305 98.3636 236.287 97.9404C234.269 97.5173 232.584 96.9801 231.233 96.3291C228.271 94.8968 226.79 92.8216 226.79 90.1035C226.79 87.8249 227.75 85.9206 229.671 84.3906C231.591 82.8607 234.033 82.0957 236.995 82.0957C240.153 82.0957 242.7 82.877 244.637 84.4395C246.59 86.002 247.566 88.0283 247.566 90.5186H241.634C241.634 89.3792 241.211 88.4352 240.364 87.6865C239.518 86.9215 238.395 86.5391 236.995 86.5391C235.693 86.5391 234.627 86.8402 233.797 87.4424C232.983 88.0446 232.576 88.8503 232.576 89.8594C232.576 90.7708 232.959 91.4788 233.724 91.9834C234.489 92.488 236.035 93.0007 238.362 93.5215C240.69 94.026 242.513 94.6364 243.831 95.3525C245.166 96.0524 246.15 96.8988 246.785 97.8916C247.436 98.8844 247.762 100.089 247.762 101.505C247.762 103.881 246.777 105.81 244.808 107.291C242.838 108.756 240.258 109.488 237.068 109.488C234.904 109.488 232.975 109.098 231.282 108.316C229.59 107.535 228.271 106.461 227.327 105.094C226.383 103.727 225.911 102.254 225.911 100.675H231.673C231.754 102.075 232.283 103.157 233.26 103.922C234.236 104.671 235.53 105.045 237.142 105.045C238.704 105.045 239.892 104.752 240.706 104.166C241.52 103.564 241.927 102.783 241.927 101.822ZM269.757 101.822C269.757 100.764 269.317 99.9587 268.438 99.4053C267.576 98.8519 266.135 98.3636 264.117 97.9404C262.099 97.5173 260.414 96.9801 259.063 96.3291C256.101 94.8968 254.62 92.8216 254.62 90.1035C254.62 87.8249 255.58 85.9206 257.501 84.3906C259.422 82.8607 261.863 82.0957 264.825 82.0957C267.983 82.0957 270.53 82.877 272.467 84.4395C274.42 86.002 275.396 88.0283 275.396 90.5186H269.464C269.464 89.3792 269.041 88.4352 268.194 87.6865C267.348 86.9215 266.225 86.5391 264.825 86.5391C263.523 86.5391 262.457 86.8402 261.627 87.4424C260.813 88.0446 260.406 88.8503 260.406 89.8594C260.406 90.7708 260.789 91.4788 261.554 91.9834C262.319 92.488 263.865 93.0007 266.192 93.5215C268.52 94.026 270.343 94.6364 271.661 95.3525C272.996 96.0524 273.98 96.8988 274.615 97.8916C275.266 98.8844 275.592 100.089 275.592 101.505C275.592 103.881 274.607 105.81 272.638 107.291C270.668 108.756 268.089 109.488 264.898 109.488C262.734 109.488 260.805 109.098 259.112 108.316C257.42 107.535 256.101 106.461 255.157 105.094C254.213 103.727 253.741 102.254 253.741 100.675H259.503C259.584 102.075 260.113 103.157 261.09 103.922C262.066 104.671 263.36 105.045 264.972 105.045C266.534 105.045 267.722 104.752 268.536 104.166C269.35 103.564 269.757 102.783 269.757 101.822Z" fill="#0087CC"/>
<line x1="152.5" y1="125" x2="152.5" y2="112" stroke="#FF6603" stroke-width="3"/>
<line x1="329.5" y1="125" x2="329.5" y2="112" stroke="#FF6603" stroke-width="3"/>
<line x1="457.5" y1="125" x2="457.5" y2="112" stroke="#FF6603" stroke-width="3"/>
<line x1="281.5" y1="125" x2="281.5" y2="112" stroke="#FF6603" stroke-width="3"/>
<line x1="151" y1="126.5" x2="283" y2="126.5" stroke="#FF6603" stroke-width="3"/>
<line x1="328" y1="125.5" x2="459" y2="125.5" stroke="#FF6603" stroke-width="3"/>
<line x1="219.5" y1="165.992" x2="219.691" y2="126.993" stroke="#FF6603" stroke-width="3"/>
<line x1="395.5" y1="165.992" x2="395.691" y2="126.993" stroke="#FF6603" stroke-width="3"/>
<rect x="160" y="166" width="120" height="75" rx="5" fill="#FF6603"/>
<rect x="336" y="166" width="120" height="75" rx="5" fill="#FF6603"/>
<path d="M356.833 187.658C356.833 187.02 356.592 186.512 356.11 186.135C355.628 185.757 354.974 185.568 354.147 185.568C353.438 185.568 352.845 185.757 352.37 186.135C351.895 186.506 351.657 186.988 351.657 187.58H349.196C349.196 186.805 349.411 186.115 349.841 185.51C350.27 184.904 350.866 184.436 351.628 184.104C352.389 183.765 353.229 183.596 354.147 183.596C355.775 183.596 357.038 183.951 357.936 184.66C358.841 185.37 359.294 186.363 359.294 187.639C359.294 188.283 359.098 188.876 358.708 189.416C358.317 189.956 357.77 190.383 357.067 190.695C357.861 190.969 358.467 191.385 358.884 191.945C359.307 192.499 359.518 193.189 359.518 194.016C359.518 195.292 359.03 196.307 358.054 197.062C357.077 197.811 355.775 198.186 354.147 198.186C353.145 198.186 352.236 198.007 351.423 197.648C350.615 197.29 350.007 196.802 349.596 196.184C349.193 195.565 348.991 194.855 348.991 194.055H351.452C351.452 194.667 351.706 195.184 352.214 195.607C352.721 196.024 353.366 196.232 354.147 196.232C355.02 196.232 355.72 196.027 356.247 195.617C356.781 195.207 357.048 194.673 357.048 194.016C357.048 193.215 356.813 192.635 356.345 192.277C355.882 191.913 355.202 191.73 354.304 191.73H352.634V189.777H354.216C355.96 189.777 356.833 189.071 356.833 187.658ZM371.334 198H368.961V193.732H364.85V198H362.477V187.434H364.85V191.838H368.961V187.434H371.334V198ZM380.982 198C380.877 197.798 380.786 197.469 380.708 197.014C379.953 197.801 379.029 198.195 377.935 198.195C376.874 198.195 376.008 197.893 375.337 197.287C374.667 196.682 374.331 195.933 374.331 195.041C374.331 193.915 374.748 193.052 375.581 192.453C376.421 191.848 377.619 191.545 379.175 191.545H380.63V190.852C380.63 190.305 380.477 189.868 380.171 189.543C379.865 189.211 379.4 189.045 378.775 189.045C378.234 189.045 377.792 189.182 377.446 189.455C377.101 189.722 376.929 190.064 376.929 190.48H374.556C374.556 189.901 374.748 189.361 375.132 188.859C375.516 188.352 376.037 187.954 376.695 187.668C377.359 187.382 378.098 187.238 378.911 187.238C380.148 187.238 381.135 187.551 381.87 188.176C382.606 188.794 382.984 189.667 383.003 190.793V195.559C383.003 196.509 383.137 197.268 383.404 197.834V198H380.982ZM378.374 196.291C378.843 196.291 379.282 196.177 379.693 195.949C380.109 195.721 380.422 195.415 380.63 195.031V193.039H379.351C378.472 193.039 377.811 193.192 377.368 193.498C376.926 193.804 376.704 194.237 376.704 194.797C376.704 195.253 376.854 195.617 377.154 195.891C377.46 196.158 377.866 196.291 378.374 196.291ZM394.76 198H392.387V194.475C391.775 194.618 391.131 194.689 390.454 194.689C389.008 194.689 387.905 194.344 387.143 193.654C386.381 192.958 386 191.962 386 190.666V187.424H388.373V190.666C388.373 191.434 388.543 191.978 388.881 192.297C389.226 192.616 389.75 192.775 390.454 192.775C391.092 192.775 391.736 192.701 392.387 192.551V187.434H394.76V198ZM402.738 198.195C401.234 198.195 400.013 197.723 399.076 196.779C398.145 195.829 397.679 194.566 397.679 192.99V192.697C397.679 191.643 397.881 190.702 398.285 189.875C398.695 189.042 399.268 188.394 400.004 187.932C400.739 187.469 401.56 187.238 402.464 187.238C403.903 187.238 405.013 187.697 405.795 188.615C406.582 189.533 406.976 190.832 406.976 192.512V193.469H400.072C400.143 194.341 400.433 195.031 400.941 195.539C401.455 196.047 402.1 196.301 402.875 196.301C403.962 196.301 404.847 195.861 405.531 194.982L406.81 196.203C406.387 196.835 405.821 197.326 405.111 197.678C404.408 198.023 403.617 198.195 402.738 198.195ZM402.455 189.143C401.804 189.143 401.276 189.37 400.873 189.826C400.476 190.282 400.222 190.917 400.111 191.73H404.632V191.555C404.58 190.76 404.369 190.161 403.998 189.758C403.627 189.348 403.112 189.143 402.455 189.143ZM418.577 198H416.204V193.732H412.093V198H409.72V187.434H412.093V191.838H416.204V187.434H418.577V198ZM428.508 187.434H430.871V198H428.508V190.949L424.367 198H422.004V187.434H424.367V194.484L428.508 187.434ZM438.849 198.195C437.345 198.195 436.124 197.723 435.187 196.779C434.256 195.829 433.79 194.566 433.79 192.99V192.697C433.79 191.643 433.992 190.702 434.396 189.875C434.806 189.042 435.379 188.394 436.114 187.932C436.85 187.469 437.67 187.238 438.575 187.238C440.014 187.238 441.124 187.697 441.905 188.615C442.693 189.533 443.087 190.832 443.087 192.512V193.469H436.183C436.254 194.341 436.544 195.031 437.052 195.539C437.566 196.047 438.211 196.301 438.986 196.301C440.073 196.301 440.958 195.861 441.642 194.982L442.921 196.203C442.498 196.835 441.932 197.326 441.222 197.678C440.519 198.023 439.728 198.195 438.849 198.195ZM438.566 189.143C437.915 189.143 437.387 189.37 436.984 189.826C436.586 190.282 436.333 190.917 436.222 191.73H440.743V191.555C440.691 190.76 440.48 190.161 440.109 189.758C439.738 189.348 439.223 189.143 438.566 189.143ZM355.085 219.301C355.677 219.301 356.169 219.128 356.559 218.783C356.95 218.438 357.158 218.012 357.184 217.504H359.421C359.395 218.161 359.19 218.777 358.805 219.35C358.421 219.916 357.901 220.365 357.243 220.697C356.585 221.029 355.876 221.195 355.114 221.195C353.636 221.195 352.464 220.717 351.598 219.76C350.733 218.803 350.3 217.481 350.3 215.795V215.551C350.3 213.943 350.729 212.657 351.589 211.693C352.448 210.723 353.62 210.238 355.104 210.238C356.361 210.238 357.383 210.606 358.171 211.342C358.965 212.071 359.382 213.031 359.421 214.223H357.184C357.158 213.617 356.95 213.119 356.559 212.729C356.175 212.338 355.684 212.143 355.085 212.143C354.317 212.143 353.724 212.423 353.307 212.982C352.891 213.536 352.679 214.379 352.673 215.512V215.893C352.673 217.038 352.878 217.895 353.288 218.461C353.705 219.021 354.304 219.301 355.085 219.301ZM362.193 221V210.434H366.48C367.926 210.434 369.026 210.688 369.781 211.195C370.536 211.697 370.914 212.419 370.914 213.363C370.914 213.852 370.761 214.291 370.455 214.682C370.156 215.066 369.71 215.362 369.117 215.57C369.807 215.714 370.354 216.003 370.758 216.439C371.161 216.876 371.363 217.39 371.363 217.982C371.363 218.965 370.999 219.714 370.27 220.229C369.547 220.743 368.505 221 367.145 221H362.193ZM364.566 216.498V219.125H367.164C368.382 219.125 368.99 218.689 368.99 217.816C368.99 216.938 368.372 216.498 367.135 216.498H364.566ZM364.566 214.799H366.52C367.867 214.799 368.541 214.402 368.541 213.607C368.541 212.774 367.903 212.344 366.627 212.318H364.566V214.799ZM373.775 215.619C373.775 214.584 373.98 213.653 374.39 212.826C374.8 211.993 375.376 211.355 376.118 210.912C376.861 210.463 377.713 210.238 378.677 210.238C380.103 210.238 381.258 210.697 382.144 211.615C383.036 212.533 383.517 213.751 383.589 215.268L383.599 215.824C383.599 216.866 383.397 217.797 382.993 218.617C382.596 219.438 382.023 220.072 381.275 220.521C380.532 220.971 379.673 221.195 378.696 221.195C377.206 221.195 376.011 220.701 375.113 219.711C374.221 218.715 373.775 217.39 373.775 215.736V215.619ZM376.148 215.824C376.148 216.911 376.372 217.764 376.821 218.383C377.271 218.995 377.896 219.301 378.696 219.301C379.497 219.301 380.119 218.988 380.562 218.363C381.011 217.738 381.236 216.824 381.236 215.619C381.236 214.551 381.004 213.705 380.542 213.08C380.086 212.455 379.465 212.143 378.677 212.143C377.902 212.143 377.287 212.452 376.831 213.07C376.376 213.682 376.148 214.6 376.148 215.824ZM393.002 210.434H395.366V221H393.002V213.949L388.862 221H386.498V210.434H388.862V217.484L393.002 210.434ZM394.116 206.381C394.116 207.201 393.829 207.865 393.256 208.373C392.683 208.881 391.918 209.135 390.961 209.135C390.004 209.135 389.239 208.881 388.666 208.373C388.093 207.865 387.807 207.201 387.807 206.381H389.584C389.584 206.811 389.705 207.146 389.946 207.387C390.193 207.621 390.532 207.738 390.961 207.738C391.391 207.738 391.726 207.621 391.967 207.387C392.208 207.146 392.329 206.811 392.329 206.381H394.116ZM403.031 219.301C403.623 219.301 404.115 219.128 404.505 218.783C404.896 218.438 405.104 218.012 405.13 217.504H407.367C407.341 218.161 407.136 218.777 406.752 219.35C406.367 219.916 405.847 220.365 405.189 220.697C404.532 221.029 403.822 221.195 403.06 221.195C401.582 221.195 400.41 220.717 399.545 219.76C398.679 218.803 398.246 217.481 398.246 215.795V215.551C398.246 213.943 398.675 212.657 399.535 211.693C400.394 210.723 401.566 210.238 403.05 210.238C404.307 210.238 405.329 210.606 406.117 211.342C406.911 212.071 407.328 213.031 407.367 214.223H405.13C405.104 213.617 404.896 213.119 404.505 212.729C404.121 212.338 403.63 212.143 403.031 212.143C402.263 212.143 401.67 212.423 401.254 212.982C400.837 213.536 400.625 214.379 400.619 215.512V215.893C400.619 217.038 400.824 217.895 401.234 218.461C401.651 219.021 402.25 219.301 403.031 219.301ZM418.274 212.318H414.846V221H412.473V212.318H409.085V210.434H418.274V212.318ZM420.842 221V210.434H425.129C426.574 210.434 427.674 210.688 428.43 211.195C429.185 211.697 429.562 212.419 429.562 213.363C429.562 213.852 429.41 214.291 429.104 214.682C428.804 215.066 428.358 215.362 427.766 215.57C428.456 215.714 429.003 216.003 429.406 216.439C429.81 216.876 430.012 217.39 430.012 217.982C430.012 218.965 429.647 219.714 428.918 220.229C428.195 220.743 427.154 221 425.793 221H420.842ZM423.215 216.498V219.125H425.812C427.03 219.125 427.639 218.689 427.639 217.816C427.639 216.938 427.02 216.498 425.783 216.498H423.215ZM423.215 214.799H425.168C426.516 214.799 427.189 214.402 427.189 213.607C427.189 212.774 426.551 212.344 425.275 212.318H423.215V214.799ZM439.181 221C439.077 220.798 438.986 220.469 438.907 220.014C438.152 220.801 437.228 221.195 436.134 221.195C435.073 221.195 434.207 220.893 433.536 220.287C432.866 219.682 432.53 218.933 432.53 218.041C432.53 216.915 432.947 216.052 433.78 215.453C434.62 214.848 435.818 214.545 437.374 214.545H438.829V213.852C438.829 213.305 438.676 212.868 438.37 212.543C438.064 212.211 437.599 212.045 436.974 212.045C436.433 212.045 435.991 212.182 435.646 212.455C435.301 212.722 435.128 213.064 435.128 213.48H432.755C432.755 212.901 432.947 212.361 433.331 211.859C433.715 211.352 434.236 210.954 434.894 210.668C435.558 210.382 436.297 210.238 437.111 210.238C438.348 210.238 439.334 210.551 440.07 211.176C440.805 211.794 441.183 212.667 441.202 213.793V218.559C441.202 219.509 441.336 220.268 441.603 220.834V221H439.181ZM436.573 219.291C437.042 219.291 437.482 219.177 437.892 218.949C438.308 218.721 438.621 218.415 438.829 218.031V216.039H437.55C436.671 216.039 436.01 216.192 435.568 216.498C435.125 216.804 434.904 217.237 434.904 217.797C434.904 218.253 435.053 218.617 435.353 218.891C435.659 219.158 436.066 219.291 436.573 219.291Z" fill="white"/>
<path d="M208.72 183.781H211.19V198H208.72V187.873L202.479 198H200.009V183.781H202.479V193.918L208.72 183.781ZM220.994 195.08L224.119 187.434H227.088V198H224.715V191.008L221.805 198H220.193L217.273 190.969V198H214.9V187.434H217.889L220.994 195.08ZM239.021 187.434V198H236.657V194.123H234.441L232.185 198H229.724L232.214 193.732C231.563 193.459 231.062 193.068 230.71 192.561C230.365 192.053 230.193 191.47 230.193 190.812C230.193 189.829 230.57 189.025 231.325 188.4C232.087 187.769 233.113 187.447 234.402 187.434H239.021ZM232.566 190.871C232.566 191.314 232.728 191.675 233.054 191.955C233.386 192.229 233.809 192.365 234.323 192.365H236.657V189.318H234.47C233.89 189.318 233.428 189.465 233.083 189.758C232.738 190.051 232.566 190.422 232.566 190.871ZM178.585 219.301C179.177 219.301 179.669 219.128 180.059 218.783C180.45 218.438 180.658 218.012 180.684 217.504H182.921C182.895 218.161 182.69 218.777 182.305 219.35C181.921 219.916 181.401 220.365 180.743 220.697C180.085 221.029 179.376 221.195 178.614 221.195C177.136 221.195 175.964 220.717 175.098 219.76C174.233 218.803 173.8 217.481 173.8 215.795V215.551C173.8 213.943 174.229 212.657 175.089 211.693C175.948 210.723 177.12 210.238 178.604 210.238C179.861 210.238 180.883 210.606 181.671 211.342C182.465 212.071 182.882 213.031 182.921 214.223H180.684C180.658 213.617 180.45 213.119 180.059 212.729C179.675 212.338 179.184 212.143 178.585 212.143C177.817 212.143 177.224 212.423 176.807 212.982C176.391 213.536 176.179 214.379 176.173 215.512V215.893C176.173 217.038 176.378 217.895 176.788 218.461C177.205 219.021 177.804 219.301 178.585 219.301ZM185.693 221V210.434H189.98C191.426 210.434 192.526 210.688 193.281 211.195C194.036 211.697 194.414 212.419 194.414 213.363C194.414 213.852 194.261 214.291 193.955 214.682C193.656 215.066 193.21 215.362 192.617 215.57C193.307 215.714 193.854 216.003 194.258 216.439C194.661 216.876 194.863 217.39 194.863 217.982C194.863 218.965 194.499 219.714 193.77 220.229C193.047 220.743 192.005 221 190.645 221H185.693ZM188.066 216.498V219.125H190.664C191.882 219.125 192.49 218.689 192.49 217.816C192.49 216.938 191.872 216.498 190.635 216.498H188.066ZM188.066 214.799H190.02C191.367 214.799 192.041 214.402 192.041 213.607C192.041 212.774 191.403 212.344 190.127 212.318H188.066V214.799ZM197.275 215.619C197.275 214.584 197.48 213.653 197.89 212.826C198.3 211.993 198.876 211.355 199.618 210.912C200.361 210.463 201.213 210.238 202.177 210.238C203.603 210.238 204.758 210.697 205.644 211.615C206.536 212.533 207.017 213.751 207.089 215.268L207.099 215.824C207.099 216.866 206.897 217.797 206.493 218.617C206.096 219.438 205.523 220.072 204.775 220.521C204.032 220.971 203.173 221.195 202.196 221.195C200.706 221.195 199.511 220.701 198.613 219.711C197.721 218.715 197.275 217.39 197.275 215.736V215.619ZM199.648 215.824C199.648 216.911 199.872 217.764 200.321 218.383C200.771 218.995 201.396 219.301 202.196 219.301C202.997 219.301 203.619 218.988 204.062 218.363C204.511 217.738 204.736 216.824 204.736 215.619C204.736 214.551 204.504 213.705 204.042 213.08C203.586 212.455 202.965 212.143 202.177 212.143C201.402 212.143 200.787 212.452 200.331 213.07C199.876 213.682 199.648 214.6 199.648 215.824ZM216.502 210.434H218.866V221H216.502V213.949L212.362 221H209.998V210.434H212.362V217.484L216.502 210.434ZM217.616 206.381C217.616 207.201 217.329 207.865 216.756 208.373C216.183 208.881 215.418 209.135 214.461 209.135C213.504 209.135 212.739 208.881 212.166 208.373C211.593 207.865 211.307 207.201 211.307 206.381H213.084C213.084 206.811 213.205 207.146 213.446 207.387C213.693 207.621 214.032 207.738 214.461 207.738C214.891 207.738 215.226 207.621 215.467 207.387C215.708 207.146 215.829 206.811 215.829 206.381H217.616ZM226.531 219.301C227.123 219.301 227.615 219.128 228.005 218.783C228.396 218.438 228.604 218.012 228.63 217.504H230.867C230.841 218.161 230.636 218.777 230.252 219.35C229.867 219.916 229.347 220.365 228.689 220.697C228.032 221.029 227.322 221.195 226.56 221.195C225.082 221.195 223.91 220.717 223.045 219.76C222.179 218.803 221.746 217.481 221.746 215.795V215.551C221.746 213.943 222.175 212.657 223.035 211.693C223.894 210.723 225.066 210.238 226.55 210.238C227.807 210.238 228.829 210.606 229.617 211.342C230.411 212.071 230.828 213.031 230.867 214.223H228.63C228.604 213.617 228.396 213.119 228.005 212.729C227.621 212.338 227.13 212.143 226.531 212.143C225.763 212.143 225.17 212.423 224.754 212.982C224.337 213.536 224.125 214.379 224.119 215.512V215.893C224.119 217.038 224.324 217.895 224.734 218.461C225.151 219.021 225.75 219.301 226.531 219.301ZM241.774 212.318H238.346V221H235.973V212.318H232.585V210.434H241.774V212.318ZM244.342 221V210.434H248.629C250.074 210.434 251.174 210.688 251.93 211.195C252.685 211.697 253.062 212.419 253.062 213.363C253.062 213.852 252.91 214.291 252.604 214.682C252.304 215.066 251.858 215.362 251.266 215.57C251.956 215.714 252.503 216.003 252.906 216.439C253.31 216.876 253.512 217.39 253.512 217.982C253.512 218.965 253.147 219.714 252.418 220.229C251.695 220.743 250.654 221 249.293 221H244.342ZM246.715 216.498V219.125H249.312C250.53 219.125 251.139 218.689 251.139 217.816C251.139 216.938 250.52 216.498 249.283 216.498H246.715ZM246.715 214.799H248.668C250.016 214.799 250.689 214.402 250.689 213.607C250.689 212.774 250.051 212.344 248.775 212.318H246.715V214.799ZM262.681 221C262.577 220.798 262.486 220.469 262.407 220.014C261.652 220.801 260.728 221.195 259.634 221.195C258.573 221.195 257.707 220.893 257.036 220.287C256.366 219.682 256.03 218.933 256.03 218.041C256.03 216.915 256.447 216.052 257.28 215.453C258.12 214.848 259.318 214.545 260.874 214.545H262.329V213.852C262.329 213.305 262.176 212.868 261.87 212.543C261.564 212.211 261.099 212.045 260.474 212.045C259.933 212.045 259.491 212.182 259.146 212.455C258.801 212.722 258.628 213.064 258.628 213.48H256.255C256.255 212.901 256.447 212.361 256.831 211.859C257.215 211.352 257.736 210.954 258.394 210.668C259.058 210.382 259.797 210.238 260.611 210.238C261.848 210.238 262.834 210.551 263.57 211.176C264.305 211.794 264.683 212.667 264.702 213.793V218.559C264.702 219.509 264.836 220.268 265.103 220.834V221H262.681ZM260.073 219.291C260.542 219.291 260.982 219.177 261.392 218.949C261.808 218.721 262.121 218.415 262.329 218.031V216.039H261.05C260.171 216.039 259.51 216.192 259.068 216.498C258.625 216.804 258.404 217.237 258.404 217.797C258.404 218.253 258.553 218.617 258.853 218.891C259.159 219.158 259.566 219.291 260.073 219.291Z" fill="white"/>
<defs>
<filter id="filter0_d" x="32" y="33" width="645" height="130" filterUnits="userSpaceOnUse" color-interpolation-filters="sRGB">
<feFlood flood-opacity="0" result="BackgroundImageFix"/>
<feColorMatrix in="SourceAlpha" type="matrix" values="0 0 0 0 0 0 0 0 0 0 0 0 0 0 0 0 0 0 127 0"/>
<feOffset dx="5" dy="5"/>
<feGaussianBlur stdDeviation="5"/>
<feColorMatrix type="matrix" values="0 0 0 0 0 0 0 0 0 0 0 0 0 0 0 0 0 0 0.25 0"/>
<feBlend mode="normal" in2="BackgroundImageFix" result="effect1_dropShadow"/>
<feBlend mode="normal" in="SourceGraphic" in2="effect1_dropShadow" result="shape"/>
</filter>
</defs>
</svg>
