<svg width="700" height="315" viewBox="0 0 700 315" fill="none" xmlns="http://www.w3.org/2000/svg">
<rect width="700" height="315" fill="white"/>
<g filter="url(#filter0_d)">
<rect x="37" y="77" width="625" height="110" fill="#272722"/>
<rect x="37.5" y="77.5" width="624" height="109" stroke="black"/>
</g>
<path d="M87.5684 132.595L101.973 138.063V143.996L81.5381 134.89V130.178L101.973 121.096V127.028L87.5684 132.595ZM133.611 135.061C133.611 139.146 132.684 142.409 130.828 144.851C128.973 147.276 126.482 148.488 123.357 148.488C120.46 148.488 118.141 147.536 116.399 145.632V158.156H110.467V121.584H115.936L116.18 124.27C117.921 122.154 120.289 121.096 123.284 121.096C126.507 121.096 129.03 122.3 130.853 124.709C132.692 127.102 133.611 130.43 133.611 134.694V135.061ZM127.703 134.548C127.703 131.911 127.174 129.82 126.116 128.273C125.075 126.727 123.577 125.954 121.624 125.954C119.199 125.954 117.457 126.955 116.399 128.957V140.676C117.474 142.727 119.231 143.752 121.673 143.752C123.561 143.752 125.034 142.995 126.092 141.481C127.166 139.951 127.703 137.64 127.703 134.548ZM304.325 128.957H283.28V124.025H304.325V128.957ZM304.325 139.309H283.28V134.401H304.325V139.309ZM314.309 123L311.281 121.12C312.746 118.988 313.503 116.734 313.552 114.357V110.5H318.752V113.869C318.752 115.546 318.321 117.238 317.458 118.947C316.612 120.64 315.562 121.991 314.309 123ZM322.463 123L319.436 121.12C320.9 118.988 321.657 116.734 321.706 114.357V110.5H326.906V113.869C326.906 115.546 326.475 117.238 325.612 118.947C324.766 120.64 323.716 121.991 322.463 123ZM461.418 123L458.391 121.12C459.855 118.988 460.612 116.734 460.661 114.357V110.5H465.861V113.869C465.861 115.546 465.43 117.238 464.567 118.947C463.721 120.64 462.671 121.991 461.418 123ZM469.572 123L466.545 121.12C468.01 118.988 468.767 116.734 468.815 114.357V110.5H474.016V113.869C474.016 115.546 473.584 117.238 472.722 118.947C471.875 120.64 470.826 121.991 469.572 123ZM496.475 132.473L481.387 126.931V121.096L502.48 130.178V134.89L481.387 143.972V138.137L496.475 132.473ZM513.855 132.595L528.26 138.063V143.996L507.825 134.89V130.178L528.26 121.096V127.028L513.855 132.595ZM538.438 151.052H533.775L547.765 112.453H552.428L538.438 151.052ZM581.674 135.061C581.674 139.146 580.746 142.409 578.891 144.851C577.035 147.276 574.545 148.488 571.42 148.488C568.523 148.488 566.203 147.536 564.462 145.632V158.156H558.529V121.584H563.998L564.242 124.27C565.984 122.154 568.352 121.096 571.347 121.096C574.569 121.096 577.092 122.3 578.915 124.709C580.754 127.102 581.674 130.43 581.674 134.694V135.061ZM575.766 134.548C575.766 131.911 575.237 129.82 574.179 128.273C573.137 126.727 571.64 125.954 569.687 125.954C567.261 125.954 565.52 126.955 564.462 128.957V140.676C565.536 142.727 567.294 143.752 569.735 143.752C571.623 143.752 573.096 142.995 574.154 141.481C575.229 139.951 575.766 137.64 575.766 134.548ZM603.889 132.473L588.801 126.931V121.096L609.895 130.178V134.89L588.801 143.972V138.137L603.889 132.473Z" fill="#2DB34A"/>
<path d="M339.697 121.584L339.868 124.636C341.821 122.276 344.385 121.096 347.559 121.096C353.06 121.096 355.859 124.245 355.957 130.544V148H350.024V130.886C350.024 129.209 349.658 127.972 348.926 127.175C348.21 126.361 347.03 125.954 345.386 125.954C342.993 125.954 341.211 127.036 340.039 129.201V148H334.106V121.584H339.697ZM375.657 148.488C371.897 148.488 368.846 147.308 366.502 144.948C364.174 142.572 363.011 139.414 363.011 135.476V134.743C363.011 132.106 363.515 129.755 364.524 127.688C365.55 125.604 366.982 123.985 368.821 122.829C370.66 121.674 372.711 121.096 374.974 121.096C378.571 121.096 381.346 122.243 383.299 124.538C385.268 126.833 386.253 130.08 386.253 134.279V136.672H368.992C369.171 138.853 369.896 140.578 371.165 141.848C372.451 143.117 374.062 143.752 375.999 143.752C378.717 143.752 380.931 142.653 382.64 140.456L385.838 143.508C384.78 145.087 383.364 146.315 381.59 147.194C379.832 148.057 377.854 148.488 375.657 148.488ZM374.949 125.856C373.322 125.856 372.003 126.426 370.994 127.565C370.001 128.705 369.367 130.292 369.09 132.326H380.394V131.887C380.263 129.901 379.734 128.404 378.807 127.395C377.879 126.369 376.593 125.856 374.949 125.856ZM416.085 139.821L420.284 121.584H426.07L418.868 148H413.985L408.321 129.86L402.755 148H397.872L390.646 121.584H396.432L400.704 139.626L406.124 121.584H410.592L416.085 139.821ZM446.845 140.822C446.845 139.764 446.405 138.959 445.526 138.405C444.664 137.852 443.223 137.364 441.205 136.94C439.187 136.517 437.502 135.98 436.151 135.329C433.189 133.897 431.708 131.822 431.708 129.104C431.708 126.825 432.668 124.921 434.589 123.391C436.509 121.861 438.951 121.096 441.913 121.096C445.071 121.096 447.618 121.877 449.555 123.439C451.508 125.002 452.484 127.028 452.484 129.519H446.552C446.552 128.379 446.129 127.435 445.282 126.687C444.436 125.922 443.313 125.539 441.913 125.539C440.611 125.539 439.545 125.84 438.715 126.442C437.901 127.045 437.494 127.85 437.494 128.859C437.494 129.771 437.877 130.479 438.642 130.983C439.407 131.488 440.953 132.001 443.28 132.521C445.608 133.026 447.431 133.636 448.749 134.353C450.084 135.052 451.068 135.899 451.703 136.892C452.354 137.884 452.68 139.089 452.68 140.505C452.68 142.881 451.695 144.81 449.726 146.291C447.756 147.756 445.176 148.488 441.986 148.488C439.822 148.488 437.893 148.098 436.2 147.316C434.507 146.535 433.189 145.461 432.245 144.094C431.301 142.727 430.829 141.254 430.829 139.675H436.591C436.672 141.075 437.201 142.157 438.178 142.922C439.154 143.671 440.448 144.045 442.06 144.045C443.622 144.045 444.81 143.752 445.624 143.166C446.438 142.564 446.845 141.783 446.845 140.822Z" fill="white"/>
<path d="M165.956 143.752C167.437 143.752 168.666 143.321 169.643 142.458C170.619 141.595 171.14 140.529 171.205 139.26H176.796C176.731 140.904 176.218 142.442 175.258 143.874C174.298 145.29 172.995 146.413 171.352 147.243C169.708 148.073 167.934 148.488 166.029 148.488C162.335 148.488 159.405 147.292 157.24 144.899C155.076 142.507 153.993 139.203 153.993 134.987V134.377C153.993 130.357 155.067 127.142 157.216 124.733C159.364 122.308 162.294 121.096 166.005 121.096C169.146 121.096 171.701 122.015 173.671 123.854C175.657 125.677 176.698 128.078 176.796 131.057H171.205C171.14 129.543 170.619 128.298 169.643 127.321C168.682 126.345 167.453 125.856 165.956 125.856C164.035 125.856 162.554 126.556 161.513 127.956C160.471 129.34 159.942 131.447 159.926 134.279V135.231C159.926 138.096 160.438 140.236 161.464 141.652C162.506 143.052 164.003 143.752 165.956 143.752ZM189.587 148H183.654V110.5H189.587V148ZM213.853 148C213.592 147.495 213.364 146.674 213.169 145.534C211.281 147.504 208.97 148.488 206.235 148.488C203.582 148.488 201.418 147.731 199.741 146.218C198.065 144.704 197.227 142.832 197.227 140.603C197.227 137.787 198.268 135.63 200.352 134.133C202.451 132.619 205.446 131.862 209.336 131.862H212.974V130.129C212.974 128.762 212.591 127.671 211.826 126.857C211.061 126.027 209.897 125.612 208.335 125.612C206.984 125.612 205.877 125.954 205.015 126.638C204.152 127.305 203.721 128.16 203.721 129.201H197.788C197.788 127.753 198.268 126.402 199.229 125.148C200.189 123.879 201.491 122.886 203.135 122.17C204.795 121.454 206.642 121.096 208.677 121.096C211.769 121.096 214.235 121.877 216.074 123.439C217.913 124.986 218.857 127.167 218.906 129.982V141.896C218.906 144.273 219.24 146.169 219.907 147.585V148H213.853ZM207.334 143.728C208.506 143.728 209.604 143.443 210.63 142.873C211.672 142.303 212.453 141.538 212.974 140.578V135.598H209.775C207.578 135.598 205.926 135.98 204.819 136.745C203.713 137.51 203.159 138.592 203.159 139.992C203.159 141.132 203.534 142.043 204.282 142.727C205.047 143.394 206.064 143.728 207.334 143.728ZM241.927 140.822C241.927 139.764 241.487 138.959 240.608 138.405C239.746 137.852 238.305 137.364 236.287 136.94C234.269 136.517 232.584 135.98 231.233 135.329C228.271 133.897 226.79 131.822 226.79 129.104C226.79 126.825 227.75 124.921 229.671 123.391C231.591 121.861 234.033 121.096 236.995 121.096C240.153 121.096 242.7 121.877 244.637 123.439C246.59 125.002 247.566 127.028 247.566 129.519H241.634C241.634 128.379 241.211 127.435 240.364 126.687C239.518 125.922 238.395 125.539 236.995 125.539C235.693 125.539 234.627 125.84 233.797 126.442C232.983 127.045 232.576 127.85 232.576 128.859C232.576 129.771 232.959 130.479 233.724 130.983C234.489 131.488 236.035 132.001 238.362 132.521C240.69 133.026 242.513 133.636 243.831 134.353C245.166 135.052 246.15 135.899 246.785 136.892C247.436 137.884 247.762 139.089 247.762 140.505C247.762 142.881 246.777 144.81 244.808 146.291C242.838 147.756 240.258 148.488 237.068 148.488C234.904 148.488 232.975 148.098 231.282 147.316C229.59 146.535 228.271 145.461 227.327 144.094C226.383 142.727 225.911 141.254 225.911 139.675H231.673C231.754 141.075 232.283 142.157 233.26 142.922C234.236 143.671 235.53 144.045 237.142 144.045C238.704 144.045 239.892 143.752 240.706 143.166C241.52 142.564 241.927 141.783 241.927 140.822ZM269.757 140.822C269.757 139.764 269.317 138.959 268.438 138.405C267.576 137.852 266.135 137.364 264.117 136.94C262.099 136.517 260.414 135.98 259.063 135.329C256.101 133.897 254.62 131.822 254.62 129.104C254.62 126.825 255.58 124.921 257.501 123.391C259.422 121.861 261.863 121.096 264.825 121.096C267.983 121.096 270.53 121.877 272.467 123.439C274.42 125.002 275.396 127.028 275.396 129.519H269.464C269.464 128.379 269.041 127.435 268.194 126.687C267.348 125.922 266.225 125.539 264.825 125.539C263.523 125.539 262.457 125.84 261.627 126.442C260.813 127.045 260.406 127.85 260.406 128.859C260.406 129.771 260.789 130.479 261.554 130.983C262.319 131.488 263.865 132.001 266.192 132.521C268.52 133.026 270.343 133.636 271.661 134.353C272.996 135.052 273.98 135.899 274.615 136.892C275.266 137.884 275.592 139.089 275.592 140.505C275.592 142.881 274.607 144.81 272.638 146.291C270.668 147.756 268.089 148.488 264.898 148.488C262.734 148.488 260.805 148.098 259.112 147.316C257.42 146.535 256.101 145.461 255.157 144.094C254.213 142.727 253.741 141.254 253.741 139.675H259.503C259.584 141.075 260.113 142.157 261.09 142.922C262.066 143.671 263.36 144.045 264.972 144.045C266.534 144.045 267.722 143.752 268.536 143.166C269.35 142.564 269.757 141.783 269.757 140.822Z" fill="#0087CC"/>
<line x1="152.5" y1="164" x2="152.5" y2="151" stroke="#FF6603" stroke-width="3"/>
<line x1="329.5" y1="164" x2="329.5" y2="151" stroke="#FF6603" stroke-width="3"/>
<line x1="457.5" y1="164" x2="457.5" y2="151" stroke="#FF6603" stroke-width="3"/>
<line x1="281.5" y1="164" x2="281.5" y2="151" stroke="#FF6603" stroke-width="3"/>
<line x1="151" y1="165.5" x2="283" y2="165.5" stroke="#FF6603" stroke-width="3"/>
<line x1="328" y1="164.5" x2="459" y2="164.5" stroke="#FF6603" stroke-width="3"/>
<line x1="219.5" y1="204.992" x2="219.691" y2="165.993" stroke="#FF6603" stroke-width="3"/>
<line x1="395.5" y1="204.992" x2="395.691" y2="165.993" stroke="#FF6603" stroke-width="3"/>
<rect x="160" y="205" width="120" height="75" rx="5" fill="#FF6603"/>
<rect x="336" y="205" width="120" height="75" rx="5" fill="#FF6603"/>
<path d="M356.833 226.658C356.833 226.02 356.592 225.512 356.11 225.135C355.628 224.757 354.974 224.568 354.147 224.568C353.438 224.568 352.845 224.757 352.37 225.135C351.895 225.506 351.657 225.988 351.657 226.58H349.196C349.196 225.805 349.411 225.115 349.841 224.51C350.27 223.904 350.866 223.436 351.628 223.104C352.389 222.765 353.229 222.596 354.147 222.596C355.775 222.596 357.038 222.951 357.936 223.66C358.841 224.37 359.294 225.363 359.294 226.639C359.294 227.283 359.098 227.876 358.708 228.416C358.317 228.956 357.77 229.383 357.067 229.695C357.861 229.969 358.467 230.385 358.884 230.945C359.307 231.499 359.518 232.189 359.518 233.016C359.518 234.292 359.03 235.307 358.054 236.062C357.077 236.811 355.775 237.186 354.147 237.186C353.145 237.186 352.236 237.007 351.423 236.648C350.615 236.29 350.007 235.802 349.596 235.184C349.193 234.565 348.991 233.855 348.991 233.055H351.452C351.452 233.667 351.706 234.184 352.214 234.607C352.721 235.024 353.366 235.232 354.147 235.232C355.02 235.232 355.72 235.027 356.247 234.617C356.781 234.207 357.048 233.673 357.048 233.016C357.048 232.215 356.813 231.635 356.345 231.277C355.882 230.913 355.202 230.73 354.304 230.73H352.634V228.777H354.216C355.96 228.777 356.833 228.071 356.833 226.658ZM371.334 237H368.961V232.732H364.85V237H362.477V226.434H364.85V230.838H368.961V226.434H371.334V237ZM380.982 237C380.877 236.798 380.786 236.469 380.708 236.014C379.953 236.801 379.029 237.195 377.935 237.195C376.874 237.195 376.008 236.893 375.337 236.287C374.667 235.682 374.331 234.933 374.331 234.041C374.331 232.915 374.748 232.052 375.581 231.453C376.421 230.848 377.619 230.545 379.175 230.545H380.63V229.852C380.63 229.305 380.477 228.868 380.171 228.543C379.865 228.211 379.4 228.045 378.775 228.045C378.234 228.045 377.792 228.182 377.446 228.455C377.101 228.722 376.929 229.064 376.929 229.48H374.556C374.556 228.901 374.748 228.361 375.132 227.859C375.516 227.352 376.037 226.954 376.695 226.668C377.359 226.382 378.098 226.238 378.911 226.238C380.148 226.238 381.135 226.551 381.87 227.176C382.606 227.794 382.984 228.667 383.003 229.793V234.559C383.003 235.509 383.137 236.268 383.404 236.834V237H380.982ZM378.374 235.291C378.843 235.291 379.282 235.177 379.693 234.949C380.109 234.721 380.422 234.415 380.63 234.031V232.039H379.351C378.472 232.039 377.811 232.192 377.368 232.498C376.926 232.804 376.704 233.237 376.704 233.797C376.704 234.253 376.854 234.617 377.154 234.891C377.46 235.158 377.866 235.291 378.374 235.291ZM394.76 237H392.387V233.475C391.775 233.618 391.131 233.689 390.454 233.689C389.008 233.689 387.905 233.344 387.143 232.654C386.381 231.958 386 230.962 386 229.666V226.424H388.373V229.666C388.373 230.434 388.543 230.978 388.881 231.297C389.226 231.616 389.75 231.775 390.454 231.775C391.092 231.775 391.736 231.701 392.387 231.551V226.434H394.76V237ZM402.738 237.195C401.234 237.195 400.013 236.723 399.076 235.779C398.145 234.829 397.679 233.566 397.679 231.99V231.697C397.679 230.643 397.881 229.702 398.285 228.875C398.695 228.042 399.268 227.394 400.004 226.932C400.739 226.469 401.56 226.238 402.464 226.238C403.903 226.238 405.013 226.697 405.795 227.615C406.582 228.533 406.976 229.832 406.976 231.512V232.469H400.072C400.143 233.341 400.433 234.031 400.941 234.539C401.455 235.047 402.1 235.301 402.875 235.301C403.962 235.301 404.847 234.861 405.531 233.982L406.81 235.203C406.387 235.835 405.821 236.326 405.111 236.678C404.408 237.023 403.617 237.195 402.738 237.195ZM402.455 228.143C401.804 228.143 401.276 228.37 400.873 228.826C400.476 229.282 400.222 229.917 400.111 230.73H404.632V230.555C404.58 229.76 404.369 229.161 403.998 228.758C403.627 228.348 403.112 228.143 402.455 228.143ZM418.577 237H416.204V232.732H412.093V237H409.72V226.434H412.093V230.838H416.204V226.434H418.577V237ZM428.508 226.434H430.871V237H428.508V229.949L424.367 237H422.004V226.434H424.367V233.484L428.508 226.434ZM438.849 237.195C437.345 237.195 436.124 236.723 435.187 235.779C434.256 234.829 433.79 233.566 433.79 231.99V231.697C433.79 230.643 433.992 229.702 434.396 228.875C434.806 228.042 435.379 227.394 436.114 226.932C436.85 226.469 437.67 226.238 438.575 226.238C440.014 226.238 441.124 226.697 441.905 227.615C442.693 228.533 443.087 229.832 443.087 231.512V232.469H436.183C436.254 233.341 436.544 234.031 437.052 234.539C437.566 235.047 438.211 235.301 438.986 235.301C440.073 235.301 440.958 234.861 441.642 233.982L442.921 235.203C442.498 235.835 441.932 236.326 441.222 236.678C440.519 237.023 439.728 237.195 438.849 237.195ZM438.566 228.143C437.915 228.143 437.387 228.37 436.984 228.826C436.586 229.282 436.333 229.917 436.222 230.73H440.743V230.555C440.691 229.76 440.48 229.161 440.109 228.758C439.738 228.348 439.223 228.143 438.566 228.143ZM355.085 258.301C355.677 258.301 356.169 258.128 356.559 257.783C356.95 257.438 357.158 257.012 357.184 256.504H359.421C359.395 257.161 359.19 257.777 358.805 258.35C358.421 258.916 357.901 259.365 357.243 259.697C356.585 260.029 355.876 260.195 355.114 260.195C353.636 260.195 352.464 259.717 351.598 258.76C350.733 257.803 350.3 256.481 350.3 254.795V254.551C350.3 252.943 350.729 251.657 351.589 250.693C352.448 249.723 353.62 249.238 355.104 249.238C356.361 249.238 357.383 249.606 358.171 250.342C358.965 251.071 359.382 252.031 359.421 253.223H357.184C357.158 252.617 356.95 252.119 356.559 251.729C356.175 251.338 355.684 251.143 355.085 251.143C354.317 251.143 353.724 251.423 353.307 251.982C352.891 252.536 352.679 253.379 352.673 254.512V254.893C352.673 256.038 352.878 256.895 353.288 257.461C353.705 258.021 354.304 258.301 355.085 258.301ZM362.193 260V249.434H366.48C367.926 249.434 369.026 249.688 369.781 250.195C370.536 250.697 370.914 251.419 370.914 252.363C370.914 252.852 370.761 253.291 370.455 253.682C370.156 254.066 369.71 254.362 369.117 254.57C369.807 254.714 370.354 255.003 370.758 255.439C371.161 255.876 371.363 256.39 371.363 256.982C371.363 257.965 370.999 258.714 370.27 259.229C369.547 259.743 368.505 260 367.145 260H362.193ZM364.566 255.498V258.125H367.164C368.382 258.125 368.99 257.689 368.99 256.816C368.99 255.938 368.372 255.498 367.135 255.498H364.566ZM364.566 253.799H366.52C367.867 253.799 368.541 253.402 368.541 252.607C368.541 251.774 367.903 251.344 366.627 251.318H364.566V253.799ZM373.775 254.619C373.775 253.584 373.98 252.653 374.39 251.826C374.8 250.993 375.376 250.355 376.118 249.912C376.861 249.463 377.713 249.238 378.677 249.238C380.103 249.238 381.258 249.697 382.144 250.615C383.036 251.533 383.517 252.751 383.589 254.268L383.599 254.824C383.599 255.866 383.397 256.797 382.993 257.617C382.596 258.438 382.023 259.072 381.275 259.521C380.532 259.971 379.673 260.195 378.696 260.195C377.206 260.195 376.011 259.701 375.113 258.711C374.221 257.715 373.775 256.39 373.775 254.736V254.619ZM376.148 254.824C376.148 255.911 376.372 256.764 376.821 257.383C377.271 257.995 377.896 258.301 378.696 258.301C379.497 258.301 380.119 257.988 380.562 257.363C381.011 256.738 381.236 255.824 381.236 254.619C381.236 253.551 381.004 252.705 380.542 252.08C380.086 251.455 379.465 251.143 378.677 251.143C377.902 251.143 377.287 251.452 376.831 252.07C376.376 252.682 376.148 253.6 376.148 254.824ZM393.002 249.434H395.366V260H393.002V252.949L388.862 260H386.498V249.434H388.862V256.484L393.002 249.434ZM394.116 245.381C394.116 246.201 393.829 246.865 393.256 247.373C392.683 247.881 391.918 248.135 390.961 248.135C390.004 248.135 389.239 247.881 388.666 247.373C388.093 246.865 387.807 246.201 387.807 245.381H389.584C389.584 245.811 389.705 246.146 389.946 246.387C390.193 246.621 390.532 246.738 390.961 246.738C391.391 246.738 391.726 246.621 391.967 246.387C392.208 246.146 392.329 245.811 392.329 245.381H394.116ZM403.031 258.301C403.623 258.301 404.115 258.128 404.505 257.783C404.896 257.438 405.104 257.012 405.13 256.504H407.367C407.341 257.161 407.136 257.777 406.752 258.35C406.367 258.916 405.847 259.365 405.189 259.697C404.532 260.029 403.822 260.195 403.06 260.195C401.582 260.195 400.41 259.717 399.545 258.76C398.679 257.803 398.246 256.481 398.246 254.795V254.551C398.246 252.943 398.675 251.657 399.535 250.693C400.394 249.723 401.566 249.238 403.05 249.238C404.307 249.238 405.329 249.606 406.117 250.342C406.911 251.071 407.328 252.031 407.367 253.223H405.13C405.104 252.617 404.896 252.119 404.505 251.729C404.121 251.338 403.63 251.143 403.031 251.143C402.263 251.143 401.67 251.423 401.254 251.982C400.837 252.536 400.625 253.379 400.619 254.512V254.893C400.619 256.038 400.824 256.895 401.234 257.461C401.651 258.021 402.25 258.301 403.031 258.301ZM418.274 251.318H414.846V260H412.473V251.318H409.085V249.434H418.274V251.318ZM420.842 260V249.434H425.129C426.574 249.434 427.674 249.688 428.43 250.195C429.185 250.697 429.562 251.419 429.562 252.363C429.562 252.852 429.41 253.291 429.104 253.682C428.804 254.066 428.358 254.362 427.766 254.57C428.456 254.714 429.003 255.003 429.406 255.439C429.81 255.876 430.012 256.39 430.012 256.982C430.012 257.965 429.647 258.714 428.918 259.229C428.195 259.743 427.154 260 425.793 260H420.842ZM423.215 255.498V258.125H425.812C427.03 258.125 427.639 257.689 427.639 256.816C427.639 255.938 427.02 255.498 425.783 255.498H423.215ZM423.215 253.799H425.168C426.516 253.799 427.189 253.402 427.189 252.607C427.189 251.774 426.551 251.344 425.275 251.318H423.215V253.799ZM439.181 260C439.077 259.798 438.986 259.469 438.907 259.014C438.152 259.801 437.228 260.195 436.134 260.195C435.073 260.195 434.207 259.893 433.536 259.287C432.866 258.682 432.53 257.933 432.53 257.041C432.53 255.915 432.947 255.052 433.78 254.453C434.62 253.848 435.818 253.545 437.374 253.545H438.829V252.852C438.829 252.305 438.676 251.868 438.37 251.543C438.064 251.211 437.599 251.045 436.974 251.045C436.433 251.045 435.991 251.182 435.646 251.455C435.301 251.722 435.128 252.064 435.128 252.48H432.755C432.755 251.901 432.947 251.361 433.331 250.859C433.715 250.352 434.236 249.954 434.894 249.668C435.558 249.382 436.297 249.238 437.111 249.238C438.348 249.238 439.334 249.551 440.07 250.176C440.805 250.794 441.183 251.667 441.202 252.793V257.559C441.202 258.509 441.336 259.268 441.603 259.834V260H439.181ZM436.573 258.291C437.042 258.291 437.482 258.177 437.892 257.949C438.308 257.721 438.621 257.415 438.829 257.031V255.039H437.55C436.671 255.039 436.01 255.192 435.568 255.498C435.125 255.804 434.904 256.237 434.904 256.797C434.904 257.253 435.053 257.617 435.353 257.891C435.659 258.158 436.066 258.291 436.573 258.291Z" fill="white"/>
<path d="M208.72 222.781H211.19V237H208.72V226.873L202.479 237H200.009V222.781H202.479V232.918L208.72 222.781ZM220.994 234.08L224.119 226.434H227.088V237H224.715V230.008L221.805 237H220.193L217.273 229.969V237H214.9V226.434H217.889L220.994 234.08ZM239.021 226.434V237H236.657V233.123H234.441L232.185 237H229.724L232.214 232.732C231.563 232.459 231.062 232.068 230.71 231.561C230.365 231.053 230.193 230.47 230.193 229.812C230.193 228.829 230.57 228.025 231.325 227.4C232.087 226.769 233.113 226.447 234.402 226.434H239.021ZM232.566 229.871C232.566 230.314 232.728 230.675 233.054 230.955C233.386 231.229 233.809 231.365 234.323 231.365H236.657V228.318H234.47C233.89 228.318 233.428 228.465 233.083 228.758C232.738 229.051 232.566 229.422 232.566 229.871ZM178.585 258.301C179.177 258.301 179.669 258.128 180.059 257.783C180.45 257.438 180.658 257.012 180.684 256.504H182.921C182.895 257.161 182.69 257.777 182.305 258.35C181.921 258.916 181.401 259.365 180.743 259.697C180.085 260.029 179.376 260.195 178.614 260.195C177.136 260.195 175.964 259.717 175.098 258.76C174.233 257.803 173.8 256.481 173.8 254.795V254.551C173.8 252.943 174.229 251.657 175.089 250.693C175.948 249.723 177.12 249.238 178.604 249.238C179.861 249.238 180.883 249.606 181.671 250.342C182.465 251.071 182.882 252.031 182.921 253.223H180.684C180.658 252.617 180.45 252.119 180.059 251.729C179.675 251.338 179.184 251.143 178.585 251.143C177.817 251.143 177.224 251.423 176.807 251.982C176.391 252.536 176.179 253.379 176.173 254.512V254.893C176.173 256.038 176.378 256.895 176.788 257.461C177.205 258.021 177.804 258.301 178.585 258.301ZM185.693 260V249.434H189.98C191.426 249.434 192.526 249.688 193.281 250.195C194.036 250.697 194.414 251.419 194.414 252.363C194.414 252.852 194.261 253.291 193.955 253.682C193.656 254.066 193.21 254.362 192.617 254.57C193.307 254.714 193.854 255.003 194.258 255.439C194.661 255.876 194.863 256.39 194.863 256.982C194.863 257.965 194.499 258.714 193.77 259.229C193.047 259.743 192.005 260 190.645 260H185.693ZM188.066 255.498V258.125H190.664C191.882 258.125 192.49 257.689 192.49 256.816C192.49 255.938 191.872 255.498 190.635 255.498H188.066ZM188.066 253.799H190.02C191.367 253.799 192.041 253.402 192.041 252.607C192.041 251.774 191.403 251.344 190.127 251.318H188.066V253.799ZM197.275 254.619C197.275 253.584 197.48 252.653 197.89 251.826C198.3 250.993 198.876 250.355 199.618 249.912C200.361 249.463 201.213 249.238 202.177 249.238C203.603 249.238 204.758 249.697 205.644 250.615C206.536 251.533 207.017 252.751 207.089 254.268L207.099 254.824C207.099 255.866 206.897 256.797 206.493 257.617C206.096 258.438 205.523 259.072 204.775 259.521C204.032 259.971 203.173 260.195 202.196 260.195C200.706 260.195 199.511 259.701 198.613 258.711C197.721 257.715 197.275 256.39 197.275 254.736V254.619ZM199.648 254.824C199.648 255.911 199.872 256.764 200.321 257.383C200.771 257.995 201.396 258.301 202.196 258.301C202.997 258.301 203.619 257.988 204.062 257.363C204.511 256.738 204.736 255.824 204.736 254.619C204.736 253.551 204.504 252.705 204.042 252.08C203.586 251.455 202.965 251.143 202.177 251.143C201.402 251.143 200.787 251.452 200.331 252.07C199.876 252.682 199.648 253.6 199.648 254.824ZM216.502 249.434H218.866V260H216.502V252.949L212.362 260H209.998V249.434H212.362V256.484L216.502 249.434ZM217.616 245.381C217.616 246.201 217.329 246.865 216.756 247.373C216.183 247.881 215.418 248.135 214.461 248.135C213.504 248.135 212.739 247.881 212.166 247.373C211.593 246.865 211.307 246.201 211.307 245.381H213.084C213.084 245.811 213.205 246.146 213.446 246.387C213.693 246.621 214.032 246.738 214.461 246.738C214.891 246.738 215.226 246.621 215.467 246.387C215.708 246.146 215.829 245.811 215.829 245.381H217.616ZM226.531 258.301C227.123 258.301 227.615 258.128 228.005 257.783C228.396 257.438 228.604 257.012 228.63 256.504H230.867C230.841 257.161 230.636 257.777 230.252 258.35C229.867 258.916 229.347 259.365 228.689 259.697C228.032 260.029 227.322 260.195 226.56 260.195C225.082 260.195 223.91 259.717 223.045 258.76C222.179 257.803 221.746 256.481 221.746 254.795V254.551C221.746 252.943 222.175 251.657 223.035 250.693C223.894 249.723 225.066 249.238 226.55 249.238C227.807 249.238 228.829 249.606 229.617 250.342C230.411 251.071 230.828 252.031 230.867 253.223H228.63C228.604 252.617 228.396 252.119 228.005 251.729C227.621 251.338 227.13 251.143 226.531 251.143C225.763 251.143 225.17 251.423 224.754 251.982C224.337 252.536 224.125 253.379 224.119 254.512V254.893C224.119 256.038 224.324 256.895 224.734 257.461C225.151 258.021 225.75 258.301 226.531 258.301ZM241.774 251.318H238.346V260H235.973V251.318H232.585V249.434H241.774V251.318ZM244.342 260V249.434H248.629C250.074 249.434 251.174 249.688 251.93 250.195C252.685 250.697 253.062 251.419 253.062 252.363C253.062 252.852 252.91 253.291 252.604 253.682C252.304 254.066 251.858 254.362 251.266 254.57C251.956 254.714 252.503 255.003 252.906 255.439C253.31 255.876 253.512 256.39 253.512 256.982C253.512 257.965 253.147 258.714 252.418 259.229C251.695 259.743 250.654 260 249.293 260H244.342ZM246.715 255.498V258.125H249.312C250.53 258.125 251.139 257.689 251.139 256.816C251.139 255.938 250.52 255.498 249.283 255.498H246.715ZM246.715 253.799H248.668C250.016 253.799 250.689 253.402 250.689 252.607C250.689 251.774 250.051 251.344 248.775 251.318H246.715V253.799ZM262.681 260C262.577 259.798 262.486 259.469 262.407 259.014C261.652 259.801 260.728 260.195 259.634 260.195C258.573 260.195 257.707 259.893 257.036 259.287C256.366 258.682 256.03 257.933 256.03 257.041C256.03 255.915 256.447 255.052 257.28 254.453C258.12 253.848 259.318 253.545 260.874 253.545H262.329V252.852C262.329 252.305 262.176 251.868 261.87 251.543C261.564 251.211 261.099 251.045 260.474 251.045C259.933 251.045 259.491 251.182 259.146 251.455C258.801 251.722 258.628 252.064 258.628 252.48H256.255C256.255 251.901 256.447 251.361 256.831 250.859C257.215 250.352 257.736 249.954 258.394 249.668C259.058 249.382 259.797 249.238 260.611 249.238C261.848 249.238 262.834 249.551 263.57 250.176C264.305 250.794 264.683 251.667 264.702 252.793V257.559C264.702 258.509 264.836 259.268 265.103 259.834V260H262.681ZM260.073 258.291C260.542 258.291 260.982 258.177 261.392 257.949C261.808 257.721 262.121 257.415 262.329 257.031V255.039H261.05C260.171 255.039 259.51 255.192 259.068 255.498C258.625 255.804 258.404 256.237 258.404 256.797C258.404 257.253 258.553 257.617 258.853 257.891C259.159 258.158 259.566 258.291 260.073 258.291Z" fill="white"/>
<defs>
<filter id="filter0_d" x="32" y="72" width="645" height="130" filterUnits="userSpaceOnUse" color-interpolation-filters="sRGB">
<feFlood flood-opacity="0" result="BackgroundImageFix"/>
<feColorMatrix in="SourceAlpha" type="matrix" values="0 0 0 0 0 0 0 0 0 0 0 0 0 0 0 0 0 0 127 0"/>
<feOffset dx="5" dy="5"/>
<feGaussianBlur stdDeviation="5"/>
<feColorMatrix type="matrix" values="0 0 0 0 0 0 0 0 0 0 0 0 0 0 0 0 0 0 0.25 0"/>
<feBlend mode="normal" in2="BackgroundImageFix" result="effect1_dropShadow"/>
<feBlend mode="normal" in="SourceGraphic" in2="effect1_dropShadow" result="shape"/>
</filter>
</defs>
</svg>
