<svg width="448" height="353" viewBox="0 0 448 353" fill="none" xmlns="http://www.w3.org/2000/svg">
<path d="M260.508 57.056V56.556H260.008H156H155.5V57.056C155.5 61.2039 152.148 64.556 148 64.556C143.852 64.556 140.5 61.2039 140.5 57.056V9C140.5 4.85214 143.852 1.5 148 1.5H268.008C272.156 1.5 275.508 4.85214 275.508 9V57.056C275.508 61.2039 272.156 64.556 268.008 64.556C263.86 64.556 260.508 61.2039 260.508 57.056Z" fill="#EAEAED" stroke="#CECFD5"/>
<path d="M135.516 25.5V26H136.016H447.492V26.0068V26.0402V26.0739V26.1081V26.1426V26.1775V26.2128V26.2484V26.2845V26.3209V26.3577V26.3948V26.4323V26.4702V26.5085V26.5471V26.5861V26.6254V26.6651V26.7052V26.7456V26.7864V26.8275V26.8689V26.9108V26.9529V26.9955V27.0383V27.0815V27.1251V27.169V27.2132V27.2577V27.3026V27.3479V27.3934V27.4393V27.4855V27.5321V27.5789V27.6261V27.6737V27.7215V27.7696V27.8181V27.8669V27.916V27.9654V28.0152V28.0652V28.1155V28.1662V28.2171V28.2684V28.3199V28.3718V28.4239V28.4764V28.5291V28.5822V28.6355V28.6891V28.743V28.7972V28.8517V28.9064V28.9615V29.0168V29.0724V29.1283V29.1844V29.2408V29.2975V29.3545V29.4117V29.4692V29.527V29.585V29.6433V29.7018V29.7607V29.8197V29.879V29.9386V29.9984V30.0585V30.1188V30.1794V30.2402V30.3013V30.3626V30.4242V30.4859V30.548V30.6102V30.6727V30.7354V30.7984V30.8616V30.925V30.9886V31.0525V31.1166V31.1809V31.2454V31.3102V31.3752V31.4403V31.5057V31.5713V31.6372V31.7032V31.7694V31.8358V31.9025V31.9693V32.0364V32.1036V32.171V32.2387V32.3065V32.3745V32.4427V32.5111V32.5797V32.6485V32.7174V32.7866V32.8559V32.9254V32.9951V33.0649V33.1349V33.2051V33.2755V33.3461V33.4168V33.4876V33.5587V33.6299V33.7012V33.7728V33.8444V33.9163V33.9883V34.0604V34.1327V34.2052V34.2777V34.3505V34.4234V34.4964V34.5696V34.6429V34.7163V34.7899V34.8637V34.9375V35.0115V35.0856V35.1599V35.2342V35.3087V35.3834V35.4581V35.533V35.608V35.6831V35.7583V35.8336V35.9091V35.9846V36.0603V36.1361V36.212V36.288V36.3641V36.4402V36.5165V36.5929V36.6694V36.746V36.8227V36.8994V36.9763V37.0532V37.1303V37.2074V37.2846V37.3619V37.4392V37.5167V37.5942V37.6718V37.7494V37.8272V37.905V37.9829V38.0608V38.1388V38.2169V38.295V38.3732V38.4515V38.5298V38.6082V38.6866V38.7651V38.8436V38.9222V39.0008V39.0795V39.1582V39.237V39.3158V39.3946V39.4735V39.5524V39.6314V39.7103V39.7893V39.8684V39.9475V40.0266V40.1057V40.1848V40.264V40.3432V40.4224V40.5016V40.5809V40.6601V40.7394V40.8187V40.898V40.9773V41.0566V41.1359V41.2152V41.2945V41.3738V41.4531V41.5324V41.6117V41.691V41.7702V41.8495V41.9288V42.008V42.0872V42.1664V42.2456V42.3248V42.4039V42.4831V42.5622V42.6412V42.7203V42.7993V42.8783V42.9572V43.0361V43.115V43.1938V43.2726V43.3514V43.4301V43.5088V43.5874V43.666V43.7445V43.823V43.9014V43.9798V44.0581V44.1363V44.2145V44.2927V44.3707V44.4487V44.5267V44.6045V44.6824V44.7601V44.8377V44.9153V44.9928V45.0703V45.1476V45.2249V45.3021V45.3792V45.4562V45.5332V45.61V45.6868V45.7635V45.84V45.9165V45.9929V46.0692V46.1454V46.2214V46.2974V46.3733V46.4491V46.5247V46.6003V46.6757V46.7511V46.8263V46.9014V46.9763V47.0512V47.1259V47.2006V47.2751V47.3494V47.4237V47.4978V47.5718V47.6456V47.7193V47.7929V47.8663V47.9396V48.0128V48.0858V48.1587V48.2314V48.304V48.3764V48.4487V48.5209V48.5928V48.6647V48.7363V48.8078V48.8792V48.9504V49.0214V49.0923V49.163V49.2335V49.3038V49.374V49.444V49.5139V49.5835V49.653V49.7223V49.7915V49.8604V49.9292V49.9977V50.0661V50.1343V50.2023V50.2701V50.3377V50.4052V50.4724V50.5394V50.6063V50.6729V50.7393V50.8055V50.8715V50.9373V51.0029V51.0683V51.1335V51.1984V51.2631V51.3277V51.3919V51.456V51.5199V51.5835V51.6469V51.7101V51.773V51.8357V51.8982V51.9604V52.0224V52.0842V52.1457V52.207V52.2681V52.3289V52.3894V52.4497V52.5098V52.5696V52.6292V52.6885V52.7475V52.8063V52.8648V52.9231V52.9811V53.0389V53.0963V53.1536V53.2105V53.2672V53.3236V53.3797V53.4356V53.4911V53.5464V53.6015V53.6562V53.7106V53.7648V53.8187V53.8723V53.9256V53.9786V54.0313V54.0838V54.1359V54.1877V54.2393V54.2905V54.3414V54.392V54.4424V54.4924V54.5421V54.5915V54.6405V54.6893V54.7378V54.7859V54.8337V54.8812V54.9284V54.9752V55.0217V55.0679V55.1138V55.1593V55.2045V55.2494V55.2939V55.3381V55.382V55.4255V55.4687V55.5115V55.554V55.5962V55.638V55.6794V55.7205V55.7613V55.8017V55.8417V55.8814V55.9207V55.9596V55.9982V56.0364V56.0743V56.1118V56.1489V56.1857V56.2221V56.2581V56.2937V56.329V56.3638V56.3983V56.4324V56.4662V56.4995V56.5325V56.565V56.5972V56.629V56.6604V56.6914V56.722V56.7522V56.782V56.8114V56.8404V56.869V56.8972V56.925V56.9523V56.9793V57.0058V57.032V344.976C447.492 349.124 444.14 352.476 439.992 352.476H8.008C3.86014 352.476 0.507996 349.124 0.507996 344.976V57.032V8.97595C0.507996 4.82809 3.86014 1.47595 8.008 1.47595H128.016C132.164 1.47595 135.516 4.82809 135.516 8.97595V25.5Z" fill="white" stroke="#CECFD5"/>
<path d="M88.5 20.9102H44.9445C41.5036 20.9102 38.7222 18.4517 38.7222 15.4102C38.7222 12.3687 41.5036 9.91018 44.9445 9.91018H88.5C91.9409 9.91018 94.7222 12.3687 94.7222 15.4102C94.7222 18.4517 91.9409 20.9102 88.5 20.9102Z" fill="#2DB34A"/>
<path d="M229.778 20H186.222C182.781 20 180 17.5415 180 14.5C180 11.4585 182.781 9 186.222 9H229.778C233.219 9 236 11.4585 236 14.5C236 17.5415 233.219 20 229.778 20Z" fill="#2DB34A"/>
<path d="M21 33.5H427C431.694 33.5 435.5 37.3056 435.5 42C435.5 46.6944 431.694 50.5 427 50.5H21C16.3056 50.5 12.5 46.6944 12.5 42C12.5 37.3056 16.3056 33.5 21 33.5Z" fill="white" stroke="#CECFD5"/>
<path d="M30.5869 41.3564C30.9873 40.8649 31.5081 40.6191 32.1494 40.6191C33.266 40.6191 33.8291 41.249 33.8389 42.5088V46H32.9355V42.5039C32.9323 42.123 32.8444 41.8415 32.6719 41.6592C32.5026 41.4769 32.2373 41.3857 31.876 41.3857C31.583 41.3857 31.3258 41.4639 31.1045 41.6201C30.8831 41.7764 30.7106 41.9814 30.5869 42.2354V46H29.6836V38.5H30.5869V41.3564ZM36.417 39.4375V40.7168H37.4033V41.415H36.417V44.6914C36.417 44.903 36.4609 45.0625 36.5488 45.1699C36.6367 45.2741 36.7865 45.3262 36.998 45.3262C37.1022 45.3262 37.2454 45.3066 37.4277 45.2676V46C37.1901 46.0651 36.959 46.0977 36.7344 46.0977C36.3307 46.0977 36.0264 45.9756 35.8213 45.7314C35.6162 45.4873 35.5137 45.1406 35.5137 44.6914V41.415H34.5518V40.7168H35.5137V39.4375H36.417ZM39.6885 39.4375V40.7168H40.6748V41.415H39.6885V44.6914C39.6885 44.903 39.7324 45.0625 39.8203 45.1699C39.9082 45.2741 40.0579 45.3262 40.2695 45.3262C40.3737 45.3262 40.5169 45.3066 40.6992 45.2676V46C40.4616 46.0651 40.2305 46.0977 40.0059 46.0977C39.6022 46.0977 39.2979 45.9756 39.0928 45.7314C38.8877 45.4873 38.7852 45.1406 38.7852 44.6914V41.415H37.8232V40.7168H38.7852V39.4375H39.6885ZM46.1973 43.417C46.1973 44.221 46.0133 44.8688 45.6455 45.3604C45.2777 45.8519 44.7796 46.0977 44.1514 46.0977C43.5101 46.0977 43.0055 45.8942 42.6377 45.4873V48.0312H41.7344V40.7168H42.5596L42.6035 41.3027C42.9714 40.847 43.4824 40.6191 44.1367 40.6191C44.7715 40.6191 45.2728 40.8584 45.6406 41.3369C46.0117 41.8154 46.1973 42.4811 46.1973 43.334V43.417ZM45.2939 43.3145C45.2939 42.7188 45.167 42.2484 44.9131 41.9033C44.6592 41.5583 44.3109 41.3857 43.8682 41.3857C43.3213 41.3857 42.9111 41.6283 42.6377 42.1133V44.6377C42.9079 45.1195 43.3213 45.3604 43.8779 45.3604C44.3109 45.3604 44.6543 45.1895 44.9082 44.8477C45.1654 44.5026 45.2939 43.9915 45.2939 43.3145ZM50.4258 44.5986C50.4258 44.3545 50.333 44.1657 50.1475 44.0322C49.9652 43.8955 49.6445 43.7783 49.1855 43.6807C48.7298 43.583 48.3669 43.4658 48.0967 43.3291C47.8298 43.1924 47.6312 43.0296 47.501 42.8408C47.374 42.652 47.3105 42.4274 47.3105 42.167C47.3105 41.734 47.4928 41.3678 47.8574 41.0684C48.2253 40.7689 48.694 40.6191 49.2637 40.6191C49.8626 40.6191 50.3477 40.7738 50.7188 41.083C51.0931 41.3923 51.2803 41.7878 51.2803 42.2695H50.3721C50.3721 42.0221 50.2663 41.8089 50.0547 41.6299C49.8464 41.4508 49.5827 41.3613 49.2637 41.3613C48.9349 41.3613 48.6777 41.4329 48.4922 41.5762C48.3066 41.7194 48.2139 41.9066 48.2139 42.1377C48.2139 42.3558 48.3001 42.5202 48.4727 42.6309C48.6452 42.7415 48.9561 42.8473 49.4053 42.9482C49.8577 43.0492 50.224 43.1696 50.5039 43.3096C50.7839 43.4495 50.9906 43.6188 51.124 43.8174C51.2607 44.0127 51.3291 44.252 51.3291 44.5352C51.3291 45.0072 51.1403 45.3864 50.7627 45.6729C50.3851 45.9561 49.8952 46.0977 49.293 46.0977C48.8698 46.0977 48.4954 46.0228 48.1699 45.873C47.8444 45.7233 47.5889 45.515 47.4033 45.248C47.221 44.9779 47.1299 44.6865 47.1299 44.374H48.0332C48.0495 44.6768 48.1699 44.9176 48.3945 45.0967C48.6224 45.2725 48.9219 45.3604 49.293 45.3604C49.6348 45.3604 49.9082 45.292 50.1133 45.1553C50.3216 45.0153 50.4258 44.8298 50.4258 44.5986ZM52.4766 45.5264C52.4766 45.3701 52.5221 45.2399 52.6133 45.1357C52.7077 45.0316 52.8477 44.9795 53.0332 44.9795C53.2188 44.9795 53.3587 45.0316 53.4531 45.1357C53.5508 45.2399 53.5996 45.3701 53.5996 45.5264C53.5996 45.6761 53.5508 45.8014 53.4531 45.9023C53.3587 46.0033 53.2188 46.0537 53.0332 46.0537C52.8477 46.0537 52.7077 46.0033 52.6133 45.9023C52.5221 45.8014 52.4766 45.6761 52.4766 45.5264ZM52.4814 41.2148C52.4814 41.0586 52.527 40.9284 52.6182 40.8242C52.7126 40.7201 52.8525 40.668 53.0381 40.668C53.2236 40.668 53.3636 40.7201 53.458 40.8242C53.5557 40.9284 53.6045 41.0586 53.6045 41.2148C53.6045 41.3646 53.5557 41.4899 53.458 41.5908C53.3636 41.6917 53.2236 41.7422 53.0381 41.7422C52.8525 41.7422 52.7126 41.6917 52.6182 41.5908C52.527 41.4899 52.4814 41.3646 52.4814 41.2148ZM55.1084 46.6104H54.332L57.3008 38.8906H58.0723L55.1084 46.6104ZM58.1357 46.6104H57.3594L60.3281 38.8906H61.0996L58.1357 46.6104ZM61.8564 43.3145C61.8564 42.5039 62.0485 41.8529 62.4326 41.3613C62.8167 40.8665 63.3197 40.6191 63.9414 40.6191C64.5599 40.6191 65.0498 40.8307 65.4111 41.2539V38.5H66.3145V46H65.4844L65.4404 45.4336C65.0791 45.8763 64.5762 46.0977 63.9316 46.0977C63.3197 46.0977 62.82 45.847 62.4326 45.3457C62.0485 44.8444 61.8564 44.1901 61.8564 43.3828V43.3145ZM62.7598 43.417C62.7598 44.016 62.8835 44.4847 63.1309 44.8232C63.3783 45.1618 63.7201 45.3311 64.1562 45.3311C64.7292 45.3311 65.1475 45.0739 65.4111 44.5596V42.1328C65.141 41.6348 64.7259 41.3857 64.166 41.3857C63.7233 41.3857 63.3783 41.5566 63.1309 41.8984C62.8835 42.2402 62.7598 42.7464 62.7598 43.417ZM69.9131 46.0977C69.1969 46.0977 68.6143 45.8633 68.165 45.3945C67.7158 44.9225 67.4912 44.2926 67.4912 43.5049V43.3389C67.4912 42.8148 67.5905 42.3477 67.7891 41.9375C67.9909 41.5241 68.2708 41.2018 68.6289 40.9707C68.9902 40.7363 69.3809 40.6191 69.8008 40.6191C70.4876 40.6191 71.0215 40.8454 71.4023 41.2979C71.7832 41.7503 71.9736 42.3981 71.9736 43.2412V43.6172H68.3945C68.4076 44.138 68.5589 44.5596 68.8486 44.8818C69.1416 45.2008 69.5127 45.3604 69.9619 45.3604C70.2809 45.3604 70.5511 45.2952 70.7725 45.165C70.9938 45.0348 71.1875 44.8623 71.3535 44.6475L71.9053 45.0771C71.4626 45.7575 70.7985 46.0977 69.9131 46.0977ZM69.8008 41.3613C69.4362 41.3613 69.1302 41.4948 68.8828 41.7617C68.6354 42.0254 68.4824 42.3965 68.4238 42.875H71.0703V42.8066C71.0443 42.3477 70.9206 41.9928 70.6992 41.7422C70.4779 41.4883 70.1784 41.3613 69.8008 41.3613ZM74.6982 44.7744L76.0068 40.7168H76.9297L75.0352 46H74.3467L72.4326 40.7168H73.3555L74.6982 44.7744ZM78.6484 40.7168L78.6729 41.3027C79.0602 40.847 79.5827 40.6191 80.2402 40.6191C80.9792 40.6191 81.4821 40.9023 81.749 41.4688C81.9248 41.2148 82.1527 41.0098 82.4326 40.8535C82.7158 40.6973 83.0495 40.6191 83.4336 40.6191C84.5924 40.6191 85.1816 41.2327 85.2012 42.46V46H84.2979V42.5137C84.2979 42.1361 84.2116 41.8545 84.0391 41.6689C83.8665 41.4801 83.5768 41.3857 83.1699 41.3857C82.8346 41.3857 82.5563 41.4867 82.335 41.6885C82.1136 41.887 81.985 42.1556 81.9492 42.4941V46H81.041V42.5381C81.041 41.7699 80.665 41.3857 79.9131 41.3857C79.3206 41.3857 78.9154 41.638 78.6973 42.1426V46H77.7939V40.7168H78.6484ZM87.5498 46H86.6465V40.7168H87.5498V46ZM86.5732 39.3154C86.5732 39.1689 86.6172 39.0452 86.7051 38.9443C86.7962 38.8434 86.9297 38.793 87.1055 38.793C87.2812 38.793 87.4147 38.8434 87.5059 38.9443C87.597 39.0452 87.6426 39.1689 87.6426 39.3154C87.6426 39.4619 87.597 39.584 87.5059 39.6816C87.4147 39.7793 87.2812 39.8281 87.1055 39.8281C86.9297 39.8281 86.7962 39.7793 86.7051 39.6816C86.6172 39.584 86.5732 39.4619 86.5732 39.3154ZM90.7725 42.6455L91.9443 40.7168H92.999L91.2705 43.3291L93.0527 46H92.0078L90.7871 44.0225L89.5664 46H88.5166L90.2988 43.3291L88.5703 40.7168H89.6152L90.7725 42.6455ZM93.9805 45.5264C93.9805 45.3701 94.026 45.2399 94.1172 45.1357C94.2116 45.0316 94.3516 44.9795 94.5371 44.9795C94.7227 44.9795 94.8626 45.0316 94.957 45.1357C95.0547 45.2399 95.1035 45.3701 95.1035 45.5264C95.1035 45.6761 95.0547 45.8014 94.957 45.9023C94.8626 46.0033 94.7227 46.0537 94.5371 46.0537C94.3516 46.0537 94.2116 46.0033 94.1172 45.9023C94.026 45.8014 93.9805 45.6761 93.9805 45.5264ZM99.1514 41.5273C99.0146 41.5046 98.8665 41.4932 98.707 41.4932C98.1146 41.4932 97.7126 41.7454 97.501 42.25V46H96.5977V40.7168H97.4766L97.4912 41.3271C97.7874 40.8551 98.2074 40.6191 98.751 40.6191C98.9268 40.6191 99.0602 40.6419 99.1514 40.6875V41.5273ZM103.248 45.4775C102.896 45.891 102.381 46.0977 101.7 46.0977C101.137 46.0977 100.707 45.9349 100.411 45.6094C100.118 45.2806 99.9701 44.7956 99.9668 44.1543V40.7168H100.87V44.1299C100.87 44.9307 101.196 45.3311 101.847 45.3311C102.537 45.3311 102.996 45.0739 103.224 44.5596V40.7168H104.127V46H103.268L103.248 45.4775Z" fill="#666666"/>
</svg>
