<svg width="700" height="133" viewBox="0 0 700 133" fill="none" xmlns="http://www.w3.org/2000/svg">
<rect width="700" height="133" fill="#272722"/>
<path d="M233.75 98.7188C233.75 101.333 233.156 103.422 231.969 104.984C230.781 106.536 229.188 107.312 227.188 107.312C225.333 107.312 223.849 106.703 222.734 105.484V113.5H218.938V90.0938H222.438L222.594 91.8125C223.708 90.4583 225.224 89.7812 227.141 89.7812C229.203 89.7812 230.818 90.5521 231.984 92.0938C233.161 93.625 233.75 95.7552 233.75 98.4844V98.7188ZM229.969 98.3906C229.969 96.7031 229.63 95.3646 228.953 94.375C228.286 93.3854 227.328 92.8906 226.078 92.8906C224.526 92.8906 223.411 93.5312 222.734 94.8125V102.312C223.422 103.625 224.547 104.281 226.109 104.281C227.318 104.281 228.26 103.797 228.938 102.828C229.625 101.849 229.969 100.37 229.969 98.3906Z" fill="#FF6603"/>
<path d="M255.076 112.625C251.399 111.594 249.524 109.245 249.451 105.578V102.25C249.451 99.9062 248.445 98.7344 246.435 98.7344V95.9531C248.445 95.9531 249.451 94.776 249.451 92.4219V89.1094C249.482 87.2344 249.966 85.7188 250.904 84.5625C251.852 83.4062 253.242 82.5677 255.076 82.0469L255.826 84.2344C254.024 84.8177 253.091 86.4115 253.029 89.0156V92.3906C253.029 94.7344 252.128 96.3802 250.326 97.3281C252.128 98.2865 253.029 99.9479 253.029 102.312V105.641C253.091 108.245 254.024 109.839 255.826 110.422L255.076 112.625ZM350.098 103C350.806 103 351.353 103.203 351.739 103.609C352.124 104.005 352.317 104.505 352.317 105.109C352.317 105.703 352.124 106.198 351.739 106.594C351.353 106.979 350.806 107.172 350.098 107.172C349.421 107.172 348.885 106.979 348.489 106.594C348.093 106.208 347.895 105.714 347.895 105.109C347.895 104.505 348.088 104.005 348.473 103.609C348.859 103.203 349.4 103 350.098 103ZM350.098 89.7344C350.806 89.7344 351.353 89.9375 351.739 90.3438C352.124 90.7396 352.317 91.2396 352.317 91.8438C352.317 92.4375 352.124 92.9323 351.739 93.3281C351.353 93.7135 350.806 93.9062 350.098 93.9062C349.421 93.9062 348.885 93.7135 348.489 93.3281C348.093 92.9427 347.895 92.4479 347.895 91.8438C347.895 91.2396 348.088 90.7396 348.473 90.3438C348.859 89.9375 349.4 89.7344 350.098 89.7344ZM465.352 89.7344C466.061 89.7344 466.608 89.9375 466.993 90.3438C467.379 90.7396 467.571 91.2396 467.571 91.8438C467.571 92.4375 467.379 92.9323 466.993 93.3281C466.608 93.7135 466.061 93.9062 465.352 93.9062C464.675 93.9062 464.139 93.7135 463.743 93.3281C463.347 92.9427 463.149 92.4479 463.149 91.8438C463.149 91.2396 463.342 90.7396 463.727 90.3438C464.113 89.9375 464.655 89.7344 465.352 89.7344ZM464.212 112.125L462.165 110.906C462.769 109.958 463.181 109.13 463.399 108.422C463.629 107.724 463.748 107.01 463.759 106.281V103.328H467.181L467.165 106.062C467.155 107.167 466.873 108.271 466.321 109.375C465.78 110.49 465.076 111.406 464.212 112.125ZM480.022 110.422C481.855 109.828 482.793 108.203 482.834 105.547V102.297C482.834 99.8906 483.782 98.2396 485.678 97.3438C483.782 96.4479 482.834 94.7812 482.834 92.3438V89.1094C482.793 86.4531 481.855 84.8281 480.022 84.2344L480.772 82.0469C482.668 82.5781 484.079 83.4427 485.006 84.6406C485.933 85.8281 486.397 87.3854 486.397 89.3125V92.4375C486.397 94.7812 487.407 95.9531 489.428 95.9531V98.7344C487.407 98.7344 486.397 99.9062 486.397 102.25V105.328C486.397 107.276 485.928 108.844 484.991 110.031C484.064 111.229 482.657 112.094 480.772 112.625L480.022 110.422Z" fill="white"/>
<path d="M275.729 104.281C276.677 104.281 277.464 104.005 278.089 103.453C278.714 102.901 279.047 102.219 279.089 101.406H282.667C282.625 102.458 282.297 103.443 281.682 104.359C281.068 105.266 280.235 105.984 279.182 106.516C278.13 107.047 276.995 107.312 275.776 107.312C273.412 107.312 271.537 106.547 270.151 105.016C268.766 103.484 268.073 101.37 268.073 98.6719V98.2812C268.073 95.7083 268.761 93.651 270.136 92.1094C271.511 90.5573 273.386 89.7812 275.761 89.7812C277.771 89.7812 279.406 90.3698 280.667 91.5469C281.938 92.7135 282.604 94.25 282.667 96.1562H279.089C279.047 95.1875 278.714 94.3906 278.089 93.7656C277.474 93.1406 276.688 92.8281 275.729 92.8281C274.5 92.8281 273.552 93.276 272.886 94.1719C272.219 95.0573 271.88 96.4062 271.87 98.2188V98.8281C271.87 100.661 272.198 102.031 272.854 102.938C273.521 103.833 274.479 104.281 275.729 104.281ZM286.103 98.3906C286.103 96.7344 286.431 95.2448 287.088 93.9219C287.744 92.5885 288.666 91.5677 289.853 90.8594C291.041 90.1406 292.405 89.7812 293.947 89.7812C296.228 89.7812 298.077 90.5156 299.494 91.9844C300.921 93.4531 301.692 95.401 301.806 97.8281L301.822 98.7188C301.822 100.385 301.499 101.875 300.853 103.188C300.218 104.5 299.301 105.516 298.103 106.234C296.916 106.953 295.541 107.312 293.978 107.312C291.593 107.312 289.681 106.521 288.244 104.938C286.817 103.344 286.103 101.224 286.103 98.5781V98.3906ZM289.9 98.7188C289.9 100.458 290.259 101.823 290.978 102.812C291.697 103.792 292.697 104.281 293.978 104.281C295.259 104.281 296.254 103.781 296.963 102.781C297.681 101.781 298.041 100.318 298.041 98.3906C298.041 96.6823 297.671 95.3281 296.931 94.3281C296.202 93.3281 295.207 92.8281 293.947 92.8281C292.707 92.8281 291.723 93.3229 290.994 94.3125C290.265 95.2917 289.9 96.7604 289.9 98.7188ZM310.352 107H306.555V83H310.352V107ZM315.069 98.3906C315.069 96.7344 315.397 95.2448 316.054 93.9219C316.71 92.5885 317.632 91.5677 318.819 90.8594C320.007 90.1406 321.371 89.7812 322.913 89.7812C325.194 89.7812 327.043 90.5156 328.46 91.9844C329.887 93.4531 330.658 95.401 330.772 97.8281L330.788 98.7188C330.788 100.385 330.465 101.875 329.819 103.188C329.184 104.5 328.267 105.516 327.069 106.234C325.882 106.953 324.507 107.312 322.944 107.312C320.559 107.312 318.647 106.521 317.21 104.938C315.783 103.344 315.069 101.224 315.069 98.5781V98.3906ZM318.866 98.7188C318.866 100.458 319.226 101.823 319.944 102.812C320.663 103.792 321.663 104.281 322.944 104.281C324.226 104.281 325.22 103.781 325.929 102.781C326.647 101.781 327.007 100.318 327.007 98.3906C327.007 96.6823 326.637 95.3281 325.897 94.3281C325.168 93.3281 324.174 92.8281 322.913 92.8281C321.674 92.8281 320.689 93.3229 319.96 94.3125C319.231 95.2917 318.866 96.7604 318.866 98.7188ZM344.131 93.5625C343.631 93.4792 343.115 93.4375 342.584 93.4375C340.844 93.4375 339.672 94.1042 339.068 95.4375V107H335.271V90.0938H338.896L338.99 91.9844C339.907 90.5156 341.177 89.7812 342.802 89.7812C343.344 89.7812 343.792 89.8542 344.146 90L344.131 93.5625Z" fill="#0087CC"/>
<path d="M376.127 100.594H372.627L371.439 107H368.814L370.002 100.594H366.393V98.125H370.471L371.377 93.2344H367.58V90.75H371.846L373.064 84.25H375.674L374.455 90.75H377.971L379.189 84.25H381.799L380.58 90.75H383.83V93.2344H380.111L379.205 98.125H382.658V100.594H378.736L377.549 107H374.939L376.127 100.594ZM373.096 98.125H376.596L377.502 93.2344H374.002L373.096 98.125ZM388.985 107V92.9062H386.407V90.0938H388.985V88.5469C388.985 86.6719 389.506 85.224 390.548 84.2031C391.589 83.1823 393.048 82.6719 394.923 82.6719C395.589 82.6719 396.298 82.7656 397.048 82.9531L396.954 85.9219C396.537 85.8385 396.053 85.7969 395.501 85.7969C393.688 85.7969 392.782 86.7292 392.782 88.5938V90.0938H396.219V92.9062H392.782V107H388.985ZM401.609 107V92.9062H399.031V90.0938H401.609V88.5469C401.609 86.6719 402.13 85.224 403.171 84.2031C404.213 83.1823 405.671 82.6719 407.546 82.6719C408.213 82.6719 408.921 82.7656 409.671 82.9531L409.577 85.9219C409.161 85.8385 408.676 85.7969 408.124 85.7969C406.312 85.7969 405.406 86.7292 405.406 88.5938V90.0938H408.843V92.9062H405.406V107H401.609ZM414.232 107V92.9062H411.654V90.0938H414.232V88.5469C414.232 86.6719 414.753 85.224 415.795 84.2031C416.837 83.1823 418.295 82.6719 420.17 82.6719C420.837 82.6719 421.545 82.7656 422.295 82.9531L422.201 85.9219C421.785 85.8385 421.3 85.7969 420.748 85.7969C418.936 85.7969 418.029 86.7292 418.029 88.5938V90.0938H421.467V92.9062H418.029V107H414.232ZM426.856 107V92.9062H424.278V90.0938H426.856V88.5469C426.856 86.6719 427.377 85.224 428.419 84.2031C429.46 83.1823 430.919 82.6719 432.794 82.6719C433.46 82.6719 434.169 82.7656 434.919 82.9531L434.825 85.9219C434.408 85.8385 433.924 85.7969 433.372 85.7969C431.559 85.7969 430.653 86.7292 430.653 88.5938V90.0938H434.091V92.9062H430.653V107H426.856ZM439.48 107V92.9062H436.902V90.0938H439.48V88.5469C439.48 86.6719 440.001 85.224 441.042 84.2031C442.084 83.1823 443.542 82.6719 445.417 82.6719C446.084 82.6719 446.792 82.7656 447.542 82.9531L447.449 85.9219C447.032 85.8385 446.548 85.7969 445.996 85.7969C444.183 85.7969 443.277 86.7292 443.277 88.5938V90.0938H446.714V92.9062H443.277V107H439.48ZM452.104 107V92.9062H449.526V90.0938H452.104V88.5469C452.104 86.6719 452.625 85.224 453.666 84.2031C454.708 83.1823 456.166 82.6719 458.041 82.6719C458.708 82.6719 459.416 82.7656 460.166 82.9531L460.072 85.9219C459.656 85.8385 459.171 85.7969 458.619 85.7969C456.807 85.7969 455.901 86.7292 455.901 88.5938V90.0938H459.338V92.9062H455.901V107H452.104Z" fill="#2DB34A"/>
<rect x="175" y="16" width="150" height="30" rx="5" fill="#FF6603"/>
<path d="M217.065 32.834C216.937 34.1992 216.433 35.2656 215.554 36.0332C214.675 36.7949 213.506 37.1758 212.047 37.1758C211.027 37.1758 210.128 36.9355 209.349 36.4551C208.575 35.9688 207.978 35.2803 207.556 34.3896C207.134 33.499 206.914 32.4648 206.896 31.2871V30.0918C206.896 28.8848 207.11 27.8213 207.538 26.9014C207.966 25.9814 208.578 25.2725 209.375 24.7744C210.178 24.2764 211.104 24.0273 212.152 24.0273C213.564 24.0273 214.701 24.4111 215.562 25.1787C216.424 25.9463 216.925 27.0303 217.065 28.4307H214.851C214.745 27.5107 214.476 26.8486 214.042 26.4443C213.614 26.0342 212.984 25.8291 212.152 25.8291C211.186 25.8291 210.441 26.1836 209.92 26.8926C209.404 27.5957 209.141 28.6299 209.129 29.9951V31.1289C209.129 32.5117 209.375 33.5664 209.867 34.293C210.365 35.0195 211.092 35.3828 212.047 35.3828C212.92 35.3828 213.576 35.1865 214.016 34.7939C214.455 34.4014 214.733 33.748 214.851 32.834H217.065ZM219.737 37V27.4902H223.595C224.896 27.4902 225.886 27.7188 226.566 28.1758C227.245 28.627 227.585 29.2773 227.585 30.127C227.585 30.5664 227.448 30.9619 227.172 31.3135C226.903 31.6592 226.501 31.9258 225.968 32.1133C226.589 32.2422 227.081 32.5029 227.445 32.8955C227.808 33.2881 227.99 33.751 227.99 34.2842C227.99 35.1689 227.661 35.8428 227.005 36.3057C226.355 36.7686 225.417 37 224.193 37H219.737ZM221.872 32.9482V35.3125H224.21C225.306 35.3125 225.854 34.9199 225.854 34.1348C225.854 33.3438 225.297 32.9482 224.184 32.9482H221.872ZM221.872 31.4189H223.63C224.843 31.4189 225.449 31.0615 225.449 30.3467C225.449 29.5967 224.875 29.21 223.727 29.1865H221.872V31.4189ZM230.16 32.1572C230.16 31.2256 230.344 30.3877 230.713 29.6436C231.083 28.8936 231.601 28.3193 232.269 27.9209C232.937 27.5166 233.705 27.3145 234.572 27.3145C235.855 27.3145 236.895 27.7275 237.692 28.5537C238.495 29.3799 238.928 30.4756 238.993 31.8408L239.002 32.3418C239.002 33.2793 238.82 34.1172 238.457 34.8555C238.099 35.5938 237.584 36.165 236.91 36.5693C236.242 36.9736 235.468 37.1758 234.589 37.1758C233.248 37.1758 232.172 36.7305 231.364 35.8398C230.561 34.9434 230.16 33.751 230.16 32.2627V32.1572ZM232.295 32.3418C232.295 33.3203 232.498 34.0879 232.902 34.6445C233.306 35.1953 233.869 35.4707 234.589 35.4707C235.31 35.4707 235.87 35.1895 236.268 34.627C236.672 34.0645 236.875 33.2412 236.875 32.1572C236.875 31.1963 236.667 30.4346 236.251 29.8721C235.84 29.3096 235.281 29.0283 234.572 29.0283C233.875 29.0283 233.321 29.3066 232.911 29.8633C232.501 30.4141 232.295 31.2402 232.295 32.3418ZM247.465 27.4902H249.592V37H247.465V30.6543L243.738 37H241.611V27.4902H243.738V33.8359L247.465 27.4902ZM248.467 23.8428C248.467 24.5811 248.209 25.1787 247.693 25.6357C247.178 26.0928 246.489 26.3213 245.628 26.3213C244.766 26.3213 244.078 26.0928 243.562 25.6357C243.047 25.1787 242.789 24.5811 242.789 23.8428H244.389C244.389 24.2295 244.497 24.5312 244.714 24.748C244.936 24.959 245.241 25.0645 245.628 25.0645C246.014 25.0645 246.316 24.959 246.533 24.748C246.75 24.5312 246.858 24.2295 246.858 23.8428H248.467ZM256.49 35.4707C257.024 35.4707 257.466 35.3154 257.818 35.0049C258.169 34.6943 258.357 34.3105 258.38 33.8535H260.393C260.369 34.4453 260.185 34.999 259.839 35.5146C259.493 36.0244 259.025 36.4287 258.433 36.7275C257.841 37.0264 257.202 37.1758 256.517 37.1758C255.187 37.1758 254.132 36.7451 253.353 35.8838C252.573 35.0225 252.184 33.833 252.184 32.3154V32.0957C252.184 30.6484 252.57 29.4912 253.344 28.624C254.117 27.751 255.172 27.3145 256.508 27.3145C257.639 27.3145 258.559 27.6455 259.268 28.3076C259.983 28.9639 260.358 29.8281 260.393 30.9004H258.38C258.357 30.3555 258.169 29.9072 257.818 29.5557C257.472 29.2041 257.029 29.0283 256.49 29.0283C255.799 29.0283 255.266 29.2803 254.891 29.7842C254.516 30.2822 254.325 31.041 254.319 32.0605V32.4033C254.319 33.4346 254.504 34.2051 254.873 34.7148C255.248 35.2188 255.787 35.4707 256.49 35.4707ZM270.209 29.1865H267.124V37H264.989V29.1865H261.939V27.4902H270.209V29.1865ZM272.52 37V27.4902H276.379C277.679 27.4902 278.67 27.7188 279.349 28.1758C280.029 28.627 280.369 29.2773 280.369 30.127C280.369 30.5664 280.231 30.9619 279.956 31.3135C279.686 31.6592 279.285 31.9258 278.752 32.1133C279.373 32.2422 279.865 32.5029 280.228 32.8955C280.591 33.2881 280.773 33.751 280.773 34.2842C280.773 35.1689 280.445 35.8428 279.789 36.3057C279.138 36.7686 278.201 37 276.976 37H272.52ZM274.656 32.9482V35.3125H276.994C278.09 35.3125 278.637 34.9199 278.637 34.1348C278.637 33.3438 278.081 32.9482 276.967 32.9482H274.656ZM274.656 31.4189H276.414C277.627 31.4189 278.233 31.0615 278.233 30.3467C278.233 29.5967 277.659 29.21 276.51 29.1865H274.656V31.4189ZM282.943 32.1572C282.943 31.2256 283.128 30.3877 283.497 29.6436C283.866 28.8936 284.385 28.3193 285.053 27.9209C285.721 27.5166 286.488 27.3145 287.355 27.3145C288.639 27.3145 289.679 27.7275 290.476 28.5537C291.278 29.3799 291.712 30.4756 291.776 31.8408L291.785 32.3418C291.785 33.2793 291.603 34.1172 291.24 34.8555C290.883 35.5938 290.367 36.165 289.693 36.5693C289.025 36.9736 288.252 37.1758 287.373 37.1758C286.031 37.1758 284.956 36.7305 284.147 35.8398C283.345 34.9434 282.943 33.751 282.943 32.2627V32.1572ZM285.079 32.3418C285.079 33.3203 285.281 34.0879 285.686 34.6445C286.09 35.1953 286.652 35.4707 287.373 35.4707C288.094 35.4707 288.653 35.1895 289.052 34.627C289.456 34.0645 289.658 33.2412 289.658 32.1572C289.658 31.1963 289.45 30.4346 289.034 29.8721C288.624 29.3096 288.064 29.0283 287.355 29.0283C286.658 29.0283 286.104 29.3066 285.694 29.8633C285.284 30.4141 285.079 31.2402 285.079 32.3418Z" fill="white"/>
<line x1="307.5" y1="69.9924" x2="307.617" y2="45.9927" stroke="#FF6603" stroke-width="3"/>
<line x1="270" y1="69.5" x2="340" y2="69.5" stroke="#FF6603" stroke-width="3"/>
<line x1="338.5" y1="82" x2="338.5" y2="69" stroke="#FF6603" stroke-width="3"/>
<line x1="271.5" y1="82" x2="271.5" y2="69" stroke="#FF6603" stroke-width="3"/>
<rect x="389" y="16" width="150" height="30" rx="5" fill="#FF6603"/>
<path d="M428.699 27.6924C428.699 27.1182 428.482 26.6611 428.049 26.3213C427.615 25.9814 427.026 25.8115 426.282 25.8115C425.644 25.8115 425.11 25.9814 424.683 26.3213C424.255 26.6553 424.041 27.0889 424.041 27.6221H421.826C421.826 26.9248 422.02 26.3037 422.406 25.7588C422.793 25.2139 423.329 24.792 424.015 24.4932C424.7 24.1885 425.456 24.0361 426.282 24.0361C427.747 24.0361 428.884 24.3555 429.692 24.9941C430.507 25.6328 430.914 26.5264 430.914 27.6748C430.914 28.2549 430.738 28.7881 430.387 29.2744C430.035 29.7607 429.543 30.1445 428.91 30.4258C429.625 30.6719 430.17 31.0469 430.545 31.5508C430.926 32.0488 431.116 32.6699 431.116 33.4141C431.116 34.5625 430.677 35.4766 429.798 36.1562C428.919 36.8301 427.747 37.167 426.282 37.167C425.38 37.167 424.562 37.0059 423.83 36.6836C423.104 36.3613 422.556 35.9219 422.187 35.3652C421.823 34.8086 421.642 34.1699 421.642 33.4492H423.856C423.856 34 424.085 34.4658 424.542 34.8467C424.999 35.2217 425.579 35.4092 426.282 35.4092C427.067 35.4092 427.697 35.2246 428.172 34.8555C428.652 34.4863 428.893 34.0059 428.893 33.4141C428.893 32.6934 428.682 32.1719 428.26 31.8496C427.844 31.5215 427.231 31.3574 426.423 31.3574H424.92V29.5996H426.344C427.914 29.5996 428.699 28.9639 428.699 27.6924ZM441.75 37H439.615V33.1592H435.914V37H433.779V27.4902H435.914V31.4541H439.615V27.4902H441.75V37ZM450.433 37C450.339 36.8184 450.257 36.5225 450.187 36.1123C449.507 36.8213 448.675 37.1758 447.691 37.1758C446.736 37.1758 445.957 36.9033 445.353 36.3584C444.75 35.8135 444.448 35.1396 444.448 34.3369C444.448 33.3232 444.823 32.5469 445.573 32.0078C446.329 31.4629 447.407 31.1904 448.807 31.1904H450.117V30.5664C450.117 30.0742 449.979 29.6816 449.704 29.3887C449.428 29.0898 449.009 28.9404 448.447 28.9404C447.961 28.9404 447.562 29.0635 447.252 29.3096C446.941 29.5498 446.786 29.8574 446.786 30.2324H444.65C444.65 29.7109 444.823 29.2246 445.169 28.7734C445.514 28.3164 445.983 27.959 446.575 27.7012C447.172 27.4434 447.837 27.3145 448.57 27.3145C449.683 27.3145 450.571 27.5957 451.233 28.1582C451.895 28.7148 452.235 29.5 452.253 30.5137V34.8027C452.253 35.6582 452.373 36.3408 452.613 36.8506V37H450.433ZM448.086 35.4619C448.508 35.4619 448.904 35.3594 449.273 35.1543C449.648 34.9492 449.929 34.6738 450.117 34.3281V32.5352H448.965C448.174 32.5352 447.58 32.6729 447.181 32.9482C446.783 33.2236 446.584 33.6133 446.584 34.1172C446.584 34.5273 446.718 34.8555 446.988 35.1016C447.263 35.3418 447.629 35.4619 448.086 35.4619ZM462.834 37H460.698V33.8271C460.147 33.9561 459.567 34.0205 458.958 34.0205C457.657 34.0205 456.664 33.71 455.978 33.0889C455.293 32.4619 454.95 31.5654 454.95 30.3994V27.4814H457.086V30.3994C457.086 31.0908 457.238 31.5801 457.543 31.8672C457.853 32.1543 458.325 32.2979 458.958 32.2979C459.532 32.2979 460.112 32.2305 460.698 32.0957V27.4902H462.834V37ZM470.014 37.1758C468.66 37.1758 467.562 36.751 466.718 35.9014C465.88 35.0459 465.461 33.9092 465.461 32.4912V32.2275C465.461 31.2783 465.643 30.4316 466.006 29.6875C466.375 28.9375 466.891 28.3545 467.553 27.9385C468.215 27.5225 468.953 27.3145 469.768 27.3145C471.063 27.3145 472.062 27.7275 472.765 28.5537C473.474 29.3799 473.828 30.5488 473.828 32.0605V32.9219H467.614C467.679 33.707 467.94 34.3281 468.397 34.7852C468.859 35.2422 469.44 35.4707 470.137 35.4707C471.115 35.4707 471.912 35.0752 472.527 34.2842L473.679 35.3828C473.298 35.9512 472.788 36.3936 472.15 36.71C471.517 37.0205 470.805 37.1758 470.014 37.1758ZM469.759 29.0283C469.173 29.0283 468.698 29.2334 468.335 29.6436C467.978 30.0537 467.749 30.625 467.65 31.3574H471.719V31.1992C471.672 30.4844 471.482 29.9453 471.148 29.582C470.814 29.2129 470.351 29.0283 469.759 29.0283ZM484.269 37H482.133V33.1592H478.433V37H476.297V27.4902H478.433V31.4541H482.133V27.4902H484.269V37ZM493.207 27.4902H495.334V37H493.207V30.6543L489.48 37H487.353V27.4902H489.48V33.8359L493.207 27.4902ZM502.514 37.1758C501.16 37.1758 500.061 36.751 499.218 35.9014C498.38 35.0459 497.961 33.9092 497.961 32.4912V32.2275C497.961 31.2783 498.143 30.4316 498.506 29.6875C498.875 28.9375 499.391 28.3545 500.053 27.9385C500.715 27.5225 501.453 27.3145 502.268 27.3145C503.562 27.3145 504.561 27.7275 505.265 28.5537C505.974 29.3799 506.328 30.5488 506.328 32.0605V32.9219H500.114C500.179 33.707 500.439 34.3281 500.896 34.7852C501.359 35.2422 501.939 35.4707 502.637 35.4707C503.615 35.4707 504.412 35.0752 505.027 34.2842L506.179 35.3828C505.798 35.9512 505.288 36.3936 504.649 36.71C504.017 37.0205 503.305 37.1758 502.514 37.1758ZM502.259 29.0283C501.673 29.0283 501.198 29.2334 500.835 29.6436C500.478 30.0537 500.249 30.625 500.149 31.3574H504.219V31.1992C504.172 30.4844 503.981 29.9453 503.647 29.582C503.313 29.2129 502.851 29.0283 502.259 29.0283Z" fill="white"/>
<line x1="406.5" y1="69.9924" x2="406.617" y2="45.9927" stroke="#FF6603" stroke-width="3"/>
<line x1="370" y1="69.5" x2="463" y2="69.5" stroke="#FF6603" stroke-width="3"/>
<line x1="461.5" y1="82" x2="461.5" y2="69" stroke="#FF6603" stroke-width="3"/>
<line x1="371.5" y1="82" x2="371.5" y2="69" stroke="#FF6603" stroke-width="3"/>
</svg>
