<svg width="329" height="67" viewBox="0 0 329 67" fill="none" xmlns="http://www.w3.org/2000/svg">
<path d="M112.64 60.37H0.119995V66.15H112.64V60.37Z" fill="url(#paint0_linear)"/>
<path d="M101.43 61.23H11.34V0.640015H101.43V61.23ZM15.11 57.46H97.66V4.41002H15.11V57.46Z" fill="url(#paint1_linear)"/>
<path d="M21.84 9.59003H18.84V12.59H21.84V9.59003Z" fill="url(#paint2_linear)"/>
<path d="M47.0799 9.59003H24.4399V12.59H47.0799V9.59003Z" fill="url(#paint3_linear)"/>
<path d="M21.84 14.23H18.84V17.23H21.84V14.23Z" fill="url(#paint4_linear)"/>
<path d="M56.2399 14.23H24.4399V17.23H56.2399V14.23Z" fill="url(#paint5_linear)"/>
<path d="M21.84 18.87H18.84V21.87H21.84V18.87Z" fill="url(#paint6_linear)"/>
<path d="M39.6199 18.87H24.4399V21.87H39.6199V18.87Z" fill="url(#paint7_linear)"/>
<path d="M65.98 18.87H41.51V21.87H65.98V18.87Z" fill="url(#paint8_linear)"/>
<path d="M21.84 23.51H18.84V26.51H21.84V23.51Z" fill="url(#paint9_linear)"/>
<path d="M35.7599 23.51H24.4399V26.51H35.7599V23.51Z" fill="url(#paint10_linear)"/>
<path d="M56.56 23.51H37.66V26.51H56.56V23.51Z" fill="url(#paint11_linear)"/>
<path d="M77.14 23.51H58.24V26.51H77.14V23.51Z" fill="url(#paint12_linear)"/>
<path d="M21.84 28.14H18.84V31.14H21.84V28.14Z" fill="url(#paint13_linear)"/>
<path d="M47.0799 28.14H24.4399V31.14H47.0799V28.14Z" fill="url(#paint14_linear)"/>
<path d="M80.97 28.14H49.03V31.14H80.97V28.14Z" fill="url(#paint15_linear)"/>
<path d="M21.84 32.78H18.84V35.78H21.84V32.78Z" fill="url(#paint16_linear)"/>
<path d="M54.6999 32.78H24.4399V35.78H54.6999V32.78Z" fill="url(#paint17_linear)"/>
<path d="M21.84 37.42H18.84V40.42H21.84V37.42Z" fill="url(#paint18_linear)"/>
<path d="M35.7599 37.42H24.4399V40.42H35.7599V37.42Z" fill="url(#paint19_linear)"/>
<path d="M56.56 37.42H37.66V40.42H56.56V37.42Z" fill="url(#paint20_linear)"/>
<path d="M69.73 37.42H58.54V40.42H69.73V37.42Z" fill="url(#paint21_linear)"/>
<path d="M21.84 42.05H18.84V45.05H21.84V42.05Z" fill="url(#paint22_linear)"/>
<path d="M46.9599 42.05H24.3199V45.05H46.9599V42.05Z" fill="url(#paint23_linear)"/>
<path d="M80.85 42.05H48.91V45.05H80.85V42.05Z" fill="url(#paint24_linear)"/>
<path d="M21.84 46.69H18.84V49.69H21.84V46.69Z" fill="url(#paint25_linear)"/>
<path d="M54.7199 46.69H24.4399V49.69H54.7199V46.69Z" fill="url(#paint26_linear)"/>
<path d="M21.84 51.33H18.84V54.33H21.84V51.33Z" fill="url(#paint27_linear)"/>
<path d="M35.7899 51.33H24.4399V54.33H35.7899V51.33Z" fill="url(#paint28_linear)"/>
<path d="M56.5899 51.33H37.6899V54.33H56.5899V51.33Z" fill="url(#paint29_linear)"/>
<path d="M69.77 51.33H58.27V54.33H69.77V51.33Z" fill="url(#paint30_linear)"/>
<path d="M134.41 8.06H149.23C151.2 8.06 153.03 8.44 154.71 9.21C156.39 9.98 157.83 11.02 159.06 12.33C160.28 13.64 161.24 15.17 161.92 16.92C162.61 18.66 162.95 20.53 162.95 22.5C162.95 24.48 162.57 26.42 161.81 28.32C161.05 30.22 160 31.89 158.66 33.32C157.31 34.75 155.9 35.75 154.44 36.33C152.98 36.9 151.29 37.19 149.36 37.19H138.58V12.36H136.28L134.41 8.06ZM142.76 32.89H149.36C150.77 32.89 152.05 32.62 153.21 32.07C154.37 31.53 155.35 30.79 156.16 29.87C156.97 28.95 157.59 27.88 158.03 26.66C158.47 25.44 158.69 24.15 158.69 22.8C158.69 21.4 158.48 20.07 158.07 18.81C157.65 17.55 157.04 16.44 156.24 15.48C155.43 14.52 154.45 13.76 153.29 13.2C152.13 12.64 150.8 12.36 149.29 12.36H142.77V32.89H142.76Z" fill="white"/>
<path d="M149.36 37.69H138.08V12.86H135.95L133.64 7.57001H149.22C151.26 7.57001 153.17 7.97 154.9 8.77C156.63 9.56 158.15 10.65 159.4 12.01C160.66 13.37 161.65 14.96 162.36 16.75C163.07 18.54 163.43 20.48 163.43 22.52C163.43 24.55 163.03 26.57 162.25 28.52C161.47 30.47 160.37 32.2 159 33.67C157.6 35.15 156.12 36.2 154.6 36.8C153.11 37.39 151.34 37.69 149.36 37.69ZM139.08 36.69H149.36C151.22 36.69 152.86 36.41 154.25 35.87C155.63 35.33 156.99 34.36 158.29 32.99C159.58 31.61 160.61 29.98 161.34 28.15C162.07 26.32 162.44 24.42 162.44 22.52C162.44 20.61 162.1 18.8 161.44 17.12C160.78 15.44 159.85 13.95 158.67 12.69C157.5 11.43 156.09 10.42 154.48 9.68001C152.88 8.95001 151.1 8.57001 149.21 8.57001H135.15L136.59 11.86H139.07V36.69H139.08ZM149.36 33.39H142.26V11.85H149.28C150.86 11.85 152.28 12.15 153.5 12.74C154.72 13.33 155.76 14.14 156.61 15.15C157.45 16.15 158.1 17.33 158.54 18.65C158.97 19.96 159.19 21.35 159.19 22.8C159.19 24.2 158.96 25.56 158.5 26.83C158.04 28.1 157.38 29.24 156.53 30.2C155.68 31.17 154.63 31.95 153.42 32.52C152.2 33.1 150.83 33.39 149.36 33.39ZM143.26 32.39H149.36C150.69 32.39 151.91 32.13 152.99 31.62C154.08 31.11 155.02 30.41 155.78 29.54C156.54 28.67 157.14 27.64 157.56 26.48C157.98 25.32 158.19 24.08 158.19 22.79C158.19 21.45 157.99 20.16 157.59 18.95C157.19 17.76 156.61 16.69 155.85 15.78C155.09 14.88 154.16 14.15 153.07 13.63C151.99 13.11 150.71 12.84 149.28 12.84H143.26V32.39Z" fill="#06AFF1"/>
<path d="M177.78 32.89H195.74V37.18H173.53V8.04999H194.03V12.34H177.79V21.19C178.67 20.67 179.57 20.36 180.48 20.24C181.39 20.12 182.33 20.07 183.29 20.07H189.65V24.36H183.29C182.35 24.36 181.42 24.43 180.5 24.57C179.58 24.71 178.67 25.02 177.79 25.48V32.89H177.78Z" fill="white"/>
<path d="M196.24 37.69H173.03V7.56H194.53V12.85H178.29V20.38C178.99 20.06 179.7 19.85 180.42 19.76C181.35 19.64 182.32 19.58 183.29 19.58H190.15V24.87H183.29C182.38 24.87 181.47 24.94 180.57 25.08C179.8 25.2 179.03 25.44 178.28 25.81V32.39H196.24V37.69ZM174.03 36.69H195.24V33.4H177.28V25.21L177.55 25.07C178.48 24.58 179.45 24.26 180.42 24.11C181.36 23.96 182.33 23.89 183.29 23.89H189.15V20.6H183.29C182.36 20.6 181.43 20.66 180.54 20.77C179.7 20.88 178.86 21.17 178.04 21.65L177.29 22.09V11.87H193.53V8.58H174.03V36.69Z" fill="#06AFF1"/>
<path d="M220.42 37.19H215.38L203.35 8.06H207.96L217.92 32.42L227.95 8.06H232.63L220.42 37.19Z" fill="white"/>
<path d="M220.75 37.69H215.05L214.92 37.38L202.61 7.56H208.3L217.92 31.1L227.62 7.56H233.39L220.75 37.69ZM215.71 36.69H220.08L231.88 8.56H228.28L217.91 33.74L207.62 8.56H204.1L215.71 36.69Z" fill="#06AFF1"/>
<path d="M256.92 29.07L247.04 17.16V37.19H242.86V12.16L239.46 8.06H244.96L256.87 22.35L268.93 8.06H274.43L271.03 12.16V37.19H266.85V17.16L256.92 29.07Z" fill="white"/>
<path d="M271.56 37.69H266.38V18.54L256.92 29.85L247.54 18.55V37.69H242.36V12.34L238.4 7.56H245.2L256.88 21.57L268.71 7.56H275.51L271.55 12.34V37.69H271.56ZM267.38 36.69H270.56V11.98L273.39 8.56H269.18L256.88 23.13L244.74 8.56H240.53L243.36 11.98V36.69H246.54V15.77L256.92 28.28L267.37 15.78V36.69H267.38Z" fill="#06AFF1"/>
<path d="M284.41 37.19V8.06H288.59V37.19H284.41Z" fill="white"/>
<path d="M289.09 37.69H283.91V7.56H289.09V37.69ZM284.91 36.69H288.09V8.56H284.91V36.69Z" fill="#06AFF1"/>
<path d="M321.97 37.19L313.03 24.93L303.78 37.19H298.35L310.3 21.38L300.7 8.07001H305.85L313.03 17.79L320.33 8.07001H325.6L315.72 21.38L327.35 37.19H321.97Z" fill="white"/>
<path d="M328.34 37.69H321.71L313.02 25.77L304.02 37.69H297.34L309.67 21.37L299.71 7.56H306.09L313.03 16.94L320.08 7.56H326.59L316.34 21.37L328.34 37.69ZM322.22 36.69H326.37L315.1 21.38L324.61 8.57H320.58L313.03 18.63L305.6 8.57H301.68L310.93 21.39L299.37 36.7H303.54L313.05 24.1L322.22 36.69Z" fill="#06AFF1"/>
<path d="M213.38 59.23H211.62V47.18H213.38L213.36 52.12C213.61 52 213.86 51.92 214.12 51.87C214.38 51.82 214.64 51.8 214.9 51.8C215.07 51.8 215.32 51.82 215.65 51.86C215.98 51.9 216.33 51.94 216.72 51.98C217.1 52.02 217.48 52.06 217.86 52.1C218.24 52.14 218.56 52.16 218.83 52.16C219.08 52.16 219.35 52.14 219.64 52.1C219.93 52.06 220.21 51.98 220.46 51.86V47.19H222.22V59.24H220.46V53.64C220.2 53.76 219.93 53.84 219.64 53.88C219.35 53.92 219.08 53.94 218.83 53.94C218.56 53.94 218.24 53.92 217.86 53.88C217.48 53.84 217.11 53.8 216.72 53.76C216.34 53.72 215.98 53.68 215.66 53.64C215.33 53.6 215.08 53.58 214.91 53.58C214.65 53.58 214.39 53.6 214.14 53.65C213.88 53.7 213.63 53.78 213.38 53.9V59.23Z" fill="#0CDDBA"/>
<path d="M233.23 48.95V59.22H231.52V48.95H227.22V47.17H237.48V48.95H233.23Z" fill="#0CDDBA"/>
<path d="M248.65 55.87L244.56 50.94V59.23H242.83V48.88L241.42 47.18H243.7L248.63 53.09L253.62 47.18H255.9L254.49 48.88V59.23H252.76V50.94L248.65 55.87Z" fill="#0CDDBA"/>
<path d="M261.16 59.23V47.18H262.92V57.45H269.61V59.23H261.16Z" fill="#0CDDBA"/>
<path d="M275.27 59.68H273.3L280.02 47.19H282.02L275.27 59.68Z" fill="#06AFF1"/>
<path d="M296.56 50.05C296.11 49.6 295.58 49.24 294.98 48.98C294.38 48.72 293.73 48.59 293.04 48.59C292.37 48.59 291.75 48.7 291.17 48.93C290.59 49.16 290.09 49.47 289.66 49.89C289.23 50.3 288.9 50.79 288.66 51.36C288.42 51.92 288.3 52.54 288.3 53.22C288.3 53.86 288.43 54.46 288.69 55.02C288.95 55.57 289.3 56.05 289.74 56.45C290.18 56.85 290.69 57.16 291.26 57.38C291.83 57.61 292.43 57.72 293.07 57.72C293.86 57.72 294.58 57.55 295.24 57.22C295.9 56.88 296.45 56.43 296.9 55.85L297.98 57.32C297.37 58 296.64 58.53 295.79 58.92C294.94 59.31 294.03 59.5 293.05 59.5C292.13 59.5 291.28 59.33 290.5 59C289.71 58.67 289.03 58.21 288.45 57.63C287.87 57.05 287.41 56.36 287.08 55.57C286.75 54.78 286.58 53.93 286.58 53.03C286.58 52.15 286.75 51.33 287.11 50.57C287.46 49.81 287.93 49.15 288.53 48.6C289.13 48.05 289.82 47.61 290.61 47.3C291.4 46.99 292.22 46.83 293.08 46.83C294 46.83 294.85 47 295.64 47.34C296.43 47.68 297.12 48.14 297.72 48.74L296.56 50.05Z" fill="#0CDDBA"/>
<path d="M312.66 55.56C312.66 56.16 312.52 56.71 312.25 57.2C311.98 57.69 311.6 58.11 311.12 58.44C310.64 58.78 310.07 59.04 309.42 59.22C308.76 59.4 308.05 59.49 307.29 59.49C306.83 59.49 306.37 59.43 305.91 59.32C305.45 59.21 305.01 59.04 304.58 58.83C304.15 58.62 303.74 58.36 303.36 58.05C302.98 57.74 302.64 57.39 302.33 57L303.59 55.82C303.75 56.01 303.95 56.22 304.17 56.44C304.4 56.66 304.66 56.87 304.97 57.05C305.28 57.23 305.62 57.39 306 57.52C306.38 57.64 306.81 57.71 307.28 57.71C307.72 57.71 308.16 57.67 308.59 57.58C309.02 57.49 309.4 57.36 309.74 57.19C310.07 57.01 310.34 56.79 310.55 56.51C310.75 56.24 310.86 55.91 310.86 55.54C310.86 55.08 310.75 54.73 310.54 54.48C310.33 54.23 310.06 54.05 309.72 53.94C309.38 53.83 309 53.76 308.57 53.74C308.14 53.72 307.71 53.71 307.28 53.71C305.83 53.71 304.72 53.45 303.97 52.93C303.22 52.41 302.84 51.63 302.84 50.59C302.84 50.11 302.95 49.63 303.17 49.18C303.39 48.73 303.7 48.32 304.09 47.97C304.48 47.62 304.95 47.34 305.5 47.13C306.05 46.92 306.64 46.82 307.29 46.82C308.21 46.82 309.06 46.96 309.86 47.24C310.66 47.52 311.42 48.02 312.14 48.73L311.04 50.02C310.72 49.76 310.41 49.54 310.13 49.36C309.84 49.18 309.56 49.03 309.27 48.92C308.98 48.81 308.68 48.73 308.36 48.68C308.04 48.63 307.69 48.61 307.3 48.61C306.96 48.61 306.63 48.66 306.33 48.77C306.03 48.88 305.76 49.02 305.54 49.21C305.31 49.39 305.14 49.61 305.01 49.85C304.88 50.09 304.82 50.34 304.82 50.6C304.82 50.78 304.86 50.96 304.93 51.13C305 51.3 305.14 51.44 305.33 51.57C305.52 51.7 305.78 51.8 306.11 51.88C306.44 51.96 306.86 51.99 307.38 51.99C308.44 51.99 309.3 52.07 309.99 52.23C310.67 52.39 311.22 52.63 311.61 52.93C312.01 53.24 312.28 53.61 312.44 54.06C312.58 54.5 312.66 55 312.66 55.56Z" fill="#0CDDBA"/>
<path d="M327.36 55.56C327.36 56.16 327.22 56.71 326.95 57.2C326.68 57.69 326.3 58.11 325.82 58.44C325.34 58.78 324.77 59.04 324.12 59.22C323.46 59.4 322.75 59.49 321.99 59.49C321.53 59.49 321.07 59.43 320.61 59.32C320.15 59.21 319.71 59.04 319.28 58.83C318.85 58.62 318.44 58.36 318.06 58.05C317.68 57.74 317.34 57.39 317.03 57L318.29 55.82C318.45 56.01 318.65 56.22 318.87 56.44C319.1 56.66 319.36 56.87 319.67 57.05C319.98 57.23 320.32 57.39 320.7 57.52C321.08 57.64 321.51 57.71 321.98 57.71C322.42 57.71 322.86 57.67 323.29 57.58C323.72 57.49 324.1 57.36 324.44 57.19C324.77 57.01 325.04 56.79 325.25 56.51C325.45 56.24 325.56 55.91 325.56 55.54C325.56 55.08 325.45 54.73 325.24 54.48C325.03 54.23 324.76 54.05 324.42 53.94C324.08 53.83 323.7 53.76 323.27 53.74C322.84 53.72 322.41 53.71 321.98 53.71C320.53 53.71 319.42 53.45 318.67 52.93C317.92 52.41 317.54 51.63 317.54 50.59C317.54 50.11 317.65 49.63 317.87 49.18C318.09 48.73 318.4 48.32 318.79 47.97C319.18 47.62 319.65 47.34 320.2 47.13C320.75 46.92 321.34 46.82 321.99 46.82C322.91 46.82 323.76 46.96 324.56 47.24C325.36 47.52 326.12 48.02 326.84 48.73L325.74 50.02C325.42 49.76 325.11 49.54 324.83 49.36C324.54 49.18 324.26 49.03 323.97 48.92C323.68 48.81 323.38 48.73 323.06 48.68C322.74 48.63 322.39 48.61 322 48.61C321.66 48.61 321.33 48.66 321.03 48.77C320.73 48.88 320.46 49.02 320.24 49.21C320.01 49.39 319.84 49.61 319.71 49.85C319.58 50.09 319.52 50.34 319.52 50.6C319.52 50.78 319.56 50.96 319.63 51.13C319.7 51.3 319.84 51.44 320.03 51.57C320.22 51.7 320.48 51.8 320.81 51.88C321.14 51.96 321.56 51.99 322.08 51.99C323.14 51.99 324 52.07 324.69 52.23C325.37 52.39 325.92 52.63 326.31 52.93C326.71 53.24 326.98 53.61 327.14 54.06C327.28 54.5 327.36 55 327.36 55.56Z" fill="#0CDDBA"/>
<defs>
<linearGradient id="paint0_linear" x1="0.122795" y1="63.2612" x2="112.644" y2="63.2612" gradientUnits="userSpaceOnUse">
<stop stop-color="#0EF0A4"/>
<stop offset="1" stop-color="#06AAF7"/>
</linearGradient>
<linearGradient id="paint1_linear" x1="11.3363" y1="30.9324" x2="101.43" y2="30.9324" gradientUnits="userSpaceOnUse">
<stop stop-color="#0EF0A4"/>
<stop offset="1" stop-color="#06AAF7"/>
</linearGradient>
<linearGradient id="paint2_linear" x1="9.67307" y1="10.4401" x2="86.65" y2="15.1488" gradientUnits="userSpaceOnUse">
<stop stop-color="#0EF0A4"/>
<stop offset="1" stop-color="#06AAF7"/>
</linearGradient>
<linearGradient id="paint3_linear" x1="9.73054" y1="9.50083" x2="86.7074" y2="14.2095" gradientUnits="userSpaceOnUse">
<stop stop-color="#0EF0A4"/>
<stop offset="1" stop-color="#06AAF7"/>
</linearGradient>
<linearGradient id="paint4_linear" x1="9.36847" y1="15.0584" x2="86.3454" y2="19.7671" gradientUnits="userSpaceOnUse">
<stop stop-color="#0EF0A4"/>
<stop offset="1" stop-color="#06AAF7"/>
</linearGradient>
<linearGradient id="paint5_linear" x1="9.44304" y1="13.84" x2="86.4199" y2="18.5487" gradientUnits="userSpaceOnUse">
<stop stop-color="#0EF0A4"/>
<stop offset="1" stop-color="#06AAF7"/>
</linearGradient>
<linearGradient id="paint6_linear" x1="9.06387" y1="19.6768" x2="86.0408" y2="24.3855" gradientUnits="userSpaceOnUse">
<stop stop-color="#0EF0A4"/>
<stop offset="1" stop-color="#06AAF7"/>
</linearGradient>
<linearGradient id="paint7_linear" x1="9.10744" y1="18.9649" x2="86.0843" y2="23.6736" gradientUnits="userSpaceOnUse">
<stop stop-color="#0EF0A4"/>
<stop offset="1" stop-color="#06AAF7"/>
</linearGradient>
<linearGradient id="paint8_linear" x1="9.18842" y1="17.6415" x2="86.1653" y2="22.3502" gradientUnits="userSpaceOnUse">
<stop stop-color="#0EF0A4"/>
<stop offset="1" stop-color="#06AAF7"/>
</linearGradient>
<linearGradient id="paint9_linear" x1="8.88807" y1="24.303" x2="85.865" y2="29.0116" gradientUnits="userSpaceOnUse">
<stop stop-color="#0EF0A4"/>
<stop offset="1" stop-color="#06AAF7"/>
</linearGradient>
<linearGradient id="paint10_linear" x1="8.92444" y1="23.7086" x2="85.9013" y2="28.4173" gradientUnits="userSpaceOnUse">
<stop stop-color="#0EF0A4"/>
<stop offset="1" stop-color="#06AAF7"/>
</linearGradient>
<linearGradient id="paint11_linear" x1="8.98794" y1="22.6713" x2="85.9648" y2="27.38" gradientUnits="userSpaceOnUse">
<stop stop-color="#0EF0A4"/>
<stop offset="1" stop-color="#06AAF7"/>
</linearGradient>
<linearGradient id="paint12_linear" x1="9.06461" y1="21.4176" x2="86.0415" y2="26.1263" gradientUnits="userSpaceOnUse">
<stop stop-color="#0EF0A4"/>
<stop offset="1" stop-color="#06AAF7"/>
</linearGradient>
<linearGradient id="paint13_linear" x1="8.61937" y1="28.9235" x2="85.5963" y2="33.6322" gradientUnits="userSpaceOnUse">
<stop stop-color="#0EF0A4"/>
<stop offset="1" stop-color="#06AAF7"/>
</linearGradient>
<linearGradient id="paint14_linear" x1="8.67684" y1="27.9842" x2="85.6537" y2="32.6929" gradientUnits="userSpaceOnUse">
<stop stop-color="#0EF0A4"/>
<stop offset="1" stop-color="#06AAF7"/>
</linearGradient>
<linearGradient id="paint15_linear" x1="8.78593" y1="26.2017" x2="85.7628" y2="30.9104" gradientUnits="userSpaceOnUse">
<stop stop-color="#0EF0A4"/>
<stop offset="1" stop-color="#06AAF7"/>
</linearGradient>
<linearGradient id="paint16_linear" x1="8.35247" y1="33.5441" x2="85.3294" y2="38.2528" gradientUnits="userSpaceOnUse">
<stop stop-color="#0EF0A4"/>
<stop offset="1" stop-color="#06AAF7"/>
</linearGradient>
<linearGradient id="paint17_linear" x1="8.42405" y1="32.3727" x2="85.4009" y2="37.0814" gradientUnits="userSpaceOnUse">
<stop stop-color="#0EF0A4"/>
<stop offset="1" stop-color="#06AAF7"/>
</linearGradient>
<linearGradient id="paint18_linear" x1="8.08547" y1="38.1647" x2="85.0624" y2="42.8734" gradientUnits="userSpaceOnUse">
<stop stop-color="#0EF0A4"/>
<stop offset="1" stop-color="#06AAF7"/>
</linearGradient>
<linearGradient id="paint19_linear" x1="8.12184" y1="37.5704" x2="85.0987" y2="42.279" gradientUnits="userSpaceOnUse">
<stop stop-color="#0EF0A4"/>
<stop offset="1" stop-color="#06AAF7"/>
</linearGradient>
<linearGradient id="paint20_linear" x1="8.18534" y1="36.5331" x2="85.1622" y2="41.2417" gradientUnits="userSpaceOnUse">
<stop stop-color="#0EF0A4"/>
<stop offset="1" stop-color="#06AAF7"/>
</linearGradient>
<linearGradient id="paint21_linear" x1="8.2488" y1="35.4958" x2="85.2256" y2="40.2045" gradientUnits="userSpaceOnUse">
<stop stop-color="#0EF0A4"/>
<stop offset="1" stop-color="#06AAF7"/>
</linearGradient>
<linearGradient id="paint22_linear" x1="7.68107" y1="42.7769" x2="84.658" y2="47.4856" gradientUnits="userSpaceOnUse">
<stop stop-color="#0EF0A4"/>
<stop offset="1" stop-color="#06AAF7"/>
</linearGradient>
<linearGradient id="paint23_linear" x1="7.62106" y1="41.8376" x2="84.5979" y2="46.5463" gradientUnits="userSpaceOnUse">
<stop stop-color="#0EF0A4"/>
<stop offset="1" stop-color="#06AAF7"/>
</linearGradient>
<linearGradient id="paint24_linear" x1="7.73014" y1="40.0552" x2="84.707" y2="44.7639" gradientUnits="userSpaceOnUse">
<stop stop-color="#0EF0A4"/>
<stop offset="1" stop-color="#06AAF7"/>
</linearGradient>
<linearGradient id="paint25_linear" x1="7.67497" y1="47.4135" x2="84.6519" y2="52.1222" gradientUnits="userSpaceOnUse">
<stop stop-color="#0EF0A4"/>
<stop offset="1" stop-color="#06AAF7"/>
</linearGradient>
<linearGradient id="paint26_linear" x1="7.74664" y1="46.2413" x2="84.7235" y2="50.95" gradientUnits="userSpaceOnUse">
<stop stop-color="#0EF0A4"/>
<stop offset="1" stop-color="#06AAF7"/>
</linearGradient>
<linearGradient id="paint27_linear" x1="7.28227" y1="52.0265" x2="84.2592" y2="56.7352" gradientUnits="userSpaceOnUse">
<stop stop-color="#0EF0A4"/>
<stop offset="1" stop-color="#06AAF7"/>
</linearGradient>
<linearGradient id="paint28_linear" x1="7.31864" y1="51.4312" x2="84.2955" y2="56.1399" gradientUnits="userSpaceOnUse">
<stop stop-color="#0EF0A4"/>
<stop offset="1" stop-color="#06AAF7"/>
</linearGradient>
<linearGradient id="paint29_linear" x1="7.38215" y1="50.393" x2="84.359" y2="55.1017" gradientUnits="userSpaceOnUse">
<stop stop-color="#0EF0A4"/>
<stop offset="1" stop-color="#06AAF7"/>
</linearGradient>
<linearGradient id="paint30_linear" x1="7.44516" y1="49.365" x2="84.422" y2="54.0737" gradientUnits="userSpaceOnUse">
<stop stop-color="#0EF0A4"/>
<stop offset="1" stop-color="#06AAF7"/>
</linearGradient>
</defs>
</svg>
