<svg width="645" height="332" viewBox="0 0 645 332" fill="none" xmlns="http://www.w3.org/2000/svg">
<rect width="645" height="332" fill="white"/>
<g clip-path="url(#clip0)">
<g filter="url(#filter0_d)">
<rect x="46" y="28" width="554" height="275" fill="#272722"/>
<rect x="46.5" y="28.5" width="553" height="274" stroke="black"/>
</g>
<path d="M133.39 64.0649L141.744 67.2368V70.6777L129.892 65.396V62.6631L141.744 57.3955V60.8364L133.39 64.0649ZM146.034 65.2261C146.034 62.866 146.581 60.9733 147.676 59.5479C148.771 58.113 150.239 57.3955 152.08 57.3955C153.704 57.3955 155.016 57.9619 156.016 59.0947V51.25H159.457V73H156.342L156.172 71.4141C155.143 72.6602 153.77 73.2832 152.052 73.2832C150.258 73.2832 148.804 72.561 147.69 71.1167C146.586 69.6724 146.034 67.7088 146.034 65.2261ZM149.474 65.5234C149.474 67.0811 149.772 68.2988 150.367 69.1768C150.971 70.0452 151.825 70.4795 152.93 70.4795C154.336 70.4795 155.365 69.8517 156.016 68.5962V62.0542C155.384 60.827 154.364 60.2134 152.958 60.2134C151.844 60.2134 150.985 60.6571 150.381 61.5444C149.777 62.4224 149.474 63.7487 149.474 65.5234ZM167.867 73H164.426V57.6787H167.867V73ZM164.214 53.6997C164.214 53.1711 164.379 52.7321 164.71 52.3828C165.049 52.0335 165.531 51.8589 166.154 51.8589C166.777 51.8589 167.258 52.0335 167.598 52.3828C167.938 52.7321 168.108 53.1711 168.108 53.6997C168.108 54.2189 167.938 54.6532 167.598 55.0024C167.258 55.3423 166.777 55.5122 166.154 55.5122C165.531 55.5122 165.049 55.3423 164.71 55.0024C164.379 54.6532 164.214 54.2189 164.214 53.6997ZM178.189 68.6387L181.432 57.6787H184.986L179.676 73H176.688L171.335 57.6787H174.904L178.189 68.6387ZM197.106 63.9941L188.355 60.7798V57.3955L200.589 62.6631V65.396L188.355 70.6636V67.2793L197.106 63.9941ZM192.061 98.0649L200.416 101.237V104.678L188.564 99.396V96.6631L200.416 91.3955V94.8364L192.061 98.0649ZM218.766 99.4951C218.766 101.865 218.228 103.757 217.152 105.173C216.076 106.58 214.632 107.283 212.819 107.283C211.139 107.283 209.794 106.731 208.783 105.626V112.891H205.342V91.6787H208.514L208.656 93.2363C209.666 92.0091 211.04 91.3955 212.777 91.3955C214.646 91.3955 216.109 92.0941 217.166 93.4912C218.233 94.8789 218.766 96.8094 218.766 99.2827V99.4951ZM215.34 99.1978C215.34 97.6685 215.033 96.4554 214.419 95.5586C213.815 94.6618 212.947 94.2134 211.814 94.2134C210.407 94.2134 209.397 94.7939 208.783 95.9551V102.752C209.406 103.941 210.426 104.536 211.842 104.536C212.937 104.536 213.791 104.097 214.405 103.219C215.028 102.332 215.34 100.991 215.34 99.1978ZM231.651 97.9941L222.9 94.7798V91.3955L235.134 96.6631V99.396L222.9 104.664V101.279L231.651 97.9941ZM233.97 132.065L242.324 135.237V138.678L230.472 133.396V130.663L242.324 125.396V128.836L233.97 132.065ZM255.846 136.837C255.846 136.223 255.591 135.756 255.081 135.435C254.581 135.114 253.746 134.831 252.575 134.585C251.405 134.34 250.427 134.028 249.644 133.651C247.926 132.82 247.067 131.617 247.067 130.04C247.067 128.718 247.624 127.614 248.738 126.727C249.852 125.839 251.268 125.396 252.986 125.396C254.817 125.396 256.295 125.849 257.418 126.755C258.551 127.661 259.117 128.836 259.117 130.281H255.676C255.676 129.62 255.431 129.072 254.94 128.638C254.449 128.194 253.798 127.973 252.986 127.973C252.231 127.973 251.612 128.147 251.131 128.497C250.659 128.846 250.423 129.313 250.423 129.898C250.423 130.427 250.645 130.838 251.088 131.13C251.532 131.423 252.429 131.72 253.779 132.022C255.129 132.315 256.186 132.669 256.951 133.084C257.725 133.49 258.296 133.981 258.664 134.557C259.042 135.133 259.23 135.832 259.23 136.653C259.23 138.031 258.659 139.15 257.517 140.009C256.375 140.858 254.879 141.283 253.028 141.283C251.773 141.283 250.654 141.057 249.672 140.604C248.691 140.15 247.926 139.527 247.378 138.734C246.831 137.941 246.557 137.087 246.557 136.171H249.899C249.946 136.983 250.253 137.611 250.819 138.055C251.386 138.489 252.136 138.706 253.071 138.706C253.977 138.706 254.666 138.536 255.138 138.196C255.61 137.847 255.846 137.394 255.846 136.837ZM267.711 121.955V125.679H270.416V128.228H267.711V136.78C267.711 137.366 267.824 137.79 268.051 138.055C268.287 138.31 268.702 138.437 269.297 138.437C269.694 138.437 270.095 138.39 270.501 138.295V140.958C269.717 141.175 268.962 141.283 268.235 141.283C265.592 141.283 264.27 139.825 264.27 136.908V128.228H261.75V125.679H264.27V121.955H267.711ZM282.238 128.822C281.785 128.747 281.318 128.709 280.837 128.709C279.26 128.709 278.198 129.313 277.65 130.521V141H274.21V125.679H277.495L277.58 127.392C278.41 126.061 279.562 125.396 281.035 125.396C281.526 125.396 281.932 125.462 282.253 125.594L282.238 128.822ZM284.418 133.198C284.418 131.697 284.715 130.347 285.31 129.148C285.905 127.94 286.74 127.014 287.816 126.373C288.893 125.721 290.129 125.396 291.526 125.396C293.594 125.396 295.269 126.061 296.553 127.392C297.846 128.723 298.545 130.488 298.649 132.688L298.663 133.495C298.663 135.006 298.37 136.355 297.785 137.545C297.209 138.734 296.379 139.655 295.293 140.306C294.217 140.958 292.971 141.283 291.555 141.283C289.393 141.283 287.661 140.566 286.358 139.131C285.065 137.687 284.418 135.765 284.418 133.368V133.198ZM287.859 133.495C287.859 135.072 288.185 136.308 288.836 137.205C289.487 138.092 290.393 138.536 291.555 138.536C292.716 138.536 293.617 138.083 294.259 137.177C294.911 136.271 295.236 134.944 295.236 133.198C295.236 131.65 294.901 130.422 294.231 129.516C293.57 128.61 292.669 128.157 291.526 128.157C290.403 128.157 289.511 128.605 288.85 129.502C288.189 130.389 287.859 131.72 287.859 133.495ZM305.926 125.679L306.025 127.449C307.158 126.08 308.645 125.396 310.486 125.396C313.676 125.396 315.3 127.222 315.357 130.875V141H311.916V131.074C311.916 130.101 311.703 129.384 311.279 128.921C310.863 128.449 310.179 128.213 309.225 128.213C307.838 128.213 306.804 128.841 306.124 130.097V141H302.683V125.679H305.926ZM319.434 133.226C319.434 130.847 319.991 128.95 321.105 127.534C322.228 126.108 323.715 125.396 325.565 125.396C327.311 125.396 328.685 126.004 329.686 127.222L329.841 125.679H332.943V140.533C332.943 142.543 332.315 144.129 331.059 145.291C329.813 146.452 328.128 147.032 326.004 147.032C324.881 147.032 323.781 146.796 322.705 146.324C321.638 145.862 320.826 145.253 320.269 144.498L321.898 142.43C322.955 143.686 324.258 144.313 325.806 144.313C326.948 144.313 327.85 144.002 328.51 143.379C329.171 142.765 329.502 141.859 329.502 140.66V139.626C328.51 140.731 327.189 141.283 325.537 141.283C323.743 141.283 322.275 140.57 321.133 139.145C320 137.72 319.434 135.747 319.434 133.226ZM322.86 133.523C322.86 135.062 323.172 136.275 323.795 137.163C324.428 138.041 325.301 138.479 326.415 138.479C327.802 138.479 328.831 137.885 329.502 136.695V129.955C328.85 128.794 327.831 128.213 326.443 128.213C325.31 128.213 324.428 128.662 323.795 129.559C323.172 130.455 322.86 131.777 322.86 133.523ZM346.45 131.994L337.699 128.78V125.396L349.934 130.663V133.396L337.699 138.664V135.279L346.45 131.994ZM233.97 200.065L242.324 203.237V206.678L230.472 201.396V198.663L242.324 193.396V196.836L233.97 200.065ZM248.228 210.77H245.523L253.637 188.383H256.342L248.228 210.77ZM268.476 204.837C268.476 204.223 268.221 203.756 267.711 203.435C267.211 203.114 266.375 202.831 265.205 202.585C264.034 202.34 263.057 202.028 262.274 201.651C260.556 200.82 259.697 199.617 259.697 198.04C259.697 196.718 260.254 195.614 261.367 194.727C262.481 193.839 263.897 193.396 265.615 193.396C267.447 193.396 268.924 193.849 270.048 194.755C271.18 195.661 271.747 196.836 271.747 198.281H268.306C268.306 197.62 268.06 197.072 267.57 196.638C267.079 196.194 266.427 195.973 265.615 195.973C264.86 195.973 264.242 196.147 263.761 196.497C263.289 196.846 263.053 197.313 263.053 197.898C263.053 198.427 263.274 198.838 263.718 199.13C264.162 199.423 265.059 199.72 266.408 200.022C267.758 200.315 268.816 200.669 269.58 201.084C270.354 201.49 270.926 201.981 271.294 202.557C271.671 203.133 271.86 203.832 271.86 204.653C271.86 206.031 271.289 207.15 270.147 208.009C269.004 208.858 267.508 209.283 265.658 209.283C264.402 209.283 263.284 209.057 262.302 208.604C261.32 208.15 260.556 207.527 260.008 206.734C259.461 205.941 259.187 205.087 259.187 204.171H262.529C262.576 204.983 262.883 205.611 263.449 206.055C264.015 206.489 264.766 206.706 265.7 206.706C266.607 206.706 267.296 206.536 267.768 206.196C268.24 205.847 268.476 205.394 268.476 204.837ZM280.341 189.955V193.679H283.046V196.228H280.341V204.78C280.341 205.366 280.454 205.79 280.681 206.055C280.917 206.31 281.332 206.437 281.927 206.437C282.323 206.437 282.725 206.39 283.13 206.295V208.958C282.347 209.175 281.592 209.283 280.865 209.283C278.222 209.283 276.9 207.825 276.9 204.908V196.228H274.379V193.679H276.9V189.955H280.341ZM294.868 196.822C294.415 196.747 293.948 196.709 293.466 196.709C291.89 196.709 290.828 197.313 290.28 198.521V209H286.839V193.679H290.124L290.209 195.392C291.04 194.061 292.192 193.396 293.664 193.396C294.155 193.396 294.561 193.462 294.882 193.594L294.868 196.822ZM297.048 201.198C297.048 199.697 297.345 198.347 297.94 197.148C298.534 195.94 299.37 195.014 300.446 194.373C301.522 193.721 302.759 193.396 304.156 193.396C306.223 193.396 307.899 194.061 309.183 195.392C310.476 196.723 311.175 198.488 311.279 200.688L311.293 201.495C311.293 203.006 311 204.355 310.415 205.545C309.839 206.734 309.008 207.655 307.923 208.306C306.846 208.958 305.6 209.283 304.184 209.283C302.023 209.283 300.29 208.566 298.988 207.131C297.694 205.687 297.048 203.765 297.048 201.368V201.198ZM300.489 201.495C300.489 203.072 300.814 204.308 301.466 205.205C302.117 206.092 303.023 206.536 304.184 206.536C305.345 206.536 306.247 206.083 306.889 205.177C307.54 204.271 307.866 202.944 307.866 201.198C307.866 199.65 307.531 198.422 306.861 197.516C306.2 196.61 305.298 196.157 304.156 196.157C303.033 196.157 302.141 196.605 301.48 197.502C300.819 198.389 300.489 199.72 300.489 201.495ZM318.556 193.679L318.655 195.449C319.788 194.08 321.275 193.396 323.115 193.396C326.306 193.396 327.93 195.222 327.986 198.875V209H324.546V199.074C324.546 198.101 324.333 197.384 323.908 196.921C323.493 196.449 322.809 196.213 321.855 196.213C320.467 196.213 319.434 196.841 318.754 198.097V209H315.313V193.679H318.556ZM332.063 201.226C332.063 198.847 332.62 196.95 333.734 195.534C334.858 194.108 336.345 193.396 338.195 193.396C339.941 193.396 341.315 194.004 342.315 195.222L342.471 193.679H345.572V208.533C345.572 210.543 344.944 212.129 343.689 213.291C342.443 214.452 340.758 215.032 338.634 215.032C337.51 215.032 336.411 214.796 335.334 214.324C334.268 213.862 333.456 213.253 332.899 212.498L334.527 210.43C335.585 211.686 336.887 212.313 338.436 212.313C339.578 212.313 340.479 212.002 341.14 211.379C341.801 210.765 342.131 209.859 342.131 208.66V207.626C341.14 208.731 339.818 209.283 338.166 209.283C336.373 209.283 334.905 208.57 333.763 207.145C332.63 205.72 332.063 203.747 332.063 201.226ZM335.49 201.523C335.49 203.062 335.802 204.275 336.425 205.163C337.057 206.041 337.93 206.479 339.044 206.479C340.432 206.479 341.461 205.885 342.131 204.695V197.955C341.48 196.794 340.46 196.213 339.073 196.213C337.94 196.213 337.057 196.662 336.425 197.559C335.802 198.455 335.49 199.777 335.49 201.523ZM359.08 199.994L350.329 196.78V193.396L362.563 198.663V201.396L350.329 206.664V203.279L359.08 199.994ZM192.061 234.065L200.416 237.237V240.678L188.564 235.396V232.663L200.416 227.396V230.836L192.061 234.065ZM206.32 244.77H203.615L211.729 222.383H214.433L206.32 244.77ZM231.396 235.495C231.396 237.865 230.858 239.757 229.782 241.173C228.706 242.58 227.261 243.283 225.449 243.283C223.768 243.283 222.423 242.731 221.413 241.626V248.891H217.972V227.679H221.144L221.286 229.236C222.296 228.009 223.669 227.396 225.406 227.396C227.275 227.396 228.739 228.094 229.796 229.491C230.863 230.879 231.396 232.809 231.396 235.283V235.495ZM227.969 235.198C227.969 233.668 227.662 232.455 227.049 231.559C226.445 230.662 225.576 230.213 224.443 230.213C223.037 230.213 222.027 230.794 221.413 231.955V238.752C222.036 239.941 223.056 240.536 224.472 240.536C225.567 240.536 226.421 240.097 227.035 239.219C227.658 238.332 227.969 236.991 227.969 235.198ZM244.281 233.994L235.53 230.78V227.396L247.764 232.663V235.396L235.53 240.664V237.279L244.281 233.994ZM133.39 268.065L141.744 271.237V274.678L129.892 269.396V266.663L141.744 261.396V264.836L133.39 268.065ZM147.648 278.77H144.943L153.057 256.383H155.762L147.648 278.77ZM158.663 269.226C158.663 266.866 159.211 264.973 160.306 263.548C161.401 262.113 162.869 261.396 164.71 261.396C166.333 261.396 167.646 261.962 168.646 263.095V255.25H172.087V277H168.972L168.802 275.414C167.773 276.66 166.399 277.283 164.681 277.283C162.888 277.283 161.434 276.561 160.32 275.117C159.216 273.672 158.663 271.709 158.663 269.226ZM162.104 269.523C162.104 271.081 162.402 272.299 162.996 273.177C163.6 274.045 164.455 274.479 165.559 274.479C166.966 274.479 167.995 273.852 168.646 272.596V266.054C168.014 264.827 166.994 264.213 165.588 264.213C164.474 264.213 163.615 264.657 163.01 265.544C162.406 266.422 162.104 267.749 162.104 269.523ZM180.497 277H177.056V261.679H180.497V277ZM176.844 257.7C176.844 257.171 177.009 256.732 177.339 256.383C177.679 256.034 178.161 255.859 178.784 255.859C179.407 255.859 179.888 256.034 180.228 256.383C180.568 256.732 180.738 257.171 180.738 257.7C180.738 258.219 180.568 258.653 180.228 259.002C179.888 259.342 179.407 259.512 178.784 259.512C178.161 259.512 177.679 259.342 177.339 259.002C177.009 258.653 176.844 258.219 176.844 257.7ZM190.819 272.639L194.061 261.679H197.616L192.306 277H189.318L183.965 261.679H187.534L190.819 272.639ZM209.736 267.994L200.985 264.78V261.396L213.219 266.663V269.396L200.985 274.664V271.279L209.736 267.994Z" fill="#2DB34A"/>
<path d="M298.179 154.383V175H294.611V157.271H288.296L287.927 165.244C287.786 167.736 287.479 169.671 287.007 171.049C286.544 172.418 285.869 173.419 284.982 174.051C284.095 174.684 282.905 175 281.414 175H280.507V172.14L281.074 172.097C281.895 172.022 282.528 171.734 282.971 171.233C283.424 170.733 283.764 169.978 283.991 168.968C284.227 167.948 284.392 166.452 284.486 164.479L284.883 154.383H298.179ZM307.057 165.838H309.945C310.2 163.884 310.955 162.322 312.211 161.151C313.466 159.981 315.052 159.396 316.969 159.396C319.036 159.396 320.712 160.061 321.996 161.392C323.289 162.723 323.987 164.488 324.091 166.688L324.105 167.495C324.105 169.006 323.813 170.355 323.227 171.545C322.652 172.734 321.821 173.655 320.735 174.306C319.659 174.958 318.413 175.283 316.997 175.283C315.015 175.283 313.386 174.67 312.112 173.442C310.847 172.215 310.115 170.601 309.917 168.6H307.057V175H303.616V159.679H307.057V165.838ZM313.301 167.495C313.301 169.072 313.627 170.308 314.278 171.205C314.93 172.092 315.836 172.536 316.997 172.536C318.158 172.536 319.06 172.083 319.702 171.177C320.344 170.271 320.665 168.944 320.665 167.198C320.665 165.621 320.329 164.389 319.659 163.502C318.998 162.605 318.102 162.157 316.969 162.157C315.845 162.157 314.953 162.605 314.292 163.502C313.632 164.389 313.301 165.72 313.301 167.495ZM335.319 160.528C337.245 160.528 338.788 161.175 339.95 162.468C341.111 163.752 341.691 165.499 341.691 167.708V167.877C341.691 170.086 341.059 171.875 339.794 173.244C338.538 174.613 336.83 175.297 334.668 175.297C332.563 175.297 330.863 174.599 329.57 173.202C328.277 171.805 327.63 169.898 327.63 167.481V166.49C327.63 163.186 328.215 160.571 329.386 158.645C330.557 156.719 332.303 155.516 334.625 155.034C335.928 154.77 336.768 154.491 337.146 154.199C337.533 153.897 337.726 153.491 337.726 152.981H340.502C340.502 153.934 340.346 154.708 340.034 155.303C339.723 155.898 339.246 156.384 338.604 156.762C337.962 157.13 336.858 157.479 335.291 157.81C333.856 158.112 332.761 158.65 332.006 159.424C331.26 160.198 330.76 161.269 330.505 162.638C331.873 161.232 333.478 160.528 335.319 160.528ZM334.639 163.29C333.526 163.29 332.652 163.667 332.02 164.422C331.387 165.168 331.071 166.32 331.071 167.877C331.071 169.35 331.383 170.497 332.006 171.318C332.629 172.14 333.516 172.55 334.668 172.55C335.81 172.55 336.693 172.14 337.316 171.318C337.948 170.488 338.264 169.242 338.264 167.58C338.264 166.258 337.948 165.215 337.316 164.451C336.693 163.677 335.801 163.29 334.639 163.29ZM344.904 167.198C344.904 165.697 345.202 164.347 345.797 163.148C346.391 161.94 347.227 161.014 348.303 160.373C349.379 159.721 350.616 159.396 352.013 159.396C354.08 159.396 355.756 160.061 357.04 161.392C358.333 162.723 359.032 164.488 359.135 166.688L359.15 167.495C359.15 169.006 358.857 170.355 358.272 171.545C357.696 172.734 356.865 173.655 355.779 174.306C354.703 174.958 353.457 175.283 352.041 175.283C349.879 175.283 348.147 174.566 346.844 173.131C345.551 171.687 344.904 169.765 344.904 167.368V167.198ZM348.345 167.495C348.345 169.072 348.671 170.308 349.322 171.205C349.974 172.092 350.88 172.536 352.041 172.536C353.202 172.536 354.104 172.083 354.746 171.177C355.397 170.271 355.723 168.944 355.723 167.198C355.723 165.65 355.388 164.422 354.717 163.516C354.057 162.61 353.155 162.157 352.013 162.157C350.889 162.157 349.997 162.605 349.337 163.502C348.676 164.389 348.345 165.72 348.345 167.495ZM372.785 159.679H376.211V175H372.785V164.776L366.781 175H363.354V159.679H366.781V169.902L372.785 159.679ZM374.399 153.802C374.399 154.992 373.984 155.955 373.153 156.691C372.322 157.427 371.213 157.795 369.825 157.795C368.437 157.795 367.328 157.427 366.498 156.691C365.667 155.955 365.251 154.992 365.251 153.802H367.829C367.829 154.425 368.003 154.911 368.353 155.261C368.711 155.601 369.202 155.771 369.825 155.771C370.448 155.771 370.934 155.601 371.284 155.261C371.633 154.911 371.808 154.425 371.808 153.802H374.399ZM401.471 162.412H396.501V175H393.06V162.412H388.146V159.679H401.471V162.412ZM410.773 175.283C408.592 175.283 406.822 174.599 405.463 173.23C404.113 171.852 403.438 170.02 403.438 167.736V167.311C403.438 165.782 403.731 164.418 404.316 163.219C404.911 162.01 405.741 161.071 406.808 160.401C407.875 159.731 409.064 159.396 410.376 159.396C412.463 159.396 414.072 160.061 415.205 161.392C416.347 162.723 416.918 164.606 416.918 167.042V168.43H406.907C407.011 169.695 407.431 170.695 408.167 171.432C408.913 172.168 409.848 172.536 410.971 172.536C412.548 172.536 413.832 171.899 414.823 170.625L416.678 172.395C416.064 173.31 415.243 174.023 414.214 174.533C413.194 175.033 412.047 175.283 410.773 175.283ZM410.362 162.157C409.418 162.157 408.654 162.487 408.068 163.148C407.493 163.809 407.124 164.729 406.964 165.909H413.52V165.654C413.444 164.503 413.138 163.634 412.6 163.049C412.062 162.454 411.316 162.157 410.362 162.157ZM426.206 168.939H424.465V175H421.024V159.679H424.465V165.796H425.98L430.214 159.679H434.462L428.925 167.014L434.929 175H430.454L426.206 168.939ZM444.047 172.536C444.906 172.536 445.619 172.286 446.185 171.786C446.752 171.285 447.054 170.667 447.091 169.931H450.334C450.296 170.884 449.999 171.776 449.442 172.607C448.885 173.428 448.13 174.08 447.176 174.561C446.223 175.042 445.194 175.283 444.09 175.283C441.947 175.283 440.247 174.589 438.992 173.202C437.736 171.814 437.109 169.898 437.109 167.453V167.099C437.109 164.767 437.732 162.903 438.978 161.505C440.224 160.099 441.923 159.396 444.075 159.396C445.897 159.396 447.379 159.929 448.522 160.996C449.673 162.053 450.278 163.445 450.334 165.173H447.091C447.054 164.295 446.752 163.573 446.185 163.006C445.628 162.44 444.916 162.157 444.047 162.157C442.933 162.157 442.074 162.563 441.47 163.375C440.866 164.177 440.559 165.399 440.549 167.042V167.594C440.549 169.256 440.847 170.497 441.442 171.318C442.046 172.13 442.914 172.536 444.047 172.536ZM466.15 162.412H461.18V175H457.739V162.412H452.825V159.679H466.15V162.412Z" fill="white"/>
<line x1="174" y1="98" x2="187" y2="98" stroke="#FF6603" stroke-width="2"/>
<line x1="216" y1="132" x2="229" y2="132" stroke="#FF6603" stroke-width="2"/>
<line x1="216" y1="200" x2="229" y2="200" stroke="#FF6603" stroke-width="2"/>
<line x1="115" y1="64" x2="128" y2="64" stroke="#FF6603" stroke-width="2"/>
<line x1="115" y1="268" x2="128" y2="268" stroke="#FF6603" stroke-width="2"/>
<line x1="174" y1="234" x2="187" y2="234" stroke="#FF6603" stroke-width="2"/>
<line x1="175" y1="97" x2="175" y2="235" stroke="#FF6603" stroke-width="2"/>
<line x1="217" y1="131" x2="217" y2="201" stroke="#FF6603" stroke-width="2"/>
<line x1="116" y1="63" x2="116" y2="269" stroke="#FF6603" stroke-width="2"/>
</g>
<defs>
<filter id="filter0_d" x="41" y="23" width="574" height="295" filterUnits="userSpaceOnUse" color-interpolation-filters="sRGB">
<feFlood flood-opacity="0" result="BackgroundImageFix"/>
<feColorMatrix in="SourceAlpha" type="matrix" values="0 0 0 0 0 0 0 0 0 0 0 0 0 0 0 0 0 0 127 0"/>
<feOffset dx="5" dy="5"/>
<feGaussianBlur stdDeviation="5"/>
<feColorMatrix type="matrix" values="0 0 0 0 0 0 0 0 0 0 0 0 0 0 0 0 0 0 0.25 0"/>
<feBlend mode="normal" in2="BackgroundImageFix" result="effect1_dropShadow"/>
<feBlend mode="normal" in="SourceGraphic" in2="effect1_dropShadow" result="shape"/>
</filter>
<clipPath id="clip0">
<rect width="596" height="301" fill="white" transform="translate(30 15)"/>
</clipPath>
</defs>
</svg>
