<svg width="700" height="315" viewBox="0 0 700 315" fill="none" xmlns="http://www.w3.org/2000/svg">
<rect width="700" height="315" fill="white"/>
<g filter="url(#filter0_d)">
<rect x="47" y="104" width="625" height="110" fill="#272722"/>
<rect x="47.5" y="104.5" width="624" height="109" stroke="black"/>
</g>
<path d="M139.568 161.595L153.973 167.063V172.996L133.538 163.89V159.178L153.973 150.096V156.028L139.568 161.595ZM168.326 153.465C170.263 151.219 172.713 150.096 175.675 150.096C181.306 150.096 184.163 153.31 184.244 159.739V177H178.312V159.959C178.312 158.136 177.913 156.85 177.115 156.102C176.334 155.337 175.178 154.954 173.648 154.954C171.272 154.954 169.498 156.012 168.326 158.128V177H162.394V139.5H168.326V153.465ZM199.696 144.163V150.584H204.359V154.979H199.696V169.725C199.696 170.734 199.892 171.466 200.282 171.922C200.689 172.361 201.405 172.581 202.431 172.581C203.114 172.581 203.806 172.5 204.506 172.337V176.927C203.155 177.301 201.853 177.488 200.6 177.488C196.042 177.488 193.764 174.974 193.764 169.944V154.979H189.418V150.584H193.764V144.163H199.696ZM216.491 150.584L216.662 153.343C218.518 151.178 221.057 150.096 224.279 150.096C227.811 150.096 230.228 151.447 231.53 154.148C233.451 151.447 236.153 150.096 239.636 150.096C242.549 150.096 244.714 150.901 246.13 152.513C247.562 154.124 248.295 156.5 248.327 159.642V177H242.395V159.812C242.395 158.136 242.028 156.907 241.296 156.126C240.563 155.345 239.351 154.954 237.658 154.954C236.307 154.954 235.201 155.32 234.338 156.053C233.492 156.769 232.897 157.713 232.556 158.885L232.58 177H226.647V159.617C226.566 156.508 224.979 154.954 221.887 154.954C219.51 154.954 217.826 155.923 216.833 157.859V177H210.9V150.584H216.491ZM262.729 177H256.797V139.5H262.729V177ZM286.385 161.473L271.297 155.931V150.096L292.391 159.178V163.89L271.297 172.972V167.137L286.385 161.473ZM409.465 161.595L423.869 167.063V172.996L403.435 163.89V159.178L423.869 150.096V156.028L409.465 161.595ZM434.048 180.052H429.385L443.374 141.453H448.037L434.048 180.052ZM459.998 153.465C461.935 151.219 464.384 150.096 467.347 150.096C472.978 150.096 475.835 153.31 475.916 159.739V177H469.983V159.959C469.983 158.136 469.585 156.85 468.787 156.102C468.006 155.337 466.85 154.954 465.32 154.954C462.944 154.954 461.17 156.012 459.998 158.128V177H454.065V139.5H459.998V153.465ZM491.368 144.163V150.584H496.031V154.979H491.368V169.725C491.368 170.734 491.563 171.466 491.954 171.922C492.361 172.361 493.077 172.581 494.103 172.581C494.786 172.581 495.478 172.5 496.178 172.337V176.927C494.827 177.301 493.525 177.488 492.271 177.488C487.714 177.488 485.436 174.974 485.436 169.944V154.979H481.09V150.584H485.436V144.163H491.368ZM508.163 150.584L508.334 153.343C510.189 151.178 512.729 150.096 515.951 150.096C519.483 150.096 521.9 151.447 523.202 154.148C525.123 151.447 527.825 150.096 531.308 150.096C534.221 150.096 536.386 150.901 537.802 152.513C539.234 154.124 539.966 156.5 539.999 159.642V177H534.066V159.812C534.066 158.136 533.7 156.907 532.968 156.126C532.235 155.345 531.023 154.954 529.33 154.954C527.979 154.954 526.872 155.32 526.01 156.053C525.163 156.769 524.569 157.713 524.228 158.885L524.252 177H518.319V159.617C518.238 156.508 516.651 154.954 513.559 154.954C511.182 154.954 509.498 155.923 508.505 157.859V177H502.572V150.584H508.163ZM554.401 177H548.469V139.5H554.401V177ZM578.057 161.473L562.969 155.931V150.096L584.062 159.178V163.89L562.969 172.972V167.137L578.057 161.473Z" fill="#2DB34A"/>
<path d="M331.838 170.75C332.945 170.75 333.799 171.067 334.401 171.702C335.004 172.321 335.305 173.102 335.305 174.046C335.305 174.974 335.004 175.747 334.401 176.365C333.799 176.967 332.945 177.269 331.838 177.269C330.78 177.269 329.942 176.967 329.323 176.365C328.705 175.763 328.396 174.99 328.396 174.046C328.396 173.102 328.697 172.321 329.299 171.702C329.901 171.067 330.747 170.75 331.838 170.75ZM347.803 170.75C348.91 170.75 349.764 171.067 350.366 171.702C350.968 172.321 351.27 173.102 351.27 174.046C351.27 174.974 350.968 175.747 350.366 176.365C349.764 176.967 348.91 177.269 347.803 177.269C346.745 177.269 345.907 176.967 345.288 176.365C344.67 175.763 344.36 174.99 344.36 174.046C344.36 173.102 344.661 172.321 345.264 171.702C345.866 171.067 346.712 170.75 347.803 170.75ZM363.768 170.75C364.874 170.75 365.729 171.067 366.331 171.702C366.933 172.321 367.234 173.102 367.234 174.046C367.234 174.974 366.933 175.747 366.331 176.365C365.729 176.967 364.874 177.269 363.768 177.269C362.71 177.269 361.871 176.967 361.253 176.365C360.634 175.763 360.325 174.99 360.325 174.046C360.325 173.102 360.626 172.321 361.229 171.702C361.831 171.067 362.677 170.75 363.768 170.75Z" fill="white"/>
<line x1="319.5" y1="133" x2="319.5" y2="120" stroke="#FF6603" stroke-width="3"/>
<line x1="376.5" y1="134" x2="376.5" y2="121" stroke="#FF6603" stroke-width="3"/>
<line x1="157.5" y1="134" x2="157.5" y2="121" stroke="#FF6603" stroke-width="3"/>
<line x1="134.5" y1="193" x2="134.5" y2="180" stroke="#FF6603" stroke-width="3"/>
<line x1="289.5" y1="193" x2="289.5" y2="180" stroke="#FF6603" stroke-width="3"/>
<line x1="405.5" y1="193" x2="405.5" y2="180" stroke="#FF6603" stroke-width="3"/>
<line x1="581.5" y1="193" x2="581.5" y2="180" stroke="#FF6603" stroke-width="3"/>
<line x1="268.5" y1="134" x2="268.5" y2="121" stroke="#FF6603" stroke-width="3"/>
<line x1="156" y1="119.5" x2="270" y2="119.5" stroke="#FF6603" stroke-width="3"/>
<line x1="133" y1="194.5" x2="291" y2="194.5" stroke="#FF6603" stroke-width="3"/>
<line x1="404" y1="194.5" x2="583" y2="194.5" stroke="#FF6603" stroke-width="3"/>
<line x1="318" y1="119.5" x2="378" y2="119.5" stroke="#FF6603" stroke-width="3"/>
<rect x="47" y="12" width="197" height="43" rx="5" fill="#FF6603"/>
<rect x="318" y="12" width="197" height="43" rx="5" fill="#FF6603"/>
<path d="M363.295 35.3711C363.152 36.888 362.592 38.0729 361.615 38.9258C360.639 39.7721 359.34 40.1953 357.719 40.1953C356.586 40.1953 355.587 39.9284 354.721 39.3945C353.861 38.8542 353.197 38.0892 352.729 37.0996C352.26 36.11 352.016 34.9609 351.996 33.6523V32.3242C351.996 30.9831 352.234 29.8014 352.709 28.7793C353.184 27.7572 353.865 26.9694 354.75 26.416C355.642 25.8626 356.671 25.5859 357.836 25.5859C359.405 25.5859 360.668 26.0124 361.625 26.8652C362.582 27.7181 363.139 28.9225 363.295 30.4785H360.834C360.717 29.4564 360.417 28.7207 359.936 28.2715C359.46 27.8158 358.76 27.5879 357.836 27.5879C356.762 27.5879 355.935 27.9818 355.355 28.7695C354.783 29.5508 354.49 30.6999 354.477 32.2168V33.4766C354.477 35.013 354.75 36.1849 355.297 36.9922C355.85 37.7995 356.658 38.2031 357.719 38.2031C358.689 38.2031 359.418 37.985 359.906 37.5488C360.395 37.1126 360.704 36.3867 360.834 35.3711H363.295ZM365.638 34.6191C365.638 33.584 365.843 32.653 366.253 31.8262C366.663 30.9928 367.239 30.3548 367.982 29.9121C368.724 29.4629 369.577 29.2383 370.54 29.2383C371.966 29.2383 373.122 29.6973 374.007 30.6152C374.899 31.5332 375.381 32.7507 375.452 34.2676L375.462 34.8242C375.462 35.8659 375.26 36.7969 374.857 37.6172C374.46 38.4375 373.887 39.0723 373.138 39.5215C372.396 39.9707 371.536 40.1953 370.56 40.1953C369.069 40.1953 367.874 39.7005 366.976 38.7109C366.084 37.7148 365.638 36.39 365.638 34.7363V34.6191ZM368.011 34.8242C368.011 35.9115 368.236 36.7643 368.685 37.3828C369.134 37.9948 369.759 38.3008 370.56 38.3008C371.361 38.3008 371.982 37.9883 372.425 37.3633C372.874 36.7383 373.099 35.8236 373.099 34.6191C373.099 33.5514 372.868 32.7051 372.405 32.0801C371.95 31.4551 371.328 31.1426 370.54 31.1426C369.765 31.1426 369.15 31.4518 368.695 32.0703C368.239 32.6823 368.011 33.6003 368.011 34.8242ZM377.61 38.1055C378.267 37.3698 378.707 36.6732 378.928 36.0156C379.156 35.3516 379.293 34.5052 379.338 33.4766L379.475 29.4336H386.809V38.1055H388.274V43.1445H385.911V40H379.133V43.1445H376.731L376.741 38.1055H377.61ZM380.393 38.1055H384.446V31.4746H381.78L381.711 33.4961C381.62 35.4362 381.181 36.9727 380.393 38.1055ZM395.421 40.1953C393.918 40.1953 392.697 39.7233 391.759 38.7793C390.828 37.8288 390.363 36.5658 390.363 34.9902V34.6973C390.363 33.6426 390.565 32.7018 390.968 31.875C391.379 31.0417 391.951 30.3939 392.687 29.9316C393.423 29.4694 394.243 29.2383 395.148 29.2383C396.587 29.2383 397.697 29.6973 398.478 30.6152C399.266 31.5332 399.66 32.832 399.66 34.5117V35.4688H392.755C392.827 36.3411 393.117 37.0312 393.625 37.5391C394.139 38.0469 394.783 38.3008 395.558 38.3008C396.645 38.3008 397.531 37.8613 398.214 36.9824L399.494 38.2031C399.071 38.8346 398.504 39.3262 397.795 39.6777C397.091 40.0228 396.3 40.1953 395.421 40.1953ZM395.138 31.1426C394.487 31.1426 393.96 31.3704 393.556 31.8262C393.159 32.2819 392.905 32.9167 392.795 33.7305H397.316V33.5547C397.264 32.7604 397.052 32.1615 396.681 31.7578C396.31 31.3477 395.796 31.1426 395.138 31.1426ZM411.563 34.8242C411.563 36.4583 411.192 37.7637 410.45 38.7402C409.708 39.7103 408.712 40.1953 407.462 40.1953C406.303 40.1953 405.375 39.8145 404.679 39.0527V44.0625H402.305V29.4336H404.493L404.591 30.5078C405.287 29.6615 406.235 29.2383 407.432 29.2383C408.721 29.2383 409.731 29.7201 410.46 30.6836C411.195 31.6406 411.563 32.972 411.563 34.6777V34.8242ZM409.2 34.6191C409.2 33.5645 408.988 32.7279 408.565 32.1094C408.149 31.4909 407.55 31.1816 406.768 31.1816C405.798 31.1816 405.102 31.582 404.679 32.3828V37.0703C405.108 37.8906 405.811 38.3008 406.788 38.3008C407.543 38.3008 408.132 37.998 408.555 37.3926C408.985 36.7806 409.2 35.8561 409.2 34.6191ZM423.525 35.752H422.266V40H419.893V35.752H418.643L416.211 40H413.301L416.807 34.502L413.486 29.4336H416.387L418.779 33.584H419.893V29.4336H422.266V33.584H423.389L425.791 29.4336H428.691L425.381 34.4727L428.906 40H425.957L423.525 35.752ZM437.773 29.4336H440.136V40H437.773V32.9492L433.632 40H431.269V29.4336H433.632V36.4844L437.773 29.4336ZM449.735 37.0801L452.86 29.4336H455.829V40H453.455V33.0078L450.545 40H448.934L446.014 32.9688V40H443.641V29.4336H446.629L449.735 37.0801ZM458.855 34.6191C458.855 33.584 459.06 32.653 459.47 31.8262C459.88 30.9928 460.457 30.3548 461.199 29.9121C461.941 29.4629 462.794 29.2383 463.757 29.2383C465.183 29.2383 466.339 29.6973 467.224 30.6152C468.116 31.5332 468.598 32.7507 468.67 34.2676L468.679 34.8242C468.679 35.8659 468.477 36.7969 468.074 37.6172C467.677 38.4375 467.104 39.0723 466.355 39.5215C465.613 39.9707 464.754 40.1953 463.777 40.1953C462.286 40.1953 461.091 39.7005 460.193 38.7109C459.301 37.7148 458.855 36.39 458.855 34.7363V34.6191ZM461.228 34.8242C461.228 35.9115 461.453 36.7643 461.902 37.3828C462.351 37.9948 462.976 38.3008 463.777 38.3008C464.578 38.3008 465.199 37.9883 465.642 37.3633C466.091 36.7383 466.316 35.8236 466.316 34.6191C466.316 33.5514 466.085 32.7051 465.623 32.0801C465.167 31.4551 464.545 31.1426 463.757 31.1426C462.983 31.1426 462.367 31.4518 461.912 32.0703C461.456 32.6823 461.228 33.6003 461.228 34.8242ZM476.139 40.1953C474.636 40.1953 473.415 39.7233 472.477 38.7793C471.546 37.8288 471.081 36.5658 471.081 34.9902V34.6973C471.081 33.6426 471.283 32.7018 471.686 31.875C472.096 31.0417 472.669 30.3939 473.405 29.9316C474.141 29.4694 474.961 29.2383 475.866 29.2383C477.305 29.2383 478.415 29.6973 479.196 30.6152C479.984 31.5332 480.378 32.832 480.378 34.5117V35.4688H473.473C473.545 36.3411 473.835 37.0312 474.343 37.5391C474.857 38.0469 475.501 38.3008 476.276 38.3008C477.363 38.3008 478.249 37.8613 478.932 36.9824L480.212 38.2031C479.789 38.8346 479.222 39.3262 478.512 39.6777C477.809 40.0228 477.018 40.1953 476.139 40.1953ZM475.856 31.1426C475.205 31.1426 474.678 31.3704 474.274 31.8262C473.877 32.2819 473.623 32.9167 473.512 33.7305H478.034V33.5547C477.982 32.7604 477.77 32.1615 477.399 31.7578C477.028 31.3477 476.514 31.1426 475.856 31.1426Z" fill="white"/>
<path d="M85.7344 40H83.2734V33.6816H76.916V40H74.4453V25.7812H76.916V31.6992H83.2734V25.7812H85.7344V40ZM95.548 40C95.4439 39.7982 95.3527 39.4694 95.2746 39.0137C94.5194 39.8014 93.5949 40.1953 92.5012 40.1953C91.44 40.1953 90.5741 39.8926 89.9035 39.2871C89.2329 38.6816 88.8977 37.9329 88.8977 37.041C88.8977 35.9147 89.3143 35.0521 90.1477 34.4531C90.9875 33.8477 92.1854 33.5449 93.7414 33.5449H95.1965V32.8516C95.1965 32.3047 95.0435 31.8685 94.7375 31.543C94.4315 31.2109 93.966 31.0449 93.341 31.0449C92.8007 31.0449 92.3579 31.1816 92.0129 31.4551C91.6678 31.722 91.4953 32.0638 91.4953 32.4805H89.1223C89.1223 31.901 89.3143 31.3607 89.6984 30.8594C90.0826 30.3516 90.6034 29.9544 91.2609 29.668C91.925 29.3815 92.6639 29.2383 93.4777 29.2383C94.7147 29.2383 95.701 29.5508 96.4367 30.1758C97.1724 30.7943 97.55 31.6667 97.5695 32.793V37.5586C97.5695 38.5091 97.703 39.2676 97.9699 39.834V40H95.548ZM92.9406 38.291C93.4094 38.291 93.8488 38.1771 94.259 37.9492C94.6757 37.7214 94.9882 37.4154 95.1965 37.0312V35.0391H93.9172C93.0383 35.0391 92.3775 35.1921 91.9348 35.498C91.4921 35.804 91.2707 36.237 91.2707 36.7969C91.2707 37.2526 91.4204 37.6172 91.7199 37.8906C92.0259 38.1576 92.4328 38.291 92.9406 38.291ZM108.858 32.3242C108.858 32.793 108.715 33.2259 108.428 33.623C108.148 34.0137 107.751 34.3262 107.237 34.5605C108.448 34.9837 109.053 35.8008 109.053 37.0117C109.053 37.9818 108.659 38.7565 107.871 39.3359C107.084 39.9089 106.029 40.1953 104.707 40.1953C103.9 40.1953 103.164 40.0618 102.5 39.7949C101.836 39.5215 101.319 39.1374 100.948 38.6426C100.577 38.1413 100.391 37.5488 100.391 36.8652H102.754C102.754 37.2949 102.946 37.6562 103.33 37.9492C103.715 38.2357 104.2 38.3789 104.786 38.3789C105.365 38.3789 105.824 38.2454 106.163 37.9785C106.508 37.7051 106.68 37.3503 106.68 36.9141C106.68 36.3997 106.53 36.0286 106.231 35.8008C105.931 35.5729 105.469 35.459 104.844 35.459H103.145V33.75H104.903C105.964 33.737 106.495 33.3008 106.495 32.4414C106.495 32.0117 106.342 31.6764 106.036 31.4355C105.73 31.1947 105.31 31.0742 104.776 31.0742C104.255 31.0742 103.815 31.2044 103.457 31.4648C103.099 31.7188 102.92 32.041 102.92 32.4316H100.557C100.557 31.5007 100.948 30.7389 101.729 30.1465C102.51 29.5475 103.503 29.248 104.707 29.248C106.016 29.248 107.035 29.515 107.764 30.0488C108.493 30.5827 108.858 31.3411 108.858 32.3242ZM112.05 40V29.4336H116.338C117.783 29.4336 118.883 29.6875 119.638 30.1953C120.393 30.6966 120.771 31.4193 120.771 32.3633C120.771 32.8516 120.618 33.291 120.312 33.6816C120.013 34.0658 119.567 34.362 118.974 34.5703C119.664 34.7135 120.211 35.0033 120.615 35.4395C121.018 35.8757 121.22 36.39 121.22 36.9824C121.22 37.9655 120.856 38.7142 120.127 39.2285C119.404 39.7428 118.362 40 117.002 40H112.05ZM114.423 35.498V38.125H117.021C118.239 38.125 118.847 37.6888 118.847 36.8164C118.847 35.9375 118.229 35.498 116.992 35.498H114.423ZM114.423 33.7988H116.377C117.724 33.7988 118.398 33.4017 118.398 32.6074C118.398 31.7741 117.76 31.3444 116.484 31.3184H114.423V33.7988ZM130.389 40C130.285 39.7982 130.194 39.4694 130.116 39.0137C129.361 39.8014 128.436 40.1953 127.343 40.1953C126.281 40.1953 125.415 39.8926 124.745 39.2871C124.074 38.6816 123.739 37.9329 123.739 37.041C123.739 35.9147 124.156 35.0521 124.989 34.4531C125.829 33.8477 127.027 33.5449 128.583 33.5449H130.038V32.8516C130.038 32.3047 129.885 31.8685 129.579 31.543C129.273 31.2109 128.807 31.0449 128.182 31.0449C127.642 31.0449 127.199 31.1816 126.854 31.4551C126.509 31.722 126.337 32.0638 126.337 32.4805H123.964C123.964 31.901 124.156 31.3607 124.54 30.8594C124.924 30.3516 125.445 29.9544 126.102 29.668C126.766 29.3815 127.505 29.2383 128.319 29.2383C129.556 29.2383 130.542 29.5508 131.278 30.1758C132.014 30.7943 132.391 31.6667 132.411 32.793V37.5586C132.411 38.5091 132.544 39.2676 132.811 39.834V40H130.389ZM127.782 38.291C128.251 38.291 128.69 38.1771 129.1 37.9492C129.517 37.7214 129.83 37.4154 130.038 37.0312V35.0391H128.759C127.88 35.0391 127.219 35.1921 126.776 35.498C126.333 35.804 126.112 36.237 126.112 36.7969C126.112 37.2526 126.262 37.6172 126.561 37.8906C126.867 38.1576 127.274 38.291 127.782 38.291ZM144.646 40H142.273V35.7324H138.162V40H135.789V29.4336H138.162V33.8379H142.273V29.4336H144.646V40ZM154.577 29.4336H156.941V40H154.577V32.9492L150.437 40H148.073V29.4336H150.437V36.4844L154.577 29.4336ZM164.918 40.1953C163.414 40.1953 162.194 39.7233 161.256 38.7793C160.325 37.8288 159.86 36.5658 159.86 34.9902V34.6973C159.86 33.6426 160.062 32.7018 160.465 31.875C160.875 31.0417 161.448 30.3939 162.184 29.9316C162.92 29.4694 163.74 29.2383 164.645 29.2383C166.084 29.2383 167.194 29.6973 167.975 30.6152C168.763 31.5332 169.157 32.832 169.157 34.5117V35.4688H162.252C162.324 36.3411 162.614 37.0312 163.121 37.5391C163.636 38.0469 164.28 38.3008 165.055 38.3008C166.142 38.3008 167.028 37.8613 167.711 36.9824L168.991 38.2031C168.567 38.8346 168.001 39.3262 167.291 39.6777C166.588 40.0228 165.797 40.1953 164.918 40.1953ZM164.635 31.1426C163.984 31.1426 163.457 31.3704 163.053 31.8262C162.656 32.2819 162.402 32.9167 162.291 33.7305H166.813V33.5547C166.761 32.7604 166.549 32.1615 166.178 31.7578C165.807 31.3477 165.293 31.1426 164.635 31.1426ZM185.903 31.3184H182.475V40H180.102V31.3184H176.714V29.4336H185.903V31.3184ZM192.318 40.1953C190.814 40.1953 189.594 39.7233 188.656 38.7793C187.725 37.8288 187.26 36.5658 187.26 34.9902V34.6973C187.26 33.6426 187.462 32.7018 187.865 31.875C188.275 31.0417 188.848 30.3939 189.584 29.9316C190.32 29.4694 191.14 29.2383 192.045 29.2383C193.484 29.2383 194.594 29.6973 195.375 30.6152C196.163 31.5332 196.557 32.832 196.557 34.5117V35.4688H189.652C189.724 36.3411 190.014 37.0312 190.521 37.5391C191.036 38.0469 191.68 38.3008 192.455 38.3008C193.542 38.3008 194.428 37.8613 195.111 36.9824L196.391 38.2031C195.967 38.8346 195.401 39.3262 194.691 39.6777C193.988 40.0228 193.197 40.1953 192.318 40.1953ZM192.035 31.1426C191.384 31.1426 190.857 31.3704 190.453 31.8262C190.056 32.2819 189.802 32.9167 189.691 33.7305H194.213V33.5547C194.161 32.7604 193.949 32.1615 193.578 31.7578C193.207 31.3477 192.693 31.1426 192.035 31.1426ZM206.243 31.3477H201.654V40H199.29V29.4336H206.243V31.3477ZM214.7 40C214.595 39.7982 214.504 39.4694 214.426 39.0137C213.671 39.8014 212.746 40.1953 211.653 40.1953C210.592 40.1953 209.726 39.8926 209.055 39.2871C208.385 38.6816 208.049 37.9329 208.049 37.041C208.049 35.9147 208.466 35.0521 209.299 34.4531C210.139 33.8477 211.337 33.5449 212.893 33.5449H214.348V32.8516C214.348 32.3047 214.195 31.8685 213.889 31.543C213.583 31.2109 213.118 31.0449 212.493 31.0449C211.952 31.0449 211.51 31.1816 211.164 31.4551C210.819 31.722 210.647 32.0638 210.647 32.4805H208.274C208.274 31.901 208.466 31.3607 208.85 30.8594C209.234 30.3516 209.755 29.9544 210.413 29.668C211.077 29.3815 211.816 29.2383 212.629 29.2383C213.866 29.2383 214.853 29.5508 215.588 30.1758C216.324 30.7943 216.702 31.6667 216.721 32.793V37.5586C216.721 38.5091 216.855 39.2676 217.121 39.834V40H214.7ZM212.092 38.291C212.561 38.291 213 38.1771 213.411 37.9492C213.827 37.7214 214.14 37.4154 214.348 37.0312V35.0391H213.069C212.19 35.0391 211.529 35.1921 211.086 35.498C210.644 35.804 210.422 36.237 210.422 36.7969C210.422 37.2526 210.572 37.6172 210.871 37.8906C211.177 38.1576 211.584 38.291 212.092 38.291Z" fill="white"/>
<line x1="211.5" y1="117.992" x2="211.813" y2="53.9927" stroke="#FF6603" stroke-width="3"/>
<line x1="212.5" y1="231.992" x2="212.691" y2="192.993" stroke="#FF6603" stroke-width="3"/>
<line x1="493.5" y1="234.992" x2="493.691" y2="195.993" stroke="#FF6603" stroke-width="3"/>
<line x1="349.5" y1="120.992" x2="349.823" y2="54.9927" stroke="#FF6603" stroke-width="3"/>
<rect x="110" y="232" width="205" height="43" rx="5" fill="#FF6603"/>
<rect x="392" y="232" width="205" height="43" rx="5" fill="#FF6603"/>
<path d="M410.697 249.658C410.697 249.02 410.456 248.512 409.974 248.135C409.492 247.757 408.838 247.568 408.011 247.568C407.302 247.568 406.709 247.757 406.234 248.135C405.759 248.506 405.521 248.988 405.521 249.58H403.06C403.06 248.805 403.275 248.115 403.705 247.51C404.134 246.904 404.73 246.436 405.492 246.104C406.254 245.765 407.093 245.596 408.011 245.596C409.639 245.596 410.902 245.951 411.8 246.66C412.705 247.37 413.158 248.363 413.158 249.639C413.158 250.283 412.963 250.876 412.572 251.416C412.181 251.956 411.634 252.383 410.931 252.695C411.726 252.969 412.331 253.385 412.748 253.945C413.171 254.499 413.382 255.189 413.382 256.016C413.382 257.292 412.894 258.307 411.918 259.062C410.941 259.811 409.639 260.186 408.011 260.186C407.009 260.186 406.101 260.007 405.287 259.648C404.479 259.29 403.871 258.802 403.461 258.184C403.057 257.565 402.855 256.855 402.855 256.055H405.316C405.316 256.667 405.57 257.184 406.078 257.607C406.586 258.024 407.23 258.232 408.011 258.232C408.884 258.232 409.584 258.027 410.111 257.617C410.645 257.207 410.912 256.673 410.912 256.016C410.912 255.215 410.677 254.635 410.209 254.277C409.746 253.913 409.066 253.73 408.168 253.73H406.498V251.777H408.08C409.824 251.777 410.697 251.071 410.697 249.658ZM422.561 260C422.457 259.798 422.366 259.469 422.288 259.014C421.533 259.801 420.608 260.195 419.514 260.195C418.453 260.195 417.587 259.893 416.917 259.287C416.246 258.682 415.911 257.933 415.911 257.041C415.911 255.915 416.328 255.052 417.161 254.453C418.001 253.848 419.199 253.545 420.755 253.545H422.21V252.852C422.21 252.305 422.057 251.868 421.751 251.543C421.445 251.211 420.979 251.045 420.354 251.045C419.814 251.045 419.371 251.182 419.026 251.455C418.681 251.722 418.509 252.064 418.509 252.48H416.136C416.136 251.901 416.328 251.361 416.712 250.859C417.096 250.352 417.617 249.954 418.274 249.668C418.938 249.382 419.677 249.238 420.491 249.238C421.728 249.238 422.714 249.551 423.45 250.176C424.186 250.794 424.563 251.667 424.583 252.793V257.559C424.583 258.509 424.716 259.268 424.983 259.834V260H422.561ZM419.954 258.291C420.423 258.291 420.862 258.177 421.272 257.949C421.689 257.721 422.001 257.415 422.21 257.031V255.039H420.93C420.052 255.039 419.391 255.192 418.948 255.498C418.505 255.804 418.284 256.237 418.284 256.797C418.284 257.253 418.434 257.617 418.733 257.891C419.039 258.158 419.446 258.291 419.954 258.291ZM431.623 255.82H430.422V260H428.049V249.434H430.422V253.652H431.467L434.387 249.434H437.316L433.498 254.492L437.639 260H434.553L431.623 255.82ZM448.995 254.824C448.995 256.458 448.624 257.764 447.882 258.74C447.14 259.71 446.144 260.195 444.894 260.195C443.735 260.195 442.807 259.814 442.111 259.053V264.062H439.738V249.434H441.925L442.023 250.508C442.719 249.661 443.667 249.238 444.864 249.238C446.154 249.238 447.163 249.72 447.892 250.684C448.627 251.641 448.995 252.972 448.995 254.678V254.824ZM446.632 254.619C446.632 253.564 446.42 252.728 445.997 252.109C445.581 251.491 444.982 251.182 444.2 251.182C443.23 251.182 442.534 251.582 442.111 252.383V257.07C442.54 257.891 443.243 258.301 444.22 258.301C444.975 258.301 445.564 257.998 445.988 257.393C446.417 256.781 446.632 255.856 446.632 254.619ZM454.366 252.793H456.69C457.556 252.793 458.311 252.943 458.955 253.242C459.6 253.542 460.088 253.962 460.42 254.502C460.759 255.042 460.928 255.671 460.928 256.387C460.928 257.474 460.544 258.346 459.776 259.004C459.008 259.661 457.985 259.993 456.709 260H451.993V249.434H454.366V252.793ZM465.059 260H462.686V249.434H465.059V260ZM454.366 254.697V258.105H456.68C457.26 258.105 457.715 257.962 458.047 257.676C458.386 257.383 458.555 256.969 458.555 256.436C458.555 255.902 458.389 255.482 458.057 255.176C457.732 254.863 457.289 254.704 456.729 254.697H454.366ZM468.886 260V249.434H473.173C474.619 249.434 475.719 249.688 476.474 250.195C477.229 250.697 477.607 251.419 477.607 252.363C477.607 252.852 477.454 253.291 477.148 253.682C476.849 254.066 476.403 254.362 475.81 254.57C476.5 254.714 477.047 255.003 477.451 255.439C477.854 255.876 478.056 256.39 478.056 256.982C478.056 257.965 477.692 258.714 476.963 259.229C476.24 259.743 475.198 260 473.838 260H468.886ZM471.259 255.498V258.125H473.857C475.074 258.125 475.683 257.689 475.683 256.816C475.683 255.938 475.065 255.498 473.828 255.498H471.259ZM471.259 253.799H473.213C474.56 253.799 475.234 253.402 475.234 252.607C475.234 251.774 474.596 251.344 473.32 251.318H471.259V253.799ZM487.225 260C487.121 259.798 487.03 259.469 486.952 259.014C486.197 259.801 485.272 260.195 484.179 260.195C483.117 260.195 482.251 259.893 481.581 259.287C480.91 258.682 480.575 257.933 480.575 257.041C480.575 255.915 480.992 255.052 481.825 254.453C482.665 253.848 483.863 253.545 485.419 253.545H486.874V252.852C486.874 252.305 486.721 251.868 486.415 251.543C486.109 251.211 485.643 251.045 485.018 251.045C484.478 251.045 484.035 251.182 483.69 251.455C483.345 251.722 483.173 252.064 483.173 252.48H480.8C480.8 251.901 480.992 251.361 481.376 250.859C481.76 250.352 482.281 249.954 482.938 249.668C483.602 249.382 484.341 249.238 485.155 249.238C486.392 249.238 487.378 249.551 488.114 250.176C488.85 250.794 489.227 251.667 489.247 252.793V257.559C489.247 258.509 489.38 259.268 489.647 259.834V260H487.225ZM484.618 258.291C485.087 258.291 485.526 258.177 485.936 257.949C486.353 257.721 486.665 257.415 486.874 257.031V255.039H485.595C484.716 255.039 484.055 255.192 483.612 255.498C483.169 255.804 482.948 256.237 482.948 256.797C482.948 257.253 483.098 257.617 483.397 257.891C483.703 258.158 484.11 258.291 484.618 258.291ZM495.105 253.682H497.098C497.273 252.334 497.794 251.257 498.66 250.449C499.526 249.642 500.62 249.238 501.941 249.238C503.367 249.238 504.523 249.697 505.408 250.615C506.3 251.533 506.782 252.751 506.854 254.268L506.863 254.824C506.863 255.866 506.661 256.797 506.258 257.617C505.861 258.438 505.288 259.072 504.539 259.521C503.797 259.971 502.938 260.195 501.961 260.195C500.594 260.195 499.471 259.772 498.592 258.926C497.719 258.079 497.215 256.966 497.078 255.586H495.105V260H492.732V249.434H495.105V253.682ZM499.412 254.824C499.412 255.911 499.637 256.764 500.086 257.383C500.535 257.995 501.16 258.301 501.961 258.301C502.762 258.301 503.383 257.988 503.826 257.363C504.269 256.738 504.49 255.824 504.49 254.619C504.49 253.532 504.259 252.682 503.797 252.07C503.341 251.452 502.723 251.143 501.941 251.143C501.167 251.143 500.551 251.452 500.096 252.07C499.64 252.682 499.412 253.6 499.412 254.824ZM512.009 249.434V258.105H515.31V249.434H517.683V258.105H520.993V249.434H523.357V258.105H525.163L524.968 263.135H522.81V260H509.636V249.434H512.009ZM534.323 249.434H536.686V260H534.323V252.949L530.182 260H527.819V249.434H530.182V256.484L534.323 249.434ZM546.607 249.434H548.97V260H546.607V252.949L542.466 260H540.103V249.434H542.466V256.484L546.607 249.434ZM547.72 245.381C547.72 246.201 547.434 246.865 546.861 247.373C546.288 247.881 545.523 248.135 544.566 248.135C543.609 248.135 542.844 247.881 542.271 247.373C541.698 246.865 541.412 246.201 541.412 245.381H543.189C543.189 245.811 543.309 246.146 543.55 246.387C543.798 246.621 544.136 246.738 544.566 246.738C544.996 246.738 545.331 246.621 545.572 246.387C545.813 246.146 545.933 245.811 545.933 245.381H547.72ZM566.391 251.318H562.963V260H560.59V251.318H557.201V249.434H566.391V251.318ZM572.806 260.195C571.302 260.195 570.081 259.723 569.144 258.779C568.213 257.829 567.747 256.566 567.747 254.99V254.697C567.747 253.643 567.949 252.702 568.353 251.875C568.763 251.042 569.336 250.394 570.071 249.932C570.807 249.469 571.627 249.238 572.532 249.238C573.971 249.238 575.081 249.697 575.862 250.615C576.65 251.533 577.044 252.832 577.044 254.512V255.469H570.14C570.211 256.341 570.501 257.031 571.009 257.539C571.523 258.047 572.168 258.301 572.943 258.301C574.03 258.301 574.915 257.861 575.599 256.982L576.878 258.203C576.455 258.835 575.889 259.326 575.179 259.678C574.476 260.023 573.685 260.195 572.806 260.195ZM572.523 251.143C571.872 251.143 571.344 251.37 570.941 251.826C570.543 252.282 570.29 252.917 570.179 253.73H574.7V253.555C574.648 252.76 574.437 252.161 574.066 251.758C573.695 251.348 573.18 251.143 572.523 251.143ZM586.731 251.348H582.141V260H579.778V249.434H586.731V251.348Z" fill="white"/>
<path d="M132.035 253.262C132.035 254.655 131.794 255.879 131.312 256.934C130.83 257.982 130.14 258.789 129.242 259.355C128.35 259.915 127.321 260.195 126.156 260.195C125.004 260.195 123.975 259.915 123.07 259.355C122.171 258.789 121.475 257.985 120.98 256.943C120.492 255.902 120.244 254.701 120.238 253.34V252.539C120.238 251.152 120.482 249.928 120.97 248.867C121.465 247.806 122.158 246.995 123.05 246.436C123.949 245.869 124.977 245.586 126.136 245.586C127.295 245.586 128.321 245.866 129.213 246.426C130.111 246.979 130.804 247.78 131.293 248.828C131.781 249.87 132.028 251.084 132.035 252.471V253.262ZM129.564 252.52C129.564 250.944 129.265 249.736 128.666 248.896C128.073 248.057 127.23 247.637 126.136 247.637C125.069 247.637 124.232 248.057 123.627 248.896C123.028 249.73 122.722 250.911 122.709 252.441V253.262C122.709 254.824 123.011 256.032 123.617 256.885C124.229 257.738 125.075 258.164 126.156 258.164C127.25 258.164 128.089 257.747 128.675 256.914C129.268 256.081 129.564 254.863 129.564 253.262V252.52ZM143.382 251.318H139.954V260H137.581V251.318H134.192V249.434H143.382V251.318ZM149.523 255.82H148.322V260H145.949V249.434H148.322V253.652H149.367L152.287 249.434H155.217L151.398 254.492L155.539 260H152.453L149.523 255.82ZM166.896 254.824C166.896 256.458 166.525 257.764 165.782 258.74C165.04 259.71 164.044 260.195 162.794 260.195C161.635 260.195 160.708 259.814 160.011 259.053V264.062H157.638V249.434H159.825L159.923 250.508C160.62 249.661 161.567 249.238 162.765 249.238C164.054 249.238 165.063 249.72 165.792 250.684C166.528 251.641 166.896 252.972 166.896 254.678V254.824ZM164.532 254.619C164.532 253.564 164.321 252.728 163.898 252.109C163.481 251.491 162.882 251.182 162.101 251.182C161.131 251.182 160.434 251.582 160.011 252.383V257.07C160.441 257.891 161.144 258.301 162.12 258.301C162.876 258.301 163.465 257.998 163.888 257.393C164.318 256.781 164.532 255.856 164.532 254.619ZM172.266 252.793H174.59C175.456 252.793 176.211 252.943 176.856 253.242C177.5 253.542 177.989 253.962 178.321 254.502C178.659 255.042 178.829 255.671 178.829 256.387C178.829 257.474 178.444 258.346 177.676 259.004C176.908 259.661 175.886 259.993 174.61 260H169.893V249.434H172.266V252.793ZM182.959 260H180.586V249.434H182.959V260ZM172.266 254.697V258.105H174.58C175.16 258.105 175.616 257.962 175.948 257.676C176.286 257.383 176.455 256.969 176.455 256.436C176.455 255.902 176.289 255.482 175.957 255.176C175.632 254.863 175.189 254.704 174.629 254.697H172.266ZM186.787 260V249.434H191.074C192.519 249.434 193.619 249.688 194.375 250.195C195.13 250.697 195.507 251.419 195.507 252.363C195.507 252.852 195.354 253.291 195.048 253.682C194.749 254.066 194.303 254.362 193.711 254.57C194.401 254.714 194.948 255.003 195.351 255.439C195.755 255.876 195.957 256.39 195.957 256.982C195.957 257.965 195.592 258.714 194.863 259.229C194.14 259.743 193.099 260 191.738 260H186.787ZM189.16 255.498V258.125H191.757C192.975 258.125 193.584 257.689 193.584 256.816C193.584 255.938 192.965 255.498 191.728 255.498H189.16ZM189.16 253.799H191.113C192.461 253.799 193.134 253.402 193.134 252.607C193.134 251.774 192.496 251.344 191.22 251.318H189.16V253.799ZM205.126 260C205.022 259.798 204.93 259.469 204.852 259.014C204.097 259.801 203.173 260.195 202.079 260.195C201.018 260.195 200.152 259.893 199.481 259.287C198.811 258.682 198.475 257.933 198.475 257.041C198.475 255.915 198.892 255.052 199.725 254.453C200.565 253.848 201.763 253.545 203.319 253.545H204.774V252.852C204.774 252.305 204.621 251.868 204.315 251.543C204.009 251.211 203.544 251.045 202.919 251.045C202.378 251.045 201.936 251.182 201.591 251.455C201.246 251.722 201.073 252.064 201.073 252.48H198.7C198.7 251.901 198.892 251.361 199.276 250.859C199.66 250.352 200.181 249.954 200.839 249.668C201.503 249.382 202.242 249.238 203.055 249.238C204.292 249.238 205.279 249.551 206.014 250.176C206.75 250.794 207.128 251.667 207.147 252.793V257.559C207.147 258.509 207.281 259.268 207.548 259.834V260H205.126ZM202.518 258.291C202.987 258.291 203.427 258.177 203.837 257.949C204.253 257.721 204.566 257.415 204.774 257.031V255.039H203.495C202.616 255.039 201.955 255.192 201.513 255.498C201.07 255.804 200.848 256.237 200.848 256.797C200.848 257.253 200.998 257.617 201.298 257.891C201.604 258.158 202.011 258.291 202.518 258.291ZM213.006 253.682H214.998C215.174 252.334 215.695 251.257 216.561 250.449C217.426 249.642 218.52 249.238 219.842 249.238C221.268 249.238 222.423 249.697 223.309 250.615C224.201 251.533 224.682 252.751 224.754 254.268L224.764 254.824C224.764 255.866 224.562 256.797 224.158 257.617C223.761 258.438 223.188 259.072 222.439 259.521C221.697 259.971 220.838 260.195 219.861 260.195C218.494 260.195 217.371 259.772 216.492 258.926C215.62 258.079 215.115 256.966 214.979 255.586H213.006V260H210.633V249.434H213.006V253.682ZM217.312 254.824C217.312 255.911 217.537 256.764 217.986 257.383C218.436 257.995 219.061 258.301 219.861 258.301C220.662 258.301 221.284 257.988 221.727 257.363C222.169 256.738 222.391 255.824 222.391 254.619C222.391 253.532 222.16 252.682 221.697 252.07C221.242 251.452 220.623 251.143 219.842 251.143C219.067 251.143 218.452 251.452 217.996 252.07C217.54 252.682 217.312 253.6 217.312 254.824ZM229.909 249.434V258.105H233.21V249.434H235.583V258.105H238.894V249.434H241.257V258.105H243.064L242.868 263.135H240.71V260H227.536V249.434H229.909ZM252.223 249.434H254.586V260H252.223V252.949L248.082 260H245.719V249.434H248.082V256.484L252.223 249.434ZM264.507 249.434H266.871V260H264.507V252.949L260.367 260H258.004V249.434H260.367V256.484L264.507 249.434ZM265.621 245.381C265.621 246.201 265.334 246.865 264.761 247.373C264.188 247.881 263.423 248.135 262.466 248.135C261.509 248.135 260.744 247.881 260.171 247.373C259.599 246.865 259.312 246.201 259.312 245.381H261.089C261.089 245.811 261.21 246.146 261.451 246.387C261.698 246.621 262.037 246.738 262.466 246.738C262.896 246.738 263.231 246.621 263.472 246.387C263.713 246.146 263.834 245.811 263.834 245.381H265.621ZM284.291 251.318H280.863V260H278.49V251.318H275.102V249.434H284.291V251.318ZM290.706 260.195C289.202 260.195 287.982 259.723 287.044 258.779C286.113 257.829 285.648 256.566 285.648 254.99V254.697C285.648 253.643 285.849 252.702 286.253 251.875C286.663 251.042 287.236 250.394 287.972 249.932C288.708 249.469 289.528 249.238 290.433 249.238C291.872 249.238 292.982 249.697 293.763 250.615C294.551 251.533 294.945 252.832 294.945 254.512V255.469H288.04C288.112 256.341 288.402 257.031 288.909 257.539C289.424 258.047 290.068 258.301 290.843 258.301C291.93 258.301 292.816 257.861 293.499 256.982L294.779 258.203C294.355 258.835 293.789 259.326 293.079 259.678C292.376 260.023 291.585 260.195 290.706 260.195ZM290.423 251.143C289.772 251.143 289.245 251.37 288.841 251.826C288.444 252.282 288.19 252.917 288.079 253.73H292.601V253.555C292.549 252.76 292.337 252.161 291.966 251.758C291.595 251.348 291.081 251.143 290.423 251.143ZM304.631 251.348H300.041V260H297.678V249.434H304.631V251.348Z" fill="white"/>
<defs>
<filter id="filter0_d" x="42" y="99" width="645" height="130" filterUnits="userSpaceOnUse" color-interpolation-filters="sRGB">
<feFlood flood-opacity="0" result="BackgroundImageFix"/>
<feColorMatrix in="SourceAlpha" type="matrix" values="0 0 0 0 0 0 0 0 0 0 0 0 0 0 0 0 0 0 127 0"/>
<feOffset dx="5" dy="5"/>
<feGaussianBlur stdDeviation="5"/>
<feColorMatrix type="matrix" values="0 0 0 0 0 0 0 0 0 0 0 0 0 0 0 0 0 0 0.25 0"/>
<feBlend mode="normal" in2="BackgroundImageFix" result="effect1_dropShadow"/>
<feBlend mode="normal" in="SourceGraphic" in2="effect1_dropShadow" result="shape"/>
</filter>
</defs>
</svg>
